<svg width="46" height="45" viewBox="0 0 46 45" fill="none" xmlns="http://www.w3.org/2000/svg">
<rect width="46" height="45" rx="5" fill="#FDECE7"/>
<path d="M14.1699 18.4399L22.9999 23.5499L31.7699 18.4699" stroke="#1E221B" stroke-width="1.5" stroke-linecap="round" stroke-linejoin="round"/>
<path d="M23 32.61V23.54" stroke="#1E221B" stroke-width="1.5" stroke-linecap="round" stroke-linejoin="round"/>
<path d="M20.9306 13.48L15.5906 16.45C14.3806 17.12 13.3906 18.8 13.3906 20.18V25.83C13.3906 27.21 14.3806 28.89 15.5906 29.56L20.9306 32.53C22.0706 33.16 23.9406 33.16 25.0806 32.53L30.4206 29.56C31.6306 28.89 32.6206 27.21 32.6206 25.83V20.18C32.6206 18.8 31.6306 17.12 30.4206 16.45L25.0806 13.48C23.9306 12.84 22.0706 12.84 20.9306 13.48Z" stroke="#1E221B" stroke-width="1.5" stroke-linecap="round" stroke-linejoin="round"/>
<path d="M27.9998 24.2401V20.5801L18.5098 15.1001" stroke="#1E221B" stroke-width="1.5" stroke-linecap="round" stroke-linejoin="round"/>
</svg>
