<svg width="24" height="25" viewBox="0 0 24 25" fill="none" xmlns="http://www.w3.org/2000/svg">
<path d="M17.45 23.344C16.32 23.344 15.13 23.074 13.9 22.554C12.7 22.044 11.49 21.344 10.31 20.494C9.14 19.634 8.01 18.674 6.94 17.624C5.88 16.554 4.92 15.424 4.07 14.264C3.21 13.064 2.52 11.864 2.03 10.704C1.51 9.46399 1.25 8.26399 1.25 7.13399C1.25 6.35399 1.39 5.61399 1.66 4.92399C1.94 4.21399 2.39 3.55399 3 2.98399C3.77 2.22399 4.65 1.84399 5.59 1.84399C5.98 1.84399 6.38 1.93399 6.72 2.09399C7.11 2.27399 7.44 2.54399 7.68 2.90399L10 6.17399C10.21 6.46399 10.37 6.74399 10.48 7.02399C10.61 7.32399 10.68 7.62399 10.68 7.91399C10.68 8.29399 10.57 8.66399 10.36 9.01399C10.21 9.28399 9.98 9.57399 9.69 9.86399L9.01 10.574C9.02 10.604 9.03 10.624 9.04 10.644C9.16 10.854 9.4 11.214 9.86 11.754C10.35 12.314 10.81 12.824 11.27 13.294C11.86 13.874 12.35 14.334 12.81 14.714C13.38 15.194 13.75 15.434 13.97 15.544L13.95 15.594L14.68 14.874C14.99 14.564 15.29 14.334 15.58 14.184C16.13 13.844 16.83 13.784 17.53 14.074C17.79 14.184 18.07 14.334 18.37 14.544L21.69 16.904C22.06 17.154 22.33 17.474 22.49 17.854C22.64 18.234 22.71 18.584 22.71 18.934C22.71 19.414 22.6 19.894 22.39 20.344C22.18 20.794 21.92 21.184 21.59 21.544C21.02 22.174 20.4 22.624 19.68 22.914C18.99 23.194 18.24 23.344 17.45 23.344ZM5.59 3.34399C5.04 3.34399 4.53 3.58399 4.04 4.06399C3.58 4.49399 3.26 4.96399 3.06 5.47399C2.85 5.99399 2.75 6.54399 2.75 7.13399C2.75 8.06399 2.97 9.07399 3.41 10.114C3.86 11.174 4.49 12.274 5.29 13.374C6.09 14.474 7 15.544 8 16.554C9 17.544 10.08 18.464 11.19 19.274C12.27 20.064 13.38 20.704 14.48 21.164C16.19 21.894 17.79 22.064 19.11 21.514C19.62 21.304 20.07 20.984 20.48 20.524C20.71 20.274 20.89 20.004 21.04 19.684C21.16 19.434 21.22 19.174 21.22 18.914C21.22 18.754 21.19 18.594 21.11 18.414C21.08 18.354 21.02 18.244 20.83 18.114L17.51 15.754C17.31 15.614 17.13 15.514 16.96 15.444C16.74 15.354 16.65 15.264 16.31 15.474C16.11 15.574 15.93 15.724 15.73 15.924L14.97 16.674C14.58 17.054 13.98 17.144 13.52 16.974L13.25 16.854C12.84 16.634 12.36 16.294 11.83 15.844C11.35 15.434 10.83 14.954 10.2 14.334C9.71 13.834 9.22 13.304 8.71 12.714C8.24 12.164 7.9 11.694 7.69 11.304L7.57 11.004C7.51 10.774 7.49 10.644 7.49 10.504C7.49 10.144 7.62 9.82399 7.87 9.57399L8.62 8.79399C8.82 8.59399 8.97 8.40399 9.07 8.23399C9.15 8.10399 9.18 7.99399 9.18 7.89399C9.18 7.81399 9.15 7.69399 9.1 7.57399C9.03 7.41399 8.92 7.23399 8.78 7.04399L6.46 3.76399C6.36 3.62399 6.24 3.52399 6.09 3.45399C5.93 3.38399 5.76 3.34399 5.59 3.34399ZM13.95 15.604L13.79 16.284L14.06 15.584C14.01 15.574 13.97 15.584 13.95 15.604Z" fill="#292D32"/>
<path d="M18.5 10.344C18.09 10.344 17.75 10.004 17.75 9.59399C17.75 9.23399 17.39 8.48399 16.79 7.84399C16.2 7.21399 15.55 6.84399 15 6.84399C14.59 6.84399 14.25 6.50399 14.25 6.09399C14.25 5.68399 14.59 5.34399 15 5.34399C15.97 5.34399 16.99 5.86399 17.88 6.81399C18.71 7.70399 19.25 8.79399 19.25 9.59399C19.25 10.004 18.91 10.344 18.5 10.344Z" fill="#292D32"/>
<path d="M22 10.344C21.59 10.344 21.25 10.004 21.25 9.59399C21.25 6.14399 18.45 3.34399 15 3.34399C14.59 3.34399 14.25 3.00399 14.25 2.59399C14.25 2.18399 14.59 1.84399 15 1.84399C19.27 1.84399 22.75 5.32399 22.75 9.59399C22.75 10.004 22.41 10.344 22 10.344Z" fill="#292D32"/>
</svg>
