<svg width="46" height="45" viewBox="0 0 46 45" fill="none" xmlns="http://www.w3.org/2000/svg">
<rect width="46" height="45" rx="5" fill="#FDECE7"/>
<path d="M20.1605 21.87C20.0605 21.86 19.9405 21.86 19.8305 21.87C17.4505 21.79 15.5605 19.84 15.5605 17.44C15.5605 14.99 17.5405 13 20.0005 13C22.4505 13 24.4405 14.99 24.4405 17.44C24.4305 19.84 22.5405 21.79 20.1605 21.87Z" stroke="#1E221B" stroke-width="1.5" stroke-linecap="round" stroke-linejoin="round"/>
<path d="M27.4093 15C29.3493 15 30.9093 16.57 30.9093 18.5C30.9093 20.39 29.4093 21.93 27.5393 22C27.4593 21.99 27.3693 21.99 27.2793 22" stroke="#1E221B" stroke-width="1.5" stroke-linecap="round" stroke-linejoin="round"/>
<path d="M15.1607 25.56C12.7407 27.18 12.7407 29.82 15.1607 31.43C17.9107 33.27 22.4207 33.27 25.1707 31.43C27.5907 29.81 27.5907 27.17 25.1707 25.56C22.4307 23.73 17.9207 23.73 15.1607 25.56Z" stroke="#1E221B" stroke-width="1.5" stroke-linecap="round" stroke-linejoin="round"/>
<path d="M29.3398 31C30.0598 30.85 30.7398 30.56 31.2998 30.13C32.8598 28.96 32.8598 27.03 31.2998 25.86C30.7498 25.44 30.0798 25.16 29.3698 25" stroke="#1E221B" stroke-width="1.5" stroke-linecap="round" stroke-linejoin="round"/>
</svg>
