<svg width="1201" height="200" viewBox="0 0 1201 200" fill="none" xmlns="http://www.w3.org/2000/svg">
<path d="M31.1766 92.0912C39.0385 95.3052 53.1315 106.557 46.6084 125.853C43.041 136.406 30.7613 145.196 14.6132 147.127C-1.53484 149.058 -17.0174 146.907 -24.583 129.026C-26.7339 123.942 -26.4168 113.474 -18.4782 102.658C-9.59781 90.5593 -5.17251 93.8272 -4.79842 94.9695M36.0575 106.107C39.5659 110.35 43.5543 121.671 31.4409 133.008M27.7893 135.225C27.1241 136.611 24.6985 139.156 20.318 138.255" stroke="#3E1F01"/>
<path d="M11.8855 91.551C12.8038 89.3047 16.488 85.3746 23.8785 87.6243C31.269 89.8739 33.8846 88.92 34.2685 88.1618C31.6929 91.437 24.4751 97.3802 16.2085 94.9504L11.8855 91.551ZM11.8855 91.551C13.5249 88.3875 16.0175 81.4425 12.8732 78.97C10.5977 80.785 5.92858 85.2127 5.45548 88.4027L5.48253 91.6044M11.8855 91.551C9.8955 89.2786 6.65202 90.1477 5.48253 91.6044M11.8855 91.551C15.3386 93.6302 26.0344 102.677 26.0344 102.677C19.8102 105.416 12.7898 100.107 10.0576 97.1104M11.8855 91.551C12.4776 94.0821 11.8754 95.2361 10.0576 97.1104M5.48253 91.6044C4.34927 93.0455 1.22343 95.8881 -2.21384 95.7294M5.48253 91.6044C-0.916459 82.7559 -15.577 85.221 -14.932 87.6364C-14.2871 90.0518 -6.51043 95.5311 -2.21384 95.7294M5.48253 91.6044C4.15346 93.3156 0.753479 96.5363 -2.21384 95.7294M5.48253 91.6044C2.51545 95.3775 5.21816 97.3333 6.9404 97.8395M-2.21384 95.7294C-3.75021 98.7618 -7.38467 104.894 -9.63155 105.162C-12.4402 105.498 5.31502 104.83 6.9404 97.8395M6.9404 97.8395C8.52951 98.108 9.17324 97.8906 10.0576 97.1104" stroke="#3E1F01"/>
<path d="M77.7552 86.5497C78.8104 84.7716 79.5856 83.5958 79.962 83.2395C81.6575 81.6346 84.8619 78.1749 89.9328 80.4848C92.1094 81.4764 90.706 72.5797 91.1884 66.902L96.6329 67.1865C95.8223 70.5107 94.264 76.9988 94.5159 76.3568C94.7679 75.7148 97.6561 70.2426 99.0687 67.5867L104.113 70.307L96.6369 77.5595L101.163 74.5203L103.629 79.5626L94.9486 83.7495C96.7546 85.7547 99.5419 90.9229 96.2426 95.5548C95.2687 96.9221 92.6973 100.018 89.2762 103.949M77.7552 86.5497C79.944 88.9798 84.7056 93.8055 86.2414 93.6674M77.7552 86.5497C75.298 90.6903 71.3227 98.0976 67.3305 106.031M80.5409 98.283C82.7151 100.505 87.5061 104.749 89.2762 103.949M89.2762 103.949C85.5485 108.233 80.812 113.509 76.0338 118.624M74.1233 100.95C75.6713 102.669 79.2602 106.078 81.2316 105.962M67.3305 106.031C68.6981 107.566 71.9264 110.608 73.8977 110.492M67.3305 106.031C64.5889 111.479 61.8393 117.175 59.5679 122.232M76.0338 118.624C74.3582 118.684 70.5538 118.07 68.7417 115.136M76.0338 118.624C71.2326 123.764 66.3893 128.741 62.4853 132.384M59.5679 122.232C55.5381 131.204 53.0136 138.163 54.7098 138.152C55.8608 138.144 58.7412 135.877 62.4853 132.384M59.5679 122.232C60.4494 123.211 62.5447 125.076 63.8741 124.709M59.0329 128.551C59.9963 130.004 62.0354 132.806 62.4853 132.384" stroke="#3E1F01" stroke-width="0.771018" stroke-linecap="round"/>
<path d="M21.8727 -4.48381C21.8727 -1.48381 15.8727 3.51619 15.8727 0.516193C15.8727 -1.88381 9.87269 -3.81714 6.87269 -4.48381C3.37234 -5.4845 -4.12695 -2.48364 -2.12695 7.01636C-0.126953 16.5164 15.8727 14.0164 25.873 11.0164C27.3206 10.5821 28.6739 10.6822 29.9329 11.1709M21.8727 -4.48381C21.8727 -7.48381 7.87269 -13.9838 2.87269 -13.4838C0.66956 -13.2635 -4.2517 -15.9554 -8.12695 -20.0198M21.8727 -4.48381L31.373 -9.98364M-8.12695 -20.0198C-13.0466 -25.1795 -16.2804 -32.551 -10.1273 -38.9837C0.872695 -50.4837 7.8734 -42.9837 11.873 -38.9837C13.1354 -37.7212 14.4477 -35.4127 15.8727 -32.7342M-8.12695 -20.0198L0.873047 -28.4836M6.87269 -24.4836L15.8727 -32.7342M15.8727 -32.7342C18.9625 -26.9263 22.5824 -19.3788 27.373 -16.9836C31.8847 -14.7279 30.373 -21.8187 29.9329 -28.4836M11.873 -14.9836L15.8727 -21.4836M29.9329 -28.4836C29.6901 -32.1597 29.7734 -35.7062 31.373 -37.4836C35.873 -42.4836 46.873 -39.9836 46.873 -32.4836C46.873 -28.6873 46.7449 -21.8165 47.202 -14.9836M29.9329 -28.4836H40.373M35.373 -16.9836L47.202 -14.9836M47.202 -14.9836C47.6479 -8.31743 48.6508 -1.68735 50.873 2.01636C55.373 9.51636 64.373 19.5164 58.873 26.0164C53.373 32.5164 43.373 30.5164 42.373 30.5164C41.5178 30.5164 37.3713 14.0588 29.9329 11.1709M29.9329 11.1709L37.873 5.01636M42.373 18.5164C45.873 17.6315 52.973 15.3927 53.373 13.5164" stroke="#3E1F01" stroke-linecap="round"/>
<path d="M-12.7903 24.6463C-32.7903 27.6463 -22.2903 49.6463 -16.7903 53.6463C-12.3903 56.8463 -10.6236 64.6463 -10.2903 68.1463C-8.29022 72.3129 -3.69004 79.8462 -1.29004 76.6462C1.10996 73.4462 -1.29004 66.9796 -2.79004 64.1462M-12.7903 24.6463C-7.45689 19.1463 5.60996 11.1463 15.21 23.1463M-12.7903 24.6463C-19.2906 38.1463 -4.79004 58.6462 -2.79004 64.1462M15.21 23.1463C18.0433 25.8129 21.51 36.0462 12.71 55.6462C11.7712 59.9227 10.0884 66.9145 8.56826 71.6462M15.21 23.1463C19.3766 21.8129 28.21 20.8462 30.21 27.6462C32.71 36.1462 23.21 51.6462 23.21 52.6462C23.21 53.6463 15.21 69.6462 15.21 73.1462C15.21 76.6462 10.9266 77.1462 8.56826 71.6462M-2.79004 64.1462C-0.790039 69.6462 4.20996 77.1462 6.20996 76.6462C6.80865 76.4966 7.65937 74.4754 8.56826 71.6462M-1.29004 27.6462C-0.290039 24.6463 -14.79 36.6463 0.209961 53.6463" stroke="#3E1F01" stroke-linecap="round"/>
<path d="M80.414 11.921C80.7473 15.921 79.4138 26.4209 55.414 42.421C44.4143 47.9209 26.214 51.521 31.414 73.921C36.614 96.321 62.5805 86.2543 74.9138 78.421C85.9351 71.4209 100.514 34.021 100.914 18.421M80.414 11.921L88.4138 8.92084L90.1626 18.421C91.7463 16.2543 95.1138 11.821 95.9138 11.421C96.7138 11.021 99.5805 15.921 100.914 18.421M80.414 11.921L77.9138 12.4208C79.2471 7.42084 83.7138 -1.87916 90.9138 0.920842M100.914 18.421L102.914 19.9211L103.414 11.421C100.414 1.92087 97.9138 2.42106 95.9138 1.92106M90.9138 0.920842C91.2471 1.58758 91.9138 3.02106 91.9138 3.42106C91.9138 3.92106 93.9138 1.42106 95.9138 1.92106M90.9138 0.920842C91.2471 -2.57908 93.0138 -8.97894 97.4138 -6.57894C98.0805 -6.24566 99.5138 -5.1791 99.9138 -3.5791C100.314 -1.9791 97.4138 0.754341 95.9138 1.92106M50.9138 51.9209C46.1914 52.4209 36.9801 56.6209 37.9138 69.4209M38.9138 72.9209C39.4138 74.7542 41.2138 78.6209 44.4138 79.4209" stroke="#3E1F01"/>
<path d="M121.77 -9.60441C111.077 -8.03237 109.27 -1.77108 109.77 2.39558C110.603 4.89564 112.97 9.99575 115.77 10.3958C119.27 10.8958 115.77 11.8958 153.77 13.3958C159.848 13.6357 168.77 13.3958 173.27 11.8958C183.793 8.38805 184.103 -3.43763 183.27 -8.10432C179.27 -29.1043 164.27 -24.1043 154.77 -23.1043C145.27 -22.1043 138.772 -12.1042 121.77 -9.60441Z" stroke="#3E1F01" stroke-linecap="round"/>
<path d="M176 -32.8498L166.5 -32.3498L167.5 -27.8498H176M176 -32.8498V-27.8498M176 -32.8498C176 -38.0498 179.667 -40.3498 181.5 -40.8498M176 -27.8498C175.833 -26.3498 176.7 -23.0498 181.5 -21.8498M181.5 -40.8498L184.5 -39.3498L182.5 -36.3498L185.5 -33.8498L182.5 -31.3498L185.5 -27.8498L183.5 -25.3498L184.5 -23.3498L181.5 -21.8498M181.5 -40.8498C189.667 -41.6832 208.098 -40.4597 219.5 -37.3498C236 -32.8495 265 -16.3499 259 5.65008C255.226 -2.71818 241.223 -20.3053 226 -23.3498C216 -25.3498 191.667 -21.8498 181.5 -21.8498M195.5 -36.3498C201.333 -36.6832 214.3 -36.1498 219.5 -31.3498" stroke="#3E1F01" stroke-linecap="round"/>
<path d="M155.571 28.413C156.071 25.0796 155.071 18.513 147.071 18.913C137.071 19.413 103.071 55.4131 110.571 74.4131C111.071 75.4131 113.171 77.9131 117.571 79.9131M155.571 28.413C137.971 36.013 122.904 65.9131 117.571 79.9131M155.571 28.413C157.467 27.9755 161.558 28.3037 164.427 32.4131M117.571 79.9131C118.571 87.4131 125.071 92.4131 133.071 92.4131M185.571 58.4131C180.571 67.4131 141.071 92.4131 133.071 92.4131M185.571 58.4131C189.092 52.0756 185.423 50.6966 182.071 49.9116M185.571 58.4131C186.594 58.4131 189.94 56.3216 191.967 58.3174M133.071 92.4131C132.738 94.9131 133.971 99.7131 141.571 98.9131C151.071 97.9131 193.571 74.9131 193.571 64.4131C193.571 61.0715 192.913 59.2491 191.967 58.3174M155.571 23.4131C159.071 22.0798 167.171 22.0131 171.571 32.4131M171.571 32.4131H164.427M171.571 32.4131C174.571 33.7464 181.871 34.3131 187.071 25.9131C188.238 28.7464 191.171 34.4131 193.571 34.4131C189.272 34.6729 182.223 36.908 181.261 43.4131M164.427 32.4131C164.837 32.9998 165.221 33.6635 165.571 34.4131C169.071 41.9131 176.071 47.4131 178.571 48.9131C179.311 49.3568 180.663 49.5818 182.071 49.9116M182.071 49.9116C181.198 47.3791 180.992 45.2296 181.261 43.4131M181.261 43.4131C186.461 43.8493 195.883 47.4409 191.967 58.3174" stroke="#3E1F01"/>
<path d="M295.177 89.0912C303.038 92.3052 317.131 103.557 310.608 122.853C307.041 133.406 294.761 142.196 278.613 144.127C262.465 146.058 246.983 143.907 239.417 126.026C237.266 120.942 237.583 110.474 245.522 99.6583C254.402 87.5593 258.827 90.8272 259.202 91.9695M300.058 103.107C303.566 107.35 307.554 118.671 295.441 130.008M291.789 132.225C291.124 133.611 288.699 136.156 284.318 135.255" stroke="#3E1F01"/>
<path d="M275.886 88.551C276.804 86.3047 280.488 82.3746 287.879 84.6243C295.269 86.8739 297.885 85.92 298.269 85.1618C295.693 88.437 288.475 94.3802 280.209 91.9504L275.886 88.551ZM275.886 88.551C277.525 85.3875 280.017 78.4425 276.873 75.97C274.598 77.785 269.929 82.2127 269.455 85.4027L269.483 88.6044M275.886 88.551C273.896 86.2786 270.652 87.1477 269.483 88.6044M275.886 88.551C279.339 90.6302 290.034 99.6773 290.034 99.6773C283.81 102.416 276.79 97.107 274.058 94.1104M275.886 88.551C276.478 91.0821 275.875 92.2361 274.058 94.1104M269.483 88.6044C268.349 90.0455 265.223 92.8881 261.786 92.7294M269.483 88.6044C263.084 79.7559 248.423 82.221 249.068 84.6364C249.713 87.0518 257.49 92.5311 261.786 92.7294M269.483 88.6044C268.153 90.3156 264.753 93.5363 261.786 92.7294M269.483 88.6044C266.515 92.3775 269.218 94.3333 270.94 94.8395M261.786 92.7294C260.25 95.7618 256.615 101.894 254.368 102.162C251.56 102.498 269.315 101.83 270.94 94.8395M270.94 94.8395C272.53 95.108 273.173 94.8906 274.058 94.1104" stroke="#3E1F01"/>
<path d="M189.555 94.7836L181.462 88.579C170.879 99.5355 145.558 121.746 128.929 122.935C110.369 124.263 90.5528 124.53 87.2233 133.642M189.555 94.7836L165.107 116.198M189.555 94.7836L199.538 83.5329L208.963 88.1629M209.213 123.939L203.701 135.158C179.011 121.914 141.974 133.801 136.384 133.84C131.239 133.876 94.3611 147.586 87.7602 139.832M209.213 123.939L182.031 119.168M209.213 123.939L224.888 127.184L229.298 118.208C228.601 114.524 218.355 112.356 207.681 111.181M165.107 116.198L139.251 128.006M165.107 116.198L182.031 119.168M208.963 88.1629L189.97 110.029M208.963 88.1629L213.183 84.1083L223.056 88.9588L207.681 111.181M182.031 119.168L189.97 110.029M189.97 110.029C194.713 110.13 201.274 110.477 207.681 111.181M91.8925 134.822C93.8163 132.796 98.5645 129.632 102.167 133.185M87.2233 133.642L80.248 132.444L87.0657 134.122M87.2233 133.642C87.1658 133.8 87.1133 133.96 87.0657 134.122M87.0657 134.122C86.9238 134.607 86.8264 135.117 86.7761 135.651M86.7761 135.651L79.3896 137.593L86.7385 136.747M86.7761 135.651C86.7427 136.005 86.7299 136.37 86.7385 136.747M86.7385 136.747C86.7428 136.934 86.7523 137.125 86.7672 137.318C86.8105 137.879 86.9354 138.384 87.135 138.836M87.135 138.836L82.3339 142.939L87.7602 139.832M87.135 138.836C87.2959 139.201 87.5055 139.532 87.7602 139.832" stroke="#3E1F01" stroke-linecap="round"/>
<path d="M200.774 21.3955C199.977 18.8352 199.517 17.0676 199.5 16.3955C199.425 13.3685 198.872 7.2773 205.5 4.39551C208.345 3.15853 198.553 -3.21137 193.5 -8.60449L198.5 -13.6045C201 -9.93783 205.9 -2.80449 205.5 -3.60449C205.1 -4.40449 202.333 -11.9378 201 -15.6045L208 -18.1045L208.5 -4.60449L209.5 -11.6045L216.5 -9.60449L213 2.39551C216.5 2.39551 223.9 4.19551 225.5 11.3955C225.972 13.5209 226.723 18.6859 227.543 25.3955M200.774 21.3955C205.016 21.3955 213.8 20.9955 215 19.3955M200.774 21.3955C202.632 27.3577 206.32 37.6183 210.5 48.3519M214.5 28.8955C218.529 28.7288 226.777 27.7955 227.543 25.3955M227.543 25.3955C228.435 32.7063 229.409 41.8509 230.191 50.8955M211.5 37.3955C214.5 37.3955 220.9 36.8955 222.5 34.8955M210.5 48.3519C213.167 48.3664 218.9 47.8955 220.5 45.8955M210.5 48.3519C213.371 55.723 216.474 63.3172 219.375 69.8955M230.191 50.8955C228.794 52.5622 224.9 55.6955 220.5 54.8955M230.191 50.8955C230.977 59.9837 231.569 68.971 231.69 75.8955M219.375 69.8955C224.523 81.5666 229.038 90.0397 230.5 88.3955C231.492 87.2797 231.807 82.5362 231.69 75.8955M219.375 69.8955C221.084 69.8955 224.7 69.4955 225.5 67.8955M225 75.8955C227.237 76.2288 231.707 76.6955 231.69 75.8955" stroke="#3E1F01" stroke-linecap="round"/>
<path d="M285.873 -7.48381C285.873 -4.48381 279.873 0.516193 279.873 -2.48381C279.873 -4.88381 273.873 -6.81714 270.873 -7.48381C267.372 -8.4845 259.873 -5.48364 261.873 4.01636C263.873 13.5164 279.873 11.0164 289.873 8.01636C291.321 7.5821 292.674 7.68215 293.933 8.17092M285.873 -7.48381C285.873 -10.4838 271.873 -16.9838 266.873 -16.4838C264.67 -16.2635 259.748 -18.9554 255.873 -23.0198M285.873 -7.48381L295.373 -12.9836M255.873 -23.0198C250.953 -28.1795 247.72 -35.551 253.873 -41.9837C264.873 -53.4837 271.873 -45.9837 275.873 -41.9837C277.135 -40.7212 278.448 -38.4127 279.873 -35.7342M255.873 -23.0198L264.873 -31.4836M270.873 -27.4836L279.873 -35.7342M279.873 -35.7342C282.963 -29.9263 286.582 -22.3788 291.373 -19.9836C295.885 -17.7279 294.373 -24.8187 293.933 -31.4836M275.873 -17.9836L279.873 -24.4836M293.933 -31.4836C293.69 -35.1597 293.773 -38.7062 295.373 -40.4836C299.873 -45.4836 310.873 -42.9836 310.873 -35.4836C310.873 -31.6873 310.745 -24.8165 311.202 -17.9836M293.933 -31.4836H304.373M299.373 -19.9836L311.202 -17.9836M311.202 -17.9836C311.648 -11.3174 312.651 -4.68735 314.873 -0.983643C319.373 6.51636 328.373 16.5164 322.873 23.0164C317.373 29.5164 307.373 27.5164 306.373 27.5164C305.518 27.5164 301.371 11.0588 293.933 8.17092M293.933 8.17092L301.873 2.01636M306.373 15.5164C309.873 14.6315 316.973 12.3927 317.373 10.5164" stroke="#3E1F01" stroke-linecap="round"/>
<path d="M110.341 30.8196C109.37 31.3517 106.663 30.2506 107.633 29.7185C108.41 29.2928 107.945 26.962 107.615 25.8498C107.303 24.5126 104.97 22.5602 102.261 24.9078C99.5517 27.2553 103.267 32.1129 106.055 34.8941C106.458 35.2967 106.672 35.7628 106.742 36.2666M110.341 30.8196C111.311 30.2875 110.869 24.4962 109.799 22.9283C109.328 22.2375 109.304 20.1295 109.914 18.1247M110.341 30.8196L113.846 32.9917M109.914 18.1247C110.689 15.5797 112.486 13.2008 115.684 14.0985C121.402 15.7033 120.248 19.353 119.681 21.3876C119.502 22.0298 118.994 22.874 118.387 23.8212M109.914 18.1247L114.287 19.6054M114.083 22.3026L118.387 23.8212M118.387 23.8212C117.07 25.875 115.287 28.4129 115.383 30.4249C115.473 32.3198 117.491 30.5613 119.567 29.2334M111.92 25.6443L114.748 25.8166M119.567 29.2334C120.712 28.501 121.874 27.8996 122.739 28.1143C125.174 28.7184 126.364 32.8063 123.939 34.1365C122.711 34.8098 120.465 35.986 118.339 37.3493M119.567 29.2334L121.464 32.6924M116.836 33.0755L118.339 37.3493M118.339 37.3493C116.264 38.6794 114.302 40.1876 113.508 41.5807C111.9 44.4019 110.301 49.1573 107.199 48.4879C104.098 47.8185 102.928 44.1506 102.746 43.8193C102.591 43.536 107.16 39.2432 106.742 36.2666M106.742 36.2666L110.175 37.8057M106.627 41.691C107.549 42.6937 109.563 44.6489 110.243 44.4487" stroke="#3E1F01" stroke-linecap="round"/>
<path d="M251.21 21.6463C231.21 24.6463 241.71 46.6463 247.21 50.6463C251.61 53.8463 253.376 61.6463 253.71 65.1463C255.71 69.3129 260.31 76.8462 262.71 73.6462C265.11 70.4462 262.71 63.9796 261.21 61.1462M251.21 21.6463C256.543 16.1463 269.61 8.14629 279.21 20.1463M251.21 21.6463C244.709 35.1463 259.21 55.6462 261.21 61.1462M279.21 20.1463C282.043 22.8129 285.51 33.0462 276.71 52.6462C275.771 56.9227 274.088 63.9145 272.568 68.6462M279.21 20.1463C283.377 18.8129 292.21 17.8462 294.21 24.6462C296.71 33.1462 287.21 48.6462 287.21 49.6462C287.21 50.6463 279.21 66.6462 279.21 70.1462C279.21 73.6462 274.927 74.1462 272.568 68.6462M261.21 61.1462C263.21 66.6462 268.21 74.1462 270.21 73.6462C270.809 73.4966 271.659 71.4754 272.568 68.6462M262.71 24.6462C263.71 21.6463 249.21 33.6463 264.21 50.6463" stroke="#3E1F01" stroke-linecap="round"/>
<path d="M116.972 94.9362C110.928 87.0764 103.503 96.9914 102.997 100.338C102.591 103.014 99.4997 105.689 98.0046 106.692C96.6011 108.574 94.2947 112.401 96.2967 112.647C98.2986 112.893 100.642 110.274 101.564 108.933M116.972 94.9362C120.697 95.8781 127.361 99.5302 124.22 106.603M116.972 94.9362C109.377 95.457 103.566 106.723 101.564 108.933M124.22 106.603C123.687 108.476 119.9 112.478 109.024 113.508C106.881 114.155 103.343 115.148 100.859 115.657M124.22 106.603C125.798 108.066 128.306 111.626 125.719 114.155C122.485 117.317 113.287 117.039 112.837 117.285C112.388 117.53 103.317 118.021 101.744 118.88C100.17 119.739 98.9401 118.021 100.859 115.657M101.564 108.933C99.5608 111.143 97.3632 115.134 98.0575 115.871C98.2653 116.092 99.3736 115.961 100.859 115.657M118.323 100.616C119.907 100.309 111.108 97.0231 106.988 107.645" stroke="#3E1F01" stroke-linecap="round"/>
<path d="M325.235 -26.0299C315.44 -24.4933 320.582 -13.2246 323.276 -11.1757C325.431 -9.53665 326.296 -5.54139 326.459 -3.74864C327.439 -1.61442 329.692 2.24424 330.867 0.605158C332.043 -1.03393 330.867 -4.34624 330.133 -5.79752M325.235 -26.0299C327.847 -28.8471 334.247 -32.9448 338.948 -26.7983M325.235 -26.0299C322.051 -19.115 329.153 -8.61469 330.133 -5.79752M338.948 -26.7983C340.336 -25.4324 342.034 -20.1907 337.724 -10.1513C337.264 -7.96089 336.44 -4.37957 335.695 -1.95591M338.948 -26.7983C340.989 -27.4812 345.315 -27.9764 346.295 -24.4933C347.519 -20.1395 342.866 -12.2002 342.866 -11.688C342.866 -11.1757 338.948 -2.98034 338.948 -1.18759C338.948 0.605158 336.85 0.861265 335.695 -1.95591M330.133 -5.79752C331.112 -2.98034 333.561 0.861265 334.54 0.605158C334.834 0.528494 335.25 -0.50678 335.695 -1.95591M330.867 -24.4933C331.357 -26.0299 324.256 -19.8834 331.602 -11.1757" stroke="#3E1F01" stroke-linecap="round"/>
<path d="M344.414 8.92097C344.747 12.921 343.414 23.4209 319.414 39.421C308.414 44.9209 290.214 48.521 295.414 70.921C300.614 93.321 326.581 83.2543 338.914 75.421C349.935 68.4209 364.514 31.021 364.914 15.421M344.414 8.92097L352.414 5.92084L354.163 15.421C355.746 13.2543 359.114 8.82097 359.914 8.42097C360.714 8.02097 363.58 12.921 364.914 15.421M344.414 8.92097L341.914 9.42084C343.247 4.42084 347.714 -4.87916 354.914 -2.07916M364.914 15.421L366.914 16.9211L367.414 8.42097C364.414 -1.07913 361.914 -0.578938 359.914 -1.07894M354.914 -2.07916C355.247 -1.41242 355.914 0.0210625 355.914 0.421062C355.914 0.921062 357.914 -1.57894 359.914 -1.07894M354.914 -2.07916C355.247 -5.57908 357.014 -11.9789 361.414 -9.57894C362.08 -9.24566 363.514 -8.1791 363.914 -6.5791C364.314 -4.9791 361.414 -2.24566 359.914 -1.07894M314.914 48.9209C310.191 49.4209 300.98 53.6209 301.914 66.4209M302.914 69.9209C303.414 71.7542 305.214 75.6209 308.414 76.4209" stroke="#3E1F01"/>
<path d="M388.77 -9.60441C378.077 -8.03237 376.27 -1.77108 376.77 2.39558C377.603 4.89564 379.97 9.99575 382.77 10.3958C386.27 10.8958 382.77 11.8958 420.77 13.3958C426.848 13.6357 435.77 13.3958 440.27 11.8958C450.793 8.38805 451.103 -3.43763 450.27 -8.10432C446.27 -29.1043 431.27 -24.1043 421.77 -23.1043C412.27 -22.1043 405.772 -12.1042 388.77 -9.60441Z" stroke="#3E1F01" stroke-linecap="round"/>
<path d="M443 -32.8498L433.5 -32.3498L434.5 -27.8498H443M443 -32.8498V-27.8498M443 -32.8498C443 -38.0498 446.667 -40.3498 448.5 -40.8498M443 -27.8498C442.833 -26.3498 443.7 -23.0498 448.5 -21.8498M448.5 -40.8498L451.5 -39.3498L449.5 -36.3498L452.5 -33.8498L449.5 -31.3498L452.5 -27.8498L450.5 -25.3498L451.5 -23.3498L448.5 -21.8498M448.5 -40.8498C456.667 -41.6832 475.098 -40.4597 486.5 -37.3498C503 -32.8495 532 -16.3499 526 5.65008C522.226 -2.71818 508.223 -20.3053 493 -23.3498C483 -25.3498 458.667 -21.8498 448.5 -21.8498M462.5 -36.3498C468.333 -36.6832 481.3 -36.1498 486.5 -31.3498" stroke="#3E1F01" stroke-linecap="round"/>
<path d="M422.571 28.413C423.071 25.0796 422.071 18.513 414.071 18.913C404.071 19.413 370.071 55.4131 377.571 74.4131C378.071 75.4131 380.171 77.9131 384.571 79.9131M422.571 28.413C404.971 36.013 389.904 65.9131 384.571 79.9131M422.571 28.413C424.467 27.9755 428.558 28.3037 431.427 32.4131M384.571 79.9131C385.571 87.4131 392.071 92.4131 400.071 92.4131M452.571 58.4131C447.571 67.4131 408.071 92.4131 400.071 92.4131M452.571 58.4131C456.092 52.0756 452.423 50.6966 449.071 49.9116M452.571 58.4131C453.594 58.4131 456.94 56.3216 458.967 58.3174M400.071 92.4131C399.738 94.9131 400.971 99.7131 408.571 98.9131C418.071 97.9131 460.571 74.9131 460.571 64.4131C460.571 61.0715 459.913 59.2491 458.967 58.3174M422.571 23.4131C426.071 22.0798 434.171 22.0131 438.571 32.4131M438.571 32.4131H431.427M438.571 32.4131C441.571 33.7464 448.871 34.3131 454.071 25.9131C455.238 28.7464 458.171 34.4131 460.571 34.4131C456.272 34.6729 449.223 36.908 448.261 43.4131M431.427 32.4131C431.837 32.9998 432.221 33.6635 432.571 34.4131C436.071 41.9131 443.071 47.4131 445.571 48.9131C446.311 49.3568 447.663 49.5818 449.071 49.9116M449.071 49.9116C448.198 47.3791 447.992 45.2296 448.261 43.4131M448.261 43.4131C453.461 43.8493 462.883 47.4409 458.967 58.3174" stroke="#3E1F01"/>
<path d="M562.177 89.0912C570.038 92.3052 584.131 103.557 577.608 122.853C574.041 133.406 561.761 142.196 545.613 144.127C529.465 146.058 513.983 143.907 506.417 126.026C504.266 120.942 504.583 110.474 512.522 99.6583C521.402 87.5593 525.827 90.8272 526.202 91.9695M567.058 103.107C570.566 107.35 574.554 118.671 562.441 130.008M558.789 132.225C558.124 133.611 555.699 136.156 551.318 135.255" stroke="#3E1F01"/>
<path d="M542.886 88.551C543.804 86.3047 547.488 82.3746 554.879 84.6243C562.269 86.8739 564.885 85.92 565.269 85.1618C562.693 88.437 555.475 94.3802 547.209 91.9504L542.886 88.551ZM542.886 88.551C544.525 85.3875 547.017 78.4425 543.873 75.97C541.598 77.785 536.929 82.2127 536.455 85.4027L536.483 88.6044M542.886 88.551C540.896 86.2786 537.652 87.1477 536.483 88.6044M542.886 88.551C546.339 90.6302 557.034 99.6773 557.034 99.6773C550.81 102.416 543.79 97.107 541.058 94.1104M542.886 88.551C543.478 91.0821 542.875 92.2361 541.058 94.1104M536.483 88.6044C535.349 90.0455 532.223 92.8881 528.786 92.7294M536.483 88.6044C530.084 79.7559 515.423 82.221 516.068 84.6364C516.713 87.0518 524.49 92.5311 528.786 92.7294M536.483 88.6044C535.153 90.3156 531.753 93.5363 528.786 92.7294M536.483 88.6044C533.515 92.3775 536.218 94.3333 537.94 94.8395M528.786 92.7294C527.25 95.7618 523.615 101.894 521.368 102.162C518.56 102.498 536.315 101.83 537.94 94.8395M537.94 94.8395C539.53 95.108 540.173 94.8906 541.058 94.1104" stroke="#3E1F01"/>
<path d="M456.555 94.7836L448.462 88.579C437.879 99.5355 412.558 121.746 395.929 122.935C377.369 124.263 357.553 124.53 354.223 133.642M456.555 94.7836L432.107 116.198M456.555 94.7836L466.538 83.5329L475.963 88.1629M476.213 123.939L470.701 135.158C446.011 121.914 408.974 133.801 403.384 133.84C398.239 133.876 361.361 147.586 354.76 139.832M476.213 123.939L449.031 119.168M476.213 123.939L491.888 127.184L496.298 118.208C495.601 114.524 485.355 112.356 474.681 111.181M432.107 116.198L406.251 128.006M432.107 116.198L449.031 119.168M475.963 88.1629L456.97 110.029M475.963 88.1629L480.183 84.1083L490.056 88.9588L474.681 111.181M449.031 119.168L456.97 110.029M456.97 110.029C461.713 110.13 468.274 110.477 474.681 111.181M358.892 134.822C360.816 132.796 365.565 129.632 369.167 133.185M354.223 133.642L347.248 132.444L354.066 134.122M354.223 133.642C354.166 133.8 354.113 133.96 354.066 134.122M354.066 134.122C353.924 134.607 353.826 135.117 353.776 135.651M353.776 135.651L346.39 137.593L353.738 136.747M353.776 135.651C353.743 136.005 353.73 136.37 353.738 136.747M353.738 136.747C353.743 136.934 353.752 137.125 353.767 137.318C353.811 137.879 353.935 138.384 354.135 138.836M354.135 138.836L349.334 142.939L354.76 139.832M354.135 138.836C354.296 139.201 354.506 139.532 354.76 139.832" stroke="#3E1F01" stroke-linecap="round"/>
<path d="M467.774 21.3955C466.977 18.8352 466.517 17.0676 466.5 16.3955C466.425 13.3685 465.872 7.2773 472.5 4.39551C475.345 3.15853 465.553 -3.21137 460.5 -8.60449L465.5 -13.6045C468 -9.93783 472.9 -2.80449 472.5 -3.60449C472.1 -4.40449 469.333 -11.9378 468 -15.6045L475 -18.1045L475.5 -4.60449L476.5 -11.6045L483.5 -9.60449L480 2.39551C483.5 2.39551 490.9 4.19551 492.5 11.3955C492.972 13.5209 493.723 18.6859 494.543 25.3955M467.774 21.3955C472.016 21.3955 480.8 20.9955 482 19.3955M467.774 21.3955C469.632 27.3577 473.32 37.6183 477.5 48.3519M481.5 28.8955C485.529 28.7288 493.777 27.7955 494.543 25.3955M494.543 25.3955C495.435 32.7063 496.409 41.8509 497.191 50.8955M478.5 37.3955C481.5 37.3955 487.9 36.8955 489.5 34.8955M477.5 48.3519C480.167 48.3664 485.9 47.8955 487.5 45.8955M477.5 48.3519C480.371 55.723 483.474 63.3172 486.375 69.8955M497.191 50.8955C495.794 52.5622 491.9 55.6955 487.5 54.8955M497.191 50.8955C497.977 59.9837 498.569 68.971 498.69 75.8955M486.375 69.8955C491.523 81.5666 496.038 90.0397 497.5 88.3955C498.492 87.2797 498.807 82.5362 498.69 75.8955M486.375 69.8955C488.084 69.8955 491.7 69.4955 492.5 67.8955M492 75.8955C494.237 76.2288 498.707 76.6955 498.69 75.8955" stroke="#3E1F01" stroke-linecap="round"/>
<path d="M347.818 77.218C348.883 75.0575 349.677 73.6219 350.082 73.1741C351.906 71.157 355.315 66.8491 361.413 69.0737C364.031 70.0285 361.597 59.8228 361.644 53.1851L367.993 53.0234C367.352 56.9575 366.128 64.6335 366.363 63.8651C366.597 63.0968 369.457 56.4803 370.858 53.2681L376.962 55.9715L368.935 65.0702L373.917 61.1315L377.237 66.7647L367.533 72.412C369.812 74.5775 373.516 80.328 370.103 86.0056C369.096 87.6816 366.389 91.5091 362.771 96.3844M347.818 77.218C350.58 79.8425 356.546 85.0168 358.317 84.7175M347.818 77.218C345.338 82.249 341.391 91.2111 337.471 100.786M352.114 90.5933C354.84 92.9773 360.788 97.4732 362.771 96.3844M362.771 96.3844C358.829 101.697 353.805 108.253 348.718 114.625M344.901 94.2712C346.855 96.1273 351.331 99.7616 353.61 99.4495M337.471 100.786C339.199 102.445 343.223 105.686 345.502 105.374M337.471 100.786C334.78 107.361 332.101 114.225 329.92 120.303M348.718 114.625C346.777 114.846 342.303 114.477 339.933 111.233M348.718 114.625C343.606 121.028 338.431 127.246 334.226 131.83M329.92 120.303C326.051 131.087 323.748 139.397 325.717 139.231C327.053 139.118 330.193 136.225 334.226 131.83M329.92 120.303C331.032 121.36 333.635 123.338 335.145 122.791M329.87 127.69C331.12 129.291 333.742 132.361 334.226 131.83" stroke="#3E1F01" stroke-width="0.898168" stroke-linecap="round"/>
<path d="M552.873 -7.48381C552.873 -4.48381 546.873 0.516193 546.873 -2.48381C546.873 -4.88381 540.873 -6.81714 537.873 -7.48381C534.372 -8.4845 526.873 -5.48364 528.873 4.01636C530.873 13.5164 546.873 11.0164 556.873 8.01636C558.321 7.5821 559.674 7.68215 560.933 8.17092M552.873 -7.48381C552.873 -10.4838 538.873 -16.9838 533.873 -16.4838C531.67 -16.2635 526.748 -18.9554 522.873 -23.0198M552.873 -7.48381L562.373 -12.9836M522.873 -23.0198C517.953 -28.1795 514.72 -35.551 520.873 -41.9837C531.873 -53.4837 538.873 -45.9837 542.873 -41.9837C544.135 -40.7212 545.448 -38.4127 546.873 -35.7342M522.873 -23.0198L531.873 -31.4836M537.873 -27.4836L546.873 -35.7342M546.873 -35.7342C549.963 -29.9263 553.582 -22.3788 558.373 -19.9836C562.885 -17.7279 561.373 -24.8187 560.933 -31.4836M542.873 -17.9836L546.873 -24.4836M560.933 -31.4836C560.69 -35.1597 560.773 -38.7062 562.373 -40.4836C566.873 -45.4836 577.873 -42.9836 577.873 -35.4836C577.873 -31.6873 577.745 -24.8165 578.202 -17.9836M560.933 -31.4836H571.373M566.373 -19.9836L578.202 -17.9836M578.202 -17.9836C578.648 -11.3174 579.651 -4.68735 581.873 -0.983643C586.373 6.51636 595.373 16.5164 589.873 23.0164C584.373 29.5164 574.373 27.5164 573.373 27.5164C572.518 27.5164 568.371 11.0588 560.933 8.17092M560.933 8.17092L568.873 2.01636M573.373 15.5164C576.873 14.6315 583.973 12.3927 584.373 10.5164" stroke="#3E1F01" stroke-linecap="round"/>
<path d="M377.341 30.8196C376.37 31.3517 373.663 30.2506 374.633 29.7185C375.41 29.2928 374.945 26.962 374.615 25.8498C374.303 24.5126 371.97 22.5602 369.261 24.9078C366.552 27.2553 370.267 32.1129 373.055 34.8941C373.458 35.2967 373.672 35.7628 373.742 36.2666M377.341 30.8196C378.311 30.2875 377.869 24.4962 376.799 22.9283C376.328 22.2375 376.304 20.1295 376.914 18.1247M377.341 30.8196L380.846 32.9917M376.914 18.1247C377.689 15.5797 379.486 13.2008 382.684 14.0985C388.402 15.7033 387.248 19.353 386.681 21.3876C386.502 22.0298 385.994 22.874 385.387 23.8212M376.914 18.1247L381.287 19.6054M381.083 22.3026L385.387 23.8212M385.387 23.8212C384.07 25.875 382.287 28.4129 382.383 30.4249C382.473 32.3198 384.491 30.5613 386.567 29.2334M378.92 25.6443L381.748 25.8166M386.567 29.2334C387.712 28.501 388.874 27.8996 389.739 28.1143C392.174 28.7184 393.364 32.8063 390.939 34.1365C389.711 34.8098 387.465 35.986 385.339 37.3493M386.567 29.2334L388.464 32.6924M383.836 33.0755L385.339 37.3493M385.339 37.3493C383.264 38.6794 381.302 40.1876 380.508 41.5807C378.9 44.4019 377.301 49.1573 374.199 48.4879C371.098 47.8185 369.928 44.1506 369.746 43.8193C369.591 43.536 374.16 39.2432 373.742 36.2666M373.742 36.2666L377.175 37.8057M373.627 41.691C374.549 42.6937 376.563 44.6489 377.243 44.4487" stroke="#3E1F01" stroke-linecap="round"/>
<path d="M518.21 21.6463C498.21 24.6463 508.71 46.6463 514.21 50.6463C518.61 53.8463 520.376 61.6463 520.71 65.1463C522.71 69.3129 527.31 76.8462 529.71 73.6462C532.11 70.4462 529.71 63.9796 528.21 61.1462M518.21 21.6463C523.543 16.1463 536.61 8.14629 546.21 20.1463M518.21 21.6463C511.709 35.1463 526.21 55.6462 528.21 61.1462M546.21 20.1463C549.043 22.8129 552.51 33.0462 543.71 52.6462C542.771 56.9227 541.088 63.9145 539.568 68.6462M546.21 20.1463C550.377 18.8129 559.21 17.8462 561.21 24.6462C563.71 33.1462 554.21 48.6462 554.21 49.6462C554.21 50.6463 546.21 66.6462 546.21 70.1462C546.21 73.6462 541.927 74.1462 539.568 68.6462M528.21 61.1462C530.21 66.6462 535.21 74.1462 537.21 73.6462C537.809 73.4966 538.659 71.4754 539.568 68.6462M529.71 24.6462C530.71 21.6463 516.21 33.6463 531.21 50.6463" stroke="#3E1F01" stroke-linecap="round"/>
<path d="M382.507 94.8487C374.432 89.0952 370.225 100.745 370.717 104.094C371.11 106.773 368.934 110.233 367.796 111.628C367.004 113.839 365.915 118.172 367.901 117.823C369.888 117.474 371.365 114.285 371.855 112.734M382.507 94.8487C386.344 94.6626 393.784 96.2106 392.845 103.892M382.507 94.8487C375.395 97.5635 373.125 110.035 371.855 112.734M392.845 103.892C392.881 105.839 390.428 110.772 380.325 114.932C378.464 116.176 375.37 118.159 373.143 119.37M392.845 103.892C394.781 104.831 398.219 107.504 396.482 110.678C394.312 114.646 385.433 117.065 385.075 117.431C384.717 117.797 376.184 120.913 374.93 122.194C373.676 123.476 371.998 122.191 373.143 119.37M371.855 112.734C370.584 115.432 369.647 119.89 370.526 120.392C370.789 120.543 371.811 120.094 373.143 119.37M385.457 99.8866C386.882 99.1311 377.508 98.5562 376.667 109.918" stroke="#3E1F01" stroke-linecap="round"/>
<path d="M611.414 8.92097C611.747 12.921 610.414 23.4209 586.414 39.421C575.414 44.9209 557.214 48.521 562.414 70.921C567.614 93.321 593.581 83.2543 605.914 75.421C616.935 68.4209 631.514 31.021 631.914 15.421M611.414 8.92097L619.414 5.92084L621.163 15.421C622.746 13.2543 626.114 8.82097 626.914 8.42097C627.714 8.02097 630.58 12.921 631.914 15.421M611.414 8.92097L608.914 9.42084C610.247 4.42084 614.714 -4.87916 621.914 -2.07916M631.914 15.421L633.914 16.9211L634.414 8.42097C631.414 -1.07913 628.914 -0.578938 626.914 -1.07894M621.914 -2.07916C622.247 -1.41242 622.914 0.0210625 622.914 0.421062C622.914 0.921062 624.914 -1.57894 626.914 -1.07894M621.914 -2.07916C622.247 -5.57908 624.014 -11.9789 628.414 -9.57894C629.08 -9.24566 630.514 -8.1791 630.914 -6.5791C631.314 -4.9791 628.414 -2.24566 626.914 -1.07894M581.914 48.9209C577.191 49.4209 567.98 53.6209 568.914 66.4209M569.914 69.9209C570.414 71.7542 572.214 75.6209 575.414 76.4209" stroke="#3E1F01"/>
<path d="M654.684 -6.60441C643.991 -5.03237 642.184 1.22892 642.684 5.39558C643.517 7.89564 645.884 12.9958 648.684 13.3958C652.184 13.8958 648.684 14.8958 686.684 16.3958C692.762 16.6357 701.684 16.3958 706.184 14.8958C716.707 11.388 717.017 -0.437628 716.184 -5.10432C712.184 -26.1043 697.184 -21.1043 687.684 -20.1043C678.184 -19.1043 671.687 -9.10425 654.684 -6.60441Z" stroke="#3E1F01" stroke-linecap="round"/>
<path d="M708.914 -29.8498L699.414 -29.3498L700.414 -24.8498H708.914M708.914 -29.8498V-24.8498M708.914 -29.8498C708.914 -35.0498 712.581 -37.3498 714.414 -37.8498M708.914 -24.8498C708.747 -23.3498 709.614 -20.0498 714.414 -18.8498M714.414 -37.8498L717.414 -36.3498L715.414 -33.3498L718.414 -30.8498L715.414 -28.3498L718.414 -24.8498L716.414 -22.3498L717.414 -20.3498L714.414 -18.8498M714.414 -37.8498C722.581 -38.6832 741.012 -37.4597 752.414 -34.3498C768.914 -29.8495 797.914 -13.3499 791.914 8.65008C788.14 0.281823 774.137 -17.3053 758.914 -20.3498C748.914 -22.3498 724.581 -18.8498 714.414 -18.8498M728.414 -33.3498C734.247 -33.6832 747.214 -33.1498 752.414 -28.3498" stroke="#3E1F01" stroke-linecap="round"/>
<path d="M688.485 31.413C688.985 28.0796 687.985 21.513 679.985 21.913C669.985 22.413 635.985 58.4131 643.485 77.4131C643.985 78.4131 646.085 80.9131 650.485 82.9131M688.485 31.413C670.885 39.013 655.818 68.9131 650.485 82.9131M688.485 31.413C690.381 30.9755 694.472 31.3037 697.341 35.4131M650.485 82.9131C651.485 90.4131 657.985 95.4131 665.985 95.4131M718.485 61.4131C713.485 70.4131 673.985 95.4131 665.985 95.4131M718.485 61.4131C722.006 55.0756 718.337 53.6966 714.985 52.9116M718.485 61.4131C719.508 61.4131 722.855 59.3216 724.881 61.3174M665.985 95.4131C665.652 97.9131 666.885 102.713 674.485 101.913C683.985 100.913 726.485 77.9131 726.485 67.4131C726.485 64.0715 725.827 62.2491 724.881 61.3174M688.485 26.4131C691.985 25.0798 700.085 25.0131 704.485 35.4131M704.485 35.4131H697.341M704.485 35.4131C707.485 36.7464 714.785 37.3131 719.985 28.9131C721.152 31.7464 724.085 37.4131 726.485 37.4131C722.186 37.6729 715.137 39.908 714.175 46.4131M697.341 35.4131C697.751 35.9998 698.136 36.6635 698.485 37.4131C701.985 44.9131 708.985 50.4131 711.485 51.9131C712.225 52.3568 713.577 52.5818 714.985 52.9116M714.985 52.9116C714.112 50.3791 713.906 48.2296 714.175 46.4131M714.175 46.4131C719.375 46.8493 728.798 50.4409 724.881 61.3174" stroke="#3E1F01"/>
<path d="M828.091 92.0912C835.953 95.3052 850.046 106.557 843.522 125.853C839.955 136.406 827.675 145.196 811.527 147.127C795.379 149.058 779.897 146.907 772.331 129.026C770.18 123.942 770.497 113.474 778.436 102.658C787.316 90.5593 791.742 93.8272 792.116 94.9695M832.972 106.107C836.48 110.35 840.468 121.671 828.355 133.008M824.703 135.225C824.038 136.611 821.613 139.156 817.232 138.255" stroke="#3E1F01"/>
<path d="M808.8 91.551C809.718 89.3047 813.402 85.3746 820.793 87.6243C828.183 89.8739 830.799 88.92 831.183 88.1618C828.607 91.437 821.389 97.3802 813.123 94.9504L808.8 91.551ZM808.8 91.551C810.439 88.3875 812.932 81.4425 809.787 78.97C807.512 80.785 802.843 85.2127 802.37 88.4027L802.397 91.6044M808.8 91.551C806.81 89.2786 803.566 90.1477 802.397 91.6044M808.8 91.551C812.253 93.6302 822.948 102.677 822.948 102.677C816.724 105.416 809.704 100.107 806.972 97.1104M808.8 91.551C809.392 94.0821 808.789 95.2361 806.972 97.1104M802.397 91.6044C801.263 93.0455 798.137 95.8881 794.7 95.7294M802.397 91.6044C795.998 82.7559 781.337 85.221 781.982 87.6364C782.627 90.0518 790.404 95.5311 794.7 95.7294M802.397 91.6044C801.068 93.3156 797.668 96.5363 794.7 95.7294M802.397 91.6044C799.43 95.3775 802.132 97.3333 803.854 97.8395M794.7 95.7294C793.164 98.7618 789.529 104.894 787.283 105.162C784.474 105.498 802.229 104.83 803.854 97.8395M803.854 97.8395C805.444 98.108 806.087 97.8906 806.972 97.1104" stroke="#3E1F01"/>
<path d="M722.469 97.7836L714.376 91.579C703.793 102.535 678.472 124.746 661.843 125.935C643.283 127.263 623.467 127.53 620.137 136.642M722.469 97.7836L698.021 119.198M722.469 97.7836L732.453 86.5329L741.877 91.1629M742.127 126.939L736.615 138.158C711.925 124.914 674.889 136.801 669.298 136.84C664.153 136.876 627.275 150.586 620.674 142.832M742.127 126.939L714.945 122.168M742.127 126.939L757.802 130.184L762.212 121.208C761.515 117.524 751.269 115.356 740.595 114.181M698.021 119.198L672.165 131.006M698.021 119.198L714.945 122.168M741.877 91.1629L722.884 113.029M741.877 91.1629L746.097 87.1083L755.97 91.9588L740.595 114.181M714.945 122.168L722.884 113.029M722.884 113.029C727.627 113.13 734.188 113.477 740.595 114.181M624.807 137.822C626.73 135.796 631.479 132.632 635.081 136.185M620.137 136.642L613.162 135.444L619.98 137.122M620.137 136.642C620.08 136.8 620.027 136.96 619.98 137.122M619.98 137.122C619.838 137.607 619.741 138.117 619.69 138.651M619.69 138.651L612.304 140.593L619.653 139.747M619.69 138.651C619.657 139.005 619.644 139.37 619.653 139.747M619.653 139.747C619.657 139.934 619.666 140.125 619.681 140.318C619.725 140.879 619.849 141.384 620.049 141.836M620.049 141.836L615.248 145.939L620.674 142.832M620.049 141.836C620.21 142.201 620.42 142.532 620.674 142.832" stroke="#3E1F01" stroke-linecap="round"/>
<path d="M733.689 24.3955C732.891 21.8352 732.431 20.0676 732.414 19.3955C732.339 16.3685 731.786 10.2773 738.414 7.39551C741.259 6.15853 731.467 -0.211368 726.414 -5.60449L731.414 -10.6045C733.914 -6.93783 738.814 0.195508 738.414 -0.604492C738.014 -1.40449 735.247 -8.93783 733.914 -12.6045L740.914 -15.1045L741.414 -1.60449L742.414 -8.60449L749.414 -6.60449L745.914 5.39551C749.414 5.39551 756.814 7.19551 758.414 14.3955C758.886 16.5209 759.638 21.6859 760.457 28.3955M733.689 24.3955C737.93 24.3955 746.714 23.9955 747.914 22.3955M733.689 24.3955C735.546 30.3577 739.234 40.6183 743.414 51.3519M747.414 31.8955C751.443 31.7288 759.691 30.7955 760.457 28.3955M760.457 28.3955C761.35 35.7063 762.323 44.8509 763.105 53.8955M744.414 40.3955C747.414 40.3955 753.814 39.8955 755.414 37.8955M743.414 51.3519C746.081 51.3664 751.814 50.8955 753.414 48.8955M743.414 51.3519C746.285 58.723 749.388 66.3172 752.289 72.8955M763.105 53.8955C761.708 55.5622 757.814 58.6955 753.414 57.8955M763.105 53.8955C763.891 62.9837 764.483 71.971 764.605 78.8955M752.289 72.8955C757.438 84.5666 761.953 93.0397 763.414 91.3955C764.406 90.2797 764.721 85.5362 764.605 78.8955M752.289 72.8955C753.998 72.8955 757.614 72.4955 758.414 70.8955M757.914 78.8955C760.151 79.2288 764.621 79.6955 764.605 78.8955" stroke="#3E1F01" stroke-linecap="round"/>
<path d="M874.669 86.5497C875.724 84.7716 876.5 83.5958 876.876 83.2395C878.572 81.6346 881.776 78.1749 886.847 80.4848C889.023 81.4764 887.62 72.5797 888.102 66.902L893.547 67.1865C892.736 70.5107 891.178 76.9988 891.43 76.3568C891.682 75.7148 894.57 70.2426 895.983 67.5867L901.027 70.307L893.551 77.5595L898.077 74.5203L900.543 79.5626L891.863 83.7495C893.669 85.7547 896.456 90.9229 893.157 95.5548C892.183 96.9221 889.611 100.018 886.19 103.949M874.669 86.5497C876.858 88.9798 881.62 93.8055 883.155 93.6674M874.669 86.5497C872.212 90.6903 868.237 98.0976 864.245 106.031M877.455 98.283C879.629 100.505 884.42 104.749 886.19 103.949M886.19 103.949C882.463 108.233 877.726 113.509 872.948 118.624M871.037 100.95C872.585 102.669 876.174 106.078 878.146 105.962M864.245 106.031C865.612 107.566 868.84 110.608 870.812 110.492M864.245 106.031C861.503 111.479 858.753 117.175 856.482 122.232M872.948 118.624C871.272 118.684 867.468 118.07 865.656 115.136M872.948 118.624C868.147 123.764 863.303 128.741 859.399 132.384M856.482 122.232C852.452 131.204 849.928 138.163 851.624 138.152C852.775 138.144 855.655 135.877 859.399 132.384M856.482 122.232C857.363 123.211 859.459 125.076 860.788 124.709M855.947 128.551C856.91 130.004 858.949 132.806 859.399 132.384" stroke="#3E1F01" stroke-width="0.771018" stroke-linecap="round"/>
<path d="M818.787 -4.48381C818.787 -1.48381 812.787 3.51619 812.787 0.516193C812.787 -1.88381 806.787 -3.81714 803.787 -4.48381C800.286 -5.4845 792.787 -2.48364 794.787 7.01636C796.787 16.5164 812.787 14.0164 822.787 11.0164C824.235 10.5821 825.588 10.6822 826.847 11.1709M818.787 -4.48381C818.787 -7.48381 804.787 -13.9838 799.787 -13.4838C797.584 -13.2635 792.662 -15.9554 788.787 -20.0198M818.787 -4.48381L828.287 -9.98364M788.787 -20.0198C783.867 -25.1795 780.634 -32.551 786.787 -38.9837C797.787 -50.4837 804.787 -42.9837 808.787 -38.9837C810.049 -37.7212 811.362 -35.4127 812.787 -32.7342M788.787 -20.0198L797.787 -28.4836M803.787 -24.4836L812.787 -32.7342M812.787 -32.7342C815.877 -26.9263 819.496 -19.3788 824.287 -16.9836C828.799 -14.7279 827.287 -21.8187 826.847 -28.4836M808.787 -14.9836L812.787 -21.4836M826.847 -28.4836C826.604 -32.1597 826.687 -35.7062 828.287 -37.4836C832.787 -42.4836 843.787 -39.9836 843.787 -32.4836C843.787 -28.6873 843.659 -21.8165 844.116 -14.9836M826.847 -28.4836H837.287M832.287 -16.9836L844.116 -14.9836M844.116 -14.9836C844.562 -8.31743 845.565 -1.68735 847.787 2.01636C852.287 9.51636 861.287 19.5164 855.787 26.0164C850.287 32.5164 840.287 30.5164 839.287 30.5164C838.432 30.5164 834.285 14.0588 826.847 11.1709M826.847 11.1709L834.787 5.01636M839.287 18.5164C842.787 17.6315 849.887 15.3927 850.287 13.5164" stroke="#3E1F01" stroke-linecap="round"/>
<path d="M643.255 33.8196C642.284 34.3517 639.577 33.2506 640.547 32.7185C641.324 32.2928 640.859 29.962 640.529 28.8498C640.217 27.5126 637.884 25.5602 635.175 27.9078C632.466 30.2553 636.181 35.1129 638.969 37.8941C639.372 38.2967 639.586 38.7628 639.656 39.2666M643.255 33.8196C644.225 33.2875 643.783 27.4962 642.713 25.9283C642.242 25.2375 642.218 23.1295 642.828 21.1247M643.255 33.8196L646.76 35.9917M642.828 21.1247C643.603 18.5797 645.4 16.2008 648.598 17.0985C654.316 18.7033 653.162 22.353 652.595 24.3876C652.417 25.0298 651.908 25.874 651.301 26.8212M642.828 21.1247L647.201 22.6054M646.997 25.3026L651.301 26.8212M651.301 26.8212C649.984 28.875 648.201 31.4129 648.297 33.4249C648.387 35.3198 650.405 33.5613 652.481 32.2334M644.834 28.6443L647.662 28.8166M652.481 32.2334C653.626 31.501 654.788 30.8996 655.653 31.1143C658.088 31.7184 659.278 35.8063 656.853 37.1365C655.625 37.8098 653.379 38.986 651.253 40.3493M652.481 32.2334L654.378 35.6924M649.75 36.0755L651.253 40.3493M651.253 40.3493C649.178 41.6794 647.216 43.1876 646.422 44.5807C644.814 47.4019 643.215 52.1573 640.113 51.4879C637.012 50.8185 635.842 47.1506 635.66 46.8193C635.505 46.536 640.074 42.2432 639.656 39.2666M639.656 39.2666L643.089 40.8057M639.541 44.691C640.463 45.6937 642.477 47.6489 643.157 47.4487" stroke="#3E1F01" stroke-linecap="round"/>
<path d="M784.124 24.6463C764.124 27.6463 774.624 49.6463 780.124 53.6463C784.524 56.8463 786.29 64.6463 786.624 68.1463C788.624 72.3129 793.224 79.8462 795.624 76.6462C798.024 73.4462 795.624 66.9796 794.124 64.1462M784.124 24.6463C789.457 19.1463 802.524 11.1463 812.124 23.1463M784.124 24.6463C777.623 38.1463 792.124 58.6462 794.124 64.1462M812.124 23.1463C814.957 25.8129 818.424 36.0462 809.624 55.6462C808.685 59.9227 807.002 66.9145 805.482 71.6462M812.124 23.1463C816.291 21.8129 825.124 20.8462 827.124 27.6462C829.624 36.1462 820.124 51.6462 820.124 52.6462C820.124 53.6463 812.124 69.6462 812.124 73.1462C812.124 76.6462 807.841 77.1462 805.482 71.6462M794.124 64.1462C796.124 69.6462 801.124 77.1462 803.124 76.6462C803.723 76.4966 804.573 74.4754 805.482 71.6462M795.624 27.6462C796.624 24.6463 782.124 36.6463 797.124 53.6463" stroke="#3E1F01" stroke-linecap="round"/>
<path d="M644.256 93.9608C636.973 87.2329 631.327 98.2579 631.391 101.642C631.443 104.349 628.847 107.506 627.542 108.747C626.477 110.839 624.849 115 626.863 114.905C628.878 114.81 630.746 111.833 631.428 110.356M644.256 93.9608C648.086 94.2611 655.27 96.7371 653.368 104.238M644.256 93.9608C636.858 95.755 633.03 107.84 631.428 110.356M653.368 104.238C653.157 106.174 650.1 110.758 639.553 113.607C637.55 114.606 634.23 116.182 631.868 117.102M653.368 104.238C655.169 105.415 658.242 108.5 656.118 111.429C653.464 115.091 644.351 116.369 643.949 116.687C643.547 117.005 634.689 119.017 633.284 120.13C631.878 121.242 630.375 119.756 631.868 117.102M631.428 110.356C629.827 112.872 628.334 117.176 629.143 117.785C629.385 117.968 630.455 117.652 631.868 117.102M646.546 99.3312C648.055 98.7618 638.828 97.0067 636.558 108.171" stroke="#3E1F01" stroke-linecap="round"/>
<path d="M877.328 11.921C877.661 15.921 876.328 26.4209 852.328 42.421C841.328 47.9209 823.128 51.521 828.328 73.921C833.528 96.321 859.495 86.2543 871.828 78.421C882.849 71.4209 897.428 34.021 897.828 18.421M877.328 11.921L885.328 8.92084L887.077 18.421C888.66 16.2543 892.028 11.821 892.828 11.421C893.628 11.021 896.495 15.921 897.828 18.421M877.328 11.921L874.828 12.4208C876.161 7.42084 880.628 -1.87916 887.828 0.920842M897.828 18.421L899.828 19.9211L900.328 11.421C897.328 1.92087 894.828 2.42106 892.828 1.92106M887.828 0.920842C888.161 1.58758 888.828 3.02106 888.828 3.42106C888.828 3.92106 890.828 1.42106 892.828 1.92106M887.828 0.920842C888.161 -2.57908 889.928 -8.97894 894.328 -6.57894C894.995 -6.24566 896.428 -5.1791 896.828 -3.5791C897.228 -1.9791 894.328 0.754341 892.828 1.92106M847.828 51.9209C843.105 52.4209 833.894 56.6209 834.828 69.4209M835.828 72.9209C836.328 74.7542 838.128 78.6209 841.328 79.4209" stroke="#3E1F01"/>
<path d="M918.684 -9.60441C907.991 -8.03237 906.184 -1.77108 906.684 2.39558C907.517 4.89564 909.884 9.99575 912.684 10.3958C916.184 10.8958 912.684 11.8958 950.684 13.3958C956.762 13.6357 965.684 13.3958 970.184 11.8958C980.707 8.38805 981.017 -3.43763 980.184 -8.10432C976.184 -29.1043 961.184 -24.1043 951.684 -23.1043C942.184 -22.1043 935.687 -12.1042 918.684 -9.60441Z" stroke="#3E1F01" stroke-linecap="round"/>
<path d="M972.914 -32.8498L963.414 -32.3498L964.414 -27.8498H972.914M972.914 -32.8498V-27.8498M972.914 -32.8498C972.914 -38.0498 976.581 -40.3498 978.414 -40.8498M972.914 -27.8498C972.747 -26.3498 973.614 -23.0498 978.414 -21.8498M978.414 -40.8498L981.414 -39.3498L979.414 -36.3498L982.414 -33.8498L979.414 -31.3498L982.414 -27.8498L980.414 -25.3498L981.414 -23.3498L978.414 -21.8498M978.414 -40.8498C986.581 -41.6832 1005.01 -40.4597 1016.41 -37.3498C1032.91 -32.8495 1061.91 -16.3499 1055.91 5.65008C1052.14 -2.71818 1038.14 -20.3053 1022.91 -23.3498C1012.91 -25.3498 988.581 -21.8498 978.414 -21.8498M992.414 -36.3498C998.247 -36.6832 1011.21 -36.1498 1016.41 -31.3498" stroke="#3E1F01" stroke-linecap="round"/>
<path d="M952.485 28.413C952.985 25.0796 951.985 18.513 943.985 18.913C933.985 19.413 899.985 55.4131 907.485 74.4131C907.985 75.4131 910.085 77.9131 914.485 79.9131M952.485 28.413C934.885 36.013 919.818 65.9131 914.485 79.9131M952.485 28.413C954.381 27.9755 958.472 28.3037 961.341 32.4131M914.485 79.9131C915.485 87.4131 921.985 92.4131 929.985 92.4131M982.485 58.4131C977.485 67.4131 937.985 92.4131 929.985 92.4131M982.485 58.4131C986.006 52.0756 982.337 50.6966 978.985 49.9116M982.485 58.4131C983.508 58.4131 986.855 56.3216 988.881 58.3174M929.985 92.4131C929.652 94.9131 930.885 99.7131 938.485 98.9131C947.985 97.9131 990.485 74.9131 990.485 64.4131C990.485 61.0715 989.827 59.2491 988.881 58.3174M952.485 23.4131C955.985 22.0798 964.085 22.0131 968.485 32.4131M968.485 32.4131H961.341M968.485 32.4131C971.485 33.7464 978.785 34.3131 983.985 25.9131C985.152 28.7464 988.085 34.4131 990.485 34.4131C986.186 34.6729 979.137 36.908 978.175 43.4131M961.341 32.4131C961.751 32.9998 962.136 33.6635 962.485 34.4131C965.985 41.9131 972.985 47.4131 975.485 48.9131C976.225 49.3568 977.577 49.5818 978.985 49.9116M978.985 49.9116C978.112 47.3791 977.906 45.2296 978.175 43.4131M978.175 43.4131C983.375 43.8493 992.798 47.4409 988.881 58.3174" stroke="#3E1F01"/>
<path d="M1092.09 89.0912C1099.95 92.3052 1114.05 103.557 1107.52 122.853C1103.96 133.406 1091.68 142.196 1075.53 144.127C1059.38 146.058 1043.9 143.907 1036.33 126.026C1034.18 120.942 1034.5 110.474 1042.44 99.6583C1051.32 87.5593 1055.74 90.8272 1056.12 91.9695M1096.97 103.107C1100.48 107.35 1104.47 118.671 1092.35 130.008M1088.7 132.225C1088.04 133.611 1085.61 136.156 1081.23 135.255" stroke="#3E1F01"/>
<path d="M1072.8 88.551C1073.72 86.3047 1077.4 82.3746 1084.79 84.6243C1092.18 86.8739 1094.8 85.92 1095.18 85.1618C1092.61 88.437 1085.39 94.3802 1077.12 91.9504L1072.8 88.551ZM1072.8 88.551C1074.44 85.3875 1076.93 78.4425 1073.79 75.97C1071.51 77.785 1066.84 82.2127 1066.37 85.4027L1066.4 88.6044M1072.8 88.551C1070.81 86.2786 1067.57 87.1477 1066.4 88.6044M1072.8 88.551C1076.25 90.6302 1086.95 99.6773 1086.95 99.6773C1080.72 102.416 1073.7 97.107 1070.97 94.1104M1072.8 88.551C1073.39 91.0821 1072.79 92.2361 1070.97 94.1104M1066.4 88.6044C1065.26 90.0455 1062.14 92.8881 1058.7 92.7294M1066.4 88.6044C1060 79.7559 1045.34 82.221 1045.98 84.6364C1046.63 87.0518 1054.4 92.5311 1058.7 92.7294M1066.4 88.6044C1065.07 90.3156 1061.67 93.5363 1058.7 92.7294M1066.4 88.6044C1063.43 92.3775 1066.13 94.3333 1067.85 94.8395M1058.7 92.7294C1057.16 95.7618 1053.53 101.894 1051.28 102.162C1048.47 102.498 1066.23 101.83 1067.85 94.8395M1067.85 94.8395C1069.44 95.108 1070.09 94.8906 1070.97 94.1104" stroke="#3E1F01"/>
<path d="M986.469 94.7836L978.376 88.579C967.793 99.5355 942.472 121.746 925.843 122.935C907.283 124.263 887.467 124.53 884.137 133.642M986.469 94.7836L962.021 116.198M986.469 94.7836L996.453 83.5329L1005.88 88.1629M1006.13 123.939L1000.62 135.158C975.925 121.914 938.889 133.801 933.298 133.84C928.153 133.876 891.275 147.586 884.674 139.832M1006.13 123.939L978.945 119.168M1006.13 123.939L1021.8 127.184L1026.21 118.208C1025.52 114.524 1015.27 112.356 1004.6 111.181M962.021 116.198L936.165 128.006M962.021 116.198L978.945 119.168M1005.88 88.1629L986.884 110.029M1005.88 88.1629L1010.1 84.1083L1019.97 88.9588L1004.6 111.181M978.945 119.168L986.884 110.029M986.884 110.029C991.627 110.13 998.188 110.477 1004.6 111.181M888.807 134.822C890.73 132.796 895.479 129.632 899.081 133.185M884.137 133.642L877.162 132.444L883.98 134.122M884.137 133.642C884.08 133.8 884.027 133.96 883.98 134.122M883.98 134.122C883.838 134.607 883.741 135.117 883.69 135.651M883.69 135.651L876.304 137.593L883.653 136.747M883.69 135.651C883.657 136.005 883.644 136.37 883.653 136.747M883.653 136.747C883.657 136.934 883.666 137.125 883.681 137.318C883.725 137.879 883.849 138.384 884.049 138.836M884.049 138.836L879.248 142.939L884.674 139.832M884.049 138.836C884.21 139.201 884.42 139.532 884.674 139.832" stroke="#3E1F01" stroke-linecap="round"/>
<path d="M997.689 21.3955C996.891 18.8352 996.431 17.0676 996.414 16.3955C996.339 13.3685 995.786 7.2773 1002.41 4.39551C1005.26 3.15853 995.467 -3.21137 990.414 -8.60449L995.414 -13.6045C997.914 -9.93783 1002.81 -2.80449 1002.41 -3.60449C1002.01 -4.40449 999.247 -11.9378 997.914 -15.6045L1004.91 -18.1045L1005.41 -4.60449L1006.41 -11.6045L1013.41 -9.60449L1009.91 2.39551C1013.41 2.39551 1020.81 4.19551 1022.41 11.3955C1022.89 13.5209 1023.64 18.6859 1024.46 25.3955M997.689 21.3955C1001.93 21.3955 1010.71 20.9955 1011.91 19.3955M997.689 21.3955C999.546 27.3577 1003.23 37.6183 1007.41 48.3519M1011.41 28.8955C1015.44 28.7288 1023.69 27.7955 1024.46 25.3955M1024.46 25.3955C1025.35 32.7063 1026.32 41.8509 1027.1 50.8955M1008.41 37.3955C1011.41 37.3955 1017.81 36.8955 1019.41 34.8955M1007.41 48.3519C1010.08 48.3664 1015.81 47.8955 1017.41 45.8955M1007.41 48.3519C1010.28 55.723 1013.39 63.3172 1016.29 69.8955M1027.1 50.8955C1025.71 52.5622 1021.81 55.6955 1017.41 54.8955M1027.1 50.8955C1027.89 59.9837 1028.48 68.971 1028.6 75.8955M1016.29 69.8955C1021.44 81.5666 1025.95 90.0397 1027.41 88.3955C1028.41 87.2797 1028.72 82.5362 1028.6 75.8955M1016.29 69.8955C1018 69.8955 1021.61 69.4955 1022.41 67.8955M1021.91 75.8955C1024.15 76.2288 1028.62 76.6955 1028.6 75.8955" stroke="#3E1F01" stroke-linecap="round"/>
<path d="M1082.79 -7.48381C1082.79 -4.48381 1076.79 0.516193 1076.79 -2.48381C1076.79 -4.88381 1070.79 -6.81714 1067.79 -7.48381C1064.29 -8.4845 1056.79 -5.48364 1058.79 4.01636C1060.79 13.5164 1076.79 11.0164 1086.79 8.01636C1088.23 7.5821 1089.59 7.68215 1090.85 8.17092M1082.79 -7.48381C1082.79 -10.4838 1068.79 -16.9838 1063.79 -16.4838C1061.58 -16.2635 1056.66 -18.9554 1052.79 -23.0198M1082.79 -7.48381L1092.29 -12.9836M1052.79 -23.0198C1047.87 -28.1795 1044.63 -35.551 1050.79 -41.9837C1061.79 -53.4837 1068.79 -45.9837 1072.79 -41.9837C1074.05 -40.7212 1075.36 -38.4127 1076.79 -35.7342M1052.79 -23.0198L1061.79 -31.4836M1067.79 -27.4836L1076.79 -35.7342M1076.79 -35.7342C1079.88 -29.9263 1083.5 -22.3788 1088.29 -19.9836C1092.8 -17.7279 1091.29 -24.8187 1090.85 -31.4836M1072.79 -17.9836L1076.79 -24.4836M1090.85 -31.4836C1090.6 -35.1597 1090.69 -38.7062 1092.29 -40.4836C1096.79 -45.4836 1107.79 -42.9836 1107.79 -35.4836C1107.79 -31.6873 1107.66 -24.8165 1108.12 -17.9836M1090.85 -31.4836H1101.29M1096.29 -19.9836L1108.12 -17.9836M1108.12 -17.9836C1108.56 -11.3174 1109.56 -4.68735 1111.79 -0.983643C1116.29 6.51636 1125.29 16.5164 1119.79 23.0164C1114.29 29.5164 1104.29 27.5164 1103.29 27.5164C1102.43 27.5164 1098.29 11.0588 1090.85 8.17092M1090.85 8.17092L1098.79 2.01636M1103.29 15.5164C1106.79 14.6315 1113.89 12.3927 1114.29 10.5164" stroke="#3E1F01" stroke-linecap="round"/>
<path d="M907.255 30.8196C906.284 31.3517 903.577 30.2506 904.547 29.7185C905.324 29.2928 904.859 26.962 904.529 25.8498C904.217 24.5126 901.884 22.5602 899.175 24.9078C896.466 27.2553 900.181 32.1129 902.969 34.8941C903.372 35.2967 903.586 35.7628 903.656 36.2666M907.255 30.8196C908.225 30.2875 907.783 24.4962 906.713 22.9283C906.242 22.2375 906.218 20.1295 906.828 18.1247M907.255 30.8196L910.76 32.9917M906.828 18.1247C907.603 15.5797 909.4 13.2008 912.598 14.0985C918.316 15.7033 917.162 19.353 916.595 21.3876C916.417 22.0298 915.908 22.874 915.301 23.8212M906.828 18.1247L911.201 19.6054M910.997 22.3026L915.301 23.8212M915.301 23.8212C913.984 25.875 912.201 28.4129 912.297 30.4249C912.387 32.3198 914.405 30.5613 916.481 29.2334M908.834 25.6443L911.662 25.8166M916.481 29.2334C917.626 28.501 918.788 27.8996 919.653 28.1143C922.088 28.7184 923.278 32.8063 920.853 34.1365C919.625 34.8098 917.379 35.986 915.253 37.3493M916.481 29.2334L918.378 32.6924M913.75 33.0755L915.253 37.3493M915.253 37.3493C913.178 38.6794 911.216 40.1876 910.422 41.5807C908.814 44.4019 907.215 49.1573 904.113 48.4879C901.012 47.8185 899.842 44.1506 899.66 43.8193C899.505 43.536 904.074 39.2432 903.656 36.2666M903.656 36.2666L907.089 37.8057M903.541 41.691C904.463 42.6937 906.477 44.6489 907.157 44.4487" stroke="#3E1F01" stroke-linecap="round"/>
<path d="M1048.12 21.6463C1028.12 24.6463 1038.62 46.6463 1044.12 50.6463C1048.52 53.8463 1050.29 61.6463 1050.62 65.1463C1052.62 69.3129 1057.22 76.8462 1059.62 73.6462C1062.02 70.4462 1059.62 63.9796 1058.12 61.1462M1048.12 21.6463C1053.46 16.1463 1066.52 8.14629 1076.12 20.1463M1048.12 21.6463C1041.62 35.1463 1056.12 55.6462 1058.12 61.1462M1076.12 20.1463C1078.96 22.8129 1082.42 33.0462 1073.62 52.6462C1072.69 56.9227 1071 63.9145 1069.48 68.6462M1076.12 20.1463C1080.29 18.8129 1089.12 17.8462 1091.12 24.6462C1093.62 33.1462 1084.12 48.6462 1084.12 49.6462C1084.12 50.6463 1076.12 66.6462 1076.12 70.1462C1076.12 73.6462 1071.84 74.1462 1069.48 68.6462M1058.12 61.1462C1060.12 66.6462 1065.12 74.1462 1067.12 73.6462C1067.72 73.4966 1068.57 71.4754 1069.48 68.6462M1059.62 24.6462C1060.62 21.6463 1046.12 33.6463 1061.12 50.6463" stroke="#3E1F01" stroke-linecap="round"/>
<path d="M913.886 94.9362C907.842 87.0764 900.418 96.9914 899.911 100.338C899.505 103.014 896.414 105.689 894.919 106.692C893.515 108.574 891.209 112.401 893.211 112.647C895.213 112.893 897.556 110.274 898.478 108.933M913.886 94.9362C917.611 95.8781 924.275 99.5302 921.134 106.603M913.886 94.9362C906.291 95.457 900.48 106.723 898.478 108.933M921.134 106.603C920.601 108.476 916.814 112.478 905.938 113.508C903.795 114.155 900.257 115.148 897.773 115.657M921.134 106.603C922.712 108.066 925.22 111.626 922.633 114.155C919.399 117.317 910.201 117.039 909.751 117.285C909.302 117.53 900.231 118.021 898.658 118.88C897.085 119.739 895.854 118.021 897.773 115.657M898.478 108.933C896.475 111.143 894.277 115.134 894.972 115.871C895.179 116.092 896.288 115.961 897.773 115.657M915.238 100.616C916.821 100.309 908.022 97.0231 903.902 107.645" stroke="#3E1F01" stroke-linecap="round"/>
<path d="M1122.15 -26.0299C1112.35 -24.4933 1117.5 -13.2246 1120.19 -11.1757C1122.34 -9.53665 1123.21 -5.54139 1123.37 -3.74864C1124.35 -1.61442 1126.61 2.24424 1127.78 0.605158C1128.96 -1.03393 1127.78 -4.34624 1127.05 -5.79752M1122.15 -26.0299C1124.76 -28.8471 1131.16 -32.9448 1135.86 -26.7983M1122.15 -26.0299C1118.97 -19.115 1126.07 -8.61469 1127.05 -5.79752M1135.86 -26.7983C1137.25 -25.4324 1138.95 -20.1907 1134.64 -10.1513C1134.18 -7.96089 1133.35 -4.37957 1132.61 -1.95591M1135.86 -26.7983C1137.9 -27.4812 1142.23 -27.9764 1143.21 -24.4933C1144.43 -20.1395 1139.78 -12.2002 1139.78 -11.688C1139.78 -11.1757 1135.86 -2.98034 1135.86 -1.18759C1135.86 0.605158 1133.76 0.861265 1132.61 -1.95591M1127.05 -5.79752C1128.03 -2.98034 1130.48 0.861265 1131.45 0.605158C1131.75 0.528494 1132.16 -0.50678 1132.61 -1.95591M1127.78 -24.4933C1128.27 -26.0299 1121.17 -19.8834 1128.52 -11.1757" stroke="#3E1F01" stroke-linecap="round"/>
<path d="M1141.33 8.92097C1141.66 12.921 1140.33 23.4209 1116.33 39.421C1105.33 44.9209 1087.13 48.521 1092.33 70.921C1097.53 93.321 1123.49 83.2543 1135.83 75.421C1146.85 68.4209 1161.43 31.021 1161.83 15.421M1141.33 8.92097L1149.33 5.92084L1151.08 15.421C1152.66 13.2543 1156.03 8.82097 1156.83 8.42097C1157.63 8.02097 1160.49 12.921 1161.83 15.421M1141.33 8.92097L1138.83 9.42084C1140.16 4.42084 1144.63 -4.87916 1151.83 -2.07916M1161.83 15.421L1163.83 16.9211L1164.33 8.42097C1161.33 -1.07913 1158.83 -0.578938 1156.83 -1.07894M1151.83 -2.07916C1152.16 -1.41242 1152.83 0.0210625 1152.83 0.421062C1152.83 0.921062 1154.83 -1.57894 1156.83 -1.07894M1151.83 -2.07916C1152.16 -5.57908 1153.93 -11.9789 1158.33 -9.57894C1158.99 -9.24566 1160.43 -8.1791 1160.83 -6.5791C1161.23 -4.9791 1158.33 -2.24566 1156.83 -1.07894M1111.83 48.9209C1107.11 49.4209 1097.89 53.6209 1098.83 66.4209M1099.83 69.9209C1100.33 71.7542 1102.13 75.6209 1105.33 76.4209" stroke="#3E1F01"/>
<path d="M1185.68 -9.60441C1174.99 -8.03237 1173.18 -1.77108 1173.68 2.39558C1174.52 4.89564 1176.88 9.99575 1179.68 10.3958C1183.18 10.8958 1179.68 11.8958 1217.68 13.3958C1223.76 13.6357 1232.68 13.3958 1237.18 11.8958C1247.71 8.38805 1248.02 -3.43763 1247.18 -8.10432C1243.18 -29.1043 1228.18 -24.1043 1218.68 -23.1043C1209.18 -22.1043 1202.69 -12.1042 1185.68 -9.60441Z" stroke="#3E1F01" stroke-linecap="round"/>
<path d="M1219.49 28.413C1219.99 25.0796 1218.99 18.513 1210.99 18.913C1200.99 19.413 1166.99 55.4131 1174.49 74.4131C1174.99 75.4131 1177.09 77.9131 1181.49 79.9131M1219.49 28.413C1201.88 36.013 1186.82 65.9131 1181.49 79.9131M1219.49 28.413C1221.38 27.9755 1225.47 28.3037 1228.34 32.4131M1181.49 79.9131C1182.49 87.4131 1188.99 92.4131 1196.99 92.4131M1249.49 58.4131C1244.49 67.4131 1204.99 92.4131 1196.99 92.4131M1249.49 58.4131C1253.01 52.0756 1249.34 50.6966 1245.99 49.9116M1249.49 58.4131C1250.51 58.4131 1253.85 56.3216 1255.88 58.3174M1196.99 92.4131C1196.65 94.9131 1197.89 99.7131 1205.49 98.9131C1214.99 97.9131 1257.49 74.9131 1257.49 64.4131C1257.49 61.0715 1256.83 59.2491 1255.88 58.3174M1219.49 23.4131C1222.99 22.0798 1231.09 22.0131 1235.49 32.4131M1235.49 32.4131H1228.34M1235.49 32.4131C1238.49 33.7464 1245.79 34.3131 1250.99 25.9131C1252.15 28.7464 1255.09 34.4131 1257.49 34.4131C1253.19 34.6729 1246.14 36.908 1245.17 43.4131M1228.34 32.4131C1228.75 32.9998 1229.14 33.6635 1229.49 34.4131C1232.99 41.9131 1239.99 47.4131 1242.49 48.9131C1243.22 49.3568 1244.58 49.5818 1245.99 49.9116M1245.99 49.9116C1245.11 47.3791 1244.91 45.2296 1245.17 43.4131M1245.17 43.4131C1250.38 43.8493 1259.8 47.4409 1255.88 58.3174" stroke="#3E1F01"/>
<path d="M1253.47 94.7836L1245.38 88.579C1234.79 99.5355 1209.47 121.746 1192.84 122.935C1174.28 124.263 1154.47 124.53 1151.14 133.642M1253.47 94.7836L1229.02 116.198M1253.47 94.7836L1263.45 83.5329L1272.88 88.1629M1273.13 123.939L1267.62 135.158C1242.93 121.914 1205.89 133.801 1200.3 133.84C1195.15 133.876 1158.28 147.586 1151.67 139.832M1273.13 123.939L1245.95 119.168M1273.13 123.939L1288.8 127.184L1293.21 118.208C1292.52 114.524 1282.27 112.356 1271.6 111.181M1229.02 116.198L1203.16 128.006M1229.02 116.198L1245.95 119.168M1272.88 88.1629L1253.88 110.029M1272.88 88.1629L1277.1 84.1083L1286.97 88.9588L1271.6 111.181M1245.95 119.168L1253.88 110.029M1253.88 110.029C1258.63 110.13 1265.19 110.477 1271.6 111.181M1155.81 134.822C1157.73 132.796 1162.48 129.632 1166.08 133.185M1151.14 133.642L1144.16 132.444L1150.98 134.122M1151.14 133.642C1151.08 133.8 1151.03 133.96 1150.98 134.122M1150.98 134.122C1150.84 134.607 1150.74 135.117 1150.69 135.651M1150.69 135.651L1143.3 137.593L1150.65 136.747M1150.69 135.651C1150.66 136.005 1150.64 136.37 1150.65 136.747M1150.65 136.747C1150.66 136.934 1150.67 137.125 1150.68 137.318C1150.72 137.879 1150.85 138.384 1151.05 138.836M1151.05 138.836L1146.25 142.939L1151.67 139.832M1151.05 138.836C1151.21 139.201 1151.42 139.532 1151.67 139.832" stroke="#3E1F01" stroke-linecap="round"/>
<path d="M1144.73 77.218C1145.8 75.0575 1146.59 73.6219 1147 73.1741C1148.82 71.157 1152.23 66.8491 1158.33 69.0737C1160.94 70.0285 1158.51 59.8228 1158.56 53.1851L1164.91 53.0234C1164.27 56.9575 1163.04 64.6335 1163.28 63.8651C1163.51 63.0968 1166.37 56.4803 1167.77 53.2681L1173.88 55.9715L1165.85 65.0702L1170.83 61.1315L1174.15 66.7647L1164.45 72.412C1166.73 74.5775 1170.43 80.328 1167.02 86.0056C1166.01 87.6816 1163.3 91.5091 1159.69 96.3844M1144.73 77.218C1147.49 79.8425 1153.46 85.0168 1155.23 84.7175M1144.73 77.218C1142.25 82.249 1138.31 91.2111 1134.39 100.786M1149.03 90.5933C1151.75 92.9773 1157.7 97.4732 1159.69 96.3844M1159.69 96.3844C1155.74 101.697 1150.72 108.253 1145.63 114.625M1141.82 94.2712C1143.77 96.1273 1148.24 99.7616 1150.52 99.4495M1134.39 100.786C1136.11 102.445 1140.14 105.686 1142.42 105.374M1134.39 100.786C1131.69 107.361 1129.02 114.225 1126.83 120.303M1145.63 114.625C1143.69 114.846 1139.22 114.477 1136.85 111.233M1145.63 114.625C1140.52 121.028 1135.34 127.246 1131.14 131.83M1126.83 120.303C1122.96 131.087 1120.66 139.397 1122.63 139.231C1123.97 139.118 1127.11 136.225 1131.14 131.83M1126.83 120.303C1127.95 121.36 1130.55 123.338 1132.06 122.791M1126.78 127.69C1128.03 129.291 1130.66 132.361 1131.14 131.83" stroke="#3E1F01" stroke-width="0.898168" stroke-linecap="round"/>
<path d="M1174.25 30.8196C1173.28 31.3517 1170.58 30.2506 1171.55 29.7185C1172.32 29.2928 1171.86 26.962 1171.53 25.8498C1171.22 24.5126 1168.88 22.5602 1166.17 24.9078C1163.47 27.2553 1167.18 32.1129 1169.97 34.8941C1170.37 35.2967 1170.59 35.7628 1170.66 36.2666M1174.25 30.8196C1175.22 30.2875 1174.78 24.4962 1173.71 22.9283C1173.24 22.2375 1173.22 20.1295 1173.83 18.1247M1174.25 30.8196L1177.76 32.9917M1173.83 18.1247C1174.6 15.5797 1176.4 13.2008 1179.6 14.0985C1185.32 15.7033 1184.16 19.353 1183.6 21.3876C1183.42 22.0298 1182.91 22.874 1182.3 23.8212M1173.83 18.1247L1178.2 19.6054M1178 22.3026L1182.3 23.8212M1182.3 23.8212C1180.98 25.875 1179.2 28.4129 1179.3 30.4249C1179.39 32.3198 1181.41 30.5613 1183.48 29.2334M1175.83 25.6443L1178.66 25.8166M1183.48 29.2334C1184.63 28.501 1185.79 27.8996 1186.65 28.1143C1189.09 28.7184 1190.28 32.8063 1187.85 34.1365C1186.62 34.8098 1184.38 35.986 1182.25 37.3493M1183.48 29.2334L1185.38 32.6924M1180.75 33.0755L1182.25 37.3493M1182.25 37.3493C1180.18 38.6794 1178.22 40.1876 1177.42 41.5807C1175.81 44.4019 1174.21 49.1573 1171.11 48.4879C1168.01 47.8185 1166.84 44.1506 1166.66 43.8193C1166.5 43.536 1171.07 39.2432 1170.66 36.2666M1170.66 36.2666L1174.09 37.8057M1170.54 41.691C1171.46 42.6937 1173.48 44.6489 1174.16 44.4487" stroke="#3E1F01" stroke-linecap="round"/>
<path d="M1179.42 94.8487C1171.35 89.0952 1167.14 100.745 1167.63 104.094C1168.02 106.773 1165.85 110.233 1164.71 111.628C1163.92 113.839 1162.83 118.172 1164.82 117.823C1166.8 117.474 1168.28 114.285 1168.77 112.734M1179.42 94.8487C1183.26 94.6626 1190.7 96.2106 1189.76 103.892M1179.42 94.8487C1172.31 97.5635 1170.04 110.035 1168.77 112.734M1189.76 103.892C1189.79 105.839 1187.34 110.772 1177.24 114.932C1175.38 116.176 1172.28 118.159 1170.06 119.37M1189.76 103.892C1191.69 104.831 1195.13 107.504 1193.4 110.678C1191.23 114.646 1182.35 117.065 1181.99 117.431C1181.63 117.797 1173.1 120.913 1171.84 122.194C1170.59 123.476 1168.91 122.191 1170.06 119.37M1168.77 112.734C1167.5 115.432 1166.56 119.89 1167.44 120.392C1167.7 120.543 1168.73 120.094 1170.06 119.37M1182.37 99.8866C1183.8 99.1311 1174.42 98.5562 1173.58 109.918" stroke="#3E1F01" stroke-linecap="round"/>
</svg>
