<svg width="1201" height="101" viewBox="0 0 1201 101" fill="none" xmlns="http://www.w3.org/2000/svg">
<path d="M-4 29.2547L-13.5 29.7547L-12.5 34.2547H-4M-4 29.2547V34.2547M-4 29.2547C-4 24.0547 -0.333333 21.7547 1.5 21.2547M-4 34.2547C-4.16667 35.7547 -3.3 39.0547 1.5 40.2547M1.5 21.2547L4.5 22.7547L2.5 25.7547L5.5 28.2547L2.5 30.7547L5.5 34.2547L3.5 36.7547L4.5 38.7547L1.5 40.2547M1.5 21.2547C9.66667 20.4213 28.0979 21.6448 39.5 24.7547C56 29.255 85 45.7546 79 67.7546C75.2256 59.3863 61.2227 41.7992 46 38.7547C36 36.7547 11.6667 40.2547 1.5 40.2547M15.5 25.7547C21.3333 25.4213 34.3 25.9547 39.5 30.7547" stroke="#3E1F01" stroke-linecap="round"/>
<path d="M321.162 27.3407C323.027 27.2371 324.3 27.2268 324.756 27.3298C326.814 27.7938 331.023 28.456 331.843 33.4236C332.195 35.5558 338.163 30.0236 342.666 27.5269L345.194 31.7549C342.292 32.8204 336.639 34.9179 337.248 34.7837C337.856 34.6495 343.416 34.0612 346.12 33.7839L346.619 38.938L337.413 36.9805L341.972 38.8462L339.431 43.2352L331.919 38.8305C331.324 41.195 328.85 45.8882 323.714 45.745C322.198 45.7027 318.58 45.332 313.908 44.7448M321.162 27.3407C320.441 30.2064 319.217 36.2085 320.094 37.2912M321.162 27.3407C316.818 27.5819 309.259 28.3288 301.297 29.3279M313.761 35.3383C313.189 38.0882 312.417 43.8194 313.908 44.7448M313.908 44.7448C308.817 44.1049 302.474 43.2078 296.231 42.1982M308.529 31.8663C308.019 33.8931 307.269 38.3018 308.348 39.7228M301.297 29.3279C300.834 31.127 300.177 35.0804 301.256 36.5014M301.297 29.3279C295.829 30.0141 290.171 30.8191 285.234 31.661M296.231 42.1982C295.342 40.9711 293.888 37.8077 295.176 34.9712M296.231 42.1982C289.957 41.1838 283.785 40.0557 279.086 38.9608M285.234 31.661C276.474 33.1547 269.982 34.7643 270.844 36.0313C271.429 36.891 274.58 37.9107 279.086 38.9608M285.234 31.661C284.943 32.8151 284.599 35.3263 285.543 36.1388M280.224 34.4408C279.618 35.8954 278.543 38.8358 279.086 38.9608" stroke="#3E1F01" stroke-width="0.696645" stroke-linecap="round"/>
<path d="M0.872696 79.5162C0.872696 82.5162 -5.12731 87.5162 -5.12731 84.5162C-5.12731 82.1162 -11.1273 80.1829 -14.1273 79.5162C-17.6277 78.5155 -25.127 81.5164 -23.127 91.0164C-21.127 100.516 -5.12731 98.0164 4.87305 95.0164C6.32062 94.5821 7.67389 94.6822 8.93285 95.1709M0.872696 79.5162C0.872696 76.5162 -13.1273 70.0162 -18.1273 70.5162C-20.3304 70.7365 -25.2517 68.0446 -29.127 63.9802M0.872696 79.5162L10.373 74.0164M-29.127 63.9802C-34.0466 58.8205 -37.2804 51.449 -31.1273 45.0163C-20.1273 33.5163 -13.1266 41.0163 -9.12695 45.0163C-7.86457 46.2788 -6.5523 48.5873 -5.12731 51.2658M-29.127 63.9802L-20.127 55.5164M-14.1273 59.5164L-5.12731 51.2658M-5.12731 51.2658C-2.03745 57.0737 1.58242 64.6212 6.37305 67.0164C10.8847 69.2721 9.37295 62.1813 8.93285 55.5164M-9.12695 69.0164L-5.12731 62.5164M8.93285 55.5164C8.69012 51.8403 8.77338 48.2938 10.373 46.5164C14.873 41.5164 25.873 44.0164 25.873 51.5164C25.873 55.3127 25.7449 62.1835 26.202 69.0164M8.93285 55.5164H19.373M14.373 67.0164L26.202 69.0164M26.202 69.0164C26.6479 75.6826 27.6508 82.3127 29.873 86.0164C34.373 93.5164 43.373 103.516 37.873 110.016C32.373 116.516 22.373 114.516 21.373 114.516C20.5178 114.516 16.3713 98.0588 8.93285 95.1709M8.93285 95.1709L16.873 89.0164M21.373 102.516C24.873 101.632 31.973 99.3927 32.373 97.5164" stroke="#3E1F01" stroke-linecap="round"/>
<path d="M51.5081 62.7377C50.9939 61.7579 52.1442 59.0712 52.6585 60.051C53.0699 60.8348 55.4088 60.4125 56.5268 60.1034C57.8695 59.8155 59.8641 57.5184 57.5664 54.767C55.2686 52.0156 50.3441 55.6419 47.5125 58.378C47.1026 58.774 46.6327 58.979 46.1277 59.0405M51.5081 62.7377C52.0224 63.7175 57.8208 63.3816 59.408 62.3402C60.1073 61.8814 62.2153 61.8963 64.2087 62.5431M51.5081 62.7377L49.2724 66.2024M64.2087 62.5431C66.7392 63.3642 69.0848 65.2038 68.1289 68.3853C66.4201 74.073 62.7921 72.853 60.7681 72.249C60.1293 72.0584 59.2945 71.5349 58.3586 70.9104M64.2087 62.5431L62.6484 66.8879M59.9554 66.6352L58.3586 70.9104M58.3586 70.9104C56.3292 69.5562 53.8242 67.727 51.8107 67.786C49.9145 67.8417 51.6359 69.892 52.9257 71.9914M56.6538 64.4107L56.4299 67.236M52.9257 71.9914C53.6371 73.1494 54.2173 74.3223 53.9867 75.1837C53.3383 77.607 49.2294 78.7223 47.9437 76.2728C47.2929 75.033 46.1578 72.7665 44.8336 70.6152M52.9257 71.9914L49.4327 73.8249M49.1341 69.191L44.8336 70.6152M44.8336 70.6152C43.5416 68.5164 42.0694 66.5272 40.691 65.7078C37.8997 64.0487 33.1742 62.3633 33.9 59.2745C34.6259 56.1858 38.3145 55.0828 38.6491 54.9071C38.9353 54.7569 43.1439 59.4037 46.1277 59.0405M46.1277 59.0405L44.5262 62.445M40.7063 58.8263C39.687 59.7299 37.6953 61.708 37.8831 62.3911" stroke="#3E1F01" stroke-linecap="round"/>
<path d="M-33.7903 108.646C-53.7903 111.646 -43.2903 133.646 -37.7903 137.646C-33.3903 140.846 -31.6236 148.646 -31.2903 152.146C-29.2902 156.313 -24.69 163.846 -22.29 160.646C-19.89 157.446 -22.29 150.98 -23.79 148.146M-33.7903 108.646C-28.4569 103.146 -15.39 95.1463 -5.79004 107.146M-33.7903 108.646C-40.2906 122.146 -25.79 142.646 -23.79 148.146M-5.79004 107.146C-2.95671 109.813 0.509961 120.046 -8.29004 139.646C-9.22877 143.923 -10.9116 150.915 -12.4317 155.646M-5.79004 107.146C-1.62337 105.813 7.20996 104.846 9.20996 111.646C11.71 120.146 2.20996 135.646 2.20996 136.646C2.20996 137.646 -5.79004 153.646 -5.79004 157.146C-5.79004 160.646 -10.0734 161.146 -12.4317 155.646M-23.79 148.146C-21.79 153.646 -16.79 161.146 -14.79 160.646C-14.1913 160.497 -13.3406 158.475 -12.4317 155.646M-22.29 111.646C-21.29 108.646 -35.79 120.646 -20.79 137.646" stroke="#3E1F01" stroke-linecap="round"/>
<path d="M59.414 95.921C59.7473 99.921 58.4138 110.421 34.414 126.421C23.4143 131.921 5.21401 135.521 10.414 157.921C15.614 180.321 41.5805 170.254 53.9138 162.421C64.9351 155.421 79.5138 118.021 79.9138 102.421M59.414 95.921L67.4138 92.9208L69.1626 102.421C70.7463 100.254 74.1138 95.821 74.9138 95.421C75.7138 95.021 78.5805 99.921 79.9138 102.421M59.414 95.921L56.9138 96.4208C58.2471 91.4208 62.7138 82.1208 69.9138 84.9208M79.9138 102.421L81.9138 103.921L82.4138 95.421C79.4138 85.9209 76.9138 86.4211 74.9138 85.9211M69.9138 84.9208C70.2471 85.5876 70.9138 87.0211 70.9138 87.4211C70.9138 87.9211 72.9138 85.4211 74.9138 85.9211M69.9138 84.9208C70.2471 81.4209 72.0138 75.0211 76.4138 77.4211C77.0805 77.7543 78.5138 78.8209 78.9138 80.4209C79.3138 82.0209 76.4138 84.7543 74.9138 85.9211M29.9138 135.921C25.1914 136.421 15.9801 140.621 16.9138 153.421M17.9138 156.921C18.4138 158.754 20.2138 162.621 23.4138 163.421" stroke="#3E1F01"/>
<path d="M100.77 74.3956C90.0771 75.9676 88.2695 82.2289 88.7695 86.3956C89.6029 88.8956 91.9696 93.9958 94.7696 94.3958C98.2696 94.8958 94.7696 95.8958 132.77 97.3958C138.848 97.6357 147.77 97.3958 152.27 95.8958C162.793 92.388 163.103 80.5624 162.27 75.8957C158.27 54.8957 143.27 59.8957 133.77 60.8957C124.27 61.8957 117.772 71.8958 100.77 74.3956Z" stroke="#3E1F01" stroke-linecap="round"/>
<path d="M95.7725 47.8955C99.9391 47.8955 108.672 47.3955 110.272 45.3955M83.7722 48.8955C80.7722 41.0622 81.1722 25.0955 106.772 23.8955C117.772 25.8955 137.772 26.3955 147.272 26.3955C160.272 29.3955 161.272 43.3955 147.272 46.3955C131.772 50.8955 116.772 58.8955 112.272 60.8955C106.606 64.3955 92.972 66.8955 83.7722 48.8955ZM89.7725 42.8955C89.7725 30.3955 112.272 22.8955 115.772 42.8955C114.272 58.9769 89.7725 62.4955 89.7725 42.8955Z" stroke="#3E1F01" stroke-linecap="round"/>
<path d="M155 51.1502L145.5 51.6502L146.5 56.1502H155M155 51.1502V56.1502M155 51.1502C155 45.9502 158.667 43.6502 160.5 43.1502M155 56.1502C154.833 57.6502 155.7 60.9502 160.5 62.1502M160.5 43.1502L163.5 44.6502L161.5 47.6502L164.5 50.1502L161.5 52.6502L164.5 56.1502L162.5 58.6502L163.5 60.6502L160.5 62.1502M160.5 43.1502C168.667 42.3168 187.098 43.5403 198.5 46.6502C215 51.1505 244 67.6501 238 89.6501C234.226 81.2818 220.223 63.6947 205 60.6502C195 58.6502 170.667 62.1502 160.5 62.1502M174.5 47.6502C180.333 47.3168 193.3 47.8502 198.5 52.6502" stroke="#3E1F01" stroke-linecap="round"/>
<path d="M179.774 105.396C178.977 102.835 178.517 101.068 178.5 100.396C178.425 97.3685 177.872 91.2773 184.5 88.3955C187.345 87.1585 177.553 80.7886 172.5 75.3955L177.5 70.3955C180 74.0622 184.9 81.1955 184.5 80.3955C184.1 79.5955 181.333 72.0622 180 68.3955L187 65.8955L187.5 79.3955L188.5 72.3955L195.5 74.3955L192 86.3955C195.5 86.3955 202.9 88.1955 204.5 95.3955C204.972 97.5209 205.723 102.686 206.543 109.396M179.774 105.396C184.016 105.396 192.8 104.996 194 103.396M179.774 105.396C181.632 111.358 185.32 121.618 189.5 132.352M193.5 112.896C197.529 112.729 205.777 111.796 206.543 109.396M206.543 109.396C207.435 116.706 208.409 125.851 209.191 134.896M190.5 121.396C193.5 121.396 199.9 120.896 201.5 118.896M189.5 132.352C192.167 132.366 197.9 131.896 199.5 129.896M189.5 132.352C192.371 139.723 195.474 147.317 198.375 153.896M209.191 134.896C207.794 136.562 203.9 139.696 199.5 138.896M209.191 134.896C209.977 143.984 210.569 152.971 210.69 159.896M198.375 153.896C203.523 165.567 208.038 174.04 209.5 172.396C210.492 171.28 210.807 166.536 210.69 159.896M198.375 153.896C200.084 153.896 203.7 153.496 204.5 151.896M204 159.896C206.237 160.229 210.707 160.696 210.69 159.896" stroke="#3E1F01" stroke-linecap="round"/>
<path d="M264.873 76.5162C264.873 79.5162 258.873 84.5162 258.873 81.5162C258.873 79.1162 252.873 77.1829 249.873 76.5162C246.372 75.5155 238.873 78.5164 240.873 88.0164C242.873 97.5164 258.873 95.0164 268.873 92.0164C270.321 91.5821 271.674 91.6822 272.933 92.1709M264.873 76.5162C264.873 73.5162 250.873 67.0162 245.873 67.5162C243.67 67.7365 238.748 65.0446 234.873 60.9802M264.873 76.5162L274.373 71.0164M234.873 60.9802C229.953 55.8205 226.72 48.449 232.873 42.0163C243.873 30.5163 250.873 38.0163 254.873 42.0163C256.135 43.2788 257.448 45.5873 258.873 48.2658M234.873 60.9802L243.873 52.5164M249.873 56.5164L258.873 48.2658M258.873 48.2658C261.963 54.0737 265.582 61.6212 270.373 64.0164C274.885 66.2721 273.373 59.1813 272.933 52.5164M254.873 66.0164L258.873 59.5164M272.933 52.5164C272.69 48.8403 272.773 45.2938 274.373 43.5164C278.873 38.5164 289.873 41.0164 289.873 48.5164C289.873 52.3127 289.745 59.1835 290.202 66.0164M272.933 52.5164H283.373M278.373 64.0164L290.202 66.0164M290.202 66.0164C290.648 72.6826 291.651 79.3127 293.873 83.0164C298.373 90.5164 307.373 100.516 301.873 107.016C296.373 113.516 286.373 111.516 285.373 111.516C284.518 111.516 280.371 95.0588 272.933 92.1709M272.933 92.1709L280.873 86.0164M285.373 99.5164C288.873 98.6315 295.973 96.3927 296.373 94.5164" stroke="#3E1F01" stroke-linecap="round"/>
<path d="M89.3406 114.82C88.3704 115.352 85.6632 114.251 86.6334 113.718C87.4096 113.293 86.9447 110.962 86.6152 109.85C86.3028 108.513 83.9697 106.56 81.2607 108.908C78.5517 111.255 82.2673 116.113 85.0545 118.894C85.458 119.297 85.6715 119.763 85.7422 120.267M89.3406 114.82C90.3109 114.287 89.8693 108.496 88.7991 106.928C88.3276 106.237 88.304 104.13 88.9143 102.125M89.3406 114.82L92.8455 116.992M88.9143 102.125C89.6892 99.5797 91.4856 97.2008 94.6841 98.0985C100.402 99.7033 99.2484 103.353 98.6814 105.388C98.5025 106.03 97.9943 106.874 97.387 107.821M88.9143 102.125L93.2869 103.605M93.0834 106.303L97.387 107.821M97.387 107.821C96.07 109.875 94.2868 112.413 94.3826 114.425C94.4728 116.32 96.4914 114.561 98.567 113.233M90.9195 109.644L93.7484 109.817M98.567 113.233C99.7117 112.501 100.874 111.9 101.739 112.114C104.174 112.718 105.364 116.806 102.939 118.137C101.711 118.81 99.4654 119.986 97.3386 121.349M98.567 113.233L100.464 116.692M95.8362 117.075L97.3386 121.349M97.3386 121.349C95.2637 122.679 93.3017 124.188 92.5076 125.581C90.8997 128.402 89.3008 133.157 86.1993 132.488C83.0978 131.819 81.9277 128.151 81.746 127.819C81.5906 127.536 86.1598 123.243 85.7422 120.267M85.7422 120.267L89.1753 121.806M85.6269 125.691C86.549 126.694 88.5631 128.649 89.2426 128.449" stroke="#3E1F01" stroke-linecap="round"/>
<path d="M197.612 28.7377C197.097 27.7579 198.248 25.0712 198.762 26.051C199.173 26.8348 201.512 26.4125 202.63 26.1034C203.973 25.8155 205.968 23.5184 203.67 20.767C201.372 18.0156 196.448 21.6419 193.616 24.378C193.206 24.774 192.736 24.979 192.231 25.0405M197.612 28.7377C198.126 29.7175 203.924 29.3816 205.511 28.3402C206.211 27.8814 208.319 27.8963 210.312 28.5431M197.612 28.7377L195.376 32.2024M210.312 28.5431C212.843 29.3642 215.188 31.2038 214.232 34.3853C212.524 40.073 208.896 38.853 206.872 38.249C206.233 38.0584 205.398 37.5349 204.462 36.9104M210.312 28.5431L208.752 32.8879M206.059 32.6352L204.462 36.9104M204.462 36.9104C202.433 35.5562 199.928 33.727 197.914 33.786C196.018 33.8417 197.739 35.892 199.029 37.9914M202.757 30.4107L202.533 33.236M199.029 37.9914C199.741 39.1494 200.321 40.3223 200.09 41.1837C199.442 43.607 195.333 44.7223 194.047 42.2728C193.396 41.033 192.261 38.7665 190.937 36.6152M199.029 37.9914L195.536 39.8249M195.238 35.191L190.937 36.6152M190.937 36.6152C189.645 34.5164 188.173 32.5272 186.795 31.7078C184.003 30.0487 179.278 28.3633 180.004 25.2745C180.729 22.1858 184.418 21.0828 184.753 20.9071C185.039 20.7569 189.247 25.4037 192.231 25.0405M192.231 25.0405L190.63 28.445M186.81 24.8263C185.79 25.7299 183.799 27.708 183.987 28.3911" stroke="#3E1F01" stroke-linecap="round"/>
<path d="M230.21 105.646C210.21 108.646 220.71 130.646 226.21 134.646C230.61 137.846 232.376 145.646 232.71 149.146C234.71 153.313 239.31 160.846 241.71 157.646C244.11 154.446 241.71 147.98 240.21 145.146M230.21 105.646C235.543 100.146 248.61 92.1463 258.21 104.146M230.21 105.646C223.709 119.146 238.21 139.646 240.21 145.146M258.21 104.146C261.043 106.813 264.51 117.046 255.71 136.646C254.771 140.923 253.088 147.915 251.568 152.646M258.21 104.146C262.377 102.813 271.21 101.846 273.21 108.646C275.71 117.146 266.21 132.646 266.21 133.646C266.21 134.646 258.21 150.646 258.21 154.146C258.21 157.646 253.927 158.146 251.568 152.646M240.21 145.146C242.21 150.646 247.21 158.146 249.21 157.646C249.809 157.497 250.659 155.475 251.568 152.646M241.71 108.646C242.71 105.646 228.21 117.646 243.21 134.646" stroke="#3E1F01" stroke-linecap="round"/>
<path d="M304.235 57.9701C294.44 59.5067 299.582 70.7754 302.276 72.8243C304.431 74.4633 305.296 78.4586 305.459 80.2514C306.439 82.3856 308.692 86.2442 309.867 84.6052C311.043 82.9661 309.867 79.6538 309.133 78.2025M304.235 57.9701C306.847 55.1529 313.247 51.0552 317.948 57.2017M304.235 57.9701C301.051 64.885 308.153 75.3853 309.133 78.2025M317.948 57.2017C319.336 58.5676 321.034 63.8093 316.724 73.8487C316.264 76.0391 315.44 79.6204 314.695 82.0441M317.948 57.2017C319.989 56.5188 324.315 56.0236 325.295 59.5067C326.519 63.8605 321.866 71.7998 321.866 72.312C321.866 72.8243 317.948 81.0197 317.948 82.8124C317.948 84.6052 315.85 84.8613 314.695 82.0441M309.133 78.2025C310.112 81.0197 312.561 84.8613 313.54 84.6052C313.834 84.5285 314.25 83.4932 314.695 82.0441M309.867 59.5067C310.357 57.9701 303.256 64.1166 310.602 72.8243" stroke="#3E1F01" stroke-linecap="round"/>
<path d="M323.414 92.921C323.747 96.921 322.414 107.421 298.414 123.421C287.414 128.921 269.214 132.521 274.414 154.921C279.614 177.321 305.581 167.254 317.914 159.421C328.935 152.421 343.514 115.021 343.914 99.421M323.414 92.921L331.414 89.9208L333.163 99.421C334.746 97.2543 338.114 92.821 338.914 92.421C339.714 92.021 342.58 96.921 343.914 99.421M323.414 92.921L320.914 93.4208C322.247 88.4208 326.714 79.1208 333.914 81.9208M343.914 99.421L345.914 100.921L346.414 92.421C343.414 82.9209 340.914 83.4211 338.914 82.9211M333.914 81.9208C334.247 82.5876 334.914 84.0211 334.914 84.4211C334.914 84.9211 336.914 82.4211 338.914 82.9211M333.914 81.9208C334.247 78.4209 336.014 72.0211 340.414 74.4211C341.08 74.7543 342.514 75.8209 342.914 77.4209C343.314 79.0209 340.414 81.7543 338.914 82.9211M293.914 132.921C289.191 133.421 279.98 137.621 280.914 150.421M281.914 153.921C282.414 155.754 284.214 159.621 287.414 160.421" stroke="#3E1F01"/>
<path d="M367.77 74.3956C357.077 75.9676 355.27 82.2289 355.77 86.3956C356.603 88.8956 358.97 93.9958 361.77 94.3958C365.27 94.8958 361.77 95.8958 399.77 97.3958C405.848 97.6357 414.77 97.3958 419.27 95.8958C429.793 92.388 430.103 80.5624 429.27 75.8957C425.27 54.8957 410.27 59.8957 400.77 60.8957C391.27 61.8957 384.772 71.8958 367.77 74.3956Z" stroke="#3E1F01" stroke-linecap="round"/>
<path d="M362.772 47.8955C366.939 47.8955 375.672 47.3955 377.272 45.3955M350.772 48.8955C347.772 41.0622 348.172 25.0955 373.772 23.8955C384.772 25.8955 404.772 26.3955 414.272 26.3955C427.272 29.3955 428.272 43.3955 414.272 46.3955C398.772 50.8955 383.772 58.8955 379.272 60.8955C373.606 64.3955 359.972 66.8955 350.772 48.8955ZM356.772 42.8955C356.772 30.3955 379.272 22.8955 382.772 42.8955C381.272 58.9769 356.772 62.4955 356.772 42.8955Z" stroke="#3E1F01" stroke-linecap="round"/>
<path d="M422 51.1502L412.5 51.6502L413.5 56.1502H422M422 51.1502V56.1502M422 51.1502C422 45.9502 425.667 43.6502 427.5 43.1502M422 56.1502C421.833 57.6502 422.7 60.9502 427.5 62.1502M427.5 43.1502L430.5 44.6502L428.5 47.6502L431.5 50.1502L428.5 52.6502L431.5 56.1502L429.5 58.6502L430.5 60.6502L427.5 62.1502M427.5 43.1502C435.667 42.3168 454.098 43.5403 465.5 46.6502C482 51.1505 511 67.6501 505 89.6501C501.226 81.2818 487.223 63.6947 472 60.6502C462 58.6502 437.667 62.1502 427.5 62.1502M441.5 47.6502C447.333 47.3168 460.3 47.8502 465.5 52.6502" stroke="#3E1F01" stroke-linecap="round"/>
<path d="M347.801 51.5923C350.755 52.7997 356.049 57.0266 353.598 64.2753C352.258 68.2395 347.645 71.5414 341.579 72.267C335.513 72.9925 329.697 72.1845 326.855 65.4671C326.047 63.5573 326.166 59.625 329.148 55.562C332.484 51.0169 334.146 52.2445 334.287 52.6736M349.635 56.8575C350.953 58.4514 352.451 62.7041 347.9 66.9633M346.529 67.7961C346.279 68.3164 345.368 69.2726 343.722 68.9343" stroke="#3E1F01" stroke-width="0.7"/>
<path d="M340.555 51.389C340.9 50.5452 342.284 49.0688 345.06 49.9139C347.837 50.759 348.819 50.4006 348.963 50.1158C347.996 51.3462 345.284 53.5788 342.179 52.6661L340.555 51.389ZM340.555 51.389C341.171 50.2006 342.107 47.5917 340.926 46.6628C340.071 47.3447 338.317 49.008 338.139 50.2064L338.15 51.4091M340.555 51.389C339.807 50.5354 338.589 50.8619 338.15 51.4091M340.555 51.389C341.852 52.1701 345.87 55.5687 345.87 55.5687C343.532 56.5974 340.895 54.6032 339.868 53.4774M340.555 51.389C340.777 52.3398 340.551 52.7734 339.868 53.4774M338.15 51.4091C337.724 51.9505 336.55 53.0183 335.258 52.9587M338.15 51.4091C335.746 48.0851 330.238 49.0111 330.481 49.9185C330.723 50.8258 333.644 52.8842 335.258 52.9587M338.15 51.4091C337.65 52.0519 336.373 53.2618 335.258 52.9587M338.15 51.4091C337.035 52.8265 338.05 53.5612 338.697 53.7513M335.258 52.9587C334.681 54.0978 333.316 56.4013 332.472 56.5022C331.417 56.6283 338.087 56.3775 338.697 53.7513M338.697 53.7513C339.294 53.8522 339.536 53.7706 339.868 53.4774" stroke="#3E1F01" stroke-width="0.7"/>
<path d="M446.774 105.396C445.977 102.835 445.517 101.068 445.5 100.396C445.425 97.3685 444.872 91.2773 451.5 88.3955C454.345 87.1585 444.553 80.7886 439.5 75.3955L444.5 70.3955C447 74.0622 451.9 81.1955 451.5 80.3955C451.1 79.5955 448.333 72.0622 447 68.3955L454 65.8955L454.5 79.3955L455.5 72.3955L462.5 74.3955L459 86.3955C462.5 86.3955 469.9 88.1955 471.5 95.3955C471.972 97.5209 472.723 102.686 473.543 109.396M446.774 105.396C451.016 105.396 459.8 104.996 461 103.396M446.774 105.396C448.632 111.358 452.32 121.618 456.5 132.352M460.5 112.896C464.529 112.729 472.777 111.796 473.543 109.396M473.543 109.396C474.435 116.706 475.409 125.851 476.191 134.896M457.5 121.396C460.5 121.396 466.9 120.896 468.5 118.896M456.5 132.352C459.167 132.366 464.9 131.896 466.5 129.896M456.5 132.352C459.371 139.723 462.474 147.317 465.375 153.896M476.191 134.896C474.794 136.562 470.9 139.696 466.5 138.896M476.191 134.896C476.977 143.984 477.569 152.971 477.69 159.896M465.375 153.896C470.523 165.567 475.038 174.04 476.5 172.396C477.492 171.28 477.807 166.536 477.69 159.896M465.375 153.896C467.084 153.896 470.7 153.496 471.5 151.896M471 159.896C473.237 160.229 477.707 160.696 477.69 159.896" stroke="#3E1F01" stroke-linecap="round"/>
<path d="M531.873 76.5162C531.873 79.5162 525.873 84.5162 525.873 81.5162C525.873 79.1162 519.873 77.1829 516.873 76.5162C513.372 75.5155 505.873 78.5164 507.873 88.0164C509.873 97.5164 525.873 95.0164 535.873 92.0164C537.321 91.5821 538.674 91.6822 539.933 92.1709M531.873 76.5162C531.873 73.5162 517.873 67.0162 512.873 67.5162C510.67 67.7365 505.748 65.0446 501.873 60.9802M531.873 76.5162L541.373 71.0164M501.873 60.9802C496.953 55.8205 493.72 48.449 499.873 42.0163C510.873 30.5163 517.873 38.0163 521.873 42.0163C523.135 43.2788 524.448 45.5873 525.873 48.2658M501.873 60.9802L510.873 52.5164M516.873 56.5164L525.873 48.2658M525.873 48.2658C528.963 54.0737 532.582 61.6212 537.373 64.0164C541.885 66.2721 540.373 59.1813 539.933 52.5164M521.873 66.0164L525.873 59.5164M539.933 52.5164C539.69 48.8403 539.773 45.2938 541.373 43.5164C545.873 38.5164 556.873 41.0164 556.873 48.5164C556.873 52.3127 556.745 59.1835 557.202 66.0164M539.933 52.5164H550.373M545.373 64.0164L557.202 66.0164M557.202 66.0164C557.648 72.6826 558.651 79.3127 560.873 83.0164C565.373 90.5164 574.373 100.516 568.873 107.016C563.373 113.516 553.373 111.516 552.373 111.516C551.518 111.516 547.371 95.0588 539.933 92.1709M539.933 92.1709L547.873 86.0164M552.373 99.5164C555.873 98.6315 562.973 96.3927 563.373 94.5164" stroke="#3E1F01" stroke-linecap="round"/>
<path d="M356.341 114.82C355.37 115.352 352.663 114.251 353.633 113.718C354.41 113.293 353.945 110.962 353.615 109.85C353.303 108.513 350.97 106.56 348.261 108.908C345.552 111.255 349.267 116.113 352.055 118.894C352.458 119.297 352.672 119.763 352.742 120.267M356.341 114.82C357.311 114.287 356.869 108.496 355.799 106.928C355.328 106.237 355.304 104.13 355.914 102.125M356.341 114.82L359.846 116.992M355.914 102.125C356.689 99.5797 358.486 97.2008 361.684 98.0985C367.402 99.7033 366.248 103.353 365.681 105.388C365.502 106.03 364.994 106.874 364.387 107.821M355.914 102.125L360.287 103.605M360.083 106.303L364.387 107.821M364.387 107.821C363.07 109.875 361.287 112.413 361.383 114.425C361.473 116.32 363.491 114.561 365.567 113.233M357.92 109.644L360.748 109.817M365.567 113.233C366.712 112.501 367.874 111.9 368.739 112.114C371.174 112.718 372.364 116.806 369.939 118.137C368.711 118.81 366.465 119.986 364.339 121.349M365.567 113.233L367.464 116.692M362.836 117.075L364.339 121.349M364.339 121.349C362.264 122.679 360.302 124.188 359.508 125.581C357.9 128.402 356.301 133.157 353.199 132.488C350.098 131.819 348.928 128.151 348.746 127.819C348.591 127.536 353.16 123.243 352.742 120.267M352.742 120.267L356.175 121.806M352.627 125.691C353.549 126.694 355.563 128.649 356.243 128.449" stroke="#3E1F01" stroke-linecap="round"/>
<path d="M464.612 28.7377C464.097 27.7579 465.248 25.0712 465.762 26.051C466.173 26.8348 468.512 26.4125 469.63 26.1034C470.973 25.8155 472.968 23.5184 470.67 20.767C468.372 18.0156 463.448 21.6419 460.616 24.378C460.206 24.774 459.736 24.979 459.231 25.0405M464.612 28.7377C465.126 29.7175 470.924 29.3816 472.511 28.3402C473.211 27.8814 475.319 27.8963 477.312 28.5431M464.612 28.7377L462.376 32.2024M477.312 28.5431C479.843 29.3642 482.188 31.2038 481.232 34.3853C479.524 40.073 475.896 38.853 473.872 38.249C473.233 38.0584 472.398 37.5349 471.462 36.9104M477.312 28.5431L475.752 32.8879M473.059 32.6352L471.462 36.9104M471.462 36.9104C469.433 35.5562 466.928 33.727 464.914 33.786C463.018 33.8417 464.739 35.892 466.029 37.9914M469.757 30.4107L469.533 33.236M466.029 37.9914C466.741 39.1494 467.321 40.3223 467.09 41.1837C466.442 43.607 462.333 44.7223 461.047 42.2728C460.396 41.033 459.261 38.7665 457.937 36.6152M466.029 37.9914L462.536 39.8249M462.238 35.191L457.937 36.6152M457.937 36.6152C456.645 34.5164 455.173 32.5272 453.795 31.7078C451.003 30.0487 446.278 28.3633 447.004 25.2745C447.729 22.1858 451.418 21.0828 451.753 20.9071C452.039 20.7569 456.247 25.4037 459.231 25.0405M459.231 25.0405L457.63 28.445M453.81 24.8263C452.79 25.7299 450.799 27.708 450.987 28.3911" stroke="#3E1F01" stroke-linecap="round"/>
<path d="M576.702 66.7377C576.187 65.7579 577.338 63.0712 577.852 64.051C578.263 64.8348 580.602 64.4125 581.72 64.1034C583.063 63.8155 585.057 61.5184 582.76 58.767C580.462 56.0156 575.537 59.6419 572.706 62.378C572.296 62.774 571.826 62.979 571.321 63.0405M576.702 66.7377C577.216 67.7175 583.014 67.3816 584.601 66.3402C585.301 65.8814 587.409 65.8963 589.402 66.5431M576.702 66.7377L574.466 70.2024M589.402 66.5431C591.933 67.3642 594.278 69.2038 593.322 72.3853C591.613 78.073 587.985 76.853 585.962 76.249C585.323 76.0584 584.488 75.5349 583.552 74.9104M589.402 66.5431L587.842 70.8879M585.149 70.6352L583.552 74.9104M583.552 74.9104C581.523 73.5562 579.018 71.727 577.004 71.786C575.108 71.8417 576.829 73.892 578.119 75.9914M581.847 68.4107L581.623 71.236M578.119 75.9914C578.83 77.1494 579.411 78.3223 579.18 79.1837C578.532 81.607 574.423 82.7223 573.137 80.2728C572.486 79.033 571.351 76.7665 570.027 74.6152M578.119 75.9914L574.626 77.8249M574.327 73.191L570.027 74.6152M570.027 74.6152C568.735 72.5164 567.263 70.5272 565.884 69.7078C563.093 68.0487 558.368 66.3633 559.093 63.2745C559.819 60.1858 563.508 59.0828 563.842 58.9071C564.129 58.7569 568.337 63.4037 571.321 63.0405M571.321 63.0405L569.72 66.445M565.9 62.8263C564.88 63.7299 562.889 65.708 563.076 66.3911" stroke="#3E1F01" stroke-linecap="round"/>
<path d="M497.21 105.646C477.21 108.646 487.71 130.646 493.21 134.646C497.61 137.846 499.376 145.646 499.71 149.146C501.71 153.313 506.31 160.846 508.71 157.646C511.11 154.446 508.71 147.98 507.21 145.146M497.21 105.646C502.543 100.146 515.61 92.1463 525.21 104.146M497.21 105.646C490.709 119.146 505.21 139.646 507.21 145.146M525.21 104.146C528.043 106.813 531.51 117.046 522.71 136.646C521.771 140.923 520.088 147.915 518.568 152.646M525.21 104.146C529.377 102.813 538.21 101.846 540.21 108.646C542.71 117.146 533.21 132.646 533.21 133.646C533.21 134.646 525.21 150.646 525.21 154.146C525.21 157.646 520.927 158.146 518.568 152.646M507.21 145.146C509.21 150.646 514.21 158.146 516.21 157.646C516.809 157.497 517.659 155.475 518.568 152.646M508.71 108.646C509.71 105.646 495.21 117.646 510.21 134.646" stroke="#3E1F01" stroke-linecap="round"/>
<path d="M590.414 92.921C590.747 96.921 589.414 107.421 565.414 123.421C554.414 128.921 536.214 132.521 541.414 154.921C546.614 177.321 572.581 167.254 584.914 159.421C595.935 152.421 610.514 115.021 610.914 99.421M590.414 92.921L598.414 89.9208L600.163 99.421C601.746 97.2543 605.114 92.821 605.914 92.421C606.714 92.021 609.58 96.921 610.914 99.421M590.414 92.921L587.914 93.4208C589.247 88.4208 593.714 79.1208 600.914 81.9208M610.914 99.421L612.914 100.921L613.414 92.421C610.414 82.9209 607.914 83.4211 605.914 82.9211M600.914 81.9208C601.247 82.5876 601.914 84.0211 601.914 84.4211C601.914 84.9211 603.914 82.4211 605.914 82.9211M600.914 81.9208C601.247 78.4209 603.014 72.0211 607.414 74.4211C608.08 74.7543 609.514 75.8209 609.914 77.4209C610.314 79.0209 607.414 81.7543 605.914 82.9211M560.914 132.921C556.191 133.421 546.98 137.621 547.914 150.421M548.914 153.921C549.414 155.754 551.214 159.621 554.414 160.421" stroke="#3E1F01"/>
<path d="M564.401 38.0193C562.321 36.3269 560.96 35.1084 560.574 34.5577C558.838 32.0769 555.01 27.307 558.939 21.2413C560.626 18.6376 548.945 18.7439 541.753 17.0438L543.154 10.1131C547.265 11.7861 555.292 15.0207 554.516 14.5753C553.74 14.1299 547.27 9.38238 544.132 7.06433L548.582 1.11093L556.463 12.0834L553.426 5.69771L560.364 3.49393L564.083 15.4281C566.999 13.4929 574.16 10.9013 579.474 16.0161C581.043 17.526 584.525 21.4144 588.917 26.5522M564.401 38.0193C567.935 35.674 575.033 30.4842 575.148 28.4875M564.401 38.0193C569.245 41.9603 577.991 48.4709 587.409 55.1034M579.984 36.6798C583.249 34.3136 589.606 28.9753 588.917 26.5522M588.917 26.5522C593.703 32.1503 599.57 39.2317 605.223 46.3359M582.184 45.4212C584.684 43.7625 589.74 39.8073 589.968 37.2562M587.409 55.1034C589.639 53.6412 594.156 50.0788 594.383 47.5277M587.409 55.1034C593.876 59.6583 600.661 64.2706 606.715 68.1476M605.223 46.3359C604.98 48.497 603.468 53.2608 599.359 55.027M605.223 46.3359C610.902 53.4743 616.364 60.6356 620.294 66.338M606.715 68.1476C617.458 75.0261 625.905 79.59 626.214 77.4119C626.423 75.9337 624.063 71.8068 620.294 66.338M606.715 68.1476C608.139 67.2031 610.931 64.8702 610.713 63.0947M614.72 70.0372C616.768 69.0781 620.75 66.9956 620.294 66.338" stroke="#3E1F01" stroke-linecap="round"/>
<path d="M633.684 77.3956C622.991 78.9676 621.184 85.2289 621.684 89.3956C622.517 91.8956 624.884 96.9958 627.684 97.3958C631.184 97.8958 627.684 98.8958 665.684 100.396C671.762 100.636 680.684 100.396 685.184 98.8958C695.707 95.388 696.017 83.5624 695.184 78.8957C691.184 57.8957 676.184 62.8957 666.684 63.8957C657.184 64.8957 650.687 74.8958 633.684 77.3956Z" stroke="#3E1F01" stroke-linecap="round"/>
<path d="M628.687 50.8955C632.853 50.8955 641.587 50.3955 643.187 48.3955M616.686 51.8955C613.686 44.0622 614.086 28.0955 639.686 26.8955C650.686 28.8955 670.687 29.3955 680.187 29.3955C693.187 32.3955 694.187 46.3955 680.187 49.3955C664.687 53.8955 649.687 61.8955 645.187 63.8955C639.52 67.3955 625.886 69.8955 616.686 51.8955ZM622.687 45.8955C622.687 33.3955 645.187 25.8955 648.687 45.8955C647.187 61.9769 622.687 65.4955 622.687 45.8955Z" stroke="#3E1F01" stroke-linecap="round"/>
<path d="M687.914 54.1502L678.414 54.6502L679.414 59.1502H687.914M687.914 54.1502V59.1502M687.914 54.1502C687.914 48.9502 691.581 46.6502 693.414 46.1502M687.914 59.1502C687.747 60.6502 688.614 63.9502 693.414 65.1502M693.414 46.1502L696.414 47.6502L694.414 50.6502L697.414 53.1502L694.414 55.6502L697.414 59.1502L695.414 61.6502L696.414 63.6502L693.414 65.1502M693.414 46.1502C701.581 45.3168 720.012 46.5403 731.414 49.6502C747.914 54.1505 776.914 70.6501 770.914 92.6501C767.14 84.2818 753.137 66.6947 737.914 63.6502C727.914 61.6502 703.581 65.1502 693.414 65.1502M707.414 50.6502C713.247 50.3168 726.214 50.8502 731.414 55.6502" stroke="#3E1F01" stroke-linecap="round"/>
<path d="M792.914 29.2547L783.414 29.7547L784.414 34.2547H792.914M792.914 29.2547V34.2547M792.914 29.2547C792.914 24.0547 796.581 21.7547 798.414 21.2547M792.914 34.2547C792.747 35.7547 793.614 39.0547 798.414 40.2547M798.414 21.2547L801.414 22.7547L799.414 25.7547L802.414 28.2547L799.414 30.7547L802.414 34.2547L800.414 36.7547L801.414 38.7547L798.414 40.2547M798.414 21.2547C806.581 20.4213 825.012 21.6448 836.414 24.7547C852.914 29.255 881.914 45.7546 875.914 67.7546C872.14 59.3863 858.137 41.7992 842.914 38.7547C832.914 36.7547 808.581 40.2547 798.414 40.2547M812.414 25.7547C818.247 25.4213 831.214 25.9547 836.414 30.7547" stroke="#3E1F01" stroke-linecap="round"/>
<path d="M712.689 108.396C711.891 105.835 711.431 104.068 711.414 103.396C711.339 100.369 710.786 94.2773 717.414 91.3955C720.259 90.1585 710.467 83.7886 705.414 78.3955L710.414 73.3955C712.914 77.0622 717.814 84.1955 717.414 83.3955C717.014 82.5955 714.247 75.0622 712.914 71.3955L719.914 68.8955L720.414 82.3955L721.414 75.3955L728.414 77.3955L724.914 89.3955C728.414 89.3955 735.814 91.1955 737.414 98.3955C737.886 100.521 738.638 105.686 739.457 112.396M712.689 108.396C716.93 108.396 725.714 107.996 726.914 106.396M712.689 108.396C714.546 114.358 718.234 124.618 722.414 135.352M726.414 115.896C730.443 115.729 738.691 114.796 739.457 112.396M739.457 112.396C740.35 119.706 741.323 128.851 742.105 137.896M723.414 124.396C726.414 124.396 732.814 123.896 734.414 121.896M722.414 135.352C725.081 135.366 730.814 134.896 732.414 132.896M722.414 135.352C725.285 142.723 728.388 150.317 731.289 156.896M742.105 137.896C740.708 139.562 736.814 142.696 732.414 141.896M742.105 137.896C742.891 146.984 743.483 155.971 743.605 162.896M731.289 156.896C736.438 168.567 740.953 177.04 742.414 175.396C743.406 174.28 743.721 169.536 743.605 162.896M731.289 156.896C732.998 156.896 736.614 156.496 737.414 154.896M736.914 162.896C739.151 163.229 743.621 163.696 743.605 162.896" stroke="#3E1F01" stroke-linecap="round"/>
<path d="M1118.08 27.3407C1119.94 27.2371 1121.21 27.2268 1121.67 27.3298C1123.73 27.7938 1127.94 28.456 1128.76 33.4236C1129.11 35.5558 1135.08 30.0236 1139.58 27.5269L1142.11 31.7549C1139.21 32.8204 1133.55 34.9179 1134.16 34.7837C1134.77 34.6495 1140.33 34.0612 1143.03 33.7839L1143.53 38.938L1134.33 36.9805L1138.89 38.8462L1136.35 43.2352L1128.83 38.8305C1128.24 41.195 1125.76 45.8882 1120.63 45.745C1119.11 45.7027 1115.49 45.332 1110.82 44.7448M1118.08 27.3407C1117.35 30.2064 1116.13 36.2085 1117.01 37.2912M1118.08 27.3407C1113.73 27.5819 1106.17 28.3288 1098.21 29.3279M1110.68 35.3383C1110.1 38.0882 1109.33 43.8194 1110.82 44.7448M1110.82 44.7448C1105.73 44.1049 1099.39 43.2078 1093.14 42.1982M1105.44 31.8663C1104.93 33.8931 1104.18 38.3018 1105.26 39.7228M1098.21 29.3279C1097.75 31.127 1097.09 35.0804 1098.17 36.5014M1098.21 29.3279C1092.74 30.0141 1087.09 30.8191 1082.15 31.661M1093.14 42.1982C1092.26 40.9711 1090.8 37.8077 1092.09 34.9712M1093.14 42.1982C1086.87 41.1838 1080.7 40.0557 1076 38.9608M1082.15 31.661C1073.39 33.1547 1066.9 34.7643 1067.76 36.0313C1068.34 36.891 1071.49 37.9107 1076 38.9608M1082.15 31.661C1081.86 32.8151 1081.51 35.3263 1082.46 36.1388M1077.14 34.4408C1076.53 35.8954 1075.46 38.8358 1076 38.9608" stroke="#3E1F01" stroke-width="0.696645" stroke-linecap="round"/>
<path d="M797.787 79.5162C797.787 82.5162 791.787 87.5162 791.787 84.5162C791.787 82.1162 785.787 80.1829 782.787 79.5162C779.286 78.5155 771.787 81.5164 773.787 91.0164C775.787 100.516 791.787 98.0164 801.787 95.0164C803.235 94.5821 804.588 94.6822 805.847 95.1709M797.787 79.5162C797.787 76.5162 783.787 70.0162 778.787 70.5162C776.584 70.7365 771.662 68.0446 767.787 63.9802M797.787 79.5162L807.287 74.0164M767.787 63.9802C762.867 58.8205 759.634 51.449 765.787 45.0163C776.787 33.5163 783.787 41.0163 787.787 45.0163C789.049 46.2788 790.362 48.5873 791.787 51.2658M767.787 63.9802L776.787 55.5164M782.787 59.5164L791.787 51.2658M791.787 51.2658C794.877 57.0737 798.496 64.6212 803.287 67.0164C807.799 69.2721 806.287 62.1813 805.847 55.5164M787.787 69.0164L791.787 62.5164M805.847 55.5164C805.604 51.8403 805.687 48.2938 807.287 46.5164C811.787 41.5164 822.787 44.0164 822.787 51.5164C822.787 55.3127 822.659 62.1835 823.116 69.0164M805.847 55.5164H816.287M811.287 67.0164L823.116 69.0164M823.116 69.0164C823.562 75.6826 824.565 82.3127 826.787 86.0164C831.287 93.5164 840.287 103.516 834.787 110.016C829.287 116.516 819.287 114.516 818.287 114.516C817.432 114.516 813.285 98.0588 805.847 95.1709M805.847 95.1709L813.787 89.0164M818.287 102.516C821.787 101.632 828.887 99.3927 829.287 97.5164" stroke="#3E1F01" stroke-linecap="round"/>
<path d="M622.255 117.82C621.284 118.352 618.577 117.251 619.547 116.718C620.324 116.293 619.859 113.962 619.529 112.85C619.217 111.513 616.884 109.56 614.175 111.908C611.466 114.255 615.181 119.113 617.969 121.894C618.372 122.297 618.586 122.763 618.656 123.267M622.255 117.82C623.225 117.287 622.783 111.496 621.713 109.928C621.242 109.237 621.218 107.13 621.828 105.125M622.255 117.82L625.76 119.992M621.828 105.125C622.603 102.58 624.4 100.201 627.598 101.099C633.316 102.703 632.162 106.353 631.595 108.388C631.417 109.03 630.908 109.874 630.301 110.821M621.828 105.125L626.201 106.605M625.997 109.303L630.301 110.821M630.301 110.821C628.984 112.875 627.201 115.413 627.297 117.425C627.387 119.32 629.405 117.561 631.481 116.233M623.834 112.644L626.662 112.817M631.481 116.233C632.626 115.501 633.788 114.9 634.653 115.114C637.088 115.718 638.278 119.806 635.853 121.137C634.625 121.81 632.379 122.986 630.253 124.349M631.481 116.233L633.378 119.692M628.75 120.075L630.253 124.349M630.253 124.349C628.178 125.679 626.216 127.188 625.422 128.581C623.814 131.402 622.215 136.157 619.113 135.488C616.012 134.819 614.842 131.151 614.66 130.819C614.505 130.536 619.074 126.243 618.656 123.267M618.656 123.267L622.089 124.806M618.541 128.691C619.463 129.694 621.477 131.649 622.157 131.449" stroke="#3E1F01" stroke-linecap="round"/>
<path d="M730.526 31.7377C730.011 30.7579 731.162 28.0712 731.676 29.051C732.087 29.8348 734.426 29.4125 735.544 29.1034C736.887 28.8155 738.882 26.5184 736.584 23.767C734.286 21.0156 729.362 24.6419 726.53 27.378C726.12 27.774 725.65 27.979 725.145 28.0405M730.526 31.7377C731.04 32.7175 736.838 32.3816 738.426 31.3402C739.125 30.8814 741.233 30.8963 743.226 31.5431M730.526 31.7377L728.29 35.2024M743.226 31.5431C745.757 32.3642 748.102 34.2038 747.147 37.3853C745.438 43.073 741.81 41.853 739.786 41.249C739.147 41.0584 738.312 40.5349 737.376 39.9104M743.226 31.5431L741.666 35.8879M738.973 35.6352L737.376 39.9104M737.376 39.9104C735.347 38.5562 732.842 36.727 730.828 36.786C728.932 36.8417 730.653 38.892 731.943 40.9914M735.671 33.4107L735.447 36.236M731.943 40.9914C732.655 42.1494 733.235 43.3223 733.004 44.1837C732.356 46.607 728.247 47.7223 726.961 45.2728C726.31 44.033 725.175 41.7665 723.851 39.6152M731.943 40.9914L728.45 42.8249M728.152 38.191L723.851 39.6152M723.851 39.6152C722.559 37.5164 721.087 35.5272 719.709 34.7078C716.917 33.0487 712.192 31.3633 712.918 28.2745C713.643 25.1858 717.332 24.0828 717.667 23.9071C717.953 23.7569 722.162 28.4037 725.145 28.0405M725.145 28.0405L723.544 31.445M719.724 27.8263C718.705 28.7299 716.713 30.708 716.901 31.3911" stroke="#3E1F01" stroke-linecap="round"/>
<path d="M848.422 62.7377C847.908 61.7579 849.058 59.0712 849.573 60.051C849.984 60.8348 852.323 60.4125 853.441 60.1034C854.784 59.8155 856.778 57.5184 854.48 54.767C852.183 52.0156 847.258 55.6419 844.427 58.378C844.017 58.774 843.547 58.979 843.042 59.0405M848.422 62.7377C848.937 63.7175 854.735 63.3816 856.322 62.3402C857.021 61.8814 859.129 61.8963 861.123 62.5431M848.422 62.7377L846.186 66.2024M861.123 62.5431C863.653 63.3642 865.999 65.2038 865.043 68.3853C863.334 74.073 859.706 72.853 857.682 72.249C857.043 72.0584 856.209 71.5349 855.273 70.9104M861.123 62.5431L859.563 66.8879M856.869 66.6352L855.273 70.9104M855.273 70.9104C853.243 69.5562 850.738 67.727 848.725 67.786C846.829 67.8417 848.55 69.892 849.84 71.9914M853.568 64.4107L853.344 67.236M849.84 71.9914C850.551 73.1494 851.131 74.3223 850.901 75.1837C850.252 77.607 846.143 78.7223 844.858 76.2728C844.207 75.033 843.072 72.7665 841.748 70.6152M849.84 71.9914L846.347 73.8249M846.048 69.191L841.748 70.6152M841.748 70.6152C840.456 68.5164 838.983 66.5272 837.605 65.7078C834.814 64.0487 830.088 62.3633 830.814 59.2745C831.54 56.1858 835.229 55.0828 835.563 54.9071C835.849 54.7569 840.058 59.4037 843.042 59.0405M843.042 59.0405L841.44 62.445M837.62 58.8263C836.601 59.7299 834.609 61.708 834.797 62.3911" stroke="#3E1F01" stroke-linecap="round"/>
<path d="M763.124 108.646C743.124 111.646 753.624 133.646 759.124 137.646C763.524 140.846 765.29 148.646 765.624 152.146C767.624 156.313 772.224 163.846 774.624 160.646C777.024 157.446 774.624 150.98 773.124 148.146M763.124 108.646C768.457 103.146 781.524 95.1463 791.124 107.146M763.124 108.646C756.623 122.146 771.124 142.646 773.124 148.146M791.124 107.146C793.957 109.813 797.424 120.046 788.624 139.646C787.685 143.923 786.002 150.915 784.482 155.646M791.124 107.146C795.291 105.813 804.124 104.846 806.124 111.646C808.624 120.146 799.124 135.646 799.124 136.646C799.124 137.646 791.124 153.646 791.124 157.146C791.124 160.646 786.841 161.146 784.482 155.646M773.124 148.146C775.124 153.646 780.124 161.146 782.124 160.646C782.723 160.497 783.573 158.475 784.482 155.646M774.624 111.646C775.624 108.646 761.124 120.646 776.124 137.646" stroke="#3E1F01" stroke-linecap="round"/>
<path d="M856.328 95.921C856.661 99.921 855.328 110.421 831.328 126.421C820.328 131.921 802.128 135.521 807.328 157.921C812.528 180.321 838.495 170.254 850.828 162.421C861.849 155.421 876.428 118.021 876.828 102.421M856.328 95.921L864.328 92.9208L866.077 102.421C867.66 100.254 871.028 95.821 871.828 95.421C872.628 95.021 875.495 99.921 876.828 102.421M856.328 95.921L853.828 96.4208C855.161 91.4208 859.628 82.1208 866.828 84.9208M876.828 102.421L878.828 103.921L879.328 95.421C876.328 85.9209 873.828 86.4211 871.828 85.9211M866.828 84.9208C867.161 85.5876 867.828 87.0211 867.828 87.4211C867.828 87.9211 869.828 85.4211 871.828 85.9211M866.828 84.9208C867.161 81.4209 868.928 75.0211 873.328 77.4211C873.995 77.7543 875.428 78.8209 875.828 80.4209C876.228 82.0209 873.328 84.7543 871.828 85.9211M826.828 135.921C822.105 136.421 812.894 140.621 813.828 153.421M814.828 156.921C815.328 158.754 817.128 162.621 820.328 163.421" stroke="#3E1F01"/>
<path d="M897.684 74.3956C886.991 75.9676 885.184 82.2289 885.684 86.3956C886.517 88.8956 888.884 93.9958 891.684 94.3958C895.184 94.8958 891.684 95.8958 929.684 97.3958C935.762 97.6357 944.684 97.3958 949.184 95.8958C959.707 92.388 960.017 80.5624 959.184 75.8957C955.184 54.8957 940.184 59.8957 930.684 60.8957C921.184 61.8957 914.687 71.8958 897.684 74.3956Z" stroke="#3E1F01" stroke-linecap="round"/>
<path d="M892.687 47.8955C896.853 47.8955 905.587 47.3955 907.187 45.3955M880.686 48.8955C877.686 41.0622 878.086 25.0955 903.686 23.8955C914.686 25.8955 934.687 26.3955 944.187 26.3955C957.187 29.3955 958.187 43.3955 944.187 46.3955C928.687 50.8955 913.687 58.8955 909.187 60.8955C903.52 64.3955 889.886 66.8955 880.686 48.8955ZM886.687 42.8955C886.687 30.3955 909.187 22.8955 912.687 42.8955C911.187 58.9769 886.687 62.4955 886.687 42.8955Z" stroke="#3E1F01" stroke-linecap="round"/>
<path d="M951.914 51.1502L942.414 51.6502L943.414 56.1502H951.914M951.914 51.1502V56.1502M951.914 51.1502C951.914 45.9502 955.581 43.6502 957.414 43.1502M951.914 56.1502C951.747 57.6502 952.614 60.9502 957.414 62.1502M957.414 43.1502L960.414 44.6502L958.414 47.6502L961.414 50.1502L958.414 52.6502L961.414 56.1502L959.414 58.6502L960.414 60.6502L957.414 62.1502M957.414 43.1502C965.581 42.3168 984.012 43.5403 995.414 46.6502C1011.91 51.1505 1040.91 67.6501 1034.91 89.6501C1031.14 81.2818 1017.14 63.6947 1001.91 60.6502C991.914 58.6502 967.581 62.1502 957.414 62.1502M971.414 47.6502C977.247 47.3168 990.214 47.8502 995.414 52.6502" stroke="#3E1F01" stroke-linecap="round"/>
<path d="M976.689 105.396C975.891 102.835 975.431 101.068 975.414 100.396C975.339 97.3685 974.786 91.2773 981.414 88.3955C984.259 87.1585 974.467 80.7886 969.414 75.3955L974.414 70.3955C976.914 74.0622 981.814 81.1955 981.414 80.3955C981.014 79.5955 978.247 72.0622 976.914 68.3955L983.914 65.8955L984.414 79.3955L985.414 72.3955L992.414 74.3955L988.914 86.3955C992.414 86.3955 999.814 88.1955 1001.41 95.3955C1001.89 97.5209 1002.64 102.686 1003.46 109.396M976.689 105.396C980.93 105.396 989.714 104.996 990.914 103.396M976.689 105.396C978.546 111.358 982.234 121.618 986.414 132.352M990.414 112.896C994.443 112.729 1002.69 111.796 1003.46 109.396M1003.46 109.396C1004.35 116.706 1005.32 125.851 1006.1 134.896M987.414 121.396C990.414 121.396 996.814 120.896 998.414 118.896M986.414 132.352C989.081 132.366 994.814 131.896 996.414 129.896M986.414 132.352C989.285 139.723 992.388 147.317 995.289 153.896M1006.1 134.896C1004.71 136.562 1000.81 139.696 996.414 138.896M1006.1 134.896C1006.89 143.984 1007.48 152.971 1007.6 159.896M995.289 153.896C1000.44 165.567 1004.95 174.04 1006.41 172.396C1007.41 171.28 1007.72 166.536 1007.6 159.896M995.289 153.896C996.998 153.896 1000.61 153.496 1001.41 151.896M1000.91 159.896C1003.15 160.229 1007.62 160.696 1007.6 159.896" stroke="#3E1F01" stroke-linecap="round"/>
<path d="M1061.79 76.5162C1061.79 79.5162 1055.79 84.5162 1055.79 81.5162C1055.79 79.1162 1049.79 77.1829 1046.79 76.5162C1043.29 75.5155 1035.79 78.5164 1037.79 88.0164C1039.79 97.5164 1055.79 95.0164 1065.79 92.0164C1067.23 91.5821 1068.59 91.6822 1069.85 92.1709M1061.79 76.5162C1061.79 73.5162 1047.79 67.0162 1042.79 67.5162C1040.58 67.7365 1035.66 65.0446 1031.79 60.9802M1061.79 76.5162L1071.29 71.0164M1031.79 60.9802C1026.87 55.8205 1023.63 48.449 1029.79 42.0163C1040.79 30.5163 1047.79 38.0163 1051.79 42.0163C1053.05 43.2788 1054.36 45.5873 1055.79 48.2658M1031.79 60.9802L1040.79 52.5164M1046.79 56.5164L1055.79 48.2658M1055.79 48.2658C1058.88 54.0737 1062.5 61.6212 1067.29 64.0164C1071.8 66.2721 1070.29 59.1813 1069.85 52.5164M1051.79 66.0164L1055.79 59.5164M1069.85 52.5164C1069.6 48.8403 1069.69 45.2938 1071.29 43.5164C1075.79 38.5164 1086.79 41.0164 1086.79 48.5164C1086.79 52.3127 1086.66 59.1835 1087.12 66.0164M1069.85 52.5164H1080.29M1075.29 64.0164L1087.12 66.0164M1087.12 66.0164C1087.56 72.6826 1088.56 79.3127 1090.79 83.0164C1095.29 90.5164 1104.29 100.516 1098.79 107.016C1093.29 113.516 1083.29 111.516 1082.29 111.516C1081.43 111.516 1077.29 95.0588 1069.85 92.1709M1069.85 92.1709L1077.79 86.0164M1082.29 99.5164C1085.79 98.6315 1092.89 96.3927 1093.29 94.5164" stroke="#3E1F01" stroke-linecap="round"/>
<path d="M886.255 114.82C885.284 115.352 882.577 114.251 883.547 113.718C884.324 113.293 883.859 110.962 883.529 109.85C883.217 108.513 880.884 106.56 878.175 108.908C875.466 111.255 879.181 116.113 881.969 118.894C882.372 119.297 882.586 119.763 882.656 120.267M886.255 114.82C887.225 114.287 886.783 108.496 885.713 106.928C885.242 106.237 885.218 104.13 885.828 102.125M886.255 114.82L889.76 116.992M885.828 102.125C886.603 99.5797 888.4 97.2008 891.598 98.0985C897.316 99.7033 896.162 103.353 895.595 105.388C895.417 106.03 894.908 106.874 894.301 107.821M885.828 102.125L890.201 103.605M889.997 106.303L894.301 107.821M894.301 107.821C892.984 109.875 891.201 112.413 891.297 114.425C891.387 116.32 893.405 114.561 895.481 113.233M887.834 109.644L890.662 109.817M895.481 113.233C896.626 112.501 897.788 111.9 898.653 112.114C901.088 112.718 902.278 116.806 899.853 118.137C898.625 118.81 896.379 119.986 894.253 121.349M895.481 113.233L897.378 116.692M892.75 117.075L894.253 121.349M894.253 121.349C892.178 122.679 890.216 124.188 889.422 125.581C887.814 128.402 886.215 133.157 883.113 132.488C880.012 131.819 878.842 128.151 878.66 127.819C878.505 127.536 883.074 123.243 882.656 120.267M882.656 120.267L886.089 121.806M882.541 125.691C883.463 126.694 885.477 128.649 886.157 128.449" stroke="#3E1F01" stroke-linecap="round"/>
<path d="M994.526 28.7377C994.011 27.7579 995.162 25.0712 995.676 26.051C996.087 26.8348 998.426 26.4125 999.544 26.1034C1000.89 25.8155 1002.88 23.5184 1000.58 20.767C998.286 18.0156 993.362 21.6419 990.53 24.378C990.12 24.774 989.65 24.979 989.145 25.0405M994.526 28.7377C995.04 29.7175 1000.84 29.3816 1002.43 28.3402C1003.12 27.8814 1005.23 27.8963 1007.23 28.5431M994.526 28.7377L992.29 32.2024M1007.23 28.5431C1009.76 29.3642 1012.1 31.2038 1011.15 34.3853C1009.44 40.073 1005.81 38.853 1003.79 38.249C1003.15 38.0584 1002.31 37.5349 1001.38 36.9104M1007.23 28.5431L1005.67 32.8879M1002.97 32.6352L1001.38 36.9104M1001.38 36.9104C999.347 35.5562 996.842 33.727 994.828 33.786C992.932 33.8417 994.653 35.892 995.943 37.9914M999.671 30.4107L999.447 33.236M995.943 37.9914C996.655 39.1494 997.235 40.3223 997.004 41.1837C996.356 43.607 992.247 44.7223 990.961 42.2728C990.31 41.033 989.175 38.7665 987.851 36.6152M995.943 37.9914L992.45 39.8249M992.152 35.191L987.851 36.6152M987.851 36.6152C986.559 34.5164 985.087 32.5272 983.709 31.7078C980.917 30.0487 976.192 28.3633 976.918 25.2745C977.643 22.1858 981.332 21.0828 981.667 20.9071C981.953 20.7569 986.162 25.4037 989.145 25.0405M989.145 25.0405L987.544 28.445M983.724 24.8263C982.705 25.7299 980.713 27.708 980.901 28.3911" stroke="#3E1F01" stroke-linecap="round"/>
<path d="M1027.12 105.646C1007.12 108.646 1017.62 130.646 1023.12 134.646C1027.52 137.846 1029.29 145.646 1029.62 149.146C1031.62 153.313 1036.22 160.846 1038.62 157.646C1041.02 154.446 1038.62 147.98 1037.12 145.146M1027.12 105.646C1032.46 100.146 1045.52 92.1463 1055.12 104.146M1027.12 105.646C1020.62 119.146 1035.12 139.646 1037.12 145.146M1055.12 104.146C1057.96 106.813 1061.42 117.046 1052.62 136.646C1051.69 140.923 1050 147.915 1048.48 152.646M1055.12 104.146C1059.29 102.813 1068.12 101.846 1070.12 108.646C1072.62 117.146 1063.12 132.646 1063.12 133.646C1063.12 134.646 1055.12 150.646 1055.12 154.146C1055.12 157.646 1050.84 158.146 1048.48 152.646M1037.12 145.146C1039.12 150.646 1044.12 158.146 1046.12 157.646C1046.72 157.497 1047.57 155.475 1048.48 152.646M1038.62 108.646C1039.62 105.646 1025.12 117.646 1040.12 134.646" stroke="#3E1F01" stroke-linecap="round"/>
<path d="M1101.15 57.9701C1091.35 59.5067 1096.5 70.7754 1099.19 72.8243C1101.34 74.4633 1102.21 78.4586 1102.37 80.2514C1103.35 82.3856 1105.61 86.2442 1106.78 84.6052C1107.96 82.9661 1106.78 79.6538 1106.05 78.2025M1101.15 57.9701C1103.76 55.1529 1110.16 51.0552 1114.86 57.2017M1101.15 57.9701C1097.97 64.885 1105.07 75.3853 1106.05 78.2025M1114.86 57.2017C1116.25 58.5676 1117.95 63.8093 1113.64 73.8487C1113.18 76.0391 1112.35 79.6204 1111.61 82.0441M1114.86 57.2017C1116.9 56.5188 1121.23 56.0236 1122.21 59.5067C1123.43 63.8605 1118.78 71.7998 1118.78 72.312C1118.78 72.8243 1114.86 81.0197 1114.86 82.8124C1114.86 84.6052 1112.76 84.8613 1111.61 82.0441M1106.05 78.2025C1107.03 81.0197 1109.48 84.8613 1110.45 84.6052C1110.75 84.5285 1111.16 83.4932 1111.61 82.0441M1106.78 59.5067C1107.27 57.9701 1100.17 64.1166 1107.52 72.8243" stroke="#3E1F01" stroke-linecap="round"/>
<path d="M1120.33 92.921C1120.66 96.921 1119.33 107.421 1095.33 123.421C1084.33 128.921 1066.13 132.521 1071.33 154.921C1076.53 177.321 1102.49 167.254 1114.83 159.421C1125.85 152.421 1140.43 115.021 1140.83 99.421M1120.33 92.921L1128.33 89.9208L1130.08 99.421C1131.66 97.2543 1135.03 92.821 1135.83 92.421C1136.63 92.021 1139.49 96.921 1140.83 99.421M1120.33 92.921L1117.83 93.4208C1119.16 88.4208 1123.63 79.1208 1130.83 81.9208M1140.83 99.421L1142.83 100.921L1143.33 92.421C1140.33 82.9209 1137.83 83.4211 1135.83 82.9211M1130.83 81.9208C1131.16 82.5876 1131.83 84.0211 1131.83 84.4211C1131.83 84.9211 1133.83 82.4211 1135.83 82.9211M1130.83 81.9208C1131.16 78.4209 1132.93 72.0211 1137.33 74.4211C1137.99 74.7543 1139.43 75.8209 1139.83 77.4209C1140.23 79.0209 1137.33 81.7543 1135.83 82.9211M1090.83 132.921C1086.11 133.421 1076.89 137.621 1077.83 150.421M1078.83 153.921C1079.33 155.754 1081.13 159.621 1084.33 160.421" stroke="#3E1F01"/>
<path d="M1164.68 74.3956C1153.99 75.9676 1152.18 82.2289 1152.68 86.3956C1153.52 88.8956 1155.88 93.9958 1158.68 94.3958C1162.18 94.8958 1158.68 95.8958 1196.68 97.3958C1202.76 97.6357 1211.68 97.3958 1216.18 95.8958C1226.71 92.388 1227.02 80.5624 1226.18 75.8957C1222.18 54.8957 1207.18 59.8957 1197.68 60.8957C1188.18 61.8957 1181.69 71.8958 1164.68 74.3956Z" stroke="#3E1F01" stroke-linecap="round"/>
<path d="M1159.69 47.8955C1163.85 47.8955 1172.59 47.3955 1174.19 45.3955M1147.69 48.8955C1144.69 41.0622 1145.09 25.0955 1170.69 23.8955C1181.69 25.8955 1201.69 26.3955 1211.19 26.3955C1224.19 29.3955 1225.19 43.3955 1211.19 46.3955C1195.69 50.8955 1180.69 58.8955 1176.19 60.8955C1170.52 64.3955 1156.89 66.8955 1147.69 48.8955ZM1153.69 42.8955C1153.69 30.3955 1176.19 22.8955 1179.69 42.8955C1178.19 58.9769 1153.69 62.4955 1153.69 42.8955Z" stroke="#3E1F01" stroke-linecap="round"/>
<path d="M1144.72 51.5923C1147.67 52.7997 1152.96 57.0266 1150.51 64.2753C1149.17 68.2395 1144.56 71.5414 1138.49 72.267C1132.43 72.9925 1126.61 72.1845 1123.77 65.4671C1122.96 63.5573 1123.08 59.625 1126.06 55.562C1129.4 51.0169 1131.06 52.2445 1131.2 52.6736M1146.55 56.8575C1147.87 58.4514 1149.37 62.7041 1144.81 66.9633M1143.44 67.7961C1143.19 68.3164 1142.28 69.2726 1140.64 68.9343" stroke="#3E1F01" stroke-width="0.7"/>
<path d="M1137.47 51.389C1137.81 50.5452 1139.2 49.0688 1141.97 49.9139C1144.75 50.759 1145.73 50.4006 1145.88 50.1158C1144.91 51.3462 1142.2 53.5788 1139.09 52.6661L1137.47 51.389ZM1137.47 51.389C1138.08 50.2006 1139.02 47.5917 1137.84 46.6628C1136.99 47.3447 1135.23 49.008 1135.05 50.2064L1135.06 51.4091M1137.47 51.389C1136.72 50.5354 1135.5 50.8619 1135.06 51.4091M1137.47 51.389C1138.77 52.1701 1142.78 55.5687 1142.78 55.5687C1140.45 56.5974 1137.81 54.6032 1136.78 53.4774M1137.47 51.389C1137.69 52.3398 1137.47 52.7734 1136.78 53.4774M1135.06 51.4091C1134.64 51.9505 1133.46 53.0183 1132.17 52.9587M1135.06 51.4091C1132.66 48.0851 1127.15 49.0111 1127.39 49.9185C1127.64 50.8258 1130.56 52.8842 1132.17 52.9587M1135.06 51.4091C1134.56 52.0519 1133.29 53.2618 1132.17 52.9587M1135.06 51.4091C1133.95 52.8265 1134.96 53.5612 1135.61 53.7513M1132.17 52.9587C1131.6 54.0978 1130.23 56.4013 1129.39 56.5022C1128.33 56.6283 1135 56.3775 1135.61 53.7513M1135.61 53.7513C1136.21 53.8522 1136.45 53.7706 1136.78 53.4774" stroke="#3E1F01" stroke-width="0.7"/>
<path d="M1153.25 114.82C1152.28 115.352 1149.58 114.251 1150.55 113.718C1151.32 113.293 1150.86 110.962 1150.53 109.85C1150.22 108.513 1147.88 106.56 1145.17 108.908C1142.47 111.255 1146.18 116.113 1148.97 118.894C1149.37 119.297 1149.59 119.763 1149.66 120.267M1153.25 114.82C1154.22 114.287 1153.78 108.496 1152.71 106.928C1152.24 106.237 1152.22 104.13 1152.83 102.125M1153.25 114.82L1156.76 116.992M1152.83 102.125C1153.6 99.5797 1155.4 97.2008 1158.6 98.0985C1164.32 99.7033 1163.16 103.353 1162.6 105.388C1162.42 106.03 1161.91 106.874 1161.3 107.821M1152.83 102.125L1157.2 103.605M1157 106.303L1161.3 107.821M1161.3 107.821C1159.98 109.875 1158.2 112.413 1158.3 114.425C1158.39 116.32 1160.41 114.561 1162.48 113.233M1154.83 109.644L1157.66 109.817M1162.48 113.233C1163.63 112.501 1164.79 111.9 1165.65 112.114C1168.09 112.718 1169.28 116.806 1166.85 118.137C1165.62 118.81 1163.38 119.986 1161.25 121.349M1162.48 113.233L1164.38 116.692M1159.75 117.075L1161.25 121.349M1161.25 121.349C1159.18 122.679 1157.22 124.188 1156.42 125.581C1154.81 128.402 1153.21 133.157 1150.11 132.488C1147.01 131.819 1145.84 128.151 1145.66 127.819C1145.5 127.536 1150.07 123.243 1149.66 120.267M1149.66 120.267L1153.09 121.806M1149.54 125.691C1150.46 126.694 1152.48 128.649 1153.16 128.449" stroke="#3E1F01" stroke-linecap="round"/>
</svg>
