<svg width="46" height="45" viewBox="0 0 46 45" fill="none" xmlns="http://www.w3.org/2000/svg">
<rect width="46" height="45" rx="5" fill="#FDECE7"/>
<path d="M19.6719 25.3298C19.6719 26.6198 20.6619 27.6598 21.8919 27.6598H24.4019C25.4719 27.6598 26.3419 26.7498 26.3419 25.6298C26.3419 24.4098 25.8119 23.9798 25.0219 23.6998L20.9919 22.2998C20.2019 22.0198 19.6719 21.5898 19.6719 20.3698C19.6719 19.2498 20.5419 18.3398 21.6119 18.3398H24.1219C25.3519 18.3398 26.3419 19.3798 26.3419 20.6698" stroke="#1E221B" stroke-width="1.5" stroke-linecap="round" stroke-linejoin="round"/>
<path d="M23 17V29" stroke="#1E221B" stroke-width="1.5" stroke-linecap="round" stroke-linejoin="round"/>
<path d="M26 33H20C15 33 13 31 13 26V20C13 15 15 13 20 13H26C31 13 33 15 33 20V26C33 31 31 33 26 33Z" stroke="#1E221B" stroke-width="1.5" stroke-linecap="round" stroke-linejoin="round"/>
</svg>
