<svg width="25" height="26" viewBox="0 0 25 26" fill="none" xmlns="http://www.w3.org/2000/svg">
<path d="M22.7147 10.9601H21.8757V10.9168H12.5007V15.0835H18.3876C17.5288 17.509 15.221 19.2502 12.5007 19.2502C9.04909 19.2502 6.25065 16.4517 6.25065 13.0002C6.25065 9.5486 9.04909 6.75016 12.5007 6.75016C14.0939 6.75016 15.5434 7.3512 16.647 8.33298L19.5934 5.38662C17.7329 3.65277 15.2444 2.5835 12.5007 2.5835C6.74805 2.5835 2.08398 7.24756 2.08398 13.0002C2.08398 18.7528 6.74805 23.4168 12.5007 23.4168C18.2533 23.4168 22.9173 18.7528 22.9173 13.0002C22.9173 12.3017 22.8454 11.62 22.7147 10.9601Z" fill="#FFC107"/>
<path d="M3.28516 8.15172L6.70755 10.6616C7.63359 8.36891 9.8763 6.75016 12.5008 6.75016C14.094 6.75016 15.5435 7.3512 16.6471 8.33297L19.5935 5.38662C17.7331 3.65277 15.2445 2.5835 12.5008 2.5835C8.49974 2.5835 5.02995 4.84235 3.28516 8.15172Z" fill="#FF3D00"/>
<path d="M12.5 23.4165C15.1906 23.4165 17.6354 22.3868 19.4839 20.7124L16.2599 17.9842C15.1789 18.8063 13.8581 19.2509 12.5 19.2499C9.79062 19.2499 7.4901 17.5223 6.62344 15.1113L3.22656 17.7285C4.95052 21.102 8.45156 23.4165 12.5 23.4165Z" fill="#4CAF50"/>
<path d="M22.7141 10.9597H21.875V10.9165H12.5V15.0832H18.387C17.9762 16.2376 17.2361 17.2463 16.2583 17.9847L16.2599 17.9837L19.4839 20.7118C19.2557 20.9191 22.9167 18.2082 22.9167 12.9998C22.9167 12.3014 22.8448 11.6196 22.7141 10.9597Z" fill="#1976D2"/>
</svg>
