<svg width="55" height="55" viewBox="0 0 55 55" fill="none" xmlns="http://www.w3.org/2000/svg">
<circle cx="27.5" cy="27.5" r="27.5" fill="#EFD4CB"/>
<path d="M32.5002 33.25H30.9902C30.5802 33.25 30.2402 32.91 30.2402 32.5C30.2402 32.09 30.5802 31.75 30.9902 31.75H32.5002C35.1202 31.75 37.2502 29.62 37.2502 27C37.2502 24.38 35.1202 22.25 32.5002 22.25H31.0002C30.5902 22.25 30.2502 21.91 30.2502 21.5C30.2502 21.09 30.5802 20.75 31.0002 20.75H32.5002C35.9502 20.75 38.7502 23.55 38.7502 27C38.7502 30.45 35.9502 33.25 32.5002 33.25Z" fill="#1E221B"/>
<path d="M25 33.25H23.5C20.05 33.25 17.25 30.45 17.25 27C17.25 23.55 20.05 20.75 23.5 20.75H25C25.41 20.75 25.75 21.09 25.75 21.5C25.75 21.91 25.41 22.25 25 22.25H23.5C20.88 22.25 18.75 24.38 18.75 27C18.75 29.62 20.88 31.75 23.5 31.75H25C25.41 31.75 25.75 32.09 25.75 32.5C25.75 32.91 25.41 33.25 25 33.25Z" fill="#1E221B"/>
<path d="M32 27.75H24C23.59 27.75 23.25 27.41 23.25 27C23.25 26.59 23.59 26.25 24 26.25H32C32.41 26.25 32.75 26.59 32.75 27C32.75 27.41 32.41 27.75 32 27.75Z" fill="#1E221B"/>
</svg>
