<svg width="24" height="25" viewBox="0 0 24 25" fill="none" xmlns="http://www.w3.org/2000/svg">
<path d="M15 23.25H9C3.57 23.25 1.25 20.93 1.25 15.5V9.5C1.25 4.07 3.57 1.75 9 1.75H15C20.43 1.75 22.75 4.07 22.75 9.5V15.5C22.75 20.93 20.43 23.25 15 23.25ZM9 3.25C4.39 3.25 2.75 4.89 2.75 9.5V15.5C2.75 20.11 4.39 21.75 9 21.75H15C19.61 21.75 21.25 20.11 21.25 15.5V9.5C21.25 4.89 19.61 3.25 15 3.25H9Z" fill="#1E221B"/>
<path d="M17.5004 18.3301H15.6504C15.2404 18.3301 14.9004 17.9901 14.9004 17.5801C14.9004 17.1701 15.2404 16.8301 15.6504 16.8301H17.5004C17.9104 16.8301 18.2504 17.1701 18.2504 17.5801C18.2504 17.9901 17.9104 18.3301 17.5004 18.3301Z" fill="#1E221B"/>
<path d="M12.97 18.3301H6.5C6.09 18.3301 5.75 17.9901 5.75 17.5801C5.75 17.1701 6.09 16.8301 6.5 16.8301H12.97C13.38 16.8301 13.72 17.1701 13.72 17.5801C13.72 17.9901 13.39 18.3301 12.97 18.3301Z" fill="#1E221B"/>
<path d="M17.5007 14.5698H11.9707C11.5607 14.5698 11.2207 14.2298 11.2207 13.8198C11.2207 13.4098 11.5607 13.0698 11.9707 13.0698H17.5007C17.9107 13.0698 18.2507 13.4098 18.2507 13.8198C18.2507 14.2298 17.9107 14.5698 17.5007 14.5698Z" fill="#1E221B"/>
<path d="M9.27 14.5698H6.5C6.09 14.5698 5.75 14.2298 5.75 13.8198C5.75 13.4098 6.09 13.0698 6.5 13.0698H9.27C9.68 13.0698 10.02 13.4098 10.02 13.8198C10.02 14.2298 9.68 14.5698 9.27 14.5698Z" fill="#1E221B"/>
</svg>
