<svg width="46" height="45" viewBox="0 0 46 45" fill="none" xmlns="http://www.w3.org/2000/svg">
<rect width="46" height="45" rx="5" fill="#FDECE7"/>
<path d="M33 17V19.42C33 21 32 22 30.42 22H27V15.01C27 13.9 27.91 13 29.02 13C30.11 13.01 31.11 13.45 31.83 14.17C32.55 14.9 33 15.9 33 17Z" stroke="#1E221B" stroke-width="1.5" stroke-miterlimit="10" stroke-linecap="round" stroke-linejoin="round"/>
<path d="M13 18V32C13 32.83 13.94 33.3 14.6 32.8L16.31 31.52C16.71 31.22 17.27 31.26 17.63 31.62L19.29 33.29C19.68 33.68 20.32 33.68 20.71 33.29L22.39 31.61C22.74 31.26 23.3 31.22 23.69 31.52L25.4 32.8C26.06 33.29 27 32.82 27 32V15C27 13.9 27.9 13 29 13H18H17C14 13 13 14.79 13 17V18Z" stroke="#1E221B" stroke-width="1.5" stroke-miterlimit="10" stroke-linecap="round" stroke-linejoin="round"/>
<path d="M20 24.01H23" stroke="#1E221B" stroke-width="1.5" stroke-linecap="round" stroke-linejoin="round"/>
<path d="M20 20.01H23" stroke="#1E221B" stroke-width="1.5" stroke-linecap="round" stroke-linejoin="round"/>
<path d="M16.9961 24H17.0051" stroke="#1E221B" stroke-width="2" stroke-linecap="round" stroke-linejoin="round"/>
<path d="M16.9961 20H17.0051" stroke="#1E221B" stroke-width="2" stroke-linecap="round" stroke-linejoin="round"/>
</svg>
