<svg width="110" height="35" viewBox="0 0 110 35" fill="none" xmlns="http://www.w3.org/2000/svg">
<path d="M5.53819 13.1293C5.76169 13.3528 6.32976 12.9608 6.58585 12.7369C6.64461 12.7369 6.77476 12.7794 6.82531 12.9497C6.88851 13.1626 7.25435 13.1293 7.6202 13.1293C7.98605 13.1293 8.02264 12.7369 8.62795 12.7369C9.1122 12.7369 9.40178 12.5506 9.48603 12.4575C9.6357 12.6704 9.96496 12.6471 10.2443 12.6604C10.4678 12.671 10.4705 12.8577 10.4439 12.9497C10.4738 12.9464 10.5157 12.9544 10.4439 13.0129C10.3541 13.0861 10.4439 13.2025 10.5337 13.5584C10.6235 13.9142 10.863 13.8344 10.9627 14.0373C11.0625 14.2402 11.0525 14.4264 11.2288 14.5395C11.4051 14.6526 11.5547 14.4131 11.7709 14.2768C11.9871 14.1404 11.8707 13.9342 11.9339 13.8344C11.9844 13.7546 12.1656 13.7502 12.2499 13.7579C12.5159 13.5417 12.2997 13.0528 12.4261 12.7369C12.5525 12.4209 12.2365 12.0318 12.0869 11.8422C11.9372 11.6526 11.8574 11.4631 11.7709 11.1338C11.6844 10.8045 10.8862 10.9076 10.863 10.7047C10.8397 10.5019 10.5969 10.1992 10.4439 10.2258C10.2909 10.2524 9.91507 9.97305 9.83858 9.82338C9.77738 9.70365 9.47827 9.58725 9.33637 9.54401C8.96387 9.20078 8.30534 9.46973 8.02264 9.64711C7.79115 9.46618 7.29648 9.78902 7.07808 9.97305C6.77543 9.94644 6.19339 10.7679 6.04373 10.7047C5.89406 10.6416 5.14574 10.7945 5.06924 11.1338C4.99274 11.473 4.69341 11.779 4.56703 11.9553C4.44065 12.1316 4.35085 12.3078 4.40074 12.4575C4.44065 12.5772 4.47723 12.7868 4.49054 12.8766C4.49054 13.1692 5.05926 13.3555 5.14574 13.1293C5.23221 12.9032 5.13576 12.8333 5.22223 12.8333C5.30871 12.8333 5.25882 12.85 5.53819 13.1293Z" fill="#D0E386" stroke="#869F26" stroke-width="0.254444" stroke-linecap="round" stroke-linejoin="round"/>
<path d="M11.1398 12.6074C11.3633 12.8309 11.9313 12.4388 12.1874 12.2149C12.2462 12.2149 12.3763 12.2575 12.4269 12.4278C12.4901 12.6406 12.8559 12.6074 13.2218 12.6074C13.5876 12.6074 13.6242 12.2149 14.2295 12.2149C14.7138 12.2149 15.0033 12.0286 15.0876 11.9355C15.2373 12.1484 15.5665 12.1251 15.8459 12.1384C16.0694 12.149 16.0721 12.3357 16.0455 12.4278C16.0754 12.4244 16.1173 12.4324 16.0455 12.4909C15.9557 12.5641 16.0455 12.6805 16.1353 13.0364C16.2251 13.3923 16.4645 13.3124 16.5643 13.5153C16.6641 13.7182 16.6541 13.9045 16.8304 14.0175C17.0066 14.1306 17.1563 13.8911 17.3725 13.7548C17.5887 13.6184 17.4723 13.4122 17.5355 13.3124C17.586 13.2326 17.7672 13.2282 17.8514 13.2359C18.1175 13.0198 17.9013 12.5309 18.0277 12.2149C18.1541 11.8989 17.8381 11.5098 17.6884 11.3202C17.5388 11.1307 17.459 10.9411 17.3725 10.6118C17.286 10.2826 16.4878 10.3857 16.4645 10.1828C16.4412 9.9799 16.1984 9.67724 16.0455 9.70384C15.8925 9.73045 15.5166 9.45108 15.4401 9.30141C15.3789 9.18168 15.0798 9.06527 14.9379 9.02204C14.5654 8.6788 13.9069 8.94776 13.6242 9.12514C13.3927 8.94421 12.898 9.26704 12.6796 9.45108C12.377 9.42447 11.795 10.246 11.6453 10.1828C11.4956 10.1196 10.7473 10.2726 10.6708 10.6118C10.5943 10.9511 10.295 11.257 10.1686 11.4333C10.0422 11.6096 9.95241 11.7859 10.0023 11.9355C10.0422 12.0553 10.0788 12.2648 10.0921 12.3546C10.0921 12.6473 10.6608 12.8335 10.7473 12.6074C10.8338 12.3812 10.7373 12.3113 10.8238 12.3113C10.9103 12.3113 10.8604 12.328 11.1398 12.6074Z" fill="#D0E386" stroke="#869F26" stroke-width="0.254444" stroke-linecap="round" stroke-linejoin="round"/>
<path d="M15.173 13.1293C15.3965 13.3528 15.9645 12.9608 16.2206 12.7369C16.2794 12.7369 16.4095 12.7794 16.4601 12.9497C16.5233 13.1626 16.8891 13.1293 17.255 13.1293C17.6208 13.1293 17.6574 12.7369 18.2627 12.7369C18.747 12.7369 19.0365 12.5506 19.1208 12.4575C19.2705 12.6704 19.5997 12.6471 19.8791 12.6604C20.1026 12.671 20.1053 12.8577 20.0787 12.9497C20.1086 12.9464 20.1505 12.9544 20.0787 13.0129C19.9889 13.0861 20.0787 13.2025 20.1685 13.5584C20.2583 13.9142 20.4977 13.8344 20.5975 14.0373C20.6973 14.2402 20.6873 14.4264 20.8636 14.5395C21.0398 14.6526 21.1895 14.4131 21.4057 14.2768C21.6219 14.1404 21.5055 13.9342 21.5687 13.8344C21.6192 13.7546 21.8004 13.7502 21.8846 13.7579C22.1507 13.5417 21.9345 13.0528 22.0609 12.7369C22.1873 12.4209 21.8713 12.0318 21.7216 11.8422C21.572 11.6526 21.4922 11.4631 21.4057 11.1338C21.3192 10.8045 20.521 10.9076 20.4977 10.7047C20.4744 10.5019 20.2316 10.1992 20.0787 10.2258C19.9257 10.2524 19.5498 9.97305 19.4733 9.82338C19.4121 9.70365 19.113 9.58725 18.9711 9.54401C18.5986 9.20078 17.9401 9.46973 17.6574 9.64711C17.4259 9.46618 16.9312 9.78902 16.7128 9.97305C16.4102 9.94644 15.8282 10.7679 15.6785 10.7047C15.5288 10.6416 14.7805 10.7945 14.704 11.1338C14.6275 11.473 14.3282 11.779 14.2018 11.9553C14.0754 12.1316 13.9856 12.3078 14.0355 12.4575C14.0754 12.5772 14.112 12.7868 14.1253 12.8766C14.1253 13.1692 14.694 13.3555 14.7805 13.1293C14.867 12.9032 14.7705 12.8333 14.857 12.8333C14.9435 12.8333 14.8936 12.85 15.173 13.1293Z" fill="#D0E386" stroke="#869F26" stroke-width="0.254444" stroke-linecap="round" stroke-linejoin="round"/>
<path d="M8.92461 9.29622L8.92354 9.29702L8.93381 9.30629C8.97947 9.34751 9.02258 9.37997 9.06168 9.39865C9.09653 9.41531 9.15446 9.4329 9.20351 9.39483C9.24775 9.36049 9.25328 9.30311 9.25227 9.26248C9.25112 9.21604 9.2403 9.15824 9.22189 9.09096C9.21372 9.06108 9.18985 9.01282 9.16002 8.95801C9.12861 8.90028 9.08613 8.82743 9.03547 8.74461C8.93408 8.5789 8.7988 8.3715 8.65128 8.16236C8.50387 7.95337 8.34348 7.74157 8.19189 7.56757C8.0426 7.39621 7.89468 7.25294 7.77213 7.19081C7.74866 7.17891 7.71597 7.16535 7.68234 7.16934C7.66242 7.1717 7.64094 7.18046 7.62436 7.19921C7.60878 7.21683 7.60313 7.23698 7.60123 7.25233C7.59771 7.28077 7.60485 7.31082 7.61264 7.33536C7.62112 7.36211 7.63383 7.3925 7.64939 7.42527C7.71119 7.55537 7.83107 7.74962 7.97546 7.96719C8.26546 8.40417 8.66393 8.9494 8.92461 9.29622Z" fill="#D0E386" stroke="#869F26" stroke-width="0.142389" stroke-linecap="round" stroke-linejoin="round"/>
<path d="M9.07093 9.16334L9.06966 9.16371L9.07604 9.17598C9.10442 9.23056 9.13348 9.27603 9.16359 9.30719C9.19043 9.33497 9.23857 9.37169 9.29783 9.35315C9.35128 9.33643 9.3765 9.2846 9.38974 9.24617C9.40488 9.20225 9.41494 9.14431 9.42119 9.07484C9.42396 9.04398 9.41845 8.99043 9.40965 8.92866C9.40038 8.86359 9.38603 8.78049 9.36748 8.68519C9.33036 8.49451 9.27604 8.25292 9.21086 8.00542C9.14573 7.7581 9.06942 7.50362 8.98815 7.28763C8.90812 7.07493 8.81956 6.88901 8.72643 6.78799C8.70859 6.76864 8.6827 6.74452 8.6498 6.73651C8.6303 6.73177 8.60711 6.73246 8.58503 6.74424C8.56428 6.75531 8.55194 6.77222 8.5448 6.78594C8.53157 6.81136 8.52777 6.84202 8.52649 6.86773C8.5251 6.89576 8.52639 6.92867 8.52953 6.96481C8.54199 7.1083 8.58647 7.33219 8.64577 7.58649C8.76487 8.09724 8.94781 8.74731 9.07093 9.16334Z" fill="#D0E386" stroke="#869F26" stroke-width="0.142389" stroke-linecap="round" stroke-linejoin="round"/>
<path d="M9.26765 9.0569L9.26633 9.05701L9.27004 9.07033C9.28655 9.12959 9.30561 9.18007 9.32864 9.21678C9.34916 9.2495 9.3887 9.29536 9.45051 9.28944C9.50625 9.28411 9.54163 9.2386 9.56251 9.20373C9.58639 9.16388 9.60818 9.10926 9.62863 9.04257C9.6438 8.99311 9.65786 8.88449 9.66753 8.75063C9.67743 8.6137 9.68321 8.44256 9.67952 8.26326C9.67583 8.08414 9.66266 7.8955 9.63422 7.72407C9.60601 7.55405 9.56182 7.39471 9.49259 7.27842C9.47841 7.25461 9.46238 7.23247 9.44365 7.21603C9.42524 7.19987 9.39517 7.18166 9.35703 7.18717C9.31945 7.19261 9.29611 7.21795 9.28348 7.23689C9.27042 7.25647 9.26137 7.27991 9.25459 7.30289C9.22802 7.39295 9.21636 7.54875 9.21295 7.73184C9.20601 8.10336 9.23299 8.62406 9.26765 9.0569Z" fill="#D0E386" stroke="#869F26" stroke-width="0.142389" stroke-linecap="round" stroke-linejoin="round"/>
<path d="M9.97257 9.17468C9.89352 9.09393 9.79156 9.00939 9.6785 8.94358C9.56442 8.87719 9.43451 8.82726 9.30285 8.82391C9.16838 8.82048 9.03581 8.86597 8.92336 8.98317C8.81306 9.09812 8.72605 9.27782 8.66918 9.53658M9.97257 9.17468L8.66918 9.53658M9.97257 9.17468C10.003 9.19955 10.0313 9.24006 10.0576 9.28427C10.0867 9.33329 10.1184 9.39608 10.152 9.46974C10.2193 9.61725 10.2965 9.81329 10.3786 10.0409C10.5428 10.4963 10.7282 11.0824 10.8946 11.669C11.061 12.2554 11.209 12.8439 11.2981 13.3038C11.3426 13.5335 11.3728 13.7331 11.3829 13.8852C11.388 13.961 11.3883 14.0276 11.382 14.0814C11.3763 14.1306 11.3634 14.1861 11.3276 14.2217C11.2862 14.2628 11.2356 14.2824 11.1808 14.2806C11.1291 14.2789 11.079 14.2584 11.0334 14.2305C10.9427 14.1749 10.8486 14.0768 10.7597 13.9651C10.5811 13.7408 10.4051 13.4381 10.2969 13.2271M9.97257 9.17468C9.97366 9.17579 9.97475 9.1769 9.97583 9.17801L10.2969 13.2271M8.66918 9.53658C8.66921 9.53647 8.66923 9.53636 8.66926 9.53626L8.73865 9.55218L8.66911 9.5369C8.66914 9.5368 8.66916 9.53669 8.66918 9.53658ZM10.2969 13.2271C10.2963 13.2261 10.2958 13.2251 10.2953 13.2241L10.3587 13.1916M10.2969 13.2271C10.2975 13.228 10.2981 13.229 10.2987 13.2299L10.3587 13.1916M10.3587 13.1916C10.5727 13.6098 11.0562 14.3912 11.2774 14.1712C11.5538 13.8963 10.2485 9.47319 9.92479 9.22765C9.62163 8.9159 8.95999 8.54436 8.73865 9.55218C8.67672 9.82215 8.91402 10.928 10.3587 13.1916Z" fill="#F16C1D" stroke="#71393B" stroke-width="0.142389" stroke-linecap="round" stroke-linejoin="round"/>
<path d="M11.5328 9.39174L11.5314 9.3918L11.5348 9.40522C11.5496 9.46493 11.5672 9.51594 11.5892 9.55328C11.6088 9.58658 11.647 9.63354 11.7089 9.62939C11.7648 9.62564 11.8015 9.58115 11.8233 9.5469C11.8483 9.50773 11.8717 9.45376 11.894 9.38768C11.9039 9.35833 11.9111 9.30497 11.917 9.24286C11.9232 9.17743 11.9287 9.09328 11.933 8.99628C11.9415 8.80221 11.9453 8.55462 11.9398 8.29874C11.9344 8.04305 11.9198 7.77777 11.8913 7.54877C11.8633 7.32323 11.8207 7.12175 11.7538 7.00173C11.741 6.97876 11.7215 6.94924 11.6914 6.93375C11.6735 6.92458 11.6508 6.91983 11.6266 6.92611C11.6038 6.93202 11.5879 6.94557 11.5777 6.95724C11.5589 6.97885 11.548 7.00777 11.5408 7.03246C11.5328 7.05939 11.5264 7.09169 11.521 7.12756C11.4995 7.26999 11.4904 7.49806 11.4885 7.75918C11.4847 8.28362 11.5104 8.95845 11.5328 9.39174Z" fill="#D0E386" stroke="#869F26" stroke-width="0.142389" stroke-linecap="round" stroke-linejoin="round"/>
<path d="M11.7284 9.36228L11.7271 9.36188L11.7256 9.37562C11.7186 9.43675 11.7173 9.49069 11.7248 9.53336C11.7316 9.5714 11.751 9.62875 11.8105 9.6465C11.8641 9.6625 11.914 9.63362 11.9465 9.60916C11.9836 9.5812 12.0243 9.53877 12.0683 9.48466C12.0879 9.46062 12.1132 9.41313 12.1404 9.35699C12.1691 9.29786 12.2037 9.22092 12.2415 9.13153C12.3173 8.95266 12.4073 8.72197 12.4916 8.48031C12.5758 8.23882 12.6548 7.98515 12.7081 7.76063C12.7606 7.53951 12.7911 7.33584 12.7703 7.20002C12.7663 7.17402 12.7584 7.13953 12.7355 7.1145C12.722 7.09968 12.7024 7.0873 12.6775 7.08472C12.6541 7.0823 12.6344 7.08943 12.6209 7.09681C12.5957 7.1105 12.5754 7.13379 12.56 7.1544C12.5431 7.17687 12.5258 7.20488 12.5082 7.2366C12.4384 7.36256 12.3501 7.57307 12.2572 7.81709C12.0705 8.30718 11.8588 8.94849 11.7284 9.36228Z" fill="#D0E386" stroke="#869F26" stroke-width="0.142389" stroke-linecap="round" stroke-linejoin="round"/>
<path d="M11.9519 9.38464L11.9508 9.38399L11.9464 9.39711C11.927 9.45548 11.9146 9.50799 11.9131 9.5513C11.9119 9.58991 11.919 9.65003 11.9736 9.67967C12.0228 9.70641 12.0776 9.68844 12.1144 9.6712C12.1564 9.65149 12.205 9.61838 12.2593 9.57451C12.2995 9.54198 12.3719 9.45977 12.4547 9.35417C12.5394 9.24615 12.6399 9.10747 12.737 8.95673C12.8341 8.80613 12.9286 8.64234 13.0008 8.48429C13.0724 8.32754 13.1249 8.17071 13.1324 8.03559C13.134 8.00792 13.1331 7.9806 13.1267 7.9565C13.1205 7.93281 13.1057 7.9009 13.071 7.88416C13.0368 7.86766 13.0033 7.87563 12.9823 7.88428C12.9605 7.89322 12.9399 7.90759 12.9214 7.92286C12.849 7.98269 12.7523 8.10537 12.6471 8.25528C12.4337 8.55948 12.1651 9.00635 11.9519 9.38464Z" fill="#D0E386" stroke="#869F26" stroke-width="0.142389" stroke-linecap="round" stroke-linejoin="round"/>
<path d="M12.4698 9.87593C12.4493 9.76478 12.412 9.63769 12.3551 9.51994C12.2976 9.40112 12.2177 9.28711 12.1104 9.21074C12.0008 9.13275 11.8655 9.09638 11.7067 9.13071C11.551 9.16439 11.3785 9.26477 11.1867 9.44756M12.4698 9.87593L11.1867 9.44756M12.4698 9.87593C12.4811 9.91354 12.4819 9.96299 12.479 10.0143C12.4757 10.0712 12.4669 10.141 12.4536 10.2209C12.427 10.3808 12.3814 10.5865 12.3223 10.8211C12.204 11.2906 12.0301 11.8802 11.8403 12.4596C11.6505 13.0389 11.4443 13.6096 11.2611 14.0408C11.1696 14.2561 11.0831 14.4385 11.0065 14.5703C10.9683 14.636 10.9313 14.6914 10.8961 14.7324C10.8638 14.7701 10.8222 14.8089 10.7725 14.8184C10.7153 14.8294 10.6624 14.8173 10.618 14.7852C10.576 14.7549 10.5459 14.7099 10.5237 14.6613C10.4796 14.5645 10.4564 14.4305 10.445 14.2882C10.4223 14.0024 10.4455 13.6531 10.4737 13.4176M12.4698 9.87593C12.47 9.87746 12.4703 9.87899 12.4706 9.88051L10.4737 13.4176M11.1867 9.44756C11.1868 9.44748 11.1868 9.44741 11.1869 9.44733L11.2356 9.49932L11.1864 9.44779C11.1865 9.44771 11.1866 9.44764 11.1867 9.44756ZM10.4737 13.4176C10.4739 13.4164 10.474 13.4153 10.4741 13.4142L10.5448 13.4227M10.4737 13.4176C10.4737 13.4187 10.4737 13.4198 10.4737 13.4209L10.5448 13.4227M10.5448 13.4227C10.4886 13.8891 10.4528 14.8073 10.7591 14.7485C11.142 14.675 12.5317 10.2777 12.4005 9.89315C12.3234 9.4652 11.9824 8.78731 11.2356 9.49932C11.0333 9.68858 10.612 10.7382 10.5448 13.4227Z" fill="#F16C1D" stroke="#71393B" stroke-width="0.142389" stroke-linecap="round" stroke-linejoin="round"/>
<path d="M19.5054 9.96058L19.5041 9.96065L19.5074 9.97407C19.5222 10.0338 19.5399 10.0848 19.5618 10.1221C19.5814 10.1554 19.6196 10.2024 19.6816 10.1982C19.7375 10.1945 19.7741 10.15 19.796 10.1157C19.821 10.0766 19.8443 10.0226 19.8667 9.95653C19.8766 9.92718 19.8838 9.87382 19.8897 9.81171C19.8959 9.74628 19.9014 9.66212 19.9056 9.56513C19.9142 9.37106 19.9179 9.12346 19.9125 8.86759C19.9071 8.61189 19.8924 8.34662 19.864 8.11761C19.8359 7.89208 19.7934 7.6906 19.7265 7.57058C19.7137 7.5476 19.6941 7.51808 19.664 7.5026C19.6462 7.49342 19.6235 7.48868 19.5992 7.49496C19.5765 7.50086 19.5605 7.51441 19.5504 7.52608C19.5315 7.5477 19.5207 7.57661 19.5134 7.60131C19.5055 7.62824 19.4991 7.66054 19.4936 7.69641C19.4722 7.83883 19.463 8.06691 19.4611 8.32803C19.4574 8.85246 19.4831 9.5273 19.5054 9.96058Z" fill="#D0E386" stroke="#869F26" stroke-width="0.142389" stroke-linecap="round" stroke-linejoin="round"/>
<path d="M19.7011 9.93162L19.6998 9.93122L19.6982 9.94496C19.6913 10.0061 19.6899 10.06 19.6975 10.1027C19.7042 10.1407 19.7236 10.1981 19.7831 10.2158C19.8368 10.2318 19.8867 10.203 19.9191 10.1785C19.9562 10.1505 19.997 10.1081 20.041 10.054C20.0605 10.03 20.0859 9.98247 20.1131 9.92633C20.1418 9.86719 20.1763 9.79026 20.2142 9.70087C20.29 9.522 20.38 9.2913 20.4643 9.04965C20.5485 8.80816 20.6274 8.55448 20.6808 8.32996C20.7333 8.10885 20.7637 7.90518 20.743 7.76936C20.739 7.74335 20.731 7.70887 20.7082 7.68384C20.6947 7.66901 20.6751 7.65663 20.6502 7.65406C20.6268 7.65164 20.6071 7.65876 20.5935 7.66615C20.5683 7.67983 20.548 7.70313 20.5326 7.72373C20.5158 7.7462 20.4985 7.77421 20.4809 7.80594C20.411 7.93189 20.3228 8.14241 20.2298 8.38642C20.0431 8.87652 19.8315 9.51782 19.7011 9.93162Z" fill="#D0E386" stroke="#869F26" stroke-width="0.142389" stroke-linecap="round" stroke-linejoin="round"/>
<path d="M19.9246 9.95349L19.9234 9.95284L19.9191 9.96596C19.8996 10.0243 19.8872 10.0768 19.8858 10.1201C19.8845 10.1588 19.8917 10.2189 19.9462 10.2485C19.9954 10.2753 20.0502 10.2573 20.087 10.24C20.1291 10.2203 20.1777 10.1872 20.2319 10.1434C20.2721 10.1108 20.3445 10.0286 20.4273 9.92302C20.5121 9.815 20.6125 9.67631 20.7097 9.52557C20.8067 9.37498 20.9012 9.21119 20.9735 9.05314C21.0451 8.89639 21.0975 8.73956 21.1051 8.60444C21.1067 8.57676 21.1057 8.54944 21.0994 8.52535C21.0932 8.50166 21.0784 8.46975 21.0437 8.453C21.0095 8.43651 20.976 8.44448 20.9549 8.45313C20.9331 8.46207 20.9125 8.47644 20.8941 8.49171C20.8217 8.55154 20.725 8.67422 20.6198 8.82413C20.4064 9.12833 20.1377 9.57519 19.9246 9.95349Z" fill="#D0E386" stroke="#869F26" stroke-width="0.142389" stroke-linecap="round" stroke-linejoin="round"/>
<path d="M20.4424 10.4448C20.422 10.3336 20.3847 10.2065 20.3277 10.0888C20.2702 9.96997 20.1904 9.85596 20.0831 9.77959C19.9735 9.7016 19.8382 9.66523 19.6794 9.69956C19.5237 9.73323 19.3511 9.83362 19.1593 10.0164M20.4424 10.4448L19.1593 10.0164M20.4424 10.4448C20.4537 10.4824 20.4546 10.5318 20.4517 10.5832C20.4484 10.6401 20.4396 10.7099 20.4263 10.7897C20.3996 10.9496 20.3541 11.1554 20.2949 11.3899C20.1766 11.8594 20.0028 12.4491 19.8129 13.0285C19.6232 13.6078 19.4169 14.1784 19.2338 14.6096C19.1423 14.8249 19.0558 15.0074 18.9792 15.1392C18.941 15.2049 18.904 15.2602 18.8688 15.3013C18.8365 15.3389 18.7949 15.3777 18.7452 15.3873C18.688 15.3982 18.635 15.3862 18.5906 15.3541C18.5486 15.3238 18.5186 15.2788 18.4964 15.2301C18.4522 15.1334 18.429 14.9994 18.4177 14.857C18.395 14.5713 18.4182 14.2219 18.4464 13.9864M20.4424 10.4448C20.4427 10.4463 20.443 10.4478 20.4432 10.4494L18.4464 13.9864M19.1593 10.0164C19.1594 10.0163 19.1595 10.0163 19.1596 10.0162L19.2082 10.0682L19.1591 10.0166C19.1592 10.0166 19.1592 10.0165 19.1593 10.0164ZM18.4464 13.9864C18.4465 13.9853 18.4467 13.9842 18.4468 13.983L18.5175 13.9916M18.4464 13.9864C18.4464 13.9875 18.4463 13.9887 18.4463 13.9898L18.5175 13.9916M18.5175 13.9916C18.4613 14.458 18.4254 15.3761 18.7318 15.3173C19.1147 15.2439 20.5044 10.8465 20.3732 10.462C20.296 10.034 19.955 9.35616 19.2082 10.0682C19.006 10.2574 18.5847 11.3071 18.5175 13.9916Z" fill="#F16C1D" stroke="#71393B" stroke-width="0.142389" stroke-linecap="round" stroke-linejoin="round"/>
<path d="M17.2945 10.2519L17.2935 10.2528L17.3044 10.2613C17.353 10.2991 17.3983 10.3284 17.4387 10.3442C17.4746 10.3582 17.5337 10.3716 17.5799 10.3301C17.6215 10.2926 17.6229 10.235 17.6189 10.1945C17.6144 10.1483 17.5994 10.0914 17.5761 10.0257C17.5658 9.99644 17.5385 9.95005 17.5048 9.89755C17.4693 9.84225 17.4216 9.77267 17.3651 9.69375C17.2519 9.53583 17.102 9.33879 16.9397 9.14091C16.7775 8.94316 16.6021 8.74356 16.4383 8.58102C16.277 8.42095 16.1191 8.28878 15.9923 8.23571C15.9681 8.22555 15.9345 8.21439 15.9012 8.22081C15.8815 8.22462 15.8607 8.23491 15.8456 8.25481C15.8313 8.27352 15.8271 8.29402 15.8263 8.30947C15.8249 8.33809 15.8342 8.36755 15.8437 8.39145C15.8542 8.41752 15.869 8.44691 15.8869 8.47846C15.958 8.60373 16.0917 8.78877 16.2515 8.99529C16.5724 9.41008 17.0094 9.92496 17.2945 10.2519Z" fill="#D0E386" stroke="#869F26" stroke-width="0.142389" stroke-linecap="round" stroke-linejoin="round"/>
<path d="M17.4304 10.109L17.4292 10.1095L17.4364 10.1213C17.4687 10.1737 17.501 10.2169 17.5333 10.2458C17.5621 10.2716 17.6128 10.3047 17.6705 10.2819C17.7226 10.2613 17.744 10.2078 17.7544 10.1685C17.7663 10.1236 17.7722 10.0651 17.7734 9.99536C17.7739 9.96438 17.7645 9.91137 17.7512 9.8504C17.7373 9.78618 17.7169 9.70433 17.6915 9.61063C17.6407 9.42315 17.5689 9.18613 17.486 8.94402C17.4031 8.70208 17.3085 8.4538 17.2118 8.24429C17.1165 8.03795 17.0147 7.85894 16.9145 7.76495C16.8953 7.74695 16.8677 7.72476 16.8343 7.71917C16.8145 7.71585 16.7915 7.71823 16.7703 7.73158C16.7504 7.74413 16.7393 7.76188 16.7332 7.77609C16.7218 7.8024 16.7203 7.83325 16.7209 7.85898C16.7215 7.88704 16.7252 7.91978 16.7309 7.95559C16.7538 8.0978 16.8144 8.31787 16.892 8.5672C17.0478 9.06796 17.2775 9.70304 17.4304 10.109Z" fill="#D0E386" stroke="#869F26" stroke-width="0.142389" stroke-linecap="round" stroke-linejoin="round"/>
<path d="M17.6178 9.98846L17.6165 9.98866L17.6212 10.0017C17.6419 10.0596 17.6646 10.1086 17.6902 10.1435C17.7131 10.1746 17.7559 10.2175 17.8171 10.2071C17.8723 10.1978 17.9043 10.1498 17.9226 10.1135C17.9435 10.072 17.9613 10.016 17.9768 9.94798C17.9883 9.89755 17.9945 9.7882 17.9944 9.65398C17.9944 9.5167 17.9877 9.34558 17.971 9.16703C17.9543 8.98864 17.9275 8.80146 17.8867 8.63254C17.8462 8.46502 17.7906 8.3093 17.7131 8.19835C17.6973 8.17562 17.6797 8.15471 17.6598 8.13967C17.6403 8.12489 17.6089 8.10891 17.5713 8.11718C17.5342 8.12532 17.5128 8.15229 17.5016 8.1721C17.4899 8.19258 17.4826 8.21661 17.4775 8.24002C17.4576 8.33178 17.4572 8.48801 17.4671 8.67086C17.4872 9.0419 17.5518 9.55928 17.6178 9.98846Z" fill="#D0E386" stroke="#869F26" stroke-width="0.142389" stroke-linecap="round" stroke-linejoin="round"/>
<path d="M18.3306 10.0546C18.2459 9.97978 18.1381 9.90286 18.0206 9.84543C17.902 9.7875 17.7688 9.74712 17.6372 9.75333C17.5029 9.75968 17.3739 9.81466 17.2703 9.93971C17.1686 10.0624 17.0949 10.2479 17.0569 10.5101M18.3306 10.0546L17.0569 10.5101M18.3306 10.0546C18.3628 10.0772 18.394 10.1155 18.4234 10.1577C18.456 10.2045 18.4921 10.2648 18.531 10.3359C18.6088 10.4781 18.7 10.668 18.7984 10.889C18.9953 11.3313 19.2227 11.9025 19.4313 12.4754C19.6398 13.0482 19.83 13.6244 19.9523 14.0766C20.0133 14.3025 20.0579 14.4994 20.0791 14.6504C20.0896 14.7256 20.0947 14.792 20.0924 14.8461C20.0902 14.8956 20.0815 14.9518 20.0483 14.99C20.01 15.034 19.961 15.0572 19.9062 15.0594C19.8545 15.0615 19.803 15.0446 19.7555 15.0201C19.6611 14.9713 19.56 14.8802 19.4632 14.7753C19.2689 14.5645 19.0714 14.2754 18.9481 14.0728M18.3306 10.0546C18.3318 10.0556 18.333 10.0566 18.3341 10.0577L18.9481 14.0728M17.0569 10.5101C17.057 10.51 17.057 10.5099 17.057 10.5098L17.1274 10.5206L17.0569 10.5104C17.0569 10.5103 17.0569 10.5102 17.0569 10.5101ZM18.9481 14.0728C18.9475 14.0718 18.9469 14.0709 18.9464 14.0699L19.0072 14.0329M18.9481 14.0728C18.9488 14.0737 18.9495 14.0746 18.9501 14.0755L19.0072 14.0329M19.0072 14.0329C19.2511 14.4345 19.7899 15.1787 19.9945 14.9433C20.2503 14.649 18.6275 10.3323 18.2868 10.1109C17.9618 9.82195 17.275 9.4994 17.1274 10.5206C17.0852 10.7944 17.4021 11.8801 19.0072 14.0329Z" fill="#F16C1D" stroke="#71393B" stroke-width="0.142389" stroke-linecap="round" stroke-linejoin="round"/>
<path d="M10.2374 14.2206C10.4609 14.4441 11.029 14.0521 11.2851 13.8282C11.3438 13.8282 11.474 13.8708 11.5245 14.041C11.5877 14.2539 11.9536 14.2206 12.3194 14.2206C12.6853 14.2206 12.7219 13.8282 13.3272 13.8282C13.8114 13.8282 14.101 13.6419 14.1853 13.5488C14.3349 13.7617 14.6642 13.7384 14.9436 13.7517C15.1671 13.7623 15.1697 13.949 15.1431 14.041C15.173 14.0377 15.2149 14.0457 15.1431 14.1042C15.0533 14.1774 15.1431 14.2938 15.2329 14.6497C15.3227 15.0055 15.5622 14.9257 15.6619 15.1286C15.7617 15.3315 15.7517 15.5177 15.928 15.6308C16.1043 15.7439 16.254 15.5044 16.4701 15.3681C16.6863 15.2317 16.5699 15.0255 16.6331 14.9257C16.6837 14.8459 16.8648 14.8415 16.9491 14.8492C17.2151 14.633 16.999 14.1441 17.1253 13.8282C17.2517 13.5122 16.9358 13.1231 16.7861 12.9335C16.6364 12.7439 16.5566 12.5544 16.4701 12.2251C16.3837 11.8958 15.5855 11.9989 15.5622 11.7961C15.5389 11.5932 15.2961 11.2905 15.1431 11.3171C14.9901 11.3437 14.6143 11.0644 14.5378 10.9147C14.4766 10.795 14.1775 10.6786 14.0356 10.6353C13.6631 10.2921 13.0046 10.561 12.7219 10.7384C12.4904 10.5575 11.9957 10.8803 11.7773 11.0644C11.4746 11.0378 10.8926 11.8592 10.7429 11.7961C10.5933 11.7329 9.84496 11.8859 9.76846 12.2251C9.69196 12.5643 9.39263 12.8703 9.26625 13.0466C9.13987 13.2229 9.05007 13.3991 9.09995 13.5488C9.13987 13.6685 9.17645 13.8781 9.18975 13.9679C9.18975 14.2605 9.75848 14.4468 9.84496 14.2206C9.93143 13.9945 9.83498 13.9246 9.92145 13.9246C10.0079 13.9246 9.95804 13.9413 10.2374 14.2206Z" fill="#D0E386" stroke="#869F26" stroke-width="0.254444" stroke-linecap="round" stroke-linejoin="round"/>
<path d="M3.06944 14.2206C3.29294 14.4441 3.86101 14.0521 4.1171 13.8282C4.17586 13.8282 4.30601 13.8708 4.35656 14.041C4.41976 14.2539 4.7856 14.2206 5.15145 14.2206C5.5173 14.2206 5.55389 13.8282 6.1592 13.8282C6.64345 13.8282 6.93303 13.6419 7.01728 13.5488C7.16695 13.7617 7.49621 13.7384 7.77559 13.7517C7.99909 13.7623 8.00175 13.949 7.97514 14.041C8.00507 14.0377 8.04698 14.0457 7.97514 14.1042C7.88534 14.1774 7.97514 14.2938 8.06494 14.6497C8.15474 15.0055 8.3942 14.9257 8.49398 15.1286C8.59376 15.3315 8.58378 15.5177 8.76005 15.6308C8.93632 15.7439 9.08599 15.5044 9.30217 15.3681C9.51836 15.2317 9.40195 15.0255 9.46514 14.9257C9.5157 14.8459 9.69685 14.8415 9.7811 14.8492C10.0472 14.633 9.83099 14.1441 9.95737 13.8282C10.0838 13.5122 9.7678 13.1231 9.61813 12.9335C9.46847 12.7439 9.38865 12.5544 9.30217 12.2251C9.2157 11.8958 8.41748 11.9989 8.3942 11.7961C8.37092 11.5932 8.12813 11.2905 7.97514 11.3171C7.82215 11.3437 7.44632 11.0644 7.36983 10.9147C7.30863 10.795 7.00952 10.6786 6.86762 10.6353C6.49512 10.2921 5.83659 10.561 5.55389 10.7384C5.3224 10.5575 4.82773 10.8803 4.60933 11.0644C4.30668 11.0378 3.72464 11.8592 3.57498 11.7961C3.42531 11.7329 2.67699 11.8859 2.60049 12.2251C2.52399 12.5643 2.22466 12.8703 2.09828 13.0466C1.9719 13.2229 1.8821 13.3991 1.93199 13.5488C1.9719 13.6685 2.00848 13.8781 2.02179 13.9679C2.02179 14.2605 2.59051 14.4468 2.67699 14.2206C2.76346 13.9945 2.66701 13.9246 2.75348 13.9246C2.83996 13.9246 2.79007 13.9413 3.06944 14.2206Z" fill="#D0E386" stroke="#869F26" stroke-width="0.254444" stroke-linecap="round" stroke-linejoin="round"/>
<path d="M18.3913 29.9754C7.35619 30.5614 2.12691 30.3114 1.30743 26.2275C0.567876 22.542 0.927732 11.1581 5.03328 12.1073H22.8034C22.5484 8.52983 22.7649 6.03447 24.0869 4.22666C26.605 0.783258 29.645 0.468762 31.511 1.98539C33.9857 3.75382 33.2434 6.07053 33.2434 6.07053C29.809 6.38802 32.3178 4.50425 31.511 1.98539C29.645 0.468762 26.605 0.783258 24.0869 4.22666C22.7649 6.03447 22.5484 8.52983 22.8034 12.1073C22.9094 13.5951 23.097 15.2699 23.3205 17.1604C24.0816 23.5965 24.9428 29.6274 18.3913 29.9754Z" fill="#CA4314"/>
<path d="M31.511 1.98539C33.9857 3.75382 33.2434 6.07053 33.2434 6.07053C29.8089 6.38802 32.3178 4.50425 31.511 1.98539ZM31.511 1.98539C29.645 0.468762 26.605 0.783258 24.0869 4.22666C22.7649 6.03447 22.5484 8.52983 22.8034 12.1073M22.8034 12.1073C22.9094 13.5951 23.097 15.2699 23.3205 17.1604C24.0816 23.5965 24.9428 29.6274 18.3913 29.9754C7.35619 30.5614 2.12691 30.3114 1.30743 26.2275C0.567876 22.542 0.927732 11.1581 5.03328 12.1073H22.8034Z" stroke="#E6DADA" stroke-width="0.806871" stroke-linecap="round" stroke-linejoin="round"/>
<path d="M19.0456 29.8557C8.01048 30.4418 2.78121 30.1918 1.96173 26.1079C1.22217 22.4223 1.58203 11.0384 5.68758 11.9877H23.4577C23.2027 8.4102 23.4192 5.91484 24.7412 4.10703C27.2593 0.663629 30.2993 0.349133 32.1653 1.86576C34.64 3.6342 33.8976 5.9509 33.8976 5.9509C30.4632 6.26839 32.9721 4.38462 32.1653 1.86576C30.2993 0.349133 27.2593 0.663629 24.7412 4.10703C23.4192 5.91484 23.2027 8.4102 23.4577 11.9877C23.5637 13.4754 23.7513 15.1503 23.9748 17.0407C24.7359 23.4769 25.5971 29.5078 19.0456 29.8557Z" fill="#CA4314"/>
<path d="M32.1653 1.86576C34.64 3.6342 33.8976 5.9509 33.8976 5.9509C30.4632 6.26839 32.9721 4.38462 32.1653 1.86576ZM32.1653 1.86576C30.2993 0.349133 27.2593 0.663629 24.7412 4.10703C23.4192 5.91484 23.2027 8.4102 23.4577 11.9877M23.4577 11.9877C23.5637 13.4754 23.7513 15.1503 23.9748 17.0407C24.7359 23.4769 25.5971 29.5078 19.0456 29.8557C8.01048 30.4418 2.78121 30.1918 1.96173 26.1079C1.22217 22.4223 1.58203 11.0384 5.68758 11.9877H23.4577Z" stroke="#E6DADA" stroke-width="0.806871" stroke-linecap="round" stroke-linejoin="round"/>
<path d="M19.8308 29.8826C8.79564 30.4687 3.56637 30.2187 2.74689 26.1348C2.00733 22.4492 2.36718 11.0653 6.47273 12.0145H24.2428C23.9878 8.43706 24.2043 5.9417 25.5263 4.13389C28.0444 0.690485 31.0845 0.375989 32.9504 1.89262C35.4251 3.66105 34.6828 5.97775 34.6828 5.97775C31.2484 6.29525 33.7573 4.41148 32.9504 1.89262C31.0845 0.375989 28.0444 0.690485 25.5263 4.13389C24.2043 5.9417 23.9878 8.43706 24.2428 12.0145C24.3489 13.5023 24.5364 15.1772 24.76 17.0676C25.5211 23.5037 26.3823 29.5346 19.8308 29.8826Z" fill="#CA4314"/>
<path d="M32.9504 1.89262C35.4251 3.66105 34.6828 5.97775 34.6828 5.97775C31.2484 6.29525 33.7573 4.41148 32.9504 1.89262ZM32.9504 1.89262C31.0845 0.375989 28.0444 0.690485 25.5263 4.13389C24.2043 5.9417 23.9878 8.43706 24.2428 12.0145M24.2428 12.0145C24.3489 13.5023 24.5364 15.1772 24.76 17.0676C25.5211 23.5037 26.3823 29.5346 19.8308 29.8826C8.79564 30.4687 3.56637 30.2187 2.74689 26.1348C2.00733 22.4492 2.36718 11.0653 6.47273 12.0145H24.2428Z" stroke="#E6DADA" stroke-width="0.806871" stroke-linecap="round" stroke-linejoin="round"/>
<circle cx="7.13934" cy="33.0143" r="1.54255" fill="#CA4314" stroke="#E6DADA" stroke-width="0.806871"/>
<circle cx="15.9675" cy="33.0143" r="1.54255" fill="#CA4314" stroke="#E6DADA" stroke-width="0.806871"/>
<path d="M32.08 18.71L32.11 17.075V16.73L32.14 16.61L32.08 14.03V13.94L31.99 13.67L32.02 12.935L31.975 11.99L32.74 11.975L33.745 12.005L34.135 12.155L34.3 11.975L35.905 11.96V12.725L35.77 13.4L35.185 13.415L34.3 13.265L33.775 13.295L33.565 13.34H33.46L33.415 13.88L33.385 14.615L33.205 14.72L33.43 14.945L33.46 16.805L34.33 16.775H34.54L35.5 16.715L35.59 17.345L35.545 17.72L35.425 18.215H34.915L34.675 18.11L34.6 18.155L33.43 18.125V18.41L33.475 19.04L33.46 20.3L33.505 20.96L33.565 21.59L33.535 22.055L33.61 22.265V23L33.01 23.03L31.945 22.925L32.02 21.155L32.23 20.51L32.035 20.24L32.08 18.71ZM39.3198 11.945L39.9948 11.915L40.2948 12.74L41.0598 14.615L41.1348 15.02H41.2848L41.6898 15.92L42.1998 17.03L42.1548 17.855L41.4198 19.34L41.2998 19.49L41.2848 19.73L40.9398 20.45L40.1298 22.37L39.9498 22.85L39.9198 23.015L38.5548 23L38.5398 22.505L38.0148 21.2L38.0598 20.945H37.8948L37.4448 20.015L36.9048 18.74L36.5448 17.975L36.5148 17.03L36.6348 16.955L37.4448 14.99L37.7148 14.795L37.6398 14.63L38.4498 12.605L38.5098 12.515L38.5998 12.065L38.6298 11.96H39.1848L39.3198 11.945ZM39.3498 21.095L39.4098 21.26L39.8898 19.685L40.0698 19.505H40.0548L40.0398 19.235L40.7748 17.435L40.6548 17.06L40.4748 16.55L39.8898 15.035L40.0248 14.855L39.7548 14.69L39.4098 13.775L39.3198 13.49L38.4948 15.665L38.2848 15.725L38.3898 15.965L37.8948 17.255L37.9098 17.435L38.1048 17.93L38.2398 18.365L38.0898 18.545L38.3898 18.755L38.6898 19.37L39.3498 21.095ZM45.5601 11.945L46.2351 11.915L46.5351 12.74L47.3001 14.615L47.3751 15.02H47.5251L47.9301 15.92L48.4401 17.03L48.3951 17.855L47.6601 19.34L47.5401 19.49L47.5251 19.73L47.1801 20.45L46.3701 22.37L46.1901 22.85L46.1601 23.015L44.7951 23L44.7801 22.505L44.2551 21.2L44.3001 20.945H44.1351L43.6851 20.015L43.1451 18.74L42.7851 17.975L42.7551 17.03L42.8751 16.955L43.6851 14.99L43.9551 14.795L43.8801 14.63L44.6901 12.605L44.7501 12.515L44.8401 12.065L44.8701 11.96H45.4251L45.5601 11.945ZM45.5901 21.095L45.6501 21.26L46.1301 19.685L46.3101 19.505H46.2951L46.2801 19.235L47.0151 17.435L46.8951 17.06L46.7151 16.55L46.1301 15.035L46.2651 14.855L45.9951 14.69L45.6501 13.775L45.5601 13.49L44.7351 15.665L44.5251 15.725L44.6301 15.965L44.1351 17.255L44.1501 17.435L44.3451 17.93L44.4801 18.365L44.3301 18.545L44.6301 18.755L44.9301 19.37L45.5901 21.095ZM52.1903 21.575L51.1853 23.165L50.6903 23.03L49.7153 22.895L49.7453 21.89V21.905L49.8353 18.545L49.7453 17.96L49.7303 14.03L49.8803 13.745L49.7303 13.55L49.6853 12.77L49.6703 12.215L50.3153 12.02L51.1103 11.78L52.0403 13.055L52.2053 13.55L52.7303 14.075L53.1203 14.765L54.2603 16.28L54.2453 16.25L54.5153 16.595L54.5303 17.69L54.2603 18.14L52.7153 20.51L52.1903 21.575ZM51.0803 15.965L50.8553 16.64L51.0953 17.345L51.0353 20.315L51.0203 21.125L51.0353 21.095L51.6953 20.03L51.9653 19.895L51.8453 19.76L52.4753 18.545L52.9703 17.72L53.2403 17.285L52.9703 16.88L52.9103 16.52L52.6103 16.28L51.1253 13.895L51.0353 13.79L51.0803 15.965ZM61.3764 19.925L61.3464 19.805L61.1364 19.835H61.1214L60.8214 20.045L59.8164 20.285L59.6814 20.345L59.3814 20.465L59.2164 21.53L59.0814 21.695L59.1864 22.115L59.0214 23.12L58.0914 23.03L57.5664 22.7L57.9714 20.87L58.1214 19.925L58.2864 19.76L58.2714 19.46L58.5714 17.615L58.6164 17.33L58.7064 17.015V16.745L59.1564 14.735L59.4264 14.42L59.2614 14.195L59.3664 13.595L59.5014 12.965L59.6514 12.02L60.8814 11.96L61.1364 12.08L61.1214 12.605L61.1664 12.725L61.2264 12.875L61.7064 15.17L61.6014 15.44L61.7814 15.575L62.5014 19.19V19.4L62.8764 20.795L63.0264 21.74L62.9364 21.86L63.1614 22.1L63.3264 22.745L62.2164 23.105H62.0214L61.7664 22.97L61.5714 21.08L61.5114 20.66L61.6314 20.51L61.4964 20.42L61.3764 19.925ZM59.9964 16.49L59.8014 17.945L59.8164 17.93L59.6364 18.905L59.6214 19.01L60.5964 18.71L61.0164 18.605L60.7164 16.985L60.6564 16.205L60.5964 15.935L60.3714 14.345L60.0714 16.175L59.9214 16.25L59.9964 16.49ZM64.6435 18.71L64.6735 17.075V16.73L64.7035 16.61L64.6435 14.03V13.94L64.5535 13.67L64.5835 12.935L64.5385 11.99L65.3035 11.975L66.3085 12.005L66.6985 12.155L66.8635 11.975L68.4685 11.96V12.725L68.3335 13.4L67.7485 13.415L66.8635 13.265L66.3385 13.295L66.1285 13.34H66.0235L65.9785 13.88L65.9485 14.615L65.7685 14.72L65.9935 14.945L66.0235 16.805L66.8935 16.775H67.1035L68.0635 16.715L68.1535 17.345L68.1085 17.72L67.9885 18.215H67.4785L67.2385 18.11L67.1635 18.155L65.9935 18.125V18.41L66.0385 19.04L66.0235 20.3L66.0685 20.96L66.1285 21.59L66.0985 22.055L66.1735 22.265V23L65.5735 23.03L64.5085 22.925L64.5835 21.155L64.7935 20.51L64.5985 20.24L64.6435 18.71ZM71.2683 18.38L71.1783 18.29L71.1933 19.925L71.2383 21.425L71.2833 21.56L71.2983 22.805L70.6983 23.045L69.7083 22.955L69.7983 20.57L70.0233 19.985L69.8883 19.79V19.205L69.8283 17.45L69.7983 16.67L69.9183 16.37L69.8433 13.505L69.7833 12.215L70.9683 11.735L73.3533 13.805L73.4433 14.18C73.4583 14.195 73.6983 14.12 73.7133 14.12L74.4333 14.78L74.3283 15.68L73.6383 16.52L73.1583 17.09L72.9033 17.405L72.4833 17.975C72.5883 18.185 72.7683 18.44 72.8583 18.62V18.875C72.9783 19.01 73.0683 19.085 73.1733 19.235L73.7733 20.255V20.45L73.8633 20.495L74.0733 20.93V20.915L74.3433 21.485L74.8383 22.01L74.8233 22.445L73.6083 23.12L73.2483 22.535L72.7233 21.335L72.7383 21.08L72.5583 20.99L72.0033 19.94L71.8683 19.595L71.2683 18.38ZM71.2083 16.97L71.1783 17.525L71.2833 17.465L72.0333 16.535C72.2433 16.28 72.6033 15.815 72.7983 15.545L72.9633 15.335L72.6633 14.96L72.5583 14.885L71.1783 13.52L71.1483 14.675V14.825L71.0283 15.11L71.0883 15.38L71.1183 15.47L71.1483 15.635L71.2083 16.97ZM77.8745 11.945L78.5495 11.915L78.8495 12.74L79.6145 14.615L79.6895 15.02H79.8395L80.2445 15.92L80.7545 17.03L80.7095 17.855L79.9745 19.34L79.8545 19.49L79.8395 19.73L79.4945 20.45L78.6845 22.37L78.5045 22.85L78.4745 23.015L77.1095 23L77.0945 22.505L76.5695 21.2L76.6145 20.945H76.4495L75.9995 20.015L75.4595 18.74L75.0995 17.975L75.0695 17.03L75.1895 16.955L75.9995 14.99L76.2695 14.795L76.1945 14.63L77.0045 12.605L77.0645 12.515L77.1545 12.065L77.1845 11.96H77.7395L77.8745 11.945ZM77.9045 21.095L77.9645 21.26L78.4445 19.685L78.6245 19.505H78.6095L78.5945 19.235L79.3295 17.435L79.2095 17.06L79.0295 16.55L78.4445 15.035L78.5795 14.855L78.3095 14.69L77.9645 13.775L77.8745 13.49L77.0495 15.665L76.8395 15.725L76.9445 15.965L76.4495 17.255L76.4645 17.435L76.6595 17.93L76.7945 18.365L76.6445 18.545L76.9445 18.755L77.2445 19.37L77.9045 21.095ZM82.1948 16.925L82.9298 16.97L83.9798 16.82L84.4148 16.775L84.6098 16.97L84.5948 18.095L84.3398 18.26L83.4698 18.17L82.2398 18.23L81.9098 18.245L81.5048 18.275L81.2948 18.215L81.2498 17.72L81.3698 16.865L81.6248 16.835L81.8348 16.85L82.1948 16.925ZM88.327 22.325L87.277 23.21L86.647 23.015L85.822 22.865L85.942 20.825L85.882 20.12V17.87L85.972 17.18L85.912 15.575L85.897 13.85L86.062 13.4L85.912 13.25L85.867 13.025L85.837 12.17L87.097 11.81L89.077 13.565L90.097 14.375L90.157 14.675L90.052 15.56L89.167 16.52L88.417 17.39L88.522 17.48L88.747 17.675L88.912 17.825L90.487 19.325L90.502 19.64L90.487 20.33L89.902 20.93L89.287 21.365L88.852 21.905L88.327 22.325ZM87.397 17.945L87.262 17.855V20.51L87.127 20.63L87.277 20.78L87.262 21.695L88.027 20.885L88.432 20.54L88.612 20.42L89.182 19.79L88.642 19.115L88.432 18.92L88.072 18.545L87.397 17.945ZM87.172 15.65L87.202 16.925L87.322 16.835L88.057 16.04L88.282 16.01L88.342 15.635L88.867 15.065H88.882L88.417 14.645L88.342 14.465L88.222 14.45L87.202 13.55L87.217 14.87L87.172 15.65ZM95.536 13.385H94.831L94.471 13.265L94.426 13.28L94.186 13.325L93.361 13.295H93.226V13.46L93.196 13.835V15.32L93.121 15.77L92.956 16.04L93.106 16.16L93.136 16.745L93.691 16.775L94.276 16.745L95.041 16.67L95.236 17.045L95.146 17.495L95.116 18.11L94.381 18.08L93.436 18.05H93.196L93.136 19.595L93.226 20.03L93.181 20.165L93.196 20.195L93.226 21.65L93.361 21.68L93.481 21.71L94.681 21.695L95.056 21.575L95.806 21.59L95.776 22.34L95.716 22.895L95.371 23.045L94.381 23.03L93.526 22.94H93.001L92.881 23.015L91.756 23L91.681 22.385L91.771 21.365L91.756 21.2L91.771 20.51L91.951 20.12L91.816 19.94V19.595L91.801 18.785L91.861 18.665L91.741 17.18L91.786 16.625V15.515L91.801 14.345L91.786 13.58L91.951 13.325L91.786 13.13L91.711 12.065L92.416 11.975H93.271L93.481 12.095L94.066 11.975L95.551 11.96L95.566 12.545L95.536 13.385ZM100.371 19.925L100.341 19.805L100.131 19.835H100.116L99.8155 20.045L98.8105 20.285L98.6755 20.345L98.3755 20.465L98.2105 21.53L98.0755 21.695L98.1805 22.115L98.0155 23.12L97.0855 23.03L96.5605 22.7L96.9655 20.87L97.1155 19.925L97.2805 19.76L97.2655 19.46L97.5655 17.615L97.6105 17.33L97.7005 17.015V16.745L98.1505 14.735L98.4205 14.42L98.2555 14.195L98.3605 13.595L98.4955 12.965L98.6455 12.02L99.8755 11.96L100.131 12.08L100.116 12.605L100.161 12.725L100.221 12.875L100.701 15.17L100.596 15.44L100.776 15.575L101.496 19.19V19.4L101.871 20.795L102.021 21.74L101.931 21.86L102.156 22.1L102.321 22.745L101.211 23.105H101.016L100.761 22.97L100.566 21.08L100.506 20.66L100.626 20.51L100.491 20.42L100.371 19.925ZM98.9905 16.49L98.7955 17.945L98.8105 17.93L98.6305 18.905L98.6155 19.01L99.5905 18.71L100.011 18.605L99.7105 16.985L99.6505 16.205L99.5905 15.935L99.3655 14.345L99.0655 16.175L98.9155 16.25L98.9905 16.49ZM108.543 21.68L108.633 22.52L108.438 23.03L107.613 23.045L107.103 23.015L107.118 21.845L107.103 20.42L107.118 18.98L107.163 18.905L107.118 18.62L107.103 17.06L106.863 16.655L106.653 16.43L106.443 16.1L106.008 15.575L105.393 14.72L105.003 14.18V14.99L104.793 15.53L104.808 15.56L104.988 15.755L104.958 19.175L104.883 19.715L105.018 20.285L105.003 21.845L105.048 22.055L105.018 23.015L104.133 23.045L103.488 22.925L103.593 21.725L103.548 21.59V21.335L103.638 19.205L103.758 18.77L103.623 18.47L103.683 15.35L103.623 14.495L103.563 12.935V12.155L104.748 11.825L106.098 13.685L106.473 14.285L106.593 14.345L107.088 15.155V13.865L107.238 13.4L107.088 13.19V11.99L107.958 11.975L108.573 12.08L108.543 13.1L108.393 16.79L108.273 17.42L108.438 17.915L108.543 21.2V21.68Z" fill="#E6DADA"/>
</svg>
