<svg width="139" height="34" viewBox="0 0 139 34" fill="none" xmlns="http://www.w3.org/2000/svg">
<path d="M6.2586 12.7114C6.48129 12.9294 7.04728 12.5471 7.30244 12.3287C7.36098 12.3287 7.49066 12.3702 7.54103 12.5363C7.60399 12.7439 7.96851 12.7114 8.33302 12.7114C8.69754 12.7114 8.73399 12.3287 9.33709 12.3287C9.81958 12.3287 10.1081 12.1471 10.192 12.0563C10.3412 12.2639 10.6692 12.2412 10.9476 12.2541C11.1703 12.2645 11.1729 12.4466 11.1464 12.5363C11.1762 12.533 11.218 12.5408 11.1464 12.5979C11.0569 12.6693 11.1464 12.7828 11.2359 13.1298C11.3254 13.4768 11.5639 13.399 11.6634 13.5968C11.7628 13.7947 11.7528 13.9763 11.9285 14.0866C12.1041 14.1968 12.2532 13.9633 12.4686 13.8304C12.684 13.6974 12.568 13.4963 12.631 13.399C12.6814 13.3212 12.8618 13.3168 12.9458 13.3244C13.2109 13.1136 12.9955 12.6368 13.1214 12.3287C13.2473 12.0206 12.9325 11.6411 12.7834 11.4563C12.6343 11.2714 12.5548 11.0866 12.4686 10.7655C12.3824 10.4444 11.5871 10.5449 11.5639 10.3471C11.5408 10.1492 11.2988 9.85411 11.1464 9.88006C10.994 9.906 10.6195 9.63357 10.5433 9.48762C10.4823 9.37086 10.1843 9.25735 10.0429 9.21519C9.67179 8.88048 9.01566 9.14275 8.73399 9.31573C8.50335 9.1393 8.01048 9.45411 7.79288 9.63357C7.49132 9.60762 6.91142 10.4087 6.7623 10.3471C6.61318 10.2855 5.86758 10.4347 5.79136 10.7655C5.71514 11.0963 5.41691 11.3947 5.29098 11.5666C5.16506 11.7384 5.07559 11.9103 5.12529 12.0563C5.16506 12.173 5.20151 12.3774 5.21477 12.4649C5.21477 12.7503 5.78142 12.932 5.86758 12.7114C5.95374 12.4909 5.85764 12.4228 5.94379 12.4228C6.02995 12.4228 5.98025 12.439 6.2586 12.7114Z" fill="#D0E386" stroke="#869F26" stroke-width="0.248123" stroke-linecap="round" stroke-linejoin="round"/>
<path d="M11.8426 12.2021C12.0653 12.4201 12.6313 12.0378 12.8864 11.8194C12.945 11.8194 13.0746 11.861 13.125 12.027C13.188 12.2346 13.5525 12.2021 13.917 12.2021C14.2815 12.2021 14.318 11.8194 14.9211 11.8194C15.4036 11.8194 15.6921 11.6378 15.776 11.547C15.9252 11.7546 16.2532 11.7319 16.5316 11.7448C16.7543 11.7552 16.7569 11.9373 16.7304 12.027C16.7602 12.0238 16.802 12.0316 16.7304 12.0886C16.6409 12.16 16.7304 12.2735 16.8199 12.6205C16.9093 12.9676 17.1479 12.8897 17.2473 13.0876C17.3468 13.2854 17.3368 13.467 17.5124 13.5773C17.6881 13.6876 17.8372 13.454 18.0526 13.3211C18.268 13.1881 18.152 12.987 18.215 12.8897C18.2653 12.8119 18.4458 12.8076 18.5298 12.8151C18.7949 12.6043 18.5795 12.1276 18.7054 11.8194C18.8313 11.5113 18.5165 11.1319 18.3674 10.947C18.2183 10.7621 18.1387 10.5773 18.0526 10.2562C17.9664 9.93511 17.1711 10.0356 17.1479 9.83781C17.1247 9.63997 16.8828 9.34483 16.7304 9.37078C16.578 9.39672 16.2035 9.12429 16.1273 8.97834C16.0663 8.86159 15.7683 8.74807 15.6269 8.70591C15.2558 8.37121 14.5996 8.63348 14.318 8.80645C14.0873 8.63002 13.5945 8.94483 13.3769 9.12429C13.0753 9.09835 12.4954 9.89943 12.3463 9.83781C12.1972 9.77619 11.4516 9.92538 11.3753 10.2562C11.2991 10.587 11.0009 10.8854 10.875 11.0573C10.749 11.2292 10.6596 11.4011 10.7093 11.547C10.749 11.6638 10.7855 11.8681 10.7988 11.9557C10.7988 12.2411 11.3654 12.4227 11.4516 12.2021C11.5377 11.9816 11.4416 11.9135 11.5278 11.9135C11.6139 11.9135 11.5642 11.9297 11.8426 12.2021Z" fill="#D0E386" stroke="#869F26" stroke-width="0.248123" stroke-linecap="round" stroke-linejoin="round"/>
<path d="M15.8621 12.7114C16.0848 12.9294 16.6508 12.5471 16.906 12.3287C16.9645 12.3287 17.0942 12.3702 17.1445 12.5363C17.2075 12.7439 17.572 12.7114 17.9365 12.7114C18.3011 12.7114 18.3375 12.3287 18.9406 12.3287C19.4231 12.3287 19.7116 12.1471 19.7956 12.0563C19.9447 12.2639 20.2727 12.2412 20.5511 12.2541C20.7738 12.2645 20.7764 12.4466 20.7499 12.5363C20.7798 12.533 20.8215 12.5408 20.7499 12.5979C20.6605 12.6693 20.7499 12.7828 20.8394 13.1298C20.9289 13.4768 21.1675 13.399 21.2669 13.5968C21.3663 13.7947 21.3563 13.9763 21.532 14.0866C21.7076 14.1968 21.8567 13.9633 22.0721 13.8304C22.2875 13.6974 22.1715 13.4963 22.2345 13.399C22.2849 13.3212 22.4654 13.3168 22.5493 13.3244C22.8144 13.1136 22.599 12.6368 22.7249 12.3287C22.8509 12.0206 22.5361 11.6411 22.3869 11.4563C22.2378 11.2714 22.1583 11.0866 22.0721 10.7655C21.986 10.4444 21.1907 10.5449 21.1675 10.3471C21.1443 10.1492 20.9024 9.85411 20.7499 9.88006C20.5975 9.906 20.223 9.63357 20.1468 9.48762C20.0858 9.37086 19.7878 9.25735 19.6464 9.21519C19.2753 8.88048 18.6192 9.14275 18.3375 9.31573C18.1069 9.1393 17.614 9.45411 17.3964 9.63357C17.0948 9.60762 16.5149 10.4087 16.3658 10.3471C16.2167 10.2855 15.4711 10.4347 15.3949 10.7655C15.3187 11.0963 15.0204 11.3947 14.8945 11.5666C14.7686 11.7384 14.6791 11.9103 14.7288 12.0563C14.7686 12.173 14.805 12.3774 14.8183 12.4649C14.8183 12.7503 15.3849 12.932 15.4711 12.7114C15.5573 12.4909 15.4612 12.4228 15.5473 12.4228C15.6335 12.4228 15.5838 12.439 15.8621 12.7114Z" fill="#D0E386" stroke="#869F26" stroke-width="0.248123" stroke-linecap="round" stroke-linejoin="round"/>
<path d="M9.63246 8.97333L9.63141 8.97412L9.64167 8.98319C9.68719 9.02342 9.73011 9.05502 9.76895 9.07319C9.80385 9.08952 9.86031 9.106 9.90793 9.06982C9.9514 9.0368 9.95712 8.98112 9.9561 8.94108C9.95494 8.89567 9.94414 8.8392 9.92578 8.77355C9.91759 8.74425 9.89374 8.69708 9.86405 8.64367C9.83274 8.58735 9.7904 8.51629 9.73992 8.43553C9.63889 8.27392 9.5041 8.07165 9.35711 7.8677C9.21022 7.66388 9.0504 7.45733 8.89935 7.28764C8.75056 7.12048 8.60319 6.9808 8.4812 6.92028C8.45773 6.90863 8.4256 6.89568 8.39285 6.89949C8.37358 6.90172 8.35276 6.90999 8.33659 6.92789C8.32129 6.94483 8.31562 6.96436 8.31371 6.9795C8.31018 7.00742 8.31735 7.03691 8.32512 7.06089C8.3336 7.08705 8.34629 7.11673 8.3618 7.14871C8.42341 7.27565 8.54289 7.46512 8.68675 7.67728C8.9757 8.10342 9.37273 8.63512 9.63246 8.97333Z" fill="#D0E386" stroke="#869F26" stroke-width="0.138851" stroke-linecap="round" stroke-linejoin="round"/>
<path d="M9.77752 8.84378L9.77626 8.84416L9.78261 8.85613C9.8109 8.90937 9.83983 8.95365 9.86975 8.98395C9.89658 9.01114 9.94376 9.04606 10.0015 9.02837C10.0542 9.01226 10.0793 8.96205 10.0926 8.92428C10.1077 8.88138 10.1178 8.82482 10.124 8.75705C10.1268 8.72686 10.1213 8.67456 10.1125 8.61434C10.1033 8.55088 10.0889 8.46984 10.0705 8.3769C10.0335 8.19094 9.97936 7.95535 9.91442 7.71399C9.84952 7.47281 9.77349 7.22464 9.69251 7.01402C9.61275 6.80654 9.52452 6.6253 9.43182 6.52689C9.41401 6.50798 9.38848 6.4848 9.35631 6.47714C9.33736 6.47262 9.31479 6.47326 9.29318 6.48454C9.27278 6.4952 9.26051 6.51156 9.25335 6.52503C9.24012 6.54991 9.23632 6.57991 9.23505 6.60502C9.23366 6.6324 9.23495 6.66453 9.23808 6.69978C9.2505 6.83976 9.29482 7.05811 9.35391 7.30609C9.47258 7.80416 9.65485 8.43809 9.77752 8.84378Z" fill="#D0E386" stroke="#869F26" stroke-width="0.138851" stroke-linecap="round" stroke-linejoin="round"/>
<path d="M9.97206 8.74029L9.97074 8.7404L9.97442 8.75333C9.99088 8.81112 10.0098 8.86028 10.0327 8.89598C10.0532 8.92793 10.0922 8.97192 10.1528 8.96625C10.2078 8.9611 10.243 8.91703 10.2638 8.88289C10.2876 8.84403 10.3094 8.79076 10.3297 8.72573C10.3448 8.67749 10.3589 8.57156 10.3685 8.44103C10.3783 8.30751 10.3841 8.14061 10.3804 7.96577C10.3768 7.7911 10.3636 7.60716 10.3353 7.44C10.3072 7.2742 10.2632 7.11889 10.1943 7.00561C10.1802 6.98241 10.1642 6.96093 10.1457 6.94502C10.1275 6.92939 10.098 6.91194 10.0606 6.91724C10.0236 6.92247 10.0005 6.94696 9.98783 6.9655C9.97482 6.98459 9.9658 7.00745 9.95905 7.02987C9.93257 7.1177 9.92095 7.26963 9.91755 7.44817C9.91064 7.81045 9.93752 8.31822 9.97206 8.74029Z" fill="#D0E386" stroke="#869F26" stroke-width="0.138851" stroke-linecap="round" stroke-linejoin="round"/>
<path d="M9.37899 9.20673C9.43568 8.95428 9.52237 8.7792 9.63202 8.66736C9.74365 8.55349 9.87503 8.50943 10.0083 8.51275C10.139 8.516 10.2681 8.56453 10.3818 8.62927C10.4944 8.6934 10.5959 8.77582 10.6747 8.85459C10.705 8.87885 10.7333 8.91841 10.7595 8.96158C10.7885 9.00942 10.8201 9.07068 10.8536 9.14254C10.9207 9.28642 10.9976 9.47762 11.0794 9.69955C11.2431 10.1437 11.4278 10.7153 11.5936 11.2873C11.7594 11.8592 11.9069 12.4331 11.9956 12.8816C12.04 13.1056 12.0701 13.3003 12.0802 13.4487C12.0852 13.5227 12.0855 13.5877 12.0793 13.6401C12.0735 13.6884 12.0607 13.7423 12.0253 13.7767C11.9845 13.8164 11.9347 13.8352 11.8809 13.8335C11.8298 13.8319 11.7802 13.812 11.7348 13.7848C11.6445 13.7307 11.5507 13.635 11.462 13.526C11.2841 13.3073 11.1087 13.0121 11.0009 12.8062M9.37899 9.20673C9.37901 9.20663 9.37904 9.20652 9.37906 9.20642L9.44687 9.22273L9.37892 9.20705C9.37894 9.20694 9.37896 9.20684 9.37899 9.20673ZM9.37899 9.20673C9.36012 9.28764 9.36602 9.41648 9.40247 9.59136C9.43948 9.76894 9.50963 10.0014 9.62636 10.2933C9.85966 10.8766 10.2806 11.7013 11.0009 12.8062M11.0009 12.8062C11.0015 12.8072 11.0021 12.8081 11.0027 12.809L11.061 12.7718M11.0009 12.8062C11.0003 12.8052 10.9998 12.8042 10.9993 12.8033L11.061 12.7718M11.061 12.7718C11.2743 13.1796 11.7559 13.9415 11.9763 13.727C12.2518 13.4589 10.9512 9.14571 10.6287 8.90627L11.061 12.7718Z" fill="#F16C1D" stroke="#71393B" stroke-width="0.138851" stroke-linecap="round" stroke-linejoin="round"/>
<path d="M12.2375 9.0681L12.2361 9.06818L12.2395 9.0813C12.2543 9.13955 12.2718 9.18924 12.2936 9.22555C12.3132 9.25816 12.3507 9.30278 12.4109 9.29882C12.4658 9.29522 12.5024 9.25217 12.5244 9.21844C12.5493 9.18016 12.5726 9.12744 12.5949 9.06297C12.6048 9.03422 12.612 8.98207 12.6178 8.92152C12.624 8.8577 12.6295 8.77563 12.6338 8.68104C12.6423 8.49176 12.646 8.25031 12.6406 8.00078C12.6352 7.75142 12.6206 7.49272 12.5923 7.26939C12.5643 7.04939 12.5219 6.85296 12.4553 6.73604C12.4425 6.71355 12.4232 6.68522 12.3939 6.67044C12.3766 6.66174 12.3546 6.6572 12.3309 6.66321C12.3085 6.66888 12.2927 6.68198 12.2825 6.69347C12.2636 6.71467 12.2527 6.74303 12.2455 6.76716C12.2376 6.79348 12.2312 6.82503 12.2258 6.86002C12.2044 6.99898 12.1952 7.22144 12.1934 7.47607C12.1896 7.98749 12.2152 8.64557 12.2375 9.0681Z" fill="#D0E386" stroke="#869F26" stroke-width="0.138851" stroke-linecap="round" stroke-linejoin="round"/>
<path d="M12.4319 9.04L12.4306 9.03962L12.429 9.05301C12.4221 9.11263 12.4208 9.16517 12.4283 9.20666C12.435 9.24387 12.4542 9.29869 12.5123 9.31565C12.5651 9.33108 12.6147 9.3032 12.6473 9.27917C12.6843 9.25187 12.7249 9.21046 12.7687 9.15767C12.7883 9.13417 12.8136 9.0878 12.8407 9.03307C12.8693 8.9754 12.9037 8.90037 12.9414 8.81319C13.0169 8.63876 13.1066 8.4138 13.1906 8.17813C13.2745 7.94264 13.3532 7.69526 13.4063 7.47631C13.4586 7.26064 13.489 7.0621 13.4683 6.92978C13.4643 6.90436 13.4564 6.87115 13.4341 6.84719C13.4209 6.83306 13.4018 6.82123 13.3774 6.81876C13.3544 6.81643 13.3349 6.8233 13.3213 6.83054C13.2961 6.84392 13.2759 6.86671 13.2605 6.88683C13.2437 6.90877 13.2264 6.93611 13.2089 6.96706C13.1392 7.08992 13.0513 7.29523 12.9587 7.53318C12.7727 8.0111 12.5618 8.63648 12.4319 9.04Z" fill="#D0E386" stroke="#869F26" stroke-width="0.138851" stroke-linecap="round" stroke-linejoin="round"/>
<path d="M12.6518 9.06114L12.6507 9.06051L12.6463 9.07324C12.627 9.13016 12.6146 9.1813 12.6132 9.22342C12.612 9.26111 12.6191 9.31893 12.6727 9.34741C12.7212 9.37323 12.7756 9.35591 12.8124 9.33904C12.8543 9.31983 12.9027 9.28754 12.9567 9.24476C12.9968 9.21303 13.0689 9.13287 13.1514 9.02989C13.2359 8.92456 13.336 8.78932 13.4327 8.64233C13.5294 8.49548 13.6236 8.33577 13.6956 8.18166C13.7669 8.0288 13.8191 7.87594 13.8267 7.74431C13.8282 7.71735 13.8273 7.69084 13.821 7.66751C13.8148 7.64458 13.8003 7.61395 13.7663 7.59788C13.7326 7.58197 13.6994 7.58962 13.6784 7.59808C13.6567 7.60679 13.6362 7.62081 13.6178 7.6357C13.5456 7.69404 13.4493 7.81367 13.3445 7.95986C13.1319 8.25649 12.8642 8.69225 12.6518 9.06114Z" fill="#D0E386" stroke="#869F26" stroke-width="0.138851" stroke-linecap="round" stroke-linejoin="round"/>
<path d="M13.1675 9.53833C13.1471 9.42993 13.1099 9.30602 13.0532 9.19125C12.9959 9.07541 12.9165 8.9645 12.81 8.8903C12.7014 8.81463 12.5672 8.7793 12.4096 8.81266C12.2548 8.84543 12.0829 8.94319 11.8918 9.12151M13.1675 9.53833L11.8918 9.12151M13.1675 9.53833C13.1787 9.57501 13.1796 9.62329 13.1767 9.67341C13.1734 9.72895 13.1646 9.79702 13.1513 9.87491C13.1248 10.0309 13.0794 10.2315 13.0205 10.4603C12.9026 10.9181 12.7294 11.4932 12.5402 12.0582C12.3511 12.6231 12.1457 13.1796 11.9631 13.6001C11.872 13.8101 11.7858 13.9881 11.7094 14.1166C11.6714 14.1807 11.6345 14.2348 11.5994 14.2748C11.5671 14.3117 11.5256 14.3494 11.4766 14.3586C11.4201 14.3692 11.368 14.3575 11.3244 14.3266C11.2829 14.2974 11.2531 14.2538 11.231 14.2063C11.187 14.1121 11.1639 13.9814 11.1526 13.8425C11.13 13.5638 11.1531 13.2231 11.1812 12.9934M13.1675 9.53833C13.1677 9.53983 13.168 9.54132 13.1683 9.5428L11.1812 12.9934M11.8918 9.12151C11.8918 9.12144 11.8919 9.12136 11.892 9.12129L11.939 9.17187L11.8915 9.12173C11.8916 9.12166 11.8917 9.12158 11.8918 9.12151ZM11.1812 12.9934C11.1813 12.9923 11.1815 12.9912 11.1816 12.9901L11.2508 12.9978M11.1812 12.9934C11.1812 12.9945 11.1811 12.9956 11.1811 12.9968L11.2508 12.9978M11.2508 12.9978C11.1948 13.4526 11.1591 14.3479 11.4643 14.2906C11.8458 14.219 13.2304 9.93091 13.0997 9.55592C13.0228 9.1386 12.6831 8.47756 11.939 9.17187C11.7375 9.35643 11.3177 10.38 11.2508 12.9978Z" fill="#F16C1D" stroke="#71393B" stroke-width="0.138851" stroke-linecap="round" stroke-linejoin="round"/>
<path d="M20.1828 9.6223L20.1815 9.62238L20.1848 9.6355C20.1996 9.69375 20.2171 9.74343 20.2389 9.77975C20.2585 9.81236 20.296 9.85697 20.3562 9.85302C20.4111 9.84942 20.4477 9.80637 20.4697 9.77264C20.4946 9.73436 20.5179 9.68164 20.5402 9.61717C20.5501 9.58841 20.5573 9.53627 20.5632 9.47572C20.5694 9.4119 20.5748 9.32983 20.5791 9.23524C20.5876 9.04596 20.5913 8.80451 20.5859 8.55498C20.5805 8.30562 20.5659 8.04692 20.5376 7.82359C20.5096 7.60359 20.4672 7.40716 20.4006 7.29024C20.3878 7.26775 20.3685 7.23942 20.3392 7.22464C20.3219 7.21594 20.2999 7.2114 20.2762 7.2174C20.2539 7.22308 20.238 7.23618 20.2278 7.24767C20.2089 7.26887 20.198 7.29722 20.1908 7.32136C20.1829 7.34768 20.1765 7.37922 20.1711 7.41422C20.1497 7.55318 20.1405 7.77564 20.1387 8.03027C20.1349 8.54169 20.1605 9.19977 20.1828 9.6223Z" fill="#D0E386" stroke="#869F26" stroke-width="0.138851" stroke-linecap="round" stroke-linejoin="round"/>
<path d="M20.3772 9.59419L20.3759 9.59382L20.3744 9.60721C20.3674 9.66682 20.3661 9.71937 20.3736 9.76086C20.3803 9.79807 20.3995 9.85289 20.4576 9.86985C20.5104 9.88528 20.56 9.8574 20.5926 9.83337C20.6296 9.80607 20.6702 9.76466 20.7141 9.71187C20.7336 9.68837 20.7589 9.642 20.786 9.58727C20.8146 9.5296 20.849 9.45457 20.8867 9.36739C20.9623 9.19296 21.0519 8.96799 21.1359 8.73233C21.2198 8.49684 21.2985 8.24946 21.3516 8.03051C21.4039 7.81484 21.4343 7.6163 21.4136 7.48398C21.4096 7.45856 21.4017 7.42535 21.3794 7.40138C21.3662 7.38726 21.3471 7.37543 21.3227 7.37296C21.2997 7.37063 21.2802 7.3775 21.2666 7.38474C21.2414 7.39812 21.2212 7.42091 21.2058 7.44103C21.189 7.46297 21.1717 7.49031 21.1542 7.52126C21.0846 7.64412 20.9966 7.84943 20.904 8.08738C20.718 8.5653 20.5071 9.19068 20.3772 9.59419Z" fill="#D0E386" stroke="#869F26" stroke-width="0.138851" stroke-linecap="round" stroke-linejoin="round"/>
<path d="M20.5971 9.61534L20.596 9.61471L20.5916 9.62744C20.5723 9.68436 20.5599 9.7355 20.5585 9.77762C20.5573 9.81531 20.5644 9.87313 20.618 9.90161C20.6666 9.92743 20.7209 9.91011 20.7577 9.89324C20.7996 9.87403 20.848 9.84174 20.902 9.79896C20.9421 9.76723 21.0142 9.68707 21.0968 9.58409C21.1812 9.47876 21.2813 9.34352 21.3781 9.19653C21.4748 9.04968 21.5689 8.88997 21.6409 8.73586C21.7122 8.583 21.7644 8.43014 21.772 8.29851C21.7735 8.27155 21.7726 8.24503 21.7663 8.22171C21.7602 8.19878 21.7456 8.16815 21.7116 8.15208C21.6779 8.13617 21.6447 8.14382 21.6237 8.15228C21.602 8.16099 21.5815 8.17501 21.5631 8.1899C21.491 8.24824 21.3946 8.36787 21.2898 8.51405C21.0772 8.81069 20.8095 9.24645 20.5971 9.61534Z" fill="#D0E386" stroke="#869F26" stroke-width="0.138851" stroke-linecap="round" stroke-linejoin="round"/>
<path d="M21.1128 10.093C21.0924 9.98461 21.0553 9.86071 20.9985 9.74594C20.9412 9.6301 20.8618 9.51918 20.7553 9.44499C20.6467 9.36932 20.5125 9.33398 20.3549 9.36735C20.2001 9.40011 20.0282 9.49788 19.8371 9.6762M21.1128 10.093L19.8371 9.6762M21.1128 10.093C21.124 10.1297 21.1249 10.178 21.122 10.2281C21.1187 10.2836 21.1099 10.3517 21.0967 10.4296C21.0701 10.5856 21.0247 10.7862 20.9658 11.015C20.8479 11.4728 20.6747 12.0478 20.4855 12.6129C20.2965 13.1778 20.091 13.7343 19.9085 14.1548C19.8173 14.3648 19.7311 14.5427 19.6547 14.6713C19.6167 14.7354 19.5798 14.7895 19.5447 14.8295C19.5124 14.8664 19.4709 14.904 19.4219 14.9133C19.3654 14.9239 19.3133 14.9122 19.2697 14.8813C19.2282 14.852 19.1984 14.8084 19.1763 14.761C19.1323 14.6667 19.1092 14.5361 19.0979 14.3972C19.0753 14.1185 19.0984 13.7778 19.1265 13.5481M21.1128 10.093C21.113 10.0945 21.1133 10.096 21.1136 10.0975L19.1265 13.5481M19.8371 9.6762C19.8372 9.67612 19.8372 9.67605 19.8373 9.67598L19.8843 9.72656L19.8368 9.67642C19.8369 9.67635 19.837 9.67627 19.8371 9.6762ZM19.1265 13.5481C19.1266 13.547 19.1268 13.5459 19.1269 13.5448L19.1961 13.5525M19.1265 13.5481C19.1265 13.5492 19.1265 13.5503 19.1264 13.5514L19.1961 13.5525M19.1961 13.5525C19.1401 14.0073 19.1044 14.9026 19.4096 14.8453C19.7911 14.7737 21.1758 10.4856 21.045 10.1106C20.9682 9.69329 20.6284 9.03225 19.8843 9.72656C19.6828 9.91112 19.263 10.9347 19.1961 13.5525Z" fill="#F16C1D" stroke="#71393B" stroke-width="0.138851" stroke-linecap="round" stroke-linejoin="round"/>
<path d="M17.9705 9.90544L17.9695 9.90631L17.9804 9.91461C18.0288 9.9515 18.0739 9.97997 18.114 9.99533C18.15 10.0091 18.2076 10.0216 18.2525 9.98207C18.2935 9.94602 18.295 9.89009 18.291 9.85027C18.2865 9.80508 18.2716 9.74954 18.2484 9.68537C18.2381 9.65676 18.2108 9.61143 18.1772 9.56026C18.1418 9.50632 18.0943 9.43845 18.038 9.36149C17.9253 9.20748 17.7758 9.01533 17.6141 8.82235C17.4525 8.6295 17.2778 8.43485 17.1146 8.27634C16.9538 8.1202 16.7964 7.99136 16.6703 7.93965C16.646 7.92971 16.613 7.91906 16.5806 7.92519C16.5615 7.9288 16.5413 7.93854 16.5265 7.95756C16.5125 7.97555 16.5083 7.99543 16.5075 8.01064C16.506 8.0387 16.5153 8.06758 16.5249 8.09094C16.5353 8.11641 16.5501 8.14511 16.568 8.1759C16.6388 8.29812 16.772 8.4786 16.9312 8.67998C17.251 9.08447 17.6864 9.58657 17.9705 9.90544Z" fill="#D0E386" stroke="#869F26" stroke-width="0.138851" stroke-linecap="round" stroke-linejoin="round"/>
<path d="M18.1051 9.76641L18.1039 9.76688L18.1111 9.77835C18.1433 9.82944 18.1754 9.87155 18.2075 9.89965C18.2363 9.92484 18.2859 9.95638 18.3423 9.9346C18.3936 9.91479 18.415 9.86292 18.4255 9.82434C18.4374 9.78049 18.4432 9.72338 18.4444 9.65535C18.4449 9.62507 18.4355 9.57331 18.4223 9.51387C18.4084 9.45124 18.3881 9.37142 18.3628 9.28005C18.3121 9.09721 18.2407 8.86608 18.158 8.62998C18.0754 8.39404 17.9812 8.15193 17.8848 7.94761C17.7899 7.74636 17.6884 7.57187 17.5887 7.4803C17.5695 7.4627 17.5423 7.44138 17.5096 7.43602C17.4904 7.43286 17.4679 7.4351 17.4471 7.4479C17.4276 7.45998 17.4166 7.47717 17.4104 7.4911C17.3991 7.51682 17.3975 7.54699 17.3981 7.57212C17.3988 7.59952 17.4024 7.63146 17.4082 7.6664C17.4309 7.80511 17.4913 8.01974 17.5686 8.26287C17.7239 8.75119 17.9527 9.3705 18.1051 9.76641Z" fill="#D0E386" stroke="#869F26" stroke-width="0.138851" stroke-linecap="round" stroke-linejoin="round"/>
<path d="M18.2924 9.64927L18.2911 9.64947L18.2958 9.6621C18.3165 9.71856 18.339 9.76625 18.3645 9.80022C18.3873 9.83063 18.4294 9.87177 18.4895 9.8618C18.544 9.85275 18.5758 9.80631 18.5941 9.77079C18.6149 9.73034 18.6326 9.67568 18.6481 9.60937C18.6596 9.5602 18.6658 9.45357 18.6657 9.32269C18.6656 9.18882 18.659 9.02196 18.6424 8.84785C18.6258 8.6739 18.599 8.49137 18.5584 8.32668C18.5181 8.16331 18.4626 8.01154 18.3855 7.90345C18.3697 7.88132 18.3523 7.86102 18.3326 7.84647C18.3133 7.83216 18.2825 7.81684 18.2456 7.82478C18.2091 7.83263 18.1878 7.8587 18.1766 7.87808C18.165 7.89804 18.1577 7.92146 18.1527 7.9443C18.1328 8.03377 18.1324 8.18612 18.1423 8.36442C18.1623 8.72624 18.2267 9.23075 18.2924 9.64927Z" fill="#D0E386" stroke="#869F26" stroke-width="0.138851" stroke-linecap="round" stroke-linejoin="round"/>
<path d="M17.7372 10.1571C17.775 9.90132 17.8485 9.72054 17.9496 9.60119C18.0525 9.47967 18.1803 9.42637 18.3135 9.42022C18.4441 9.41418 18.5766 9.45342 18.6947 9.50991C18.8118 9.56588 18.9192 9.64087 19.0036 9.71382C19.0356 9.73586 19.0668 9.77329 19.0961 9.81448C19.1286 9.86013 19.1646 9.91899 19.2033 9.98827C19.2809 10.127 19.3718 10.3122 19.4698 10.5278C19.666 10.9591 19.8926 11.5161 20.1004 12.0748C20.3082 12.6334 20.4977 13.1953 20.6195 13.6363C20.6803 13.8566 20.7248 14.0486 20.7459 14.1959C20.7564 14.2693 20.7615 14.3341 20.7592 14.3869C20.757 14.4354 20.7482 14.49 20.7154 14.5269C20.6777 14.5694 20.6294 14.5917 20.5755 14.5939C20.5245 14.5959 20.4735 14.5796 20.4262 14.5557C20.3321 14.5081 20.2315 14.4193 20.135 14.3169C19.9413 14.1114 19.7445 13.8295 19.6217 13.6318C18.8213 12.581 18.3404 11.7884 18.0645 11.2231C17.9264 10.9403 17.8392 10.7135 17.7892 10.539C17.7398 10.3672 17.7244 10.2391 17.7372 10.1571ZM17.7372 10.1571C17.7372 10.157 17.7373 10.1569 17.7373 10.1568L17.8062 10.1681L17.7372 10.1574C17.7372 10.1573 17.7372 10.1572 17.7372 10.1571Z" fill="#F16C1D" stroke="#71393B" stroke-width="0.138851" stroke-linecap="round" stroke-linejoin="round"/>
<path d="M10.9422 13.7759C11.1649 13.9938 11.7309 13.6116 11.986 13.3932C12.0446 13.3932 12.1743 13.4347 12.2246 13.6007C12.2876 13.8083 12.6521 13.7759 13.0166 13.7759C13.3811 13.7759 13.4176 13.3932 14.0207 13.3932C14.5032 13.3932 14.7917 13.2116 14.8756 13.1207C15.0248 13.3283 15.3528 13.3056 15.6312 13.3186C15.8539 13.329 15.8565 13.511 15.83 13.6007C15.8598 13.5975 15.9016 13.6053 15.83 13.6624C15.7405 13.7337 15.83 13.8472 15.9195 14.1943C16.009 14.5413 16.2475 14.4635 16.347 14.6613C16.4464 14.8591 16.4364 15.0408 16.6121 15.151C16.7877 15.2613 16.9368 15.0278 17.1522 14.8948C17.3676 14.7618 17.2516 14.5607 17.3146 14.4635C17.3649 14.3856 17.5454 14.3813 17.6294 14.3889C17.8945 14.178 17.6791 13.7013 17.805 13.3932C17.9309 13.0851 17.6161 12.7056 17.467 12.5207C17.3179 12.3359 17.2384 12.151 17.1522 11.8299C17.066 11.5088 16.2707 11.6094 16.2475 11.4115C16.2243 11.2137 15.9824 10.9186 15.83 10.9445C15.6776 10.9705 15.3031 10.698 15.2269 10.5521C15.1659 10.4353 14.8679 10.3218 14.7265 10.2796C14.3554 9.94494 13.6993 10.2072 13.4176 10.3802C13.1869 10.2037 12.6941 10.5186 12.4765 10.698C12.1749 10.6721 11.595 11.4732 11.4459 11.4115C11.2968 11.3499 10.5512 11.4991 10.475 11.8299C10.3987 12.1607 10.1005 12.4591 9.97458 12.631C9.84865 12.8029 9.75918 12.9748 9.80889 13.1207C9.84865 13.2375 9.8851 13.4418 9.89836 13.5294C9.89836 13.8148 10.465 13.9964 10.5512 13.7759C10.6373 13.5553 10.5412 13.4872 10.6274 13.4872C10.7135 13.4872 10.6638 13.5034 10.9422 13.7759Z" fill="#D0E386" stroke="#869F26" stroke-width="0.248123" stroke-linecap="round" stroke-linejoin="round"/>
<path d="M3.80353 13.7759C4.02621 13.9938 4.5922 13.6116 4.84736 13.3932C4.90591 13.3932 5.03558 13.4347 5.08595 13.6007C5.14892 13.8083 5.51343 13.7759 5.87794 13.7759C6.24246 13.7759 6.27891 13.3932 6.88202 13.3932C7.3645 13.3932 7.65302 13.2116 7.73697 13.1207C7.88609 13.3283 8.21415 13.3056 8.49251 13.3186C8.71519 13.329 8.71784 13.511 8.69133 13.6007C8.72116 13.5975 8.76291 13.6053 8.69133 13.6624C8.60186 13.7337 8.69133 13.8472 8.78081 14.1943C8.87028 14.5413 9.10887 14.4635 9.20828 14.6613C9.3077 14.8591 9.29775 15.0408 9.47338 15.151C9.64901 15.2613 9.79813 15.0278 10.0135 14.8948C10.2289 14.7618 10.1129 14.5607 10.1759 14.4635C10.2263 14.3856 10.4068 14.3813 10.4907 14.3889C10.7558 14.178 10.5404 13.7013 10.6663 13.3932C10.7923 13.0851 10.4775 12.7056 10.3283 12.5207C10.1792 12.3359 10.0997 12.151 10.0135 11.8299C9.92737 11.5088 9.13207 11.6094 9.10887 11.4115C9.08567 11.2137 8.84377 10.9186 8.69133 10.9445C8.5389 10.9705 8.16445 10.698 8.08823 10.5521C8.02726 10.4353 7.72924 10.3218 7.58785 10.2796C7.21671 9.94494 6.56058 10.2072 6.27891 10.3802C6.04827 10.2037 5.5554 10.5186 5.3378 10.698C5.03625 10.6721 4.45634 11.4732 4.30722 11.4115C4.1581 11.3499 3.4125 11.4991 3.33628 11.8299C3.26007 12.1607 2.96183 12.4591 2.8359 12.631C2.70998 12.8029 2.62051 12.9748 2.67022 13.1207C2.70998 13.2375 2.74643 13.4418 2.75969 13.5294C2.75969 13.8148 3.32634 13.9964 3.4125 13.7759C3.49866 13.5553 3.40256 13.4872 3.48872 13.4872C3.57487 13.4872 3.52517 13.5034 3.80353 13.7759Z" fill="#D0E386" stroke="#869F26" stroke-width="0.248123" stroke-linecap="round" stroke-linejoin="round"/>
<path d="M18.3279 29.1388C7.33301 29.7103 2.12281 29.4665 1.30631 25.4841C0.569452 21.8901 0.927995 10.789 5.01858 11.7147H22.7239C22.4698 8.2261 22.6855 5.79273 24.0027 4.02984C26.5116 0.671986 29.5406 0.365304 31.3997 1.84425C33.8654 3.56875 33.1258 5.82789 33.1258 5.82789C29.7039 6.1375 32.2036 4.30053 31.3997 1.84425C29.5406 0.365304 26.5116 0.671986 24.0027 4.02984C22.6855 5.79273 22.4698 8.2261 22.7239 11.7147C22.8295 13.1655 23.0164 14.7987 23.2391 16.6422C23.9974 22.9184 24.8555 28.7995 18.3279 29.1388Z" fill="#F5F5F5"/>
<path d="M31.3997 1.84425C33.8654 3.56875 33.1258 5.82789 33.1258 5.82789C29.7039 6.1375 32.2036 4.30053 31.3997 1.84425ZM31.3997 1.84425C29.5406 0.365304 26.5116 0.671986 24.0027 4.02984C22.6855 5.79273 22.4698 8.2261 22.7239 11.7147M22.7239 11.7147C22.8295 13.1655 23.0164 14.7987 23.2391 16.6422C23.9974 22.9184 24.8555 28.7995 18.3279 29.1388C7.33301 29.7103 2.12281 29.4665 1.30631 25.4841C0.569452 21.8901 0.927995 10.789 5.01857 11.7147H22.7239Z" stroke="#3E1F01" stroke-width="0.868429" stroke-linecap="round" stroke-linejoin="round"/>
<path d="M18.7068 29.1388C7.71192 29.7103 2.50171 29.4665 1.68522 25.4841C0.948358 21.8901 1.3069 10.789 5.39748 11.7147H23.1028C22.8487 8.2261 23.0644 5.79273 24.3816 4.02984C26.8905 0.671986 29.9195 0.365304 31.7786 1.84425C34.2443 3.56875 33.5047 5.82789 33.5047 5.82789C30.0828 6.1375 32.5825 4.30053 31.7786 1.84425C29.9195 0.365304 26.8905 0.671986 24.3816 4.02984C23.0644 5.79273 22.8487 8.2261 23.1028 11.7147C23.2084 13.1655 23.3953 14.7987 23.6181 16.6422C24.3764 22.9184 25.2344 28.7995 18.7068 29.1388Z" fill="#F5F5F5"/>
<path d="M31.7786 1.84425C34.2443 3.56875 33.5047 5.82789 33.5047 5.82789C30.0828 6.1375 32.5825 4.30053 31.7786 1.84425ZM31.7786 1.84425C29.9195 0.365304 26.8905 0.671986 24.3816 4.02984C23.0644 5.79273 22.8487 8.2261 23.1028 11.7147M23.1028 11.7147C23.2084 13.1655 23.3953 14.7987 23.6181 16.6422C24.3764 22.9184 25.2344 28.7995 18.7068 29.1388C7.71192 29.7103 2.50171 29.4665 1.68522 25.4841C0.948358 21.8901 1.3069 10.789 5.39748 11.7147H23.1028Z" stroke="#3E1F01" stroke-width="0.868429" stroke-linecap="round" stroke-linejoin="round"/>
<path d="M19.0877 29.1388C8.09278 29.7103 2.88257 29.4665 2.06608 25.4841C1.32922 21.8901 1.68776 10.789 5.77834 11.7147H23.4836C23.2296 8.2261 23.4453 5.79273 24.7625 4.02984C27.2714 0.671986 30.3003 0.365304 32.1595 1.84425C34.6252 3.56875 33.8856 5.82789 33.8856 5.82789C30.4637 6.1375 32.9634 4.30053 32.1595 1.84425C30.3003 0.365304 27.2714 0.671986 24.7625 4.02984C23.4453 5.79273 23.2296 8.2261 23.4836 11.7147C23.5893 13.1655 23.7762 14.7987 23.9989 16.6422C24.7572 22.9184 25.6153 28.7995 19.0877 29.1388Z" fill="#F5F5F5"/>
<path d="M32.1595 1.84425C34.6252 3.56875 33.8856 5.82789 33.8856 5.82789C30.4637 6.1375 32.9634 4.30053 32.1595 1.84425ZM32.1595 1.84425C30.3003 0.365304 27.2714 0.671986 24.7625 4.02984C23.4453 5.79273 23.2296 8.2261 23.4836 11.7147M23.4836 11.7147C23.5893 13.1655 23.7762 14.7987 23.9989 16.6422C24.7572 22.9184 25.6153 28.7995 19.0877 29.1388C8.09278 29.7103 2.88257 29.4665 2.06608 25.4841C1.32922 21.8901 1.68776 10.789 5.77834 11.7147H23.4836Z" stroke="#3E1F01" stroke-width="0.868429" stroke-linecap="round" stroke-linejoin="round"/>
<path d="M9.36348 32.1027C9.36348 32.9022 8.69867 33.5661 7.85881 33.5661C7.01895 33.5661 6.35414 32.9022 6.35414 32.1027C6.35414 31.3032 7.01895 30.6393 7.85881 30.6393C8.69867 30.6393 9.36348 31.3032 9.36348 32.1027Z" fill="#3E1F01" stroke="#3E1F01" stroke-width="0.868429"/>
<path d="M18.1584 32.1027C18.1584 32.9022 17.4936 33.5661 16.6537 33.5661C15.8139 33.5661 15.1491 32.9022 15.1491 32.1027C15.1491 31.3032 15.8139 30.6393 16.6537 30.6393C17.4936 30.6393 18.1584 31.3032 18.1584 32.1027Z" fill="#3E1F01" stroke="#3E1F01" stroke-width="0.868429"/>
<path d="M35.4302 18.78L35.4702 16.6V16.14L35.5102 15.98L35.4302 12.54V12.42L35.3102 12.06L35.3502 11.08L35.2902 9.82L36.3102 9.8L37.6502 9.84L38.1702 10.04L38.3902 9.8L40.5302 9.78V10.8L40.3502 11.7L39.5702 11.72L38.3902 11.52L37.6902 11.56L37.4102 11.62H37.2702L37.2102 12.34L37.1702 13.32L36.9302 13.46L37.2302 13.76L37.2702 16.24L38.4302 16.2H38.7102L39.9902 16.12L40.1102 16.96L40.0502 17.46L39.8902 18.12H39.2102L38.8902 17.98L38.7902 18.04L37.2302 18V18.38L37.2902 19.22L37.2702 20.9L37.3302 21.78L37.4102 22.62L37.3702 23.24L37.4702 23.52V24.5L36.6702 24.54L35.2502 24.4L35.3502 22.04L35.6302 21.18L35.3702 20.82L35.4302 18.78ZM45.0834 9.76L45.9834 9.72L46.3834 10.82L47.4034 13.32L47.5034 13.86H47.7034L48.2434 15.06L48.9234 16.54L48.8634 17.64L47.8834 19.62L47.7234 19.82L47.7034 20.14L47.2434 21.1L46.1634 23.66L45.9234 24.3L45.8834 24.52L44.0634 24.5L44.0434 23.84L43.3434 22.1L43.4034 21.76H43.1834L42.5834 20.52L41.8634 18.82L41.3834 17.8L41.3434 16.54L41.5034 16.44L42.5834 13.82L42.9434 13.56L42.8434 13.34L43.9234 10.64L44.0034 10.52L44.1234 9.92L44.1634 9.78H44.9034L45.0834 9.76ZM45.1234 21.96L45.2034 22.18L45.8434 20.08L46.0834 19.84H46.0634L46.0434 19.48L47.0234 17.08L46.8634 16.58L46.6234 15.9L45.8434 13.88L46.0234 13.64L45.6634 13.42L45.2034 12.2L45.0834 11.82L43.9834 14.72L43.7034 14.8L43.8434 15.12L43.1834 16.84L43.2034 17.08L43.4634 17.74L43.6434 18.32L43.4434 18.56L43.8434 18.84L44.2434 19.66L45.1234 21.96ZM53.4037 9.76L54.3037 9.72L54.7037 10.82L55.7237 13.32L55.8237 13.86H56.0237L56.5637 15.06L57.2437 16.54L57.1837 17.64L56.2037 19.62L56.0437 19.82L56.0237 20.14L55.5637 21.1L54.4837 23.66L54.2437 24.3L54.2037 24.52L52.3837 24.5L52.3637 23.84L51.6637 22.1L51.7237 21.76H51.5037L50.9037 20.52L50.1837 18.82L49.7037 17.8L49.6637 16.54L49.8237 16.44L50.9037 13.82L51.2637 13.56L51.1637 13.34L52.2437 10.64L52.3237 10.52L52.4437 9.92L52.4837 9.78H53.2237L53.4037 9.76ZM53.4437 21.96L53.5237 22.18L54.1637 20.08L54.4037 19.84H54.3837L54.3637 19.48L55.3437 17.08L55.1837 16.58L54.9437 15.9L54.1637 13.88L54.3437 13.64L53.9837 13.42L53.5237 12.2L53.4037 11.82L52.3037 14.72L52.0237 14.8L52.1637 15.12L51.5037 16.84L51.5237 17.08L51.7837 17.74L51.9637 18.32L51.7637 18.56L52.1637 18.84L52.5637 19.66L53.4437 21.96ZM62.244 22.6L60.904 24.72L60.244 24.54L58.944 24.36L58.984 23.02V23.04L59.104 18.56L58.984 17.78L58.964 12.54L59.164 12.16L58.964 11.9L58.904 10.86L58.884 10.12L59.744 9.86L60.804 9.54L62.044 11.24L62.264 11.9L62.964 12.6L63.484 13.52L65.004 15.54L64.984 15.5L65.344 15.96L65.364 17.42L65.004 18.02L62.944 21.18L62.244 22.6ZM60.764 15.12L60.464 16.02L60.784 16.96L60.704 20.92L60.684 22L60.704 21.96L61.584 20.54L61.944 20.36L61.784 20.18L62.624 18.56L63.284 17.46L63.644 16.88L63.284 16.34L63.204 15.86L62.804 15.54L60.824 12.36L60.704 12.22L60.764 15.12ZM74.4921 20.4L74.4521 20.24L74.1721 20.28H74.1521L73.7521 20.56L72.4121 20.88L72.2321 20.96L71.8321 21.12L71.6121 22.54L71.4321 22.76L71.5721 23.32L71.3521 24.66L70.1121 24.54L69.4121 24.1L69.9521 21.66L70.1521 20.4L70.3721 20.18L70.3521 19.78L70.7521 17.32L70.8121 16.94L70.9321 16.52V16.16L71.5321 13.48L71.8921 13.06L71.6721 12.76L71.8121 11.96L71.9921 11.12L72.1921 9.86L73.8321 9.78L74.1721 9.94L74.1521 10.64L74.2121 10.8L74.2921 11L74.9321 14.06L74.7921 14.42L75.0321 14.6L75.9921 19.42V19.7L76.4921 21.56L76.6921 22.82L76.5721 22.98L76.8721 23.3L77.0921 24.16L75.6121 24.64H75.3521L75.0121 24.46L74.7521 21.94L74.6721 21.38L74.8321 21.18L74.6521 21.06L74.4921 20.4ZM72.6521 15.82L72.3921 17.76L72.4121 17.74L72.1721 19.04L72.1521 19.18L73.4521 18.78L74.0121 18.64L73.6121 16.48L73.5321 15.44L73.4521 15.08L73.1521 12.96L72.7521 15.4L72.5521 15.5L72.6521 15.82ZM78.8482 18.78L78.8882 16.6V16.14L78.9282 15.98L78.8482 12.54V12.42L78.7282 12.06L78.7682 11.08L78.7082 9.82L79.7282 9.8L81.0682 9.84L81.5882 10.04L81.8082 9.8L83.9482 9.78V10.8L83.7682 11.7L82.9882 11.72L81.8082 11.52L81.1082 11.56L80.8282 11.62H80.6882L80.6282 12.34L80.5882 13.32L80.3482 13.46L80.6482 13.76L80.6882 16.24L81.8482 16.2H82.1282L83.4082 16.12L83.5282 16.96L83.4682 17.46L83.3082 18.12H82.6282L82.3082 17.98L82.2082 18.04L80.6482 18V18.38L80.7082 19.22L80.6882 20.9L80.7482 21.78L80.8282 22.62L80.7882 23.24L80.8882 23.52V24.5L80.0882 24.54L78.6682 24.4L78.7682 22.04L79.0482 21.18L78.7882 20.82L78.8482 18.78ZM87.6813 18.34L87.5613 18.22L87.5813 20.4L87.6413 22.4L87.7013 22.58L87.7213 24.24L86.9213 24.56L85.6013 24.44L85.7213 21.26L86.0213 20.48L85.8413 20.22V19.44L85.7613 17.1L85.7213 16.06L85.8813 15.66L85.7813 11.84L85.7013 10.12L87.2813 9.48L90.4613 12.24L90.5813 12.74C90.6013 12.76 90.9213 12.66 90.9413 12.66L91.9013 13.54L91.7613 14.74L90.8413 15.86L90.2013 16.62L89.8613 17.04L89.3013 17.8C89.4413 18.08 89.6813 18.42 89.8013 18.66V19C89.9613 19.18 90.0813 19.28 90.2213 19.48L91.0213 20.84V21.1L91.1413 21.16L91.4213 21.74V21.72L91.7813 22.48L92.4413 23.18L92.4213 23.76L90.8013 24.66L90.3213 23.88L89.6213 22.28L89.6413 21.94L89.4013 21.82L88.6613 20.42L88.4813 19.96L87.6813 18.34ZM87.6013 16.46L87.5613 17.2L87.7013 17.12L88.7013 15.88C88.9813 15.54 89.4613 14.92 89.7213 14.56L89.9413 14.28L89.5413 13.78L89.4013 13.68L87.5613 11.86L87.5213 13.4V13.6L87.3613 13.98L87.4413 14.34L87.4813 14.46L87.5213 14.68L87.6013 16.46ZM96.4896 9.76L97.3896 9.72L97.7896 10.82L98.8096 13.32L98.9096 13.86H99.1096L99.6496 15.06L100.33 16.54L100.27 17.64L99.2896 19.62L99.1296 19.82L99.1096 20.14L98.6496 21.1L97.5696 23.66L97.3296 24.3L97.2896 24.52L95.4696 24.5L95.4496 23.84L94.7496 22.1L94.8096 21.76H94.5896L93.9896 20.52L93.2696 18.82L92.7896 17.8L92.7496 16.54L92.9096 16.44L93.9896 13.82L94.3496 13.56L94.2496 13.34L95.3296 10.64L95.4096 10.52L95.5296 9.92L95.5696 9.78H96.3096L96.4896 9.76ZM96.5296 21.96L96.6096 22.18L97.2496 20.08L97.4896 19.84H97.4696L97.4496 19.48L98.4296 17.08L98.2696 16.58L98.0296 15.9L97.2496 13.88L97.4296 13.64L97.0696 13.42L96.6096 12.2L96.4896 11.82L95.3896 14.72L95.1096 14.8L95.2496 15.12L94.5896 16.84L94.6096 17.08L94.8696 17.74L95.0496 18.32L94.8496 18.56L95.2496 18.84L95.6496 19.66L96.5296 21.96ZM102.25 16.4L103.23 16.46L104.63 16.26L105.21 16.2L105.47 16.46L105.45 17.96L105.11 18.18L103.95 18.06L102.31 18.14L101.87 18.16L101.33 18.2L101.05 18.12L100.99 17.46L101.15 16.32L101.49 16.28L101.77 16.3L102.25 16.4ZM110.426 23.6L109.026 24.78L108.186 24.52L107.086 24.32L107.246 21.6L107.166 20.66V17.66L107.286 16.74L107.206 14.6L107.186 12.3L107.406 11.7L107.206 11.5L107.146 11.2L107.106 10.06L108.786 9.58L111.426 11.92L112.786 13L112.866 13.4L112.726 14.58L111.546 15.86L110.546 17.02L110.686 17.14L110.986 17.4L111.206 17.6L113.306 19.6L113.326 20.02L113.306 20.94L112.526 21.74L111.706 22.32L111.126 23.04L110.426 23.6ZM109.186 17.76L109.006 17.64V21.18L108.826 21.34L109.026 21.54L109.006 22.76L110.026 21.68L110.566 21.22L110.806 21.06L111.566 20.22L110.846 19.32L110.566 19.06L110.086 18.56L109.186 17.76ZM108.886 14.7L108.926 16.4L109.086 16.28L110.066 15.22L110.366 15.18L110.446 14.68L111.146 13.92H111.166L110.546 13.36L110.446 13.12L110.286 13.1L108.926 11.9L108.946 13.66L108.886 14.7ZM120.038 11.68H119.098L118.618 11.52L118.558 11.54L118.238 11.6L117.138 11.56H116.958V11.78L116.918 12.28V14.26L116.818 14.86L116.598 15.22L116.798 15.38L116.838 16.16L117.578 16.2L118.358 16.16L119.378 16.06L119.638 16.56L119.518 17.16L119.478 17.98L118.498 17.94L117.238 17.9H116.918L116.838 19.96L116.958 20.54L116.898 20.72L116.918 20.76L116.958 22.7L117.138 22.74L117.298 22.78L118.898 22.76L119.398 22.6L120.398 22.62L120.358 23.62L120.278 24.36L119.818 24.56L118.498 24.54L117.358 24.42H116.658L116.498 24.52L114.998 24.5L114.898 23.68L115.018 22.32L114.998 22.1L115.018 21.18L115.258 20.66L115.078 20.42V19.96L115.058 18.88L115.138 18.72L114.978 16.74L115.038 16V14.52L115.058 12.96L115.038 11.94L115.258 11.6L115.038 11.34L114.938 9.92L115.878 9.8H117.018L117.298 9.96L118.078 9.8L120.058 9.78L120.078 10.56L120.038 11.68ZM126.484 20.4L126.444 20.24L126.164 20.28H126.144L125.744 20.56L124.404 20.88L124.224 20.96L123.824 21.12L123.604 22.54L123.424 22.76L123.564 23.32L123.344 24.66L122.104 24.54L121.404 24.1L121.944 21.66L122.144 20.4L122.364 20.18L122.344 19.78L122.744 17.32L122.804 16.94L122.924 16.52V16.16L123.524 13.48L123.884 13.06L123.664 12.76L123.804 11.96L123.984 11.12L124.184 9.86L125.824 9.78L126.164 9.94L126.144 10.64L126.204 10.8L126.284 11L126.924 14.06L126.784 14.42L127.024 14.6L127.984 19.42V19.7L128.484 21.56L128.684 22.82L128.564 22.98L128.864 23.3L129.084 24.16L127.604 24.64H127.344L127.004 24.46L126.744 21.94L126.664 21.38L126.824 21.18L126.644 21.06L126.484 20.4ZM124.644 15.82L124.384 17.76L124.404 17.74L124.164 19.04L124.144 19.18L125.444 18.78L126.004 18.64L125.604 16.48L125.524 15.44L125.444 15.08L125.144 12.96L124.744 15.4L124.544 15.5L124.644 15.82ZM137.38 22.74L137.5 23.86L137.24 24.54L136.14 24.56L135.46 24.52L135.48 22.96L135.46 21.06L135.48 19.14L135.54 19.04L135.48 18.66L135.46 16.58L135.14 16.04L134.86 15.74L134.58 15.3L134 14.6L133.18 13.46L132.66 12.74V13.82L132.38 14.54L132.4 14.58L132.64 14.84L132.6 19.4L132.5 20.12L132.68 20.88L132.66 22.96L132.72 23.24L132.68 24.52L131.5 24.56L130.64 24.4L130.78 22.8L130.72 22.62V22.28L130.84 19.44L131 18.86L130.82 18.46L130.9 14.3L130.82 13.16L130.74 11.08V10.04L132.32 9.6L134.12 12.08L134.62 12.88L134.78 12.96L135.44 14.04V12.32L135.64 11.7L135.44 11.42V9.82L136.6 9.8L137.42 9.94L137.38 11.3L137.18 16.22L137.02 17.06L137.24 17.72L137.38 22.1V22.74Z" fill="#CA4314"/>
</svg>
