<svg width="47" height="28" viewBox="0 0 47 28" fill="none" xmlns="http://www.w3.org/2000/svg">
<path d="M25.3951 16.9493L25.436 14.7191V14.2484L25.4769 14.0847L25.3951 10.5654V10.4426L25.2723 10.0743L25.3132 9.07171L25.2519 7.78265L26.2954 7.76219L27.6663 7.80311L28.1983 8.00772L28.4234 7.76219L30.6127 7.74172V8.78525L30.4286 9.70601L29.6306 9.72648L28.4234 9.52186L27.7072 9.56279L27.4208 9.62417H27.2775L27.2162 10.3608L27.1752 11.3634L26.9297 11.5066L27.2366 11.8135L27.2775 14.3098H28.4643H28.7508L30.0603 14.228L30.1831 15.0874L30.1217 15.5989L29.958 16.2741H29.2623L28.9349 16.1309L28.8326 16.1923L27.2366 16.1513V16.5401L27.298 17.3995L27.2775 19.1182L27.3389 20.0185L27.4208 20.8779L27.3798 21.5122L27.4821 21.7987V22.8013L26.6637 22.8422L25.2109 22.699L25.3132 20.2845L25.5997 19.4047L25.3337 19.0364L25.3951 16.9493Z" fill="#CA4314"/>
<path d="M36.3445 18.6067L36.3036 18.443L36.0171 18.4839H35.9966L35.5874 18.7704L34.9756 18.6561L34.0323 19.1796L33.6231 19.3433L33.398 20.7961L33.2139 21.0212L33.3571 21.5941L33.132 22.965L31.8634 22.8422L31.1473 22.3921L31.6997 19.8958L31.9044 18.6067L32.1294 18.3816L32.109 17.9724L32.5182 15.4557L32.5796 15.0669L32.7024 14.6372V14.2689L33.3162 11.5271L33.6845 11.0974L33.4594 10.7905L33.6027 9.97201L33.7868 9.11264L33.9914 7.82357L35.6693 7.74172L36.0171 7.90541L35.9966 8.62156L36.058 8.78525L36.1399 8.98987L36.7946 12.1205L36.6514 12.4888L36.8969 12.6729L37.8791 17.6041V17.8906L38.3906 19.7935L38.5952 21.0825L38.4725 21.2462L38.7794 21.5736L39.0045 22.4534L37.4903 22.9445H37.2243L36.8765 22.7604L36.6105 20.1822L36.5286 19.6093L36.6923 19.4047L36.5082 19.2819L36.3445 18.6067ZM34.462 13.9211L34.196 15.9058L34.2165 15.8853L33.971 17.2153L33.9505 17.3586L34.9736 16.7243L35.8534 16.8061L35.4442 14.5963L35.3623 13.5323L35.2805 13.164L34.9736 10.9951L34.5643 13.4914L34.3597 13.5937L34.462 13.9211Z" fill="#CA4314"/>
<path d="M44.034 21.8805L42.6017 23.0878L41.7423 22.8218L40.6169 22.6171L40.7806 19.8344L40.6988 18.8727V15.8035L40.8215 14.8623L40.7397 12.6729L40.7192 10.3199L40.9443 9.70601L40.7397 9.5014L40.6783 9.19448L40.6374 8.02818L42.3561 7.53711L45.057 9.93109L46.4484 11.036L46.5302 11.4452L46.387 12.6525L45.1798 13.962L44.1567 15.1487L44.3 15.2715L44.6069 15.5375L44.832 15.7421L46.9804 17.7883L47.0009 18.2179L46.9804 19.1592L46.1824 19.9776L45.3435 20.571L44.7501 21.3076L44.034 21.8805ZM42.7654 15.9058L42.5812 15.783V19.4047L42.397 19.5684L42.6017 19.773L42.5812 21.0212L43.6247 19.9162L44.1772 19.4456L44.4227 19.2819L45.2003 18.4226L44.4636 17.5018L44.1772 17.2358L43.6861 16.7243L42.7654 15.9058ZM42.4584 12.7752L42.4994 14.5144L42.663 14.3917L43.6657 13.3072L43.9726 13.2663L44.0544 12.7548L44.7706 11.9772H44.791L44.1567 11.4043L44.0544 11.1588L43.8907 11.1383L42.4994 9.91063L42.5198 11.7112L42.4584 12.7752Z" fill="#CA4314"/>
<path d="M5.1641 10.4727C5.34039 10.649 5.78846 10.3398 5.99046 10.1632C6.0368 10.1632 6.13946 10.1968 6.17934 10.3311C6.22918 10.499 6.51775 10.4727 6.80632 10.4727C7.09489 10.4727 7.12374 10.1632 7.60119 10.1632C7.98315 10.1632 8.21156 10.0163 8.27802 9.94283C8.39607 10.1107 8.65578 10.0924 8.87614 10.1028C9.05243 10.1112 9.05453 10.2585 9.03354 10.3311C9.05715 10.3285 9.0902 10.3348 9.03354 10.3809C8.96271 10.4386 9.03354 10.5305 9.10437 10.8112C9.1752 11.0919 9.36408 11.0289 9.44278 11.1889C9.52148 11.3489 9.51361 11.4958 9.65265 11.585C9.79169 11.6742 9.90974 11.4854 10.0803 11.3778C10.2508 11.2702 10.159 11.1076 10.2088 11.0289C10.2487 10.9659 10.3916 10.9624 10.458 10.9686C10.6679 10.798 10.4974 10.4124 10.5971 10.1632C10.6967 9.91397 10.4475 9.60704 10.3295 9.45751C10.2114 9.30798 10.1485 9.15844 10.0803 8.89873C10.012 8.63902 9.38245 8.72034 9.36408 8.56032C9.34572 8.4003 9.15421 8.16157 9.03354 8.18256C8.91287 8.20355 8.61643 7.98318 8.55609 7.86513C8.50782 7.77069 8.27189 7.67888 8.15996 7.64477C7.86615 7.37404 7.34673 7.58618 7.12374 7.7261C6.94116 7.58339 6.55098 7.83803 6.37871 7.98318C6.13999 7.9622 5.6809 8.61016 5.56285 8.56032C5.4448 8.51048 4.85455 8.63115 4.79421 8.89873C4.73387 9.16631 4.49777 9.40766 4.39808 9.5467C4.2984 9.68574 4.22757 9.82478 4.26692 9.94283C4.2984 10.0373 4.32725 10.2025 4.33775 10.2734C4.33775 10.5042 4.78634 10.6511 4.85455 10.4727C4.92275 10.2944 4.84668 10.2393 4.91488 10.2393C4.98309 10.2393 4.94374 10.2524 5.1641 10.4727Z" fill="#D0E386" stroke="#869F26" stroke-width="0.200697" stroke-linecap="round" stroke-linejoin="round"/>
<path d="M9.58402 10.0611C9.76031 10.2374 10.2084 9.92821 10.4104 9.75157C10.4567 9.75157 10.5594 9.78515 10.5993 9.91946C10.6491 10.0874 10.9377 10.0611 11.2262 10.0611C11.5148 10.0611 11.5437 9.75157 12.0211 9.75157C12.4031 9.75157 12.6315 9.60466 12.6979 9.53121C12.816 9.6991 13.0757 9.68074 13.2961 9.69123C13.4723 9.69962 13.4744 9.84688 13.4535 9.91946C13.4771 9.91684 13.5101 9.92313 13.4535 9.9693C13.3826 10.027 13.4535 10.1188 13.5243 10.3995C13.5951 10.6802 13.784 10.6173 13.8627 10.7773C13.9414 10.9373 13.9335 11.0842 14.0726 11.1734C14.2116 11.2626 14.3297 11.0737 14.5002 10.9662C14.6707 10.8586 14.5789 10.696 14.6287 10.6173C14.6686 10.5543 14.8115 10.5508 14.8779 10.5569C15.0878 10.3864 14.9173 10.0008 15.017 9.75157C15.1167 9.50235 14.8674 9.19542 14.7494 9.04588C14.6313 8.89635 14.5684 8.74682 14.5002 8.48711C14.432 8.2274 13.8024 8.30872 13.784 8.1487C13.7656 7.98868 13.5741 7.74995 13.4535 7.77094C13.3328 7.79192 13.0363 7.57156 12.976 7.45351C12.9277 7.35907 12.6918 7.26725 12.5799 7.23315C12.2861 6.96242 11.7666 7.17456 11.5437 7.31448C11.3611 7.17177 10.9709 7.4264 10.7986 7.57156C10.5599 7.55058 10.1008 8.19854 9.98277 8.1487C9.86472 8.09886 9.27447 8.21953 9.21413 8.48711C9.15379 8.75469 8.91769 8.99604 8.818 9.13508C8.71832 9.27412 8.64749 9.41315 8.68684 9.53121C8.71832 9.62565 8.74717 9.79092 8.75767 9.86175C8.75767 10.0926 9.20626 10.2395 9.27447 10.0611C9.34268 9.88273 9.2666 9.82764 9.3348 9.82764C9.40301 9.82764 9.36366 9.84076 9.58402 10.0611Z" fill="#D0E386" stroke="#869F26" stroke-width="0.200697" stroke-linecap="round" stroke-linejoin="round"/>
<path d="M12.7657 10.4727C12.942 10.649 13.39 10.3398 13.592 10.1632C13.6384 10.1632 13.741 10.1968 13.7809 10.3311C13.8307 10.499 14.1193 10.4727 14.4079 10.4727C14.6964 10.4727 14.7253 10.1632 15.2028 10.1632C15.5847 10.1632 15.8131 10.0163 15.8796 9.94283C15.9976 10.1107 16.2573 10.0924 16.4777 10.1028C16.654 10.1112 16.6561 10.2585 16.6351 10.3311C16.6587 10.3285 16.6918 10.3348 16.6351 10.3809C16.5643 10.4386 16.6351 10.5305 16.7059 10.8112C16.7768 11.0919 16.9656 11.0289 17.0443 11.1889C17.123 11.3489 17.1152 11.4958 17.2542 11.585C17.3932 11.6742 17.5113 11.4854 17.6818 11.3778C17.8523 11.2702 17.7605 11.1076 17.8104 11.0289C17.8502 10.9659 17.9931 10.9624 18.0596 10.9686C18.2694 10.798 18.0989 10.4124 18.1986 10.1632C18.2983 9.91397 18.0491 9.60704 17.931 9.45751C17.813 9.30798 17.75 9.15844 17.6818 8.89873C17.6136 8.63902 16.984 8.72034 16.9656 8.56032C16.9473 8.4003 16.7558 8.16157 16.6351 8.18256C16.5144 8.20355 16.218 7.98318 16.1577 7.86513C16.1094 7.77069 15.8735 7.67888 15.7615 7.64477C15.4677 7.37404 14.9483 7.58618 14.7253 7.7261C14.5427 7.58339 14.1525 7.83803 13.9803 7.98318C13.7415 7.9622 13.2825 8.61016 13.1644 8.56032C13.0464 8.51048 12.4561 8.63115 12.3958 8.89873C12.3354 9.16631 12.0993 9.40766 11.9996 9.5467C11.9 9.68574 11.8291 9.82478 11.8685 9.94283C11.9 10.0373 11.9288 10.2025 11.9393 10.2734C11.9393 10.5042 12.3879 10.6511 12.4561 10.4727C12.5243 10.2944 12.4482 10.2393 12.5164 10.2393C12.5847 10.2393 12.5453 10.2524 12.7657 10.4727Z" fill="#D0E386" stroke="#869F26" stroke-width="0.200697" stroke-linecap="round" stroke-linejoin="round"/>
<path d="M7.83566 7.44941L7.83482 7.45004L7.84291 7.45735C7.87893 7.48987 7.91294 7.51546 7.94377 7.5302C7.97126 7.54334 8.01696 7.55721 8.05565 7.52719C8.09054 7.5001 8.09491 7.45484 8.09411 7.4228C8.0932 7.38616 8.08466 7.34057 8.07014 7.2875C8.0637 7.26393 8.04487 7.22587 8.02135 7.18264C7.99657 7.13711 7.96306 7.07964 7.9231 7.01432C7.84313 6.88361 7.73643 6.72002 7.62007 6.55506C7.50379 6.39021 7.37728 6.22315 7.25772 6.08591C7.13996 5.95075 7.02329 5.83774 6.92662 5.78873C6.90811 5.77935 6.88233 5.76865 6.8558 5.7718C6.84009 5.77366 6.82314 5.78057 6.81007 5.79536C6.79778 5.80926 6.79332 5.82515 6.79182 5.83726C6.78905 5.85969 6.79468 5.8834 6.80082 5.90275C6.80751 5.92385 6.81754 5.94782 6.82981 5.97367C6.87856 6.07629 6.97311 6.22951 7.087 6.40112C7.31574 6.74579 7.63004 7.17585 7.83566 7.44941Z" fill="#D0E386" stroke="#869F26" stroke-width="0.112311" stroke-linecap="round" stroke-linejoin="round"/>
<path d="M7.95071 7.34438L7.94971 7.34468L7.95474 7.35435C7.97713 7.3974 8.00005 7.43327 8.0238 7.45785C8.04497 7.47976 8.08294 7.50872 8.12968 7.4941C8.17184 7.48091 8.19173 7.44003 8.20218 7.40972C8.21412 7.37507 8.22205 7.32937 8.22698 7.27458C8.22917 7.25024 8.22483 7.208 8.21788 7.15927C8.21057 7.10795 8.19925 7.0424 8.18462 6.96724C8.15534 6.81683 8.1125 6.62627 8.06109 6.43106C8.00971 6.23598 7.94952 6.03525 7.88542 5.86489C7.82229 5.69712 7.75244 5.55047 7.67898 5.47079C7.66491 5.45553 7.64449 5.4365 7.61854 5.43019C7.60316 5.42644 7.58487 5.427 7.56745 5.43629C7.55108 5.44502 7.54135 5.45835 7.53572 5.46918C7.52528 5.48923 7.52228 5.51341 7.52128 5.53369C7.52018 5.5558 7.5212 5.58176 7.52367 5.61026C7.5335 5.72344 7.56859 5.90004 7.61536 6.10062C7.70931 6.50348 7.8536 7.01623 7.95071 7.34438Z" fill="#D0E386" stroke="#869F26" stroke-width="0.112311" stroke-linecap="round" stroke-linejoin="round"/>
<path d="M8.10641 7.26085L8.10536 7.26093L8.10829 7.27144C8.12131 7.31818 8.13634 7.358 8.15451 7.38695C8.1707 7.41276 8.20188 7.44893 8.25063 7.44427C8.2946 7.44006 8.32251 7.40416 8.33898 7.37666C8.35781 7.34523 8.375 7.30214 8.39113 7.24954C8.40309 7.21053 8.41419 7.12486 8.42182 7.01927C8.42962 6.91127 8.43418 6.77627 8.43127 6.63485C8.42836 6.49357 8.41798 6.34477 8.39554 6.20956C8.37329 6.07545 8.33843 5.94977 8.28383 5.85804C8.27265 5.83926 8.26 5.8218 8.24523 5.80883C8.23071 5.79608 8.20699 5.78172 8.1769 5.78607C8.14726 5.79036 8.12886 5.81035 8.11889 5.82529C8.10859 5.84073 8.10145 5.85922 8.0961 5.87735C8.07514 5.94838 8.06595 6.07127 8.06325 6.21569C8.05779 6.50873 8.07906 6.91944 8.10641 7.26085Z" fill="#D0E386" stroke="#869F26" stroke-width="0.112311" stroke-linecap="round" stroke-linejoin="round"/>
<path d="M7.63378 7.63876C7.67863 7.43465 7.74726 7.29291 7.83426 7.20224C7.92296 7.1098 8.02752 7.07393 8.13359 7.07662C8.23744 7.07927 8.33991 7.11865 8.42989 7.17102C8.51907 7.22292 8.59949 7.28961 8.66184 7.3533C8.68581 7.37292 8.70819 7.40487 8.7289 7.43975C8.75185 7.47841 8.77684 7.52793 8.80334 7.58604C8.85641 7.70239 8.91732 7.85701 8.98206 8.03651C9.11164 8.39574 9.25785 8.85806 9.38914 9.32073C9.52039 9.78328 9.63709 10.2474 9.70735 10.6102C9.74244 10.7914 9.76627 10.9488 9.77428 11.0688C9.77828 11.1286 9.77849 11.1811 9.77355 11.2235C9.76902 11.2624 9.7589 11.3061 9.73061 11.3342C9.69802 11.3666 9.65807 11.3821 9.61488 11.3807C9.57405 11.3794 9.53456 11.3632 9.4986 11.3412C9.42706 11.2973 9.35281 11.2199 9.28266 11.1318C9.14183 10.9549 9.00299 10.7162 8.91762 10.5497M7.63378 7.63876C7.6338 7.63867 7.63381 7.63859 7.63383 7.6385L7.68857 7.65106L7.63372 7.63901C7.63374 7.63893 7.63376 7.63884 7.63378 7.63876ZM7.63378 7.63876C7.61886 7.7041 7.62351 7.80819 7.65236 7.94958C7.68164 8.09315 7.73716 8.28111 7.82956 8.51717C8.01422 8.98896 8.3474 9.65598 8.91762 10.5497M8.91762 10.5497C8.9181 10.5504 8.91858 10.5512 8.91905 10.5519L8.96639 10.5217M8.91762 10.5497C8.91722 10.5489 8.91681 10.5481 8.9164 10.5473L8.96639 10.5217M8.96639 10.5217C9.13524 10.8516 9.51655 11.4679 9.69101 11.2944C9.90909 11.0776 8.8795 7.58876 8.62415 7.39508L8.96639 10.5217Z" fill="#F16C1D" stroke="#71393B" stroke-width="0.112311" stroke-linecap="round" stroke-linejoin="round"/>
<path d="M9.89528 7.52495L9.89423 7.525L9.89686 7.53559C9.90855 7.58268 9.92244 7.62291 9.93977 7.65237C9.95522 7.67863 9.98536 7.71567 10.0342 7.7124C10.0783 7.70944 10.1072 7.67435 10.1245 7.64733C10.1442 7.61644 10.1626 7.57387 10.1802 7.52175C10.188 7.4986 10.1937 7.45651 10.1984 7.40752C10.2033 7.35591 10.2076 7.28953 10.211 7.21303C10.2177 7.05995 10.2206 6.86466 10.2164 6.66283C10.2121 6.46115 10.2005 6.25191 10.1781 6.07128C10.156 5.89339 10.1224 5.73446 10.0696 5.6398C10.0595 5.62168 10.0441 5.59839 10.0204 5.58618C10.0063 5.57894 9.98839 5.5752 9.96928 5.58015C9.95132 5.58481 9.93874 5.5955 9.93073 5.6047C9.91589 5.62175 9.90731 5.64456 9.90159 5.66404C9.89535 5.68528 9.89026 5.71075 9.886 5.73905C9.86906 5.85139 9.86184 6.03129 9.86036 6.23725C9.8574 6.6509 9.87767 7.18319 9.89528 7.52495Z" fill="#D0E386" stroke="#869F26" stroke-width="0.112311" stroke-linecap="round" stroke-linejoin="round"/>
<path d="M10.0483 7.50201L10.0473 7.50169L10.046 7.51253C10.0405 7.56074 10.0395 7.60329 10.0455 7.63695C10.0508 7.66695 10.0661 7.71218 10.113 7.72618C10.1553 7.73881 10.1947 7.71603 10.2203 7.69673C10.2495 7.67468 10.2817 7.64121 10.3164 7.59853C10.3318 7.57957 10.3518 7.54212 10.3733 7.49783C10.3959 7.45119 10.4231 7.3905 10.453 7.32C10.5128 7.17891 10.5838 6.99695 10.6503 6.80634C10.7167 6.61586 10.779 6.41577 10.821 6.23868C10.8624 6.06427 10.8865 5.90362 10.8701 5.79649C10.867 5.77598 10.8607 5.74878 10.8427 5.72904C10.832 5.71734 10.8165 5.70758 10.7969 5.70555C10.7784 5.70364 10.7629 5.70926 10.7522 5.71509C10.7323 5.72588 10.7163 5.74425 10.7042 5.76051C10.6909 5.77823 10.6772 5.80032 10.6634 5.82534C10.6083 5.92469 10.5386 6.09074 10.4653 6.28321C10.3181 6.66978 10.1511 7.17562 10.0483 7.50201Z" fill="#D0E386" stroke="#869F26" stroke-width="0.112311" stroke-linecap="round" stroke-linejoin="round"/>
<path d="M10.224 7.51948L10.2231 7.51897L10.2197 7.52931C10.2043 7.57536 10.1945 7.61678 10.1934 7.65094C10.1924 7.68139 10.1981 7.72881 10.2411 7.75219C10.2799 7.77328 10.3231 7.7591 10.3521 7.74551C10.3853 7.72996 10.4237 7.70385 10.4664 7.66924C10.4982 7.64358 10.5552 7.57874 10.6206 7.49544C10.6874 7.41025 10.7666 7.30085 10.8433 7.18196C10.9198 7.06317 10.9944 6.93398 11.0513 6.80932C11.1078 6.68568 11.1492 6.56197 11.1552 6.45539C11.1564 6.43357 11.1557 6.41202 11.1507 6.39301C11.1457 6.37433 11.1341 6.34916 11.1067 6.33595C11.0797 6.32294 11.0533 6.32923 11.0367 6.33605C11.0195 6.3431 11.0033 6.35444 10.9887 6.36648C10.9316 6.41367 10.8553 6.51044 10.7724 6.62868C10.6041 6.86862 10.3921 7.22109 10.224 7.51948Z" fill="#D0E386" stroke="#869F26" stroke-width="0.112311" stroke-linecap="round" stroke-linejoin="round"/>
<path d="M9.62156 7.56899C9.77284 7.42481 9.90896 7.34563 10.0318 7.31907C10.157 7.29199 10.2638 7.32068 10.3502 7.3822C10.4348 7.44243 10.4978 7.53236 10.5431 7.62608C10.5881 7.71896 10.6175 7.81921 10.6336 7.90688C10.6425 7.93654 10.6432 7.97554 10.6409 8.01603C10.6383 8.06092 10.6314 8.11595 10.6209 8.17895C10.5999 8.30509 10.5639 8.46735 10.5173 8.65238C10.424 9.02269 10.2868 9.48778 10.1371 9.94481C9.98742 10.4017 9.82476 10.8519 9.68028 11.1919C9.60814 11.3618 9.53988 11.5057 9.47947 11.6096C9.44936 11.6615 9.42017 11.7051 9.39239 11.7375C9.36693 11.7672 9.33409 11.7978 9.2949 11.8053C9.24977 11.814 9.20801 11.8045 9.17298 11.7792C9.13987 11.7552 9.11616 11.7198 9.09865 11.6814C9.06382 11.6051 9.04552 11.4994 9.03659 11.3871C9.01867 11.1617 9.03699 10.8861 9.05923 10.7004M9.62156 7.56899C9.62163 7.56893 9.62169 7.56887 9.62175 7.56881L9.66012 7.60982L9.62137 7.56917C9.62144 7.56911 9.6215 7.56905 9.62156 7.56899ZM9.62156 7.56899C9.57267 7.61484 9.51835 7.70375 9.46325 7.83712C9.40729 7.97254 9.34828 8.15943 9.29296 8.40682C9.1824 8.90125 9.08589 9.64058 9.05923 10.7004M9.05923 10.7004C9.05921 10.7013 9.05919 10.7022 9.05917 10.703L9.1153 10.7045M9.05923 10.7004C9.05934 10.6995 9.05945 10.6986 9.05955 10.6977L9.1153 10.7045M9.1153 10.7045C9.07096 11.0723 9.04269 11.7965 9.28432 11.7502C9.58637 11.6922 10.6825 8.22377 10.579 7.92045L9.1153 10.7045Z" fill="#F16C1D" stroke="#71393B" stroke-width="0.112311" stroke-linecap="round" stroke-linejoin="round"/>
<path d="M16.1843 7.97368L16.1833 7.97373L16.1859 7.98432C16.1976 8.03141 16.2115 8.07164 16.2288 8.1011C16.2443 8.12736 16.2744 8.1644 16.3233 8.16113C16.3674 8.15817 16.3963 8.12308 16.4135 8.09606C16.4332 8.06517 16.4517 8.0226 16.4693 7.97048C16.4771 7.94733 16.4828 7.90524 16.4874 7.85625C16.4923 7.80464 16.4967 7.73826 16.5 7.66176C16.5068 7.50868 16.5097 7.31339 16.5054 7.11156C16.5011 6.90988 16.4896 6.70064 16.4672 6.52001C16.4451 6.34212 16.4115 6.18319 16.3587 6.08853C16.3486 6.07041 16.3332 6.04712 16.3094 6.03491C16.2954 6.02767 16.2775 6.02393 16.2583 6.02888C16.2404 6.03354 16.2278 6.04423 16.2198 6.05343C16.205 6.07048 16.1964 6.09329 16.1907 6.11277C16.1844 6.13401 16.1793 6.15948 16.1751 6.18778C16.1581 6.30012 16.1509 6.48002 16.1494 6.68598C16.1465 7.09963 16.1667 7.63192 16.1843 7.97368Z" fill="#D0E386" stroke="#869F26" stroke-width="0.112311" stroke-linecap="round" stroke-linejoin="round"/>
<path d="M16.3373 7.95074L16.3363 7.95042L16.3351 7.96126C16.3296 8.00947 16.3286 8.05202 16.3345 8.08568C16.3398 8.11568 16.3551 8.16092 16.4021 8.17491C16.4444 8.18754 16.4837 8.16476 16.5093 8.14546C16.5386 8.12341 16.5707 8.08994 16.6054 8.04726C16.6209 8.0283 16.6409 7.99085 16.6623 7.94656C16.685 7.89992 16.7122 7.83924 16.7421 7.76873C16.8019 7.62764 16.8728 7.44568 16.9393 7.25507C17.0057 7.06459 17.068 6.8645 17.1101 6.68741C17.1515 6.513 17.1755 6.35235 17.1592 6.24522C17.156 6.22471 17.1497 6.19751 17.1317 6.17777C17.1211 6.16607 17.1056 6.15631 17.086 6.15428C17.0675 6.15237 17.052 6.15799 17.0413 6.16382C17.0214 6.17461 17.0054 6.19298 16.9932 6.20924C16.98 6.22696 16.9663 6.24905 16.9524 6.27407C16.8973 6.37343 16.8277 6.53947 16.7544 6.73194C16.6071 7.11851 16.4402 7.62435 16.3373 7.95074Z" fill="#D0E386" stroke="#869F26" stroke-width="0.112311" stroke-linecap="round" stroke-linejoin="round"/>
<path d="M16.5131 7.96821L16.5122 7.9677L16.5087 7.97804C16.4934 8.02409 16.4836 8.06551 16.4825 8.09967C16.4815 8.13012 16.4871 8.17754 16.5302 8.20092C16.569 8.22201 16.6122 8.20783 16.6412 8.19424C16.6744 8.17869 16.7127 8.15258 16.7555 8.11797C16.7872 8.09231 16.8443 8.02747 16.9096 7.94417C16.9765 7.85898 17.0557 7.74958 17.1323 7.63069C17.2089 7.5119 17.2834 7.38271 17.3404 7.25805C17.3969 7.13441 17.4382 7.0107 17.4442 6.90412C17.4455 6.8823 17.4447 6.86075 17.4397 6.84174C17.4348 6.82306 17.4232 6.79789 17.3958 6.78468C17.3688 6.77167 17.3424 6.77796 17.3258 6.78478C17.3086 6.79183 17.2923 6.80317 17.2778 6.81521C17.2207 6.8624 17.1444 6.95917 17.0614 7.07741C16.8931 7.31735 16.6812 7.66982 16.5131 7.96821Z" fill="#D0E386" stroke="#869F26" stroke-width="0.112311" stroke-linecap="round" stroke-linejoin="round"/>
<path d="M15.9106 8.01772C16.0619 7.87354 16.198 7.79436 16.3208 7.7678C16.4461 7.74072 16.5528 7.76941 16.6393 7.83093C16.7239 7.89116 16.7869 7.98109 16.8322 8.07481C16.8771 8.16769 16.9066 8.26794 16.9227 8.35561C16.9316 8.38527 16.9323 8.42427 16.93 8.46476C16.9274 8.50965 16.9204 8.56468 16.9099 8.62768C16.8889 8.75382 16.853 8.91608 16.8064 9.10112C16.713 9.47142 16.5759 9.93651 16.4262 10.3935C16.2765 10.8505 16.1138 11.3006 15.9693 11.6407C15.8972 11.8105 15.8289 11.9544 15.7685 12.0584C15.7384 12.1102 15.7092 12.1539 15.6815 12.1863C15.656 12.2159 15.6232 12.2465 15.584 12.2541C15.5388 12.2627 15.4971 12.2532 15.462 12.2279C15.4289 12.204 15.4052 12.1685 15.3877 12.1301C15.3529 12.0538 15.3346 11.9481 15.3257 11.8358C15.3077 11.6104 15.326 11.3349 15.3483 11.1491M15.9106 8.01772C15.9107 8.01766 15.9108 8.0176 15.9108 8.01754L15.9492 8.05855L15.9104 8.0179C15.9105 8.01784 15.9106 8.01778 15.9106 8.01772ZM15.9106 8.01772C15.8617 8.06357 15.8074 8.15249 15.7523 8.28585C15.6964 8.42128 15.6373 8.60816 15.582 8.85555C15.4715 9.34998 15.375 10.0893 15.3483 11.1491M15.3483 11.1491C15.3483 11.15 15.3483 11.1509 15.3482 11.1518L15.4044 11.1532M15.3483 11.1491C15.3484 11.1482 15.3485 11.1473 15.3486 11.1465L15.4044 11.1532M15.4044 11.1532C15.36 11.5211 15.3318 12.2453 15.5734 12.1989C15.8754 12.141 16.9716 8.6725 16.8681 8.36918L15.4044 11.1532Z" fill="#F16C1D" stroke="#71393B" stroke-width="0.112311" stroke-linecap="round" stroke-linejoin="round"/>
<path d="M14.4347 8.20346L14.4339 8.20415L14.4425 8.21085C14.4808 8.24067 14.5165 8.26373 14.5484 8.27619C14.5767 8.2873 14.6233 8.29782 14.6597 8.26507C14.6926 8.23552 14.6936 8.19007 14.6905 8.15816C14.6869 8.12169 14.6751 8.07684 14.6568 8.02497C14.6486 8.00193 14.6271 7.96533 14.6005 7.92392C14.5725 7.8803 14.5349 7.82542 14.4903 7.76317C14.4011 7.63861 14.2828 7.48319 14.1547 7.32711C14.0268 7.17113 13.8885 7.01369 13.7593 6.88549C13.6321 6.75923 13.5075 6.65498 13.4075 6.61312C13.3884 6.60511 13.3619 6.59631 13.3357 6.60137C13.3201 6.60437 13.3037 6.61249 13.2918 6.62819C13.2805 6.64294 13.2772 6.65912 13.2766 6.6713C13.2755 6.69388 13.2828 6.71711 13.2903 6.73597C13.2985 6.75653 13.3103 6.77971 13.3244 6.80459C13.3804 6.90341 13.4859 7.04936 13.6119 7.21225C13.8651 7.53942 14.2097 7.94554 14.4347 8.20346Z" fill="#D0E386" stroke="#869F26" stroke-width="0.112311" stroke-linecap="round" stroke-linejoin="round"/>
<path d="M14.5419 8.09055L14.5409 8.09092L14.5466 8.10021C14.5721 8.14152 14.5975 8.17562 14.623 8.19842C14.6457 8.21874 14.6857 8.24487 14.7312 8.22689C14.7723 8.21068 14.7892 8.16846 14.7974 8.13747C14.8068 8.10205 14.8114 8.0559 14.8124 8.00089C14.8128 7.97645 14.8054 7.93464 14.7949 7.88655C14.7839 7.83589 14.7678 7.77134 14.7478 7.69743C14.7077 7.54954 14.6511 7.3626 14.5857 7.17163C14.5203 6.98079 14.4457 6.78496 14.3694 6.6197C14.2943 6.45695 14.214 6.31576 14.1349 6.24162C14.1198 6.22742 14.098 6.20992 14.0717 6.20551C14.0561 6.20289 14.0379 6.20477 14.0212 6.2153C14.0055 6.2252 13.9967 6.2392 13.9919 6.25041C13.983 6.27116 13.9817 6.29549 13.9822 6.31579C13.9827 6.33792 13.9856 6.36374 13.9901 6.39199C14.0082 6.50416 14.056 6.67775 14.1172 6.87441C14.2401 7.26939 14.4212 7.77032 14.5419 8.09055Z" fill="#D0E386" stroke="#869F26" stroke-width="0.112311" stroke-linecap="round" stroke-linejoin="round"/>
<path d="M14.6905 7.99593L14.6895 7.99609L14.6932 8.00635C14.7096 8.05203 14.7274 8.09065 14.7477 8.11821C14.7657 8.14278 14.7994 8.17659 14.8477 8.1684C14.8912 8.16102 14.9165 8.12319 14.9309 8.09456C14.9474 8.06184 14.9614 8.01763 14.9737 7.964C14.9828 7.92422 14.9876 7.83797 14.9876 7.7321C14.9875 7.62382 14.9823 7.48885 14.9691 7.34801C14.956 7.20731 14.9348 7.05966 14.9026 6.92643C14.8707 6.79429 14.8268 6.67147 14.7657 6.58395C14.7532 6.56603 14.7393 6.54953 14.7236 6.53767C14.7082 6.52601 14.6835 6.51341 14.6538 6.51993C14.6246 6.52635 14.6077 6.54763 14.5988 6.56325C14.5897 6.5794 14.5839 6.59835 14.5799 6.61682C14.5641 6.6892 14.5639 6.81243 14.5717 6.95666C14.5875 7.24932 14.6385 7.65741 14.6905 7.99593Z" fill="#D0E386" stroke="#869F26" stroke-width="0.112311" stroke-linecap="round" stroke-linejoin="round"/>
<path d="M14.2491 8.40765C14.279 8.20083 14.3372 8.05448 14.4174 7.95774C14.4991 7.8591 14.6008 7.81573 14.7068 7.81073C14.8106 7.80583 14.9156 7.83768 15.0092 7.88338C15.1019 7.92867 15.1869 7.98935 15.2537 8.04835C15.2791 8.06617 15.3037 8.09641 15.3269 8.1297C15.3526 8.1666 15.3811 8.21417 15.4117 8.2702C15.4731 8.38239 15.5451 8.53219 15.6227 8.70652C15.778 9.0554 15.9574 9.50589 16.1219 9.95781C16.2863 10.4096 16.4364 10.8641 16.5328 11.2208C16.581 11.3989 16.6162 11.5543 16.6328 11.6733C16.6412 11.7327 16.6452 11.7851 16.6433 11.8277C16.6416 11.8668 16.6347 11.9111 16.6085 11.9412C16.5784 11.9759 16.5397 11.9942 16.4965 11.996C16.4557 11.9976 16.4151 11.9843 16.3777 11.965C16.3031 11.9265 16.2234 11.8546 16.1471 11.7718C15.9938 11.6056 15.838 11.3776 15.7408 11.2178M14.2491 8.40765C14.2491 8.40756 14.2491 8.40747 14.2491 8.40739L14.3046 8.41594L14.2491 8.40791C14.2491 8.40782 14.2491 8.40773 14.2491 8.40765ZM14.2491 8.40765C14.239 8.4739 14.2511 8.57738 14.2902 8.7163C14.3298 8.85737 14.3988 9.0408 14.5081 9.26954C14.7265 9.72669 15.1072 10.3678 15.7408 11.2178M15.7408 11.2178C15.7413 11.2185 15.7418 11.2192 15.7424 11.2199L15.7874 11.1863M15.7408 11.2178C15.7403 11.217 15.7398 11.2162 15.7394 11.2155L15.7874 11.1863M15.7874 11.1863C15.9797 11.5031 16.4047 12.0901 16.5662 11.9044C16.7679 11.6723 15.4879 8.26739 15.2192 8.09275L15.7874 11.1863Z" fill="#F16C1D" stroke="#71393B" stroke-width="0.112311" stroke-linecap="round" stroke-linejoin="round"/>
<path d="M8.87113 11.3341C9.04742 11.5104 9.49549 11.2012 9.69749 11.0245C9.74383 11.0245 9.84649 11.0581 9.88637 11.1924C9.93621 11.3603 10.2248 11.3341 10.5133 11.3341C10.8019 11.3341 10.8308 11.0245 11.3082 11.0245C11.6902 11.0245 11.9186 10.8776 11.985 10.8042C12.1031 10.972 12.3628 10.9537 12.5832 10.9642C12.7595 10.9726 12.7616 11.1198 12.7406 11.1924C12.7642 11.1898 12.7972 11.1961 12.7406 11.2423C12.6697 11.3 12.7406 11.3918 12.8114 11.6725C12.8822 11.9532 13.0711 11.8902 13.1498 12.0502C13.2285 12.2103 13.2206 12.3572 13.3597 12.4464C13.4987 12.5356 13.6168 12.3467 13.7873 12.2391C13.9578 12.1316 13.866 11.9689 13.9158 11.8902C13.9557 11.8273 14.0986 11.8238 14.165 11.8299C14.3749 11.6594 14.2044 11.2737 14.3041 11.0245C14.4038 10.7753 14.1546 10.4684 14.0365 10.3188C13.9185 10.1693 13.8555 10.0198 13.7873 9.76006C13.7191 9.50035 13.0895 9.58167 13.0711 9.42165C13.0527 9.26163 12.8612 9.0229 12.7406 9.04389C12.6199 9.06487 12.3235 8.84451 12.2631 8.72646C12.2149 8.63202 11.9789 8.5402 11.867 8.5061C11.5732 8.23537 11.0538 8.44751 10.8308 8.58742C10.6482 8.44471 10.258 8.69935 10.0857 8.84451C9.84702 8.82353 9.38793 9.47149 9.26988 9.42165C9.15183 9.37181 8.56158 9.49248 8.50124 9.76006C8.4409 10.0276 8.2048 10.269 8.10511 10.408C8.00543 10.5471 7.9346 10.6861 7.97395 10.8042C8.00543 10.8986 8.03428 11.0639 8.04478 11.1347C8.04478 11.3656 8.49337 11.5125 8.56158 11.3341C8.62978 11.1557 8.55371 11.1006 8.62191 11.1006C8.69012 11.1006 8.65077 11.1137 8.87113 11.3341Z" fill="#D0E386" stroke="#869F26" stroke-width="0.200697" stroke-linecap="round" stroke-linejoin="round"/>
<path d="M3.21879 11.3341C3.39508 11.5104 3.84315 11.2012 4.04514 11.0245C4.09149 11.0245 4.19415 11.0581 4.23402 11.1924C4.28387 11.3603 4.57244 11.3341 4.861 11.3341C5.14957 11.3341 5.17843 11.0245 5.65588 11.0245C6.03784 11.0245 6.26624 10.8776 6.3327 10.8042C6.45075 10.972 6.71046 10.9537 6.93083 10.9642C7.10712 10.9726 7.10921 11.1198 7.08823 11.1924C7.11184 11.1898 7.14489 11.1961 7.08823 11.2423C7.0174 11.3 7.08823 11.3918 7.15906 11.6725C7.22989 11.9532 7.41877 11.8902 7.49747 12.0502C7.57617 12.2103 7.5683 12.3572 7.70734 12.4464C7.84637 12.5356 7.96443 12.3467 8.13494 12.2391C8.30546 12.1316 8.21364 11.9689 8.26349 11.8902C8.30336 11.8273 8.44625 11.8238 8.51271 11.8299C8.72257 11.6594 8.55206 11.2737 8.65174 11.0245C8.75143 10.7753 8.50221 10.4684 8.38416 10.3188C8.26611 10.1693 8.20315 10.0198 8.13494 9.76006C8.06674 9.50035 7.43713 9.58167 7.41877 9.42165C7.40041 9.26163 7.2089 9.0229 7.08823 9.04389C6.96755 9.06487 6.67111 8.84451 6.61078 8.72646C6.56251 8.63202 6.32658 8.5402 6.21465 8.5061C5.92084 8.23537 5.40141 8.44751 5.17843 8.58742C4.99584 8.44471 4.60566 8.69935 4.4334 8.84451C4.19467 8.82353 3.73559 9.47149 3.61754 9.42165C3.49949 9.37181 2.90923 9.49248 2.8489 9.76006C2.78856 10.0276 2.55246 10.269 2.45277 10.408C2.35308 10.5471 2.28225 10.6861 2.3216 10.8042C2.35308 10.8986 2.38194 11.0639 2.39243 11.1347C2.39243 11.3656 2.84103 11.5125 2.90923 11.3341C2.97744 11.1557 2.90136 11.1006 2.96957 11.1006C3.03778 11.1006 2.99843 11.1137 3.21879 11.3341Z" fill="#D0E386" stroke="#869F26" stroke-width="0.200697" stroke-linecap="round" stroke-linejoin="round"/>
<path d="M14.7177 23.7604C6.01353 24.2226 1.88887 24.0255 1.24249 20.8042C0.659156 17.8972 0.942997 8.91795 4.18131 9.66669H18.1977C17.9966 6.8449 18.1674 4.87665 19.2101 3.45072C21.1963 0.734683 23.5942 0.48662 25.066 1.68288C27.0179 3.07776 26.4324 4.90509 26.4324 4.90509C23.7235 5.15552 25.7024 3.66967 25.066 1.68288C23.5942 0.48662 21.1963 0.734683 19.2101 3.45072C18.1674 4.87665 17.9966 6.8449 18.1977 9.66669C18.2814 10.8402 18.4293 12.1613 18.6056 13.6523C19.2059 18.729 19.8853 23.4859 14.7177 23.7604Z" fill="#E6DADA"/>
<path d="M25.066 1.68288C27.0179 3.07776 26.4324 4.90509 26.4324 4.90509C23.7235 5.15552 25.7024 3.66967 25.066 1.68288ZM25.066 1.68288C23.5942 0.48662 21.1963 0.734683 19.2101 3.45072C18.1674 4.87665 17.9966 6.8449 18.1977 9.66669M18.1977 9.66669C18.2814 10.8402 18.4293 12.1613 18.6056 13.6523C19.2059 18.729 19.8853 23.4859 14.7177 23.7604C6.01353 24.2226 1.88887 24.0255 1.24249 20.8042C0.659156 17.8972 0.942997 8.91795 4.18131 9.66669H18.1977Z" stroke="#3E1F01" stroke-width="0.702438" stroke-linecap="round" stroke-linejoin="round"/>
<path d="M15.0184 23.7604C6.31432 24.2226 2.18965 24.0255 1.54327 20.8042C0.959937 17.8972 1.24378 8.91795 4.48209 9.66669H18.4985C18.2974 6.8449 18.4681 4.87665 19.5109 3.45072C21.4971 0.734683 23.895 0.48662 25.3667 1.68288C27.3187 3.07776 26.7332 4.90509 26.7332 4.90509C24.0243 5.15552 26.0032 3.66967 25.3667 1.68288C23.895 0.48662 21.4971 0.734683 19.5109 3.45072C18.4681 4.87665 18.2974 6.8449 18.4985 9.66669C18.5821 10.8402 18.7301 12.1613 18.9064 13.6523C19.5067 18.729 20.186 23.4859 15.0184 23.7604Z" fill="#E6DADA"/>
<path d="M25.3667 1.68288C27.3187 3.07776 26.7332 4.90509 26.7332 4.90509C24.0243 5.15552 26.0032 3.66967 25.3667 1.68288ZM25.3667 1.68288C23.895 0.48662 21.4971 0.734683 19.5109 3.45072C18.4681 4.87665 18.2974 6.8449 18.4985 9.66669M18.4985 9.66669C18.5821 10.8402 18.7301 12.1613 18.9064 13.6523C19.5067 18.729 20.186 23.4859 15.0184 23.7604C6.31432 24.2226 2.18965 24.0255 1.54327 20.8042C0.959937 17.8972 1.24378 8.91795 4.48209 9.66669H18.4985Z" stroke="#3E1F01" stroke-width="0.702438" stroke-linecap="round" stroke-linejoin="round"/>
<path d="M15.3192 23.7604C6.6151 24.2226 2.49043 24.0255 1.84406 20.8042C1.26072 17.8972 1.54456 8.91795 4.78287 9.66669H18.7993C18.5981 6.8449 18.7689 4.87665 19.8117 3.45072C21.7978 0.734683 24.1957 0.48662 25.6675 1.68288C27.6195 3.07776 27.034 4.90509 27.034 4.90509C24.325 5.15552 26.3039 3.66967 25.6675 1.68288C24.1957 0.48662 21.7978 0.734683 19.8117 3.45072C18.7689 4.87665 18.5981 6.8449 18.7993 9.66669C18.8829 10.8402 19.0309 12.1613 19.2072 13.6523C19.8075 18.729 20.4868 23.4859 15.3192 23.7604Z" fill="#E6DADA"/>
<path d="M25.6675 1.68288C27.6195 3.07776 27.034 4.90509 27.034 4.90509C24.325 5.15552 26.3039 3.66967 25.6675 1.68288ZM25.6675 1.68288C24.1957 0.48662 21.7978 0.734683 19.8117 3.45072C18.7689 4.87665 18.5981 6.8449 18.7993 9.66669M18.7993 9.66669C18.8829 10.8402 19.0309 12.1613 19.2072 13.6523C19.8075 18.729 20.4868 23.4859 15.3192 23.7604C6.6151 24.2226 2.49043 24.0255 1.84406 20.8042C1.26072 17.8972 1.54456 8.91795 4.78287 9.66669H18.7993Z" stroke="#3E1F01" stroke-width="0.702438" stroke-linecap="round" stroke-linejoin="round"/>
<circle cx="6.42945" cy="26.1575" r="1.1837" fill="#3E1F01" stroke="#3E1F01" stroke-width="0.702438"/>
<circle cx="13.3923" cy="26.1575" r="1.1837" fill="#3E1F01" stroke="#3E1F01" stroke-width="0.702438"/>
</svg>
