<svg width="383" height="171" viewBox="0 0 383 171" fill="none" xmlns="http://www.w3.org/2000/svg">
<path d="M-14.8182 -17.9777C-13.4459 -18.0539 -12.5098 -18.0614 -12.1736 -17.9857C-10.6598 -17.6443 -7.56305 -17.1571 -6.95975 -13.5024C-6.70078 -11.9336 -2.30986 -16.0038 1.00277 -17.8407L2.86251 -14.7301C0.727327 -13.9461 -3.43112 -12.4029 -2.98346 -12.5017C-2.5358 -12.6004 1.55461 -13.0332 3.54386 -13.2373L3.91084 -9.44533L-2.86169 -10.8855L0.492474 -9.51284L-1.37721 -6.28377L-6.90383 -9.52445C-7.34164 -7.78482 -9.16195 -4.33192 -12.9407 -4.43729C-14.0562 -4.4684 -16.7174 -4.74111 -20.1548 -5.17318M-14.8182 -17.9777C-15.3488 -15.8693 -16.2488 -11.4534 -15.6036 -10.6569M-14.8182 -17.9777C-18.014 -17.8002 -23.5752 -17.2507 -29.4331 -16.5156M-20.2629 -12.0937C-20.684 -10.0705 -21.2519 -5.854 -20.1548 -5.17318M-20.1548 -5.17318C-23.9002 -5.64396 -28.5671 -6.30393 -33.1604 -7.0467M-24.1124 -14.6481C-24.4877 -13.157 -25.0398 -9.91339 -24.2458 -8.86796M-29.4331 -16.5156C-29.7739 -15.192 -30.257 -12.2834 -29.463 -11.238M-29.4331 -16.5156C-33.4559 -16.0108 -37.6186 -15.4185 -41.2512 -14.7991M-33.1604 -7.0467C-33.8141 -7.94952 -34.8844 -10.2769 -33.9364 -12.3638M-33.1604 -7.0467C-37.7759 -7.79304 -42.3169 -8.62298 -45.7739 -9.42856M-41.2512 -14.7991C-47.6961 -13.7002 -52.4724 -12.516 -51.8379 -11.5839C-51.4074 -10.9513 -49.0892 -10.2011 -45.7739 -9.42856M-41.2512 -14.7991C-41.4649 -13.9501 -41.7184 -12.1025 -41.0233 -11.5047M-44.937 -12.754C-45.3825 -11.6838 -46.1736 -9.52048 -45.7739 -9.42856" stroke="#3E1F01" stroke-width="0.512534" stroke-linecap="round"/>
<path d="M-13.1602 30.2708C-12.915 33.2137 -13.8961 40.9387 -31.5531 52.7102C-39.6458 56.7566 -53.0361 59.4052 -49.2104 75.8853C-45.3846 92.3654 -26.2806 84.9591 -17.2068 79.196C-9.09824 74.0459 1.62756 46.5302 1.92185 35.053M-13.1602 30.2708L-7.27462 28.0636L-5.98798 35.053C-4.82281 33.4589 -2.34531 30.1972 -1.75674 29.9029C-1.16816 29.6087 0.940893 33.2137 1.92185 35.053M-13.1602 30.2708L-14.9997 30.6386C-14.0187 26.96 -10.7325 20.1178 -5.43533 22.1778M1.92185 35.053L3.39329 36.1566L3.76114 29.9029C1.55399 22.9136 -0.285303 23.2816 -1.75674 22.9137M-5.43533 22.1778C-5.19009 22.6683 -4.69961 23.723 -4.69961 24.0173C-4.69961 24.3851 -3.22817 22.5458 -1.75674 22.9137M-5.43533 22.1778C-5.19009 19.6029 -3.89032 14.8944 -0.653161 16.6601C-0.162683 16.9053 0.891845 17.69 1.18613 18.8671C1.48042 20.0443 -0.653161 22.0553 -1.75674 22.9137M-34.864 59.6995C-38.3383 60.0673 -45.1153 63.1573 -44.4284 72.5745M-43.6926 75.1495C-43.3248 76.4983 -42.0005 79.3431 -39.6462 79.9317" stroke="#3E1F01" stroke-width="0.735718"/>
<path d="M19.4711 16.6414C11.6045 17.798 10.2746 22.4045 10.6425 25.47C11.2556 27.3094 12.9968 31.0616 15.0568 31.3559C17.6318 31.7237 15.0568 32.4595 43.0141 33.563C47.4858 33.7395 54.0499 33.563 57.3606 32.4595C65.1026 29.8788 65.3309 21.1784 64.7178 17.7451C61.7749 2.29499 50.7391 5.97357 43.7498 6.70929C36.7605 7.44501 31.9805 14.8022 19.4711 16.6414Z" stroke="#3E1F01" stroke-width="0.735718" stroke-linecap="round"/>
<path d="M15.796 -2.85547C18.8615 -2.85547 25.2868 -3.22333 26.4639 -4.69477M6.96724 -2.11976C4.76008 -7.88288 5.05437 -19.6298 23.8887 -20.5127C31.9817 -19.0413 46.6962 -18.6734 53.6855 -18.6734C63.2498 -16.4662 63.9855 -6.1662 53.6855 -3.95905C42.2819 -0.648322 31.2461 5.23742 27.9354 6.70885C23.7662 9.28386 13.7357 11.1232 6.96724 -2.11976ZM11.3817 -6.53406C11.3817 -15.7305 27.9354 -21.2484 30.5104 -6.53406C29.4068 5.29733 11.3817 7.886 11.3817 -6.53406Z" stroke="#3E1F01" stroke-width="0.735718" stroke-linecap="round"/>
<path d="M59.3702 -0.460589L52.3809 -0.0927301L53.1166 3.218H59.3702M59.3702 -0.460589V3.218M59.3702 -0.460589C59.3702 -4.28632 62.0678 -5.97847 63.4166 -6.34633M59.3702 3.218C59.2476 4.32158 59.8852 6.74944 63.4166 7.6323M63.4166 -6.34633L65.6238 -5.24275L64.1523 -3.0356L66.3595 -1.19631L64.1523 0.642988L66.3595 3.218L64.8881 5.05729L65.6238 6.52873L63.4166 7.6323M63.4166 -6.34633C69.425 -6.95943 82.9851 -6.05931 91.3739 -3.77132C103.513 -0.460362 124.849 11.6787 120.435 27.8645C117.658 21.7078 107.356 8.76865 96.1561 6.52873C88.7989 5.05729 70.8964 7.6323 63.4166 7.6323M73.7167 -3.0356C78.0084 -3.28084 87.5482 -2.88846 91.3739 0.642988" stroke="#3E1F01" stroke-width="0.735718" stroke-linecap="round"/>
<path d="M44.3405 44.6115C44.7084 42.1592 43.9727 37.3279 38.0869 37.6222C30.7297 37.9901 5.71535 64.476 11.2332 78.4546C11.6012 79.1903 13.1463 81.0296 16.3835 82.5011M44.3405 44.6115C31.3917 50.203 20.3072 72.201 16.3835 82.5011M44.3405 44.6115C45.7355 44.2897 48.7455 44.5312 50.8562 47.5545M16.3835 82.5011C17.1192 88.019 21.9014 91.6975 27.7871 91.6975M66.4123 66.6832C62.7337 73.3046 33.6729 91.6975 27.7871 91.6975M66.4123 66.6832C69.0026 62.0206 66.3033 61.006 63.8373 60.4285M66.4123 66.6832C67.1647 66.6832 69.6268 65.1444 71.1177 66.6128M27.7871 91.6975C27.5419 93.5368 28.4493 97.0683 34.0407 96.4797C41.03 95.744 72.298 78.8225 72.298 71.0975C72.298 68.639 71.8137 67.2982 71.1177 66.6128M44.3405 40.933C46.9156 39.9521 52.8751 39.903 56.1122 47.5545M56.1122 47.5545H50.8562M56.1122 47.5545C58.3194 48.5355 63.6901 48.9524 67.5159 42.7723C68.3742 44.8569 70.5323 49.0259 72.298 49.0259C69.1349 49.2171 63.9487 50.8615 63.2409 55.6474M50.8562 47.5545C51.1576 47.9861 51.4406 48.4744 51.6979 49.0259C54.273 54.5438 59.423 58.5903 61.2623 59.6938C61.8064 60.0203 62.8013 60.1858 63.8373 60.4285M63.8373 60.4285C63.1949 58.5653 63.0433 56.9838 63.2409 55.6474M63.2409 55.6474C67.0671 55.9683 73.9992 58.6107 71.1177 66.6128" stroke="#3E1F01" stroke-width="0.735718"/>
<path d="M147.049 89.2534C152.833 91.618 163.202 99.8963 158.403 114.093C155.778 121.856 146.744 128.323 134.863 129.744C122.983 131.165 111.592 129.583 106.026 116.427C104.443 112.686 104.677 104.985 110.517 97.0278C117.051 88.1264 120.307 90.5306 120.582 91.371M150.64 99.5651C153.221 102.687 156.156 111.016 147.244 119.357M144.557 120.988C144.068 122.007 142.283 123.88 139.06 123.217" stroke="#3E1F01" stroke-width="0.735718"/>
<path d="M132.857 88.8559C133.532 87.2033 136.243 84.3118 141.68 85.9669C147.117 87.622 149.042 86.9202 149.324 86.3624C147.429 88.7721 142.119 93.1445 136.037 91.3569L132.857 88.8559ZM132.857 88.8559C134.063 86.5285 135.897 81.4189 133.583 79.5998C131.909 80.9352 128.474 84.1927 128.126 86.5397L128.146 88.8952M132.857 88.8559C131.392 87.1841 129.006 87.8235 128.146 88.8952M132.857 88.8559C135.397 90.3856 143.266 97.0417 143.266 97.0417C138.687 99.0564 133.522 95.1507 131.512 92.946M132.857 88.8559C133.292 90.718 132.849 91.5671 131.512 92.946M128.146 88.8952C127.312 89.9555 125.012 92.0468 122.483 91.9301M128.146 88.8952C123.438 82.3852 112.652 84.1988 113.126 85.9759C113.601 87.7529 119.322 91.7841 122.483 91.9301M128.146 88.8952C127.168 90.1542 124.667 92.5237 122.483 91.9301M128.146 88.8952C125.963 91.6712 127.951 93.11 129.218 93.4825M122.483 91.9301C121.353 94.161 118.679 98.6724 117.026 98.8699C114.96 99.1169 128.023 98.6258 129.218 93.4825M129.218 93.4825C130.387 93.68 130.861 93.5201 131.512 92.946" stroke="#3E1F01" stroke-width="0.735718"/>
<path d="M4.7786 -0.135257C6.95145 0.753027 10.8465 3.86284 9.04361 9.19579C8.05765 12.1123 4.6638 14.5416 0.200829 15.0754C-4.26215 15.6092 -8.5412 15.0147 -10.6322 10.0726C-11.2266 8.66754 -11.139 5.7745 -8.94494 2.78527C-6.49058 -0.558639 -5.26752 0.344543 -5.16413 0.660245M6.12757 3.73841C7.09722 4.91111 8.19953 8.03988 4.85165 11.1734M3.84241 11.7861C3.65856 12.169 2.9882 12.8724 1.77751 12.6235" stroke="#3E1F01" stroke-width="0.515002"/>
<path d="M-0.552116 -0.284849C-0.29832 -0.905664 0.719913 -1.99186 2.76248 -1.3701C4.80505 -0.74835 5.52794 -1.012 5.63407 -1.22155C4.92223 -0.316329 2.92737 1.32622 0.642663 0.654696L-0.552116 -0.284849ZM-0.552116 -0.284849C-0.0990406 -1.15915 0.589858 -3.0786 -0.279149 -3.76197C-0.908034 -3.26031 -2.19849 -2.0366 -2.32925 -1.15494L-2.32177 -0.270073M-0.552116 -0.284849C-1.10212 -0.912869 -1.99855 -0.672664 -2.32177 -0.270073M-0.552116 -0.284849C0.402228 0.289825 3.35833 2.79023 3.35833 2.79023C1.63808 3.54705 -0.302212 2.07985 -1.05732 1.25165M-0.552116 -0.284849C-0.388478 0.414693 -0.554931 0.733654 -1.05732 1.25165M-2.32177 -0.270073C-2.63498 0.128222 -3.4989 0.913849 -4.44888 0.869997M-2.32177 -0.270073C-4.09032 -2.7156 -8.14217 -2.03431 -7.96392 -1.36675C-7.78568 -0.699187 -5.63637 0.815181 -4.44888 0.869997M-2.32177 -0.270073C-2.6891 0.202864 -3.62878 1.09299 -4.44888 0.869997M-2.32177 -0.270073C-3.14181 0.772736 -2.39484 1.31326 -1.91885 1.45317M-4.44888 0.869997C-4.8735 1.70808 -5.87799 3.4028 -6.49898 3.47702C-7.27522 3.5698 -2.36807 3.38529 -1.91885 1.45317M-1.91885 1.45317C-1.47965 1.52738 -1.30174 1.46731 -1.05732 1.25165" stroke="#3E1F01" stroke-width="0.515002"/>
<path d="M69.3427 93.4413L63.3882 88.8765C55.6027 96.9374 36.9731 113.278 24.7393 114.153C11.084 115.13 -3.495 115.326 -5.94457 122.03M69.3427 93.4413L51.3559 109.196M69.3427 93.4413L76.6877 85.164L83.6212 88.5704M83.8052 114.892L79.7501 123.146C61.5852 113.402 34.3368 122.147 30.2241 122.176C26.4386 122.202 -0.693158 132.289 -5.54958 126.584M83.8052 114.892L63.8074 111.381M83.8052 114.892L95.338 117.279L98.5821 110.675C98.0697 107.965 90.5316 106.369 82.6785 105.506M51.3559 109.196L32.3328 117.884M51.3559 109.196L63.8074 111.381M83.6212 88.5704L69.6479 104.657M83.6212 88.5704L86.7261 85.5874L93.9897 89.1559L82.6785 105.506M63.8074 111.381L69.6479 104.657M69.6479 104.657C73.1375 104.732 77.9647 104.987 82.6785 105.506M-2.50938 122.898C-1.094 121.408 2.39938 119.08 5.04991 121.694M-5.94457 122.03L-11.0764 121.149L-6.06048 122.383M-5.94457 122.03C-5.98684 122.146 -6.0255 122.264 -6.06048 122.383M-6.06048 122.383C-6.1649 122.74 -6.23653 123.115 -6.2736 123.508M-6.2736 123.508L-11.708 124.937L-6.30125 124.314M-6.2736 123.508C-6.29816 123.769 -6.30754 124.037 -6.30125 124.314M-6.30125 124.314C-6.29811 124.452 -6.29108 124.592 -6.28011 124.735C-6.24825 125.147 -6.1564 125.519 -6.00955 125.852M-6.00955 125.852L-9.54178 128.87L-5.54958 126.584M-6.00955 125.852C-5.89113 126.12 -5.73693 126.364 -5.54958 126.584" stroke="#3E1F01" stroke-width="0.735718" stroke-linecap="round"/>
<path d="M77.5961 39.4485C77.0092 37.5649 76.6707 36.2644 76.6584 35.77C76.6033 33.543 76.1966 29.0615 81.0728 26.9413C83.1658 26.0313 75.9617 21.3448 72.2441 17.377L75.9227 13.6984C77.762 16.3961 81.367 21.6442 81.0728 21.0556C80.7785 20.467 78.743 14.9246 77.762 12.227L82.912 10.3877L83.2799 20.3199L84.0156 15.1699L89.1656 16.6413L86.5906 25.4699C89.1656 25.4699 94.61 26.7942 95.7871 32.0914C96.1346 33.6551 96.6872 37.455 97.29 42.3914M77.5961 39.4485C80.7169 39.4485 87.1792 39.1543 88.0621 37.9771M77.5961 39.4485C78.9627 43.835 81.6759 51.3839 84.7513 59.2808M87.6942 44.9664C90.6581 44.8438 96.7266 44.1571 97.29 42.3914M97.29 42.3914C97.9468 47.7701 98.6631 54.4979 99.2383 61.1522M85.4871 51.22C87.6942 51.22 92.4028 50.8522 93.58 49.3807M84.7513 59.2808C86.7133 59.2915 90.9314 58.9451 92.1085 57.4736M84.7513 59.2808C86.8634 64.7039 89.1462 70.2911 91.2811 75.1308M99.2383 61.1522C98.2105 62.3784 95.3457 64.6836 92.1085 64.0951M99.2383 61.1522C99.8163 67.8386 100.252 74.4507 100.342 79.5451M91.2811 75.1308C95.0687 83.7175 98.3904 89.9513 99.4657 88.7416C100.195 87.9207 100.428 84.4308 100.342 79.5451M91.2811 75.1308C92.5378 75.1308 95.1985 74.8366 95.7871 73.6594M95.4192 79.5451C97.065 79.7904 100.354 80.1337 100.342 79.5451" stroke="#3E1F01" stroke-width="0.735718" stroke-linecap="round"/>
<path d="M-10.6583 80.518C-9.8749 78.9285 -9.29066 77.8724 -8.99271 77.5429C-7.65073 76.0588 -5.14274 72.8895 -0.656238 74.5261C1.26955 75.2286 -0.5212 67.7201 -0.486566 62.8366L4.18447 62.7177C3.71288 65.612 2.81284 71.2594 2.98541 70.6941C3.15797 70.1288 5.26196 65.261 6.29238 62.8977L10.7834 64.8866L4.87762 71.5807L8.54306 68.6829L10.9856 72.8274L3.84668 76.9822C5.52318 78.5754 8.24841 82.8061 5.73733 86.9832C4.99606 88.2163 3.00475 91.0323 0.342942 94.6191M-10.6583 80.518C-8.62644 82.4489 -4.23695 86.2557 -2.93382 86.0356M-10.6583 80.518C-12.4826 84.2194 -15.3868 90.813 -18.2704 97.8573M-7.49778 90.3585C-5.49225 92.1125 -1.11636 95.4201 0.342942 94.6191M0.342942 94.6191C-2.55736 98.5274 -6.25369 103.351 -9.99635 108.039M-12.804 93.0644C-11.367 94.43 -8.07383 97.1038 -6.39701 96.8741M-18.2704 97.8573C-16.9997 99.0781 -14.0391 101.462 -12.3623 101.233M-18.2704 97.8573C-20.2508 102.695 -22.2214 107.745 -23.826 112.217M-9.99635 108.039C-11.4242 108.202 -14.7157 107.93 -16.4591 105.544M-9.99635 108.039C-13.7571 112.75 -17.5645 117.324 -20.6582 120.697M-23.826 112.217C-26.6727 120.151 -28.3671 126.265 -26.9185 126.142C-25.9355 126.059 -23.6251 123.931 -20.6582 120.697M-23.826 112.217C-23.0077 112.994 -21.0933 114.449 -19.9818 114.047M-23.863 117.651C-22.9432 118.829 -21.0145 121.087 -20.6582 120.697" stroke="#3E1F01" stroke-width="0.660798" stroke-linecap="round"/>
<path d="M140.206 18.2013C140.206 20.4084 135.792 24.087 135.792 21.8799C135.792 20.1141 131.377 18.6917 129.17 18.2013C126.595 17.465 121.078 19.6728 122.549 26.6621C124.02 33.6515 135.792 31.8122 143.149 29.605C144.214 29.2855 145.21 29.3591 146.136 29.7187M140.206 18.2013C140.206 15.9941 129.906 11.212 126.227 11.5798C124.606 11.7419 120.986 9.76138 118.135 6.77116M140.206 18.2013L147.196 14.1549M118.135 6.77116C114.515 2.9751 112.136 -2.44822 116.663 -7.18094C124.756 -15.6417 129.906 -10.1238 132.849 -7.18094C133.778 -6.2521 134.743 -4.55368 135.792 -2.58305M118.135 6.77116L124.756 0.544168M129.17 3.48704L135.792 -2.58305M135.792 -2.58305C138.065 1.68992 140.728 7.24273 144.253 9.00492C147.572 10.6645 146.46 5.44771 146.136 0.544168M132.849 10.4764L135.792 5.69419M146.136 0.544168C145.957 -2.16037 146.019 -4.76962 147.196 -6.07729C150.506 -9.75588 158.599 -7.91658 158.599 -2.3987C158.599 0.394301 158.505 5.44929 158.841 10.4764M146.136 0.544168H153.817M150.138 9.00492L158.841 10.4764M158.841 10.4764C159.169 15.3808 159.907 20.2587 161.542 22.9836C164.853 28.5014 171.474 35.8586 167.428 40.6408C163.381 45.4229 156.024 43.9515 155.288 43.9515C154.659 43.9515 151.609 31.8434 146.136 29.7187M146.136 29.7187L151.978 25.1907M155.288 35.1229C157.863 34.4719 163.087 32.8248 163.381 31.4443" stroke="#3E1F01" stroke-width="0.735718" stroke-linecap="round"/>
<path d="M11.0632 46.3818C10.3494 46.7732 8.35764 45.9631 9.07146 45.5717C9.64251 45.2585 9.30047 43.5437 9.05807 42.7254C8.82826 41.7416 7.11175 40.3052 5.11868 42.0323C3.1256 43.7595 5.85923 47.3333 7.90986 49.3794C8.20669 49.6756 8.36379 50.0185 8.41579 50.3892M11.0632 46.3818C11.777 45.9903 11.4522 41.7295 10.6648 40.576C10.3179 40.0677 10.3006 38.5169 10.7496 37.0419M11.0632 46.3818L13.6418 47.9799M10.7496 37.0419C11.3197 35.1695 12.6413 33.4193 14.9945 34.0798C19.2012 35.2605 18.3525 37.9456 17.9354 39.4425C17.8038 39.9149 17.4299 40.536 16.9831 41.2329M10.7496 37.0419L13.9666 38.1313M13.8168 40.1157L16.9831 41.2329M16.9831 41.2329C16.0142 42.7439 14.7022 44.6111 14.7727 46.0914C14.8391 47.4855 16.3242 46.1918 17.8512 45.2148M12.2248 42.5742L14.3061 42.701M17.8512 45.2148C18.6934 44.6759 19.5484 44.2335 20.1852 44.3915C21.9764 44.8359 22.852 47.8434 21.0675 48.8221C20.1642 49.3175 18.5122 50.1828 16.9475 51.1858M17.8512 45.2148L19.2468 47.7596M15.8421 48.0415L16.9475 51.1858M16.9475 51.1858C15.4209 52.1644 13.9774 53.274 13.3932 54.2989C12.2102 56.3745 11.0339 59.8732 8.75209 59.3807C6.47026 58.8882 5.60937 56.1897 5.4757 55.9459C5.36137 55.7374 8.723 52.5792 8.41579 50.3892M8.41579 50.3892L10.9416 51.5216M8.33097 54.3801C9.00938 55.1177 10.4912 56.5563 10.9911 56.4089" stroke="#3E1F01" stroke-width="0.735718" stroke-linecap="round"/>
<path d="M114.703 39.633C99.9886 41.8402 107.714 58.026 111.76 60.9689C114.997 63.3232 116.297 69.0617 116.542 71.6368C118.014 74.7022 121.398 80.2446 123.164 77.8903C124.93 75.536 123.164 70.7784 122.06 68.6939M114.703 39.633C118.627 35.5866 128.24 29.7009 135.303 38.5295M114.703 39.633C109.921 49.5653 120.589 64.6474 122.06 68.6939M135.303 38.5295C137.388 40.4914 139.938 48.0202 133.464 62.4403C132.773 65.5865 131.535 70.7305 130.417 74.2117M135.303 38.5295C138.369 37.5485 144.868 36.8373 146.339 41.8402C148.178 48.0938 141.189 59.4974 141.189 60.2331C141.189 60.9689 135.303 72.7403 135.303 75.3153C135.303 77.8903 132.152 78.2582 130.417 74.2117M122.06 68.6939C123.532 72.7403 127.21 78.2582 128.682 77.8903C129.122 77.7802 129.748 76.2932 130.417 74.2117M123.164 41.8402C123.9 39.633 113.232 48.4617 124.267 60.9689" stroke="#3E1F01" stroke-width="0.735718" stroke-linecap="round"/>
<path d="M14.8628 93.4894C8.92195 89.2564 5.82655 97.8277 6.18842 100.291C6.47791 102.262 4.87676 104.808 4.04 105.834C3.4567 107.461 2.65549 110.649 4.11702 110.392C5.57854 110.135 6.66514 107.789 7.02575 106.648M14.8628 93.4894C17.686 93.3524 23.1595 94.4914 22.4684 100.143M14.8628 93.4894C9.63036 95.4867 7.96054 104.662 7.02575 106.648M22.4684 100.143C22.495 101.575 20.6902 105.205 13.2576 108.265C11.8887 109.18 9.61228 110.639 7.97356 111.53M22.4684 100.143C23.8928 100.834 26.4222 102.8 25.1447 105.135C23.5479 108.054 17.0158 109.834 16.7522 110.104C16.4886 110.373 10.211 112.666 9.28842 113.608C8.36582 114.551 7.13103 113.606 7.97356 111.53M7.02575 106.648C6.09096 108.633 5.40149 111.913 6.04829 112.282C6.24191 112.393 6.99375 112.063 7.97356 111.53M17.0334 97.1959C18.0817 96.64 11.1847 96.2171 10.566 104.576" stroke="#3E1F01" stroke-width="0.735718" stroke-linecap="round"/>
<path d="M183.275 30.2708C183.521 33.2137 182.539 40.9387 164.882 52.7102C156.79 56.7566 143.399 59.4052 147.225 75.8853C151.051 92.3654 170.155 84.9591 179.229 79.196C187.337 74.0459 198.063 46.5302 198.357 35.053M183.275 30.2708L189.161 28.0636L190.448 35.053C191.613 33.4589 194.09 30.1972 194.679 29.9029C195.267 29.6087 197.376 33.2137 198.357 35.053M183.275 30.2708L181.436 30.6386C182.417 26.96 185.703 20.1178 191 22.1778M198.357 35.053L199.829 36.1566L200.197 29.9029C197.99 22.9136 196.15 23.2816 194.679 22.9137M191 22.1778C191.245 22.6683 191.736 23.723 191.736 24.0173C191.736 24.3851 193.207 22.5458 194.679 22.9137M191 22.1778C191.245 19.6029 192.545 14.8944 195.782 16.6601C196.273 16.9053 197.327 17.69 197.622 18.8671C197.916 20.0443 195.782 22.0553 194.679 22.9137M161.572 59.6995C158.097 60.0673 151.32 63.1573 152.007 72.5745M152.743 75.1495C153.111 76.4983 154.435 79.3431 156.789 79.9317" stroke="#3E1F01" stroke-width="0.735718"/>
<path d="M215.108 18.8484C207.241 20.005 205.911 24.6116 206.279 27.677C206.892 29.5164 208.634 33.2686 210.694 33.5629C213.269 33.9308 210.694 34.6665 238.651 35.7701C243.123 35.9466 249.687 35.7701 252.997 34.6665C260.739 32.0858 260.968 23.3855 260.354 19.9521C257.412 4.50202 246.376 8.18061 239.387 8.91632C232.397 9.65204 227.617 17.0093 215.108 18.8484Z" stroke="#3E1F01" stroke-width="0.735718" stroke-linecap="round"/>
<path d="M211.433 -0.647955C214.498 -0.647955 220.924 -1.01581 222.101 -2.48725M202.604 0.0877626C200.397 -5.67536 200.691 -17.4223 219.525 -18.3052C227.618 -16.8337 242.333 -16.4659 249.322 -16.4659C258.887 -14.2587 259.622 -3.95868 249.322 -1.75153C237.919 1.5592 226.883 7.44494 223.572 8.91637C219.403 11.4914 209.372 13.3307 202.604 0.0877626ZM207.018 -4.32654C207.018 -13.523 223.572 -19.0409 226.147 -4.32654C225.044 7.50485 207.018 10.0935 207.018 -4.32654Z" stroke="#3E1F01" stroke-width="0.735718" stroke-linecap="round"/>
<path d="M255.007 1.74644L248.018 2.1143L248.753 5.42503H255.007M255.007 1.74644V5.42503M255.007 1.74644C255.007 -2.07929 257.705 -3.77144 259.053 -4.1393M255.007 5.42503C254.884 6.52861 255.522 8.95647 259.053 9.83934M259.053 -4.1393L261.26 -3.03572L259.789 -0.828568L261.996 1.01073L259.789 2.85002L261.996 5.42503L260.525 7.26432L261.26 8.73576L259.053 9.83934M259.053 -4.1393C265.062 -4.7524 278.622 -3.85228 287.011 -1.56429C299.15 1.74667 320.486 13.8857 316.071 30.0715C313.295 23.9148 302.992 10.9757 291.793 8.73576C284.436 7.26432 266.533 9.83934 259.053 9.83934M269.353 -0.828568C273.645 -1.07381 283.185 -0.681425 287.011 2.85002" stroke="#3E1F01" stroke-width="0.735718" stroke-linecap="round"/>
<path d="M332.257 -16.57L325.268 -16.2021L326.003 -12.8914H332.257M332.257 -16.57V-12.8914M332.257 -16.57C332.257 -20.3957 334.955 -22.0878 336.303 -22.4557M332.257 -12.8914C332.134 -11.7878 332.772 -9.35993 336.303 -8.47707M336.303 -22.4557L338.51 -21.3521L337.039 -19.145L339.246 -17.3057L337.039 -15.4664L339.246 -12.8914L337.775 -11.0521L338.51 -9.58065L336.303 -8.47707M336.303 -22.4557C342.312 -23.0688 355.872 -22.1687 364.261 -19.8807C376.4 -16.5697 397.736 -4.43069 393.321 11.7551C390.545 5.59842 380.242 -7.34073 369.043 -9.58065C361.686 -11.0521 343.783 -8.47707 336.303 -8.47707M346.603 -19.145C350.895 -19.3902 360.435 -18.9978 364.261 -15.4664" stroke="#3E1F01" stroke-width="0.735718" stroke-linecap="round"/>
<path d="M239.977 46.8186C240.345 44.3662 239.609 39.535 233.724 39.8293C226.366 40.1971 201.352 66.683 206.87 80.6617C207.238 81.3974 208.783 83.2367 212.02 84.7081M239.977 46.8186C227.028 52.41 215.944 74.408 212.02 84.7081M239.977 46.8186C241.372 46.4967 244.382 46.7382 246.493 49.7615M212.02 84.7081C212.756 90.226 217.538 93.9046 223.424 93.9046M262.049 68.8902C258.37 75.5116 229.31 93.9046 223.424 93.9046M262.049 68.8902C264.639 64.2276 261.94 63.213 259.474 62.6355M262.049 68.8902C262.801 68.8902 265.263 67.3514 266.754 68.8198M223.424 93.9046C223.179 95.7439 224.086 99.2753 229.677 98.6867C236.667 97.951 267.935 81.0295 267.935 73.3045C267.935 70.846 267.45 69.5052 266.754 68.8198M239.977 43.1401C242.552 42.1591 248.512 42.1101 251.749 49.7615M251.749 49.7615H246.493M251.749 49.7615C253.956 50.7425 259.327 51.1594 263.153 44.9794C264.011 47.0639 266.169 51.233 267.935 51.233C264.772 51.4241 259.585 53.0685 258.878 57.8544M246.493 49.7615C246.794 50.1932 247.077 50.6815 247.335 51.233C249.91 56.7508 255.06 60.7973 256.899 61.9009C257.443 62.2273 258.438 62.3928 259.474 62.6355M259.474 62.6355C258.832 60.7723 258.68 59.1909 258.878 57.8544M258.878 57.8544C262.704 58.1753 269.636 60.8177 266.754 68.8198" stroke="#3E1F01" stroke-width="0.735718"/>
<path d="M342.686 91.4604C348.47 93.825 358.839 102.103 354.039 116.3C351.415 124.063 342.38 130.53 330.5 131.951C318.62 133.372 307.229 131.79 301.663 118.634C300.08 114.893 300.314 107.192 306.154 99.2348C312.688 90.3334 315.943 92.7377 316.219 93.578M346.277 101.772C348.858 104.894 351.792 113.223 342.88 121.564M340.194 123.195C339.704 124.214 337.92 126.087 334.697 125.424" stroke="#3E1F01" stroke-width="0.735718"/>
<path d="M328.493 91.0629C329.169 89.4103 331.879 86.5189 337.317 88.174C342.754 89.8291 344.678 89.1272 344.961 88.5694C343.066 90.9791 337.756 95.3516 331.674 93.564L328.493 91.0629ZM328.493 91.0629C329.699 88.7355 331.533 83.626 329.22 81.8068C327.546 83.1422 324.111 86.3998 323.763 88.7467L323.782 91.1022M328.493 91.0629C327.029 89.3911 324.643 90.0305 323.782 91.1022M328.493 91.0629C331.034 92.5927 338.903 99.2487 338.903 99.2487C334.324 101.263 329.159 97.3577 327.148 95.1531M328.493 91.0629C328.929 92.9251 328.486 93.7741 327.148 95.1531M323.782 91.1022C322.949 92.1625 320.649 94.2538 318.12 94.1371M323.782 91.1022C319.075 84.5923 308.289 86.4059 308.763 88.1829C309.238 89.9599 314.959 93.9912 318.12 94.1371M323.782 91.1022C322.805 92.3612 320.303 94.7307 318.12 94.1371M323.782 91.1022C321.6 93.8782 323.588 95.317 324.855 95.6895M318.12 94.1371C316.99 96.3681 314.316 100.879 312.663 101.077C310.596 101.324 323.659 100.833 324.855 95.6895M324.855 95.6895C326.024 95.887 326.498 95.7271 327.148 95.1531" stroke="#3E1F01" stroke-width="0.735718"/>
<path d="M264.979 95.6483L259.025 91.0836C251.239 99.1444 232.61 115.485 220.376 116.36C206.721 117.337 192.142 117.533 189.692 124.237M264.979 95.6483L246.993 111.403M264.979 95.6483L272.324 87.3711L279.258 90.7774M279.442 117.099L275.387 125.353C257.222 115.609 229.974 124.354 225.861 124.383C222.075 124.409 194.944 134.496 190.087 128.791M279.442 117.099L259.444 113.588M279.442 117.099L290.975 119.486L294.219 112.882C293.706 110.172 286.168 108.576 278.315 107.713M246.993 111.403L227.97 120.091M246.993 111.403L259.444 113.588M279.258 90.7774L265.285 106.864M279.258 90.7774L282.363 87.7944L289.626 91.3629L278.315 107.713M259.444 113.588L265.285 106.864M265.285 106.864C268.774 106.939 273.601 107.194 278.315 107.713M193.127 125.105C194.543 123.615 198.036 121.287 200.687 123.901M189.692 124.237L184.56 123.356L189.576 124.59M189.692 124.237C189.65 124.353 189.611 124.471 189.576 124.59M189.576 124.59C189.472 124.947 189.4 125.322 189.363 125.715M189.363 125.715L183.929 127.144L189.335 126.521M189.363 125.715C189.339 125.976 189.329 126.244 189.335 126.521M189.335 126.521C189.339 126.659 189.346 126.799 189.357 126.942C189.388 127.354 189.48 127.726 189.627 128.059M189.627 128.059L186.095 131.077L190.087 128.791M189.627 128.059C189.746 128.327 189.9 128.571 190.087 128.791" stroke="#3E1F01" stroke-width="0.735718" stroke-linecap="round"/>
<path d="M273.233 41.6556C272.646 39.7719 272.307 38.4714 272.295 37.977C272.24 35.75 271.833 31.2686 276.709 29.1484C278.803 28.2383 271.598 23.5519 267.881 19.584L271.559 15.9055C273.399 18.6031 277.004 23.8512 276.709 23.2626C276.415 22.6741 274.38 17.1317 273.399 14.434L278.549 12.5947L278.917 22.5269L279.652 17.3769L284.802 18.8483L282.227 27.6769C284.802 27.6769 290.247 29.0012 291.424 34.2984C291.771 35.8621 292.324 39.6621 292.927 44.5984M273.233 41.6556C276.354 41.6556 282.816 41.3613 283.699 40.1841M273.233 41.6556C274.599 46.042 277.313 53.591 280.388 61.4878M283.331 47.1735C286.295 47.0508 292.363 46.3642 292.927 44.5984M292.927 44.5984C293.584 49.9771 294.3 56.7049 294.875 63.3592M281.124 53.427C283.331 53.427 288.04 53.0592 289.217 51.5878M280.388 61.4878C282.35 61.4985 286.568 61.1521 287.745 59.6806M280.388 61.4878C282.5 66.9109 284.783 72.4981 286.918 77.3379M294.875 63.3592C293.847 64.5854 290.982 66.8907 287.745 66.3021M294.875 63.3592C295.453 70.0456 295.889 76.6577 295.978 81.7522M286.918 77.3379C290.705 85.9245 294.027 92.1583 295.102 90.9486C295.832 90.1277 296.064 86.6378 295.978 81.7522M286.918 77.3379C288.175 77.3379 290.835 77.0436 291.424 75.8664M291.056 81.7522C292.702 81.9974 295.99 82.3407 295.978 81.7522" stroke="#3E1F01" stroke-width="0.735718" stroke-linecap="round"/>
<path d="M376.955 87.3834C377.731 86.0752 378.301 85.2102 378.578 84.9481C379.826 83.7673 382.183 81.2219 385.914 82.9214C387.515 83.6509 386.483 77.1055 386.838 72.9283L390.843 73.1376C390.247 75.5833 389.1 80.3566 389.286 79.8843C389.471 79.412 391.596 75.386 392.635 73.432L396.346 75.4334L390.846 80.7692L394.176 78.5332L395.991 82.2429L389.604 85.3233C390.933 86.7985 392.983 90.6009 390.556 94.0086C389.84 95.0146 387.948 97.292 385.431 100.184M376.955 87.3834C378.565 89.1713 382.068 92.7217 383.198 92.62M376.955 87.3834C375.147 90.4298 372.222 95.8794 369.285 101.716M379.004 96.0158C380.604 97.6505 384.129 100.773 385.431 100.184M385.431 100.184C382.688 103.336 379.204 107.218 375.688 110.981M374.283 97.9782C375.421 99.2427 378.062 101.75 379.512 101.666M369.285 101.716C370.291 102.846 372.666 105.083 374.117 104.999M369.285 101.716C367.268 105.724 365.245 109.915 363.574 113.636M375.688 110.981C374.455 111.025 371.656 110.573 370.323 108.415M375.688 110.981C372.156 114.763 368.593 118.424 365.72 121.104M363.574 113.636C360.609 120.236 358.752 125.356 360 125.348C360.847 125.342 362.966 123.674 365.72 121.104M363.574 113.636C364.222 114.356 365.764 115.728 366.742 115.458M363.18 118.284C363.889 119.354 365.389 121.415 365.72 121.104" stroke="#3E1F01" stroke-width="0.567251" stroke-linecap="round"/>
<path d="M335.843 20.4088C335.843 22.6159 331.428 26.2945 331.428 24.0874C331.428 22.3217 327.014 20.8993 324.807 20.4088C322.232 19.6726 316.714 21.8803 318.186 28.8697C319.657 35.859 331.428 34.0197 338.786 31.8125C339.851 31.493 340.846 31.5666 341.773 31.9262M335.843 20.4088C335.843 18.2016 325.543 13.4195 321.864 13.7873C320.243 13.9494 316.622 11.9689 313.771 8.97868M335.843 20.4088L342.832 16.3625M313.771 8.97868C310.152 5.18262 307.773 -0.240704 312.3 -4.97342C320.393 -13.4342 325.543 -7.91629 328.486 -4.97342C329.415 -4.04458 330.38 -2.34616 331.428 -0.37553M313.771 8.97868L320.393 2.75169M324.807 5.69456L331.428 -0.37553M331.428 -0.37553C333.702 3.89744 336.365 9.45025 339.889 11.2124C343.209 12.872 342.096 7.65523 341.773 2.75169M328.486 12.6839L331.428 7.90171M341.773 2.75169C341.594 0.0471518 341.655 -2.5621 342.832 -3.86977C346.143 -7.54836 354.236 -5.70906 354.236 -0.191182C354.236 2.60182 354.142 7.65681 354.478 12.6839M341.773 2.75169H349.454M345.775 11.2124L354.478 12.6839M354.478 12.6839C354.806 17.5883 355.544 22.4662 357.179 25.1911C360.489 30.709 367.111 38.0661 363.064 42.8483C359.018 47.6305 351.661 46.159 350.925 46.159C350.296 46.159 347.245 34.0509 341.773 31.9262M341.773 31.9262L347.614 27.3982M350.925 37.3304C353.5 36.6794 358.724 35.0323 359.018 33.6518" stroke="#3E1F01" stroke-width="0.735718" stroke-linecap="round"/>
<path d="M206.7 48.5893C205.986 48.9807 203.994 48.1706 204.708 47.7792C205.279 47.466 204.937 45.7512 204.695 44.9329C204.465 43.9491 202.748 42.5127 200.755 44.2399C198.762 45.967 201.496 49.5408 203.547 51.587C203.843 51.8831 204.001 52.2261 204.053 52.5967M206.7 48.5893C207.414 48.1978 207.089 43.9371 206.302 42.7835C205.955 42.2753 205.937 40.7244 206.386 39.2494M206.7 48.5893L209.279 50.1874M206.386 39.2494C206.956 37.377 208.278 35.6268 210.631 36.2873C214.838 37.468 213.989 40.1531 213.572 41.65C213.44 42.1225 213.067 42.7436 212.62 43.4404M206.386 39.2494L209.603 40.3388M209.454 42.3232L212.62 43.4404M212.62 43.4404C211.651 44.9514 210.339 46.8187 210.409 48.2989C210.476 49.693 211.961 48.3993 213.488 47.4223M207.862 44.7817L209.943 44.9085M213.488 47.4223C214.33 46.8835 215.185 46.441 215.822 46.599C217.613 47.0434 218.489 50.051 216.704 51.0296C215.801 51.525 214.149 52.3903 212.584 53.3933M213.488 47.4223L214.884 49.9672M211.479 50.249L212.584 53.3933M212.584 53.3933C211.058 54.3719 209.614 55.4815 209.03 56.5064C207.847 58.582 206.671 62.0807 204.389 61.5882C202.107 61.0957 201.246 58.3972 201.112 58.1534C200.998 57.9449 204.36 54.7867 204.053 52.5967M204.053 52.5967L206.578 53.7291M203.968 56.5876C204.646 57.3253 206.128 58.7638 206.628 58.6164" stroke="#3E1F01" stroke-width="0.735718" stroke-linecap="round"/>
<path d="M286.357 -14.7427C285.979 -15.4635 286.825 -17.4402 287.203 -16.7194C287.506 -16.1427 289.227 -16.4534 290.049 -16.6808C291.037 -16.8926 292.505 -18.5826 290.814 -20.6069C289.124 -22.6312 285.501 -19.9632 283.417 -17.9502C283.116 -17.6588 282.77 -17.508 282.399 -17.4628M286.357 -14.7427C286.735 -14.0219 291.001 -14.2689 292.169 -15.0351C292.684 -15.3727 294.235 -15.3617 295.701 -14.8859M286.357 -14.7427L284.712 -12.1937M295.701 -14.8859C297.563 -14.2817 299.289 -12.9284 298.585 -10.5877C297.328 -6.40315 294.659 -7.30071 293.17 -7.74505C292.7 -7.8853 292.086 -8.27044 291.397 -8.72992M295.701 -14.8859L294.553 -11.6893M292.572 -11.8752L291.397 -8.72992M291.397 -8.72992C289.904 -9.72621 288.061 -11.072 286.58 -11.0285C285.185 -10.9876 286.451 -9.47918 287.4 -7.93457M290.143 -13.5118L289.978 -11.4332M287.4 -7.93457C287.923 -7.08265 288.35 -6.21973 288.181 -5.58596C287.704 -3.80312 284.681 -2.98255 283.735 -4.78465C283.256 -5.69683 282.421 -7.36431 281.447 -8.94707M287.4 -7.93457L284.83 -6.58563M284.61 -9.99489L281.447 -8.94707M281.447 -8.94707C280.496 -10.4912 279.413 -11.9547 278.399 -12.5575C276.345 -13.7782 272.868 -15.0181 273.403 -17.2906C273.937 -19.5631 276.65 -20.3746 276.897 -20.5038C277.107 -20.6143 280.203 -17.1956 282.399 -17.4628M282.399 -17.4628L281.22 -14.9581M278.41 -17.6204C277.66 -16.9556 276.195 -15.5003 276.333 -14.9977" stroke="#3E1F01" stroke-width="0.735718" stroke-linecap="round"/>
<path d="M373.095 8.06442C372.717 7.34358 373.563 5.36693 373.942 6.08777C374.244 6.66445 375.965 6.35375 376.788 6.12631C377.776 5.91449 379.243 4.22448 377.553 2.20023C375.862 0.17597 372.239 2.84394 370.156 4.8569C369.854 5.14828 369.508 5.29909 369.137 5.34432M373.095 8.06442C373.474 8.78526 377.74 8.53819 378.907 7.77201C379.422 7.43442 380.973 7.44538 382.439 7.92126M373.095 8.06442L371.451 10.6134M382.439 7.92126C384.301 8.52538 386.027 9.87877 385.324 12.2195C384.066 16.404 381.397 15.5064 379.908 15.0621C379.438 14.9218 378.824 14.5367 378.135 14.0772M382.439 7.92126L381.292 11.1178M379.31 10.9319L378.135 14.0772M378.135 14.0772C376.642 13.0809 374.799 11.7351 373.318 11.7786C371.923 11.8195 373.189 13.328 374.138 14.8726M376.881 9.29531L376.716 11.3739M374.138 14.8726C374.662 15.7245 375.089 16.5874 374.919 17.2212C374.442 19.004 371.419 19.8246 370.473 18.0225C369.994 17.1103 369.159 15.4428 368.185 13.8601M374.138 14.8726L371.568 16.2215M371.349 12.8122L368.185 13.8601M368.185 13.8601C367.234 12.3159 366.151 10.8524 365.137 10.2496C363.083 9.02893 359.607 7.78899 360.141 5.51652C360.675 3.24406 363.389 2.43255 363.635 2.30334C363.845 2.19284 366.942 5.61153 369.137 5.34432M369.137 5.34432L367.959 7.84907M365.148 5.18671C364.398 5.85155 362.933 7.30686 363.071 7.8094" stroke="#3E1F01" stroke-width="0.735718" stroke-linecap="round"/>
<path d="M310.34 41.8401C295.625 44.0472 303.35 60.233 307.397 63.1759C310.634 65.5302 311.934 71.2688 312.179 73.8438C313.65 76.9093 317.035 82.4517 318.801 80.0974C320.566 77.7431 318.801 72.9854 317.697 70.9009M310.34 41.8401C314.264 37.7936 323.877 31.9079 330.94 40.7365M310.34 41.8401C305.557 51.7723 316.226 66.8544 317.697 70.9009M330.94 40.7365C333.024 42.6984 335.575 50.2272 329.101 64.6473C328.41 67.7935 327.172 72.9375 326.054 76.4188M330.94 40.7365C334.005 39.7555 340.504 39.0443 341.976 44.0472C343.815 50.3008 336.826 61.7044 336.826 62.4401C336.826 63.1759 330.94 74.9473 330.94 77.5223C330.94 80.0974 327.789 80.4652 326.054 76.4188M317.697 70.9009C319.168 74.9473 322.847 80.4652 324.318 80.0974C324.759 79.9872 325.385 78.5002 326.054 76.4188M318.801 44.0472C319.536 41.8401 308.868 50.6687 319.904 63.1759" stroke="#3E1F01" stroke-width="0.735718" stroke-linecap="round"/>
<path d="M207.437 92.836C202.079 87.8862 197.925 95.9975 197.972 98.4869C198.011 100.478 196.1 102.802 195.141 103.714C194.356 105.254 193.159 108.315 194.641 108.245C196.123 108.175 197.498 105.985 198 104.898M207.437 92.836C210.255 93.057 215.54 94.8786 214.141 100.397M207.437 92.836C201.994 94.156 199.178 103.047 198 104.898M214.141 100.397C213.986 101.821 211.737 105.194 203.977 107.29C202.503 108.025 200.061 109.185 198.323 109.861M214.141 100.397C215.466 101.263 217.727 103.533 216.165 105.688C214.212 108.382 207.507 109.322 207.211 109.556C206.916 109.79 200.399 111.27 199.364 112.089C198.33 112.907 197.225 111.814 198.323 109.861M198 104.898C196.821 106.749 195.723 109.916 196.318 110.364C196.496 110.498 197.283 110.266 198.323 109.861M209.122 96.7871C210.232 96.3682 203.444 95.077 201.773 103.291" stroke="#3E1F01" stroke-width="0.735718" stroke-linecap="round"/>
<path d="M378.912 32.4778C379.157 35.4207 378.176 43.1457 360.519 54.9172C352.426 58.9636 339.036 61.6122 342.862 78.0923C346.688 94.5724 365.792 87.1662 374.865 81.403C382.974 76.253 393.7 48.7372 393.994 37.26M378.912 32.4778L384.798 30.2706L386.084 37.26C387.249 35.6659 389.727 32.4043 390.316 32.11C390.904 31.8157 393.013 35.4207 393.994 37.26M378.912 32.4778L377.073 32.8456C378.054 29.167 381.34 22.3248 386.637 24.3848M393.994 37.26L395.466 38.3636L395.833 32.11C393.626 25.1206 391.787 25.4886 390.316 25.1207M386.637 24.3848C386.882 24.8754 387.373 25.93 387.373 26.2243C387.373 26.5922 388.844 24.7529 390.316 25.1207M386.637 24.3848C386.882 21.8099 388.182 17.1014 391.419 18.8671C391.91 19.1123 392.964 19.897 393.258 21.0742C393.553 22.2513 391.419 24.2624 390.316 25.1207M357.208 61.9065C353.734 62.2743 346.957 65.3644 347.644 74.7815M348.38 77.3566C348.747 78.7054 350.072 81.5501 352.426 82.1387" stroke="#3E1F01" stroke-width="0.735718"/>
<path d="M459.208 93.4413L453.253 88.8765C445.468 96.9374 426.838 113.278 414.605 114.153C400.949 115.13 386.37 115.326 383.921 122.03M459.208 93.4413L441.221 109.196M459.208 93.4413L466.553 85.164L473.486 88.5704M473.67 114.892L469.615 123.146C451.45 113.402 424.202 122.147 420.089 122.176C416.304 122.202 389.172 132.289 384.316 126.584M473.67 114.892L453.673 111.381M473.67 114.892L485.203 117.279L488.447 110.675C487.935 107.965 480.397 106.369 472.544 105.506M441.221 109.196L422.198 117.884M441.221 109.196L453.673 111.381M473.486 88.5704L459.513 104.657M473.486 88.5704L476.591 85.5874L483.855 89.1559L472.544 105.506M453.673 111.381L459.513 104.657M459.513 104.657C463.003 104.732 467.83 104.987 472.544 105.506M387.356 122.898C388.771 121.408 392.265 119.08 394.915 121.694M383.921 122.03L378.789 121.149L383.805 122.383M383.921 122.03C383.878 122.146 383.84 122.264 383.805 122.383M383.805 122.383C383.7 122.74 383.629 123.115 383.592 123.508M383.592 123.508L378.157 124.937L383.564 124.314M383.592 123.508C383.567 123.769 383.558 124.037 383.564 124.314M383.564 124.314C383.567 124.452 383.574 124.592 383.585 124.735C383.617 125.147 383.709 125.519 383.856 125.852M383.856 125.852L380.323 128.87L384.316 126.584M383.856 125.852C383.974 126.12 384.128 126.364 384.316 126.584" stroke="#3E1F01" stroke-width="0.735718" stroke-linecap="round"/>
</svg>
