<svg width="383" height="121" viewBox="0 0 383 121" fill="none" xmlns="http://www.w3.org/2000/svg">
<path d="M-19.7622 67.5068C-29.4614 68.9328 -31.1011 74.6125 -30.6475 78.3921C-29.8916 80.6599 -27.7448 85.2862 -25.2048 85.6491C-22.03 86.1026 -25.2048 87.0098 9.26527 88.3704C14.7787 88.5881 22.8719 88.3704 26.9539 87.0098C36.4995 83.8279 36.7809 73.1007 36.025 68.8675C32.3965 49.8182 18.7899 54.3538 10.1724 55.2609C1.55485 56.168 -4.33872 65.2391 -19.7622 67.5068Z" stroke="#3E1F01" stroke-width="0.907108" stroke-linecap="round"/>
<path d="M-24.2925 43.4684C-20.5129 43.4684 -12.5908 43.0148 -11.1394 41.2006M-35.178 44.3755C-37.8993 37.2698 -37.5365 22.7863 -14.3145 21.6978C-4.33624 23.512 13.8061 23.9655 22.4236 23.9655C34.216 26.6869 35.1231 39.3864 22.4236 42.1077C8.36343 46.1897 -5.24319 53.4465 -9.32518 55.2608C-14.4656 58.4356 -26.8328 60.7034 -35.178 44.3755ZM-29.7351 38.9328C-29.7351 27.594 -9.32518 20.7906 -6.1503 38.9328C-7.51096 53.5204 -29.7351 56.7121 -29.7351 38.9328Z" stroke="#3E1F01" stroke-width="0.907108" stroke-linecap="round"/>
<path d="M29.432 46.4205L20.8145 46.874L21.7216 50.956H29.432M29.432 46.4205V50.956M29.432 46.4205C29.432 41.7035 32.758 39.6172 34.4211 39.1636M29.432 50.956C29.2808 52.3167 30.067 55.3102 34.4211 56.3987M34.4211 39.1636L37.1424 40.5243L35.3282 43.2456L38.0495 45.5134L35.3282 47.7812L38.0495 50.956L36.2353 53.2238L37.1424 55.038L34.4211 56.3987M34.4211 39.1636C41.8291 38.4077 58.5482 39.5175 68.8912 42.3385C83.8585 46.4208 110.165 61.3877 104.722 81.3441C101.298 73.7532 88.596 57.7997 74.7874 55.038C65.7163 53.2238 43.6433 56.3987 34.4211 56.3987M47.1206 43.2456C52.4121 42.9432 64.1742 43.427 68.8912 47.7812" stroke="#3E1F01" stroke-width="0.907108" stroke-linecap="round"/>
<path d="M10.9007 101.993C11.3543 98.9691 10.4472 93.0124 3.1903 93.3752C-5.88078 93.8288 -36.7225 126.485 -29.9192 143.72C-29.4655 144.627 -27.5604 146.895 -23.5691 148.709M10.9007 101.993C-5.06463 108.887 -18.7314 136.009 -23.5691 148.709M10.9007 101.993C12.6207 101.596 16.3319 101.894 18.9343 105.621M-23.5691 148.709C-22.662 155.512 -16.7658 160.048 -9.50891 160.048M38.1143 129.206C33.5787 137.37 -2.25204 160.048 -9.50891 160.048M38.1143 129.206C41.3081 123.457 37.9799 122.206 34.9394 121.494M38.1143 129.206C39.0419 129.206 42.0776 127.309 43.9159 129.119M-9.50891 160.048C-9.81128 162.316 -8.69251 166.67 -1.79849 165.944C6.81904 165.037 45.3712 144.173 45.3712 134.649C45.3712 131.618 44.774 129.964 43.9159 129.119M10.9007 97.4573C14.0757 96.2478 21.4235 96.1874 25.4148 105.621M25.4148 105.621H18.9343M25.4148 105.621C28.1361 106.831 34.758 107.345 39.4749 99.7251C40.5332 102.295 43.1941 107.436 45.3712 107.436C41.4711 107.671 35.0768 109.699 34.2041 115.599M18.9343 105.621C19.3059 106.153 19.6548 106.756 19.9721 107.436C23.147 114.239 29.4968 119.228 31.7645 120.589C32.4354 120.991 33.662 121.195 34.9394 121.494M34.9394 121.494C34.1473 119.197 33.9604 117.247 34.2041 115.599M34.2041 115.599C38.9217 115.995 47.4686 119.253 43.9159 129.119" stroke="#3E1F01" stroke-width="0.907108"/>
<path d="M41.7296 162.198L34.388 156.57C24.7888 166.508 1.81939 186.655 -13.2644 187.735C-30.1008 188.939 -48.0761 189.181 -51.0963 197.447M41.7296 162.198L19.5527 181.623M41.7296 162.198L50.7857 151.992L59.3344 156.192M59.5614 188.645L54.5615 198.822C32.1651 186.808 -1.43106 197.591 -6.50183 197.626C-11.1693 197.659 -44.6216 210.095 -50.6093 203.061M59.5614 188.645L34.9049 184.317M59.5614 188.645L73.7808 191.588L77.7807 183.447C77.1489 180.105 67.8547 178.138 58.1722 177.072M19.5527 181.623L-3.90192 192.334M19.5527 181.623L34.9049 184.317M59.3344 156.192L42.106 176.027M59.3344 156.192L63.1627 152.514L72.1184 156.914L58.1722 177.072M34.9049 184.317L42.106 176.027M42.106 176.027C46.4084 176.119 52.3603 176.433 58.1722 177.072M-46.8609 198.517C-45.1158 196.679 -40.8086 193.809 -37.5406 197.032M-51.0963 197.447L-57.4237 196.36L-51.2392 197.882M-51.0963 197.447C-51.1484 197.59 -51.1961 197.735 -51.2392 197.882M-51.2392 197.882C-51.368 198.322 -51.4563 198.784 -51.502 199.269M-51.502 199.269L-58.2024 201.031L-51.5361 200.263M-51.502 199.269C-51.5323 199.59 -51.5438 199.921 -51.5361 200.263M-51.5361 200.263C-51.5322 200.433 -51.5236 200.606 -51.51 200.781C-51.4707 201.29 -51.3575 201.748 -51.1764 202.158M-51.1764 202.158L-55.5315 205.88L-50.6093 203.061M-51.1764 202.158C-51.0304 202.489 -50.8403 202.79 -50.6093 203.061" stroke="#3E1F01" stroke-width="0.907108" stroke-linecap="round"/>
<path d="M51.9053 95.6272C51.1818 93.3047 50.7644 91.7012 50.7493 91.0916C50.6813 88.3458 50.1799 82.8204 56.1919 80.2063C58.7726 79.0843 49.8902 73.3061 45.3066 68.4139L49.8422 63.8784C52.11 67.2044 56.5548 73.6751 56.1919 72.9495C55.8291 72.2238 53.3194 65.3902 52.11 62.0642L58.4597 59.7964L58.9133 72.0424L59.8204 65.6926L66.1701 67.5068L62.9953 78.3921C66.1701 78.3921 72.8827 80.0249 74.3341 86.5561C74.7626 88.4841 75.444 93.1693 76.1871 99.2556M51.9053 95.6272C55.7532 95.6272 63.7209 95.2643 64.8095 93.813M51.9053 95.6272C53.5903 101.036 56.9356 110.343 60.7275 120.08M64.3559 102.43C68.0102 102.279 75.4925 101.433 76.1871 99.2556M76.1871 99.2556C76.9969 105.887 77.8801 114.182 78.5893 122.387M61.6346 110.141C64.3559 110.141 70.1614 109.687 71.6128 107.873M60.7275 120.08C63.1464 120.093 68.3472 119.666 69.7986 117.851M60.7275 120.08C63.3315 126.766 66.1462 133.655 68.7783 139.622M78.5893 122.387C77.3221 123.899 73.7898 126.741 69.7986 126.015M78.5893 122.387C79.3019 130.631 79.839 138.783 79.9495 145.065M68.7783 139.622C73.4483 150.209 77.5439 157.895 78.8697 156.403C79.7694 155.391 80.0556 151.088 79.9495 145.065M68.7783 139.622C70.3279 139.622 73.6084 139.259 74.3341 137.808M73.8806 145.065C75.9098 145.367 79.9644 145.79 79.9495 145.065" stroke="#3E1F01" stroke-width="0.907108" stroke-linecap="round"/>
<path d="M129.099 69.4304C129.099 72.1517 123.656 76.6872 123.656 73.9659C123.656 71.7889 118.213 70.0351 115.492 69.4304C112.317 68.5226 105.514 71.2447 107.328 79.8623C109.143 88.4798 123.656 86.212 132.727 83.4907C134.04 83.0968 135.268 83.1875 136.41 83.6309M129.099 69.4304C129.099 66.7091 116.399 60.8128 111.864 61.2664C109.865 61.4662 105.401 59.0244 101.886 55.3375M129.099 69.4304L137.716 64.4414M101.886 55.3375C97.423 50.6572 94.4896 43.9704 100.071 38.1352C110.049 27.7034 116.4 34.5068 120.028 38.1352C121.173 39.2804 122.363 41.3745 123.656 43.8042M101.886 55.3375L110.05 47.6599M115.492 51.2884L123.656 43.8042M123.656 43.8042C126.459 49.0726 129.742 55.919 134.088 58.0917C138.181 60.1378 136.809 53.7058 136.41 47.6599M120.028 59.9059L123.656 54.0097M136.41 47.6599C136.19 44.3253 136.265 41.1082 137.716 39.4959C141.798 34.9604 151.777 37.2282 151.777 44.0315C151.777 47.4751 151.66 53.7077 152.075 59.9059M136.41 47.6599H145.88M141.345 58.0917L152.075 59.9059M152.075 59.9059C152.48 65.9529 153.389 71.9671 155.405 75.3267C159.487 82.13 167.651 91.2011 162.662 97.0973C157.673 102.994 148.602 101.179 147.695 101.179C146.919 101.179 143.157 86.2505 136.41 83.6309M136.41 83.6309L143.613 78.0481M147.695 90.294C150.87 89.4914 157.31 87.4605 157.673 85.7585" stroke="#3E1F01" stroke-width="0.907108" stroke-linecap="round"/>
<path d="M68.0844 26.0902C67.6179 25.2015 68.6614 22.7644 69.1279 23.6531C69.5011 24.3641 71.6227 23.9811 72.6369 23.7006C73.8549 23.4395 75.6642 21.3558 73.5799 18.8599C71.4956 16.3641 67.0285 19.6536 64.46 22.1355C64.0882 22.4948 63.6619 22.6807 63.2038 22.7365M68.0844 26.0902C68.551 26.979 73.8107 26.6744 75.2504 25.7297C75.8848 25.3135 77.797 25.327 79.6052 25.9137M68.0844 26.0902L66.0564 29.2331M79.6052 25.9137C81.9006 26.6586 84.0284 28.3273 83.1613 31.2132C81.6112 36.3726 78.3202 35.2659 76.4843 34.7181C75.9048 34.5451 75.1476 34.0703 74.2985 33.5038M79.6052 25.9137L78.1899 29.855M75.747 29.6257L74.2985 33.5038M74.2985 33.5038C72.4576 32.2754 70.1853 30.6161 68.3589 30.6696C66.6389 30.7201 68.2003 32.58 69.3703 34.4844M72.7521 27.6079L72.549 30.1707M69.3703 34.4844C70.0157 35.5348 70.5419 36.5987 70.3328 37.3801C69.7446 39.5783 66.0174 40.59 64.8511 38.3681C64.2607 37.2434 63.2311 35.1875 62.0299 33.236M69.3703 34.4844L66.2018 36.1476M65.9309 31.9441L62.0299 33.236M62.0299 33.236C60.8579 31.3322 59.5225 29.5277 58.2721 28.7845C55.7401 27.2794 51.4536 25.7506 52.112 22.9488C52.7704 20.1469 56.1164 19.1464 56.4199 18.9871C56.6795 18.8508 60.4972 23.0659 63.2038 22.7365M63.2038 22.7365L61.7511 25.8247M58.286 22.5421C57.3613 23.3619 55.5547 25.1562 55.7251 25.7758" stroke="#3E1F01" stroke-width="0.907108" stroke-linecap="round"/>
<path d="M169.762 60.56C169.296 59.6712 170.339 57.2341 170.806 58.1228C171.179 58.8339 173.3 58.4508 174.315 58.1704C175.533 57.9092 177.342 55.8255 175.258 53.3297C173.173 50.8338 168.706 54.1233 166.138 56.6052C165.766 56.9645 165.34 57.1504 164.882 57.2062M169.762 60.56C170.229 61.4487 175.488 61.1441 176.928 60.1994C177.563 59.7832 179.475 59.7967 181.283 60.3835M169.762 60.56L167.734 63.7028M181.283 60.3835C183.578 61.1283 185.706 62.797 184.839 65.683C183.289 70.8423 179.998 69.7356 178.162 69.1878C177.583 69.0149 176.825 68.54 175.976 67.9735M181.283 60.3835L179.868 64.3247M177.425 64.0954L175.976 67.9735M175.976 67.9735C174.135 66.7451 171.863 65.0858 170.037 65.1394C168.317 65.1898 169.878 67.0497 171.048 68.9541M174.43 62.0776L174.227 64.6404M171.048 68.9541C171.693 70.0045 172.22 71.0684 172.011 71.8498C171.422 74.048 167.695 75.0597 166.529 72.8378C165.938 71.7131 164.909 69.6572 163.708 67.7057M171.048 68.9541L167.88 70.6173M167.609 66.4138L163.708 67.7057M163.708 67.7057C162.536 65.8019 161.2 63.9974 159.95 63.2542C157.418 61.7492 153.131 60.2204 153.79 57.4185C154.448 54.6167 157.794 53.6161 158.098 53.4568C158.357 53.3206 162.175 57.5357 164.882 57.2062M164.882 57.2062L163.429 60.2945M159.964 57.0119C159.039 57.8316 157.232 59.6259 157.403 60.2455" stroke="#3E1F01" stroke-width="0.907108" stroke-linecap="round"/>
<path d="M97.6552 95.8545C79.513 98.5759 89.0376 118.532 94.0267 122.161C98.018 125.063 99.6206 132.139 99.9229 135.314C101.737 139.093 105.91 145.927 108.087 143.024C110.264 140.121 108.087 134.255 106.726 131.685M97.6552 95.8545C102.493 90.8654 114.346 83.6086 123.054 94.4939M97.6552 95.8545C91.7587 108.101 104.912 126.696 106.726 131.685M123.054 94.4939C125.625 96.9128 128.769 106.196 120.787 123.975C119.935 127.854 118.409 134.196 117.03 138.489M123.054 94.4939C126.834 93.2844 134.847 92.4075 136.661 98.5758C138.929 106.286 130.311 120.346 130.311 121.254C130.311 122.161 123.054 136.674 123.054 139.849C123.054 143.024 119.169 143.478 117.03 138.489M106.726 131.685C108.541 136.674 113.076 143.478 114.89 143.024C115.434 142.888 116.205 141.055 117.03 138.489M108.087 98.5758C108.994 95.8545 95.8412 106.74 109.448 122.161" stroke="#3E1F01" stroke-width="0.907108" stroke-linecap="round"/>
<path d="M182.201 84.3114C182.504 87.9398 181.294 97.4644 159.524 111.978C149.546 116.967 133.036 120.233 137.753 140.552C142.47 160.871 166.024 151.74 177.212 144.634C187.209 138.284 200.434 104.358 200.797 90.2076M182.201 84.3114L189.458 81.5899L191.044 90.2076C192.481 88.2422 195.536 84.2207 196.261 83.8578C196.987 83.495 199.587 87.9398 200.797 90.2076M182.201 84.3114L179.933 84.7648C181.143 80.2293 185.195 71.7932 191.726 74.3331M200.797 90.2076L202.611 91.5683L203.065 83.8578C200.343 75.2402 198.075 75.6939 196.261 75.2404M191.726 74.3331C192.028 74.9379 192.633 76.2382 192.633 76.601C192.633 77.0546 194.447 74.7868 196.261 75.2404M191.726 74.3331C192.028 71.1583 193.631 65.3529 197.622 67.53C198.227 67.8323 199.527 68.7998 199.89 70.2511C200.253 71.7025 197.622 74.182 196.261 75.2404M155.441 120.596C151.158 121.049 142.802 124.859 143.649 136.47M144.556 139.645C145.01 141.308 146.642 144.815 149.545 145.541" stroke="#3E1F01" stroke-width="0.907108"/>
<path d="M158.604 34.5094C156.717 32.9742 155.483 31.8689 155.133 31.3693C153.558 29.119 150.085 24.7921 153.65 19.2899C155.18 16.9281 144.584 17.0245 138.06 15.4823L139.331 9.19539C143.06 10.713 150.341 13.6472 149.637 13.2431C148.934 12.839 143.064 8.53258 140.218 6.42985L144.255 1.02947L151.403 10.9826L148.648 5.19018L154.942 3.19111L158.315 14.0167C160.961 12.2613 167.457 9.91044 172.277 14.5501C173.7 15.9197 176.859 19.4469 180.843 24.1074M158.604 34.5094C161.81 32.3819 168.249 27.6742 168.353 25.863M158.604 34.5094C162.998 38.0842 170.932 43.9901 179.475 50.0065M172.74 33.2943C175.701 31.1479 181.468 26.3055 180.843 24.1074M180.843 24.1074C185.184 29.1855 190.507 35.6092 195.634 42.0534M174.736 41.2237C177.003 39.719 181.59 36.1313 181.796 33.8171M179.475 50.0065C181.498 48.6801 185.595 45.4487 185.801 43.1345M179.475 50.0065C185.341 54.1383 191.495 58.3221 196.988 61.839M195.634 42.0534C195.414 44.0138 194.042 48.3351 190.315 49.9372M195.634 42.0534C200.786 48.5287 205.741 55.0248 209.306 60.1975M196.988 61.839C206.733 68.0785 214.395 72.2185 214.675 70.2427C214.865 68.9018 212.725 65.1583 209.306 60.1975M196.988 61.839C198.279 60.9822 200.812 58.8661 200.614 57.2555M204.249 63.5531C206.107 62.6831 209.719 60.794 209.306 60.1975" stroke="#3E1F01" stroke-width="0.907108" stroke-linecap="round"/>
<path d="M221.451 70.228C211.751 71.654 210.112 77.3336 210.565 81.1133C211.321 83.3811 213.468 88.0074 216.008 88.3703C219.183 88.8238 216.008 89.7309 250.478 91.0916C255.992 91.3092 264.085 91.0916 268.167 89.7309C277.712 86.5491 277.994 75.8219 277.238 71.5887C273.609 52.5394 260.003 57.075 251.385 57.9821C242.768 58.8892 236.874 67.9603 221.451 70.228Z" stroke="#3E1F01" stroke-width="0.907108" stroke-linecap="round"/>
<path d="M216.918 46.1895C220.698 46.1895 228.62 45.736 230.072 43.9218M206.033 47.0967C203.312 39.991 203.674 25.5075 226.896 24.4189C236.875 26.2332 255.017 26.6867 263.635 26.6867C275.427 29.408 276.334 42.1076 263.635 44.8289C249.574 48.9109 235.968 56.1677 231.886 57.982C226.745 61.1568 214.378 63.4246 206.033 47.0967ZM211.476 41.654C211.476 30.3152 231.886 23.5118 235.061 41.654C233.7 56.2416 211.476 59.4333 211.476 41.654Z" stroke="#3E1F01" stroke-width="0.907108" stroke-linecap="round"/>
<path d="M270.645 49.1422L262.027 49.5957L262.934 53.6777H270.645M270.645 49.1422V53.6777M270.645 49.1422C270.645 44.4252 273.971 42.3389 275.634 41.8853M270.645 53.6777C270.494 55.0384 271.28 58.0318 275.634 59.1204M275.634 41.8853L278.355 43.246L276.541 45.9673L279.262 48.2351L276.541 50.5028L279.262 53.6777L277.448 55.9455L278.355 57.7597L275.634 59.1204M275.634 41.8853C283.042 41.1294 299.761 42.2392 310.104 45.0602C325.071 49.1425 351.378 64.1094 345.935 84.0658C342.511 76.4748 329.809 60.5214 316 57.7597C306.929 55.9455 284.856 59.1204 275.634 59.1204M288.333 45.9673C293.625 45.6649 305.387 46.1487 310.104 50.5028" stroke="#3E1F01" stroke-width="0.907108" stroke-linecap="round"/>
<path d="M365.891 26.5592L357.273 27.0127L358.181 31.0947H365.891M365.891 26.5592V31.0947M365.891 26.5592C365.891 21.8422 369.217 19.7559 370.88 19.3023M365.891 31.0947C365.74 32.4554 366.526 35.4488 370.88 36.5374M370.88 19.3023L373.601 20.663L371.787 23.3843L374.508 25.6521L371.787 27.9198L374.508 31.0947L372.694 33.3625L373.601 35.1767L370.88 36.5374M370.88 19.3023C378.288 18.5464 395.007 19.6562 405.35 22.4772C420.317 26.5594 446.624 41.5264 441.181 61.4828C437.757 53.8918 425.055 37.9384 411.246 35.1767C402.175 33.3625 380.102 36.5374 370.88 36.5374M383.58 23.3843C388.871 23.0819 400.633 23.5657 405.35 27.9198" stroke="#3E1F01" stroke-width="0.907108" stroke-linecap="round"/>
<path d="M252.114 104.714C252.567 101.69 251.66 95.7336 244.403 96.0964C235.332 96.55 204.49 129.206 211.294 146.441C211.747 147.348 213.653 149.616 217.644 151.43M252.114 104.714C236.148 111.608 222.482 138.731 217.644 151.43M252.114 104.714C253.834 104.317 257.545 104.615 260.147 108.342M217.644 151.43C218.551 158.233 224.447 162.769 231.704 162.769M279.327 131.927C274.792 140.091 238.961 162.769 231.704 162.769M279.327 131.927C282.521 126.179 279.193 124.928 276.152 124.216M279.327 131.927C280.255 131.927 283.29 130.03 285.129 131.841M231.704 162.769C231.402 165.037 232.52 169.391 239.414 168.665C248.032 167.758 286.584 146.895 286.584 137.37C286.584 134.339 285.987 132.686 285.129 131.841M252.114 100.178C255.289 98.969 262.636 98.9085 266.628 108.342M266.628 108.342H260.147M266.628 108.342C269.349 109.552 275.971 110.066 280.688 102.446C281.746 105.016 284.407 110.157 286.584 110.157C282.684 110.392 276.29 112.42 275.417 118.321M260.147 108.342C260.519 108.875 260.868 109.477 261.185 110.157C264.36 116.96 270.71 121.949 272.977 123.31C273.648 123.712 274.875 123.916 276.152 124.216M276.152 124.216C275.36 121.918 275.173 119.968 275.417 118.321M275.417 118.321C280.135 118.716 288.681 121.974 285.129 131.841" stroke="#3E1F01" stroke-width="0.907108"/>
<path d="M282.941 164.919L275.599 159.291C266 169.23 243.03 189.377 227.947 190.456C211.11 191.661 193.135 191.903 190.115 200.169M282.941 164.919L260.764 184.344M282.941 164.919L291.997 154.714L300.545 158.914M300.772 191.367L295.772 201.544C273.376 189.53 239.78 200.313 234.709 200.348C230.042 200.381 196.589 212.817 190.602 205.783M300.772 191.367L276.116 187.039M300.772 191.367L314.992 194.31L318.992 186.168C318.36 182.826 309.066 180.859 299.383 179.794M260.764 184.344L237.309 195.056M260.764 184.344L276.116 187.039M300.545 158.914L283.317 178.748M300.545 158.914L304.374 155.236L313.329 159.636L299.383 179.794M276.116 187.039L283.317 178.748M283.317 178.748C287.619 178.84 293.571 179.155 299.383 179.794M194.35 201.239C196.095 199.401 200.402 196.531 203.67 199.754M190.115 200.169L183.787 199.081L189.972 200.604M190.115 200.169C190.062 200.311 190.015 200.456 189.972 200.604M189.972 200.604C189.843 201.044 189.755 201.506 189.709 201.991M189.709 201.991L183.009 203.752L189.675 202.985M189.709 201.991C189.679 202.312 189.667 202.643 189.675 202.985M189.675 202.985C189.679 203.155 189.687 203.327 189.701 203.503C189.74 204.012 189.853 204.469 190.034 204.88M190.034 204.88L185.679 208.602L190.602 205.783M190.034 204.88C190.181 205.211 190.371 205.511 190.602 205.783" stroke="#3E1F01" stroke-width="0.907108" stroke-linecap="round"/>
<path d="M293.116 98.3484C292.393 96.0259 291.975 94.4224 291.96 93.8128C291.892 91.067 291.391 85.5416 297.403 82.9275C299.984 81.8054 291.101 76.0273 286.518 71.1351L291.053 66.5996C293.321 69.9256 297.766 76.3963 297.403 75.6707C297.04 74.945 294.53 68.1114 293.321 64.7853L299.671 62.5176L300.124 74.7635L301.031 68.4138L307.381 70.228L304.206 81.1133C307.381 81.1133 314.094 82.7461 315.545 89.2773C315.973 91.2053 316.655 95.8905 317.398 101.977M293.116 98.3484C296.964 98.3484 304.932 97.9855 306.02 96.5341M293.116 98.3484C294.801 103.757 298.147 113.064 301.938 122.801M305.567 105.152C309.221 105 316.703 104.154 317.398 101.977M317.398 101.977C318.208 108.608 319.091 116.904 319.8 125.108M302.846 112.862C305.567 112.862 311.372 112.409 312.824 110.594M301.938 122.801C304.357 122.814 309.558 122.387 311.01 120.573M301.938 122.801C304.542 129.487 307.357 136.376 309.989 142.343M319.8 125.108C318.533 126.62 315.001 129.462 311.01 128.736M319.8 125.108C320.513 133.352 321.05 141.505 321.16 147.786M309.989 142.343C314.659 152.93 318.755 160.616 320.081 159.125C320.98 158.112 321.267 153.81 321.16 147.786M309.989 142.343C311.539 142.343 314.819 141.98 315.545 140.529M315.091 147.786C317.121 148.088 321.175 148.511 321.16 147.786" stroke="#3E1F01" stroke-width="0.907108" stroke-linecap="round"/>
<path d="M370.311 72.1516C370.311 74.8729 364.869 79.4084 364.869 76.6871C364.869 74.51 359.426 72.7563 356.705 72.1516C353.53 71.2438 346.727 73.9659 348.541 82.5835C350.355 91.201 364.869 88.9332 373.94 86.2119C375.253 85.818 376.481 85.9087 377.623 86.3521M370.311 72.1516C370.311 69.4302 357.612 63.534 353.076 63.9876C351.078 64.1874 346.614 61.7455 343.099 58.0587M370.311 72.1516L378.929 67.1626M343.099 58.0587C338.636 53.3783 335.702 46.6916 341.284 40.8564C351.262 30.4246 357.613 37.2279 361.241 40.8564C362.386 42.0016 363.576 44.0957 364.869 46.5254M343.099 58.0587L351.263 50.3811M356.705 54.0095L364.869 46.5254M364.869 46.5254C367.672 51.7938 370.955 58.6402 375.301 60.8129C379.393 62.859 378.022 56.427 377.623 50.3811M361.241 62.6271L364.869 56.7309M377.623 50.3811C377.403 47.0465 377.478 43.8294 378.929 42.2171C383.011 37.6816 392.99 39.9494 392.99 46.7527C392.99 50.1963 392.873 56.4289 393.288 62.6271M377.623 50.3811H387.093M382.558 60.8129L393.288 62.6271M393.288 62.6271C393.692 68.6741 394.602 74.6883 396.618 78.0479C400.7 84.8512 408.864 93.9223 403.875 99.8185C398.886 105.715 389.815 103.901 388.908 103.901C388.132 103.901 384.37 88.9717 377.623 86.3521M377.623 86.3521L384.826 80.7692M388.908 93.0152C392.082 92.2126 398.523 90.1817 398.886 88.4797" stroke="#3E1F01" stroke-width="0.907108" stroke-linecap="round"/>
<path d="M211.083 106.897C210.203 107.38 207.747 106.381 208.627 105.898C209.331 105.512 208.91 103.398 208.611 102.389C208.327 101.176 206.211 99.405 203.754 101.534C201.296 103.664 204.667 108.07 207.195 110.593C207.561 110.958 207.755 111.381 207.819 111.838M211.083 106.897C211.963 106.414 211.563 101.161 210.592 99.7389C210.164 99.1122 210.143 97.2001 210.696 95.3815M211.083 106.897L214.262 108.868M210.696 95.3815C211.399 93.0729 213.029 90.915 215.93 91.7293C221.117 93.1851 220.07 96.4957 219.556 98.3413C219.394 98.9238 218.933 99.6896 218.382 100.549M210.696 95.3815L214.663 96.7247M214.478 99.1714L218.382 100.549M218.382 100.549C217.187 102.412 215.57 104.714 215.657 106.539C215.739 108.258 217.57 106.663 219.452 105.458M212.515 102.203L215.081 102.359M219.452 105.458C220.491 104.794 221.545 104.248 222.33 104.443C224.539 104.991 225.618 108.699 223.418 109.906C222.304 110.517 220.267 111.584 218.338 112.82M219.452 105.458L221.173 108.596M216.975 108.943L218.338 112.82M218.338 112.82C216.456 114.027 214.676 115.395 213.956 116.659C212.497 119.218 211.047 123.531 208.234 122.924C205.42 122.317 204.359 118.99 204.194 118.689C204.053 118.432 208.198 114.538 207.819 111.838M207.819 111.838L210.933 113.234M207.714 116.759C208.551 117.668 210.378 119.442 210.994 119.26" stroke="#3E1F01" stroke-width="0.907108" stroke-linecap="round"/>
<path d="M309.297 28.8114C308.831 27.9227 309.874 25.4855 310.341 26.3743C310.714 27.0853 312.836 26.7022 313.85 26.4218C315.068 26.1607 316.877 24.0769 314.793 21.5811C312.709 19.0853 308.241 22.3748 305.673 24.8567C305.301 25.216 304.875 25.4019 304.417 25.4577M309.297 28.8114C309.764 29.7002 315.024 29.3956 316.463 28.4509C317.098 28.0347 319.01 28.0482 320.818 28.6349M309.297 28.8114L307.269 31.9543M320.818 28.6349C323.114 29.3798 325.241 31.0484 324.374 33.9344C322.824 39.0938 319.533 37.9871 317.697 37.4392C317.118 37.2663 316.36 36.7915 315.511 36.225M320.818 28.6349L319.403 32.5761M316.96 32.3469L315.511 36.225M315.511 36.225C313.671 34.9966 311.398 33.3372 309.572 33.3908C307.852 33.4413 309.413 35.3011 310.583 37.2056M313.965 30.3291L313.762 32.8919M310.583 37.2056C311.229 38.256 311.755 39.3199 311.546 40.1013C310.957 42.2995 307.23 43.3112 306.064 41.0893C305.474 39.9646 304.444 37.9087 303.243 35.9572M310.583 37.2056L307.415 38.8688M307.144 34.6653L303.243 35.9572M303.243 35.9572C302.071 34.0533 300.735 32.2489 299.485 31.5057C296.953 30.0006 292.666 28.4718 293.325 25.67C293.983 22.8681 297.329 21.8676 297.633 21.7083C297.892 21.572 301.71 25.7871 304.417 25.4577M304.417 25.4577L302.964 28.5459M299.499 25.2633C298.574 26.0831 296.768 27.8774 296.938 28.497" stroke="#3E1F01" stroke-width="0.907108" stroke-linecap="round"/>
<path d="M338.868 98.5757C320.726 101.297 330.251 121.253 335.24 124.882C339.231 127.785 340.833 134.86 341.136 138.035C342.95 141.815 347.123 148.648 349.3 145.745C351.477 142.843 349.3 136.977 347.939 134.406M338.868 98.5757C343.706 93.5866 355.559 86.3298 364.267 97.2151M338.868 98.5757C332.972 110.822 346.125 129.417 347.939 134.406M364.267 97.2151C366.837 99.634 369.982 108.917 362 126.696C361.148 130.575 359.622 136.918 358.243 141.21M364.267 97.2151C368.047 96.0056 376.06 95.1287 377.874 101.297C380.142 109.007 371.524 123.068 371.524 123.975C371.524 124.882 364.267 139.396 364.267 142.57C364.267 145.745 360.382 146.199 358.243 141.21M347.939 134.406C349.754 139.396 354.289 146.199 356.103 145.745C356.646 145.61 357.418 143.776 358.243 141.21M349.3 101.297C350.207 98.5757 337.054 109.461 350.661 124.882" stroke="#3E1F01" stroke-width="0.907108" stroke-linecap="round"/>
<path d="M423.414 87.0326C423.717 90.661 422.507 100.186 400.736 114.699C390.759 119.688 374.249 122.954 378.966 143.273C383.683 163.593 407.237 154.461 418.425 147.355C428.422 141.005 441.647 107.08 442.01 92.9288M423.414 87.0326L430.671 84.3111L432.257 92.9288C433.694 90.9634 436.748 86.9419 437.474 86.579C438.2 86.2162 440.8 90.661 442.01 92.9288M423.414 87.0326L421.146 87.486C422.356 82.9505 426.407 74.5144 432.939 77.0543M442.01 92.9288L443.824 94.2895L444.277 86.579C441.556 77.9614 439.288 78.4151 437.474 77.9616M432.939 77.0543C433.241 77.6591 433.846 78.9594 433.846 79.3222C433.846 79.7758 435.66 77.508 437.474 77.9616M432.939 77.0543C433.241 73.8794 434.844 68.0741 438.835 70.2511C439.44 70.5535 440.74 71.521 441.103 72.9723C441.465 74.4237 438.835 76.9032 437.474 77.9616M396.654 123.317C392.371 123.77 384.015 127.58 384.862 139.191M385.769 142.366C386.222 144.029 387.855 147.537 390.758 148.262" stroke="#3E1F01" stroke-width="0.907108"/>
</svg>
