<svg width="55" height="55" viewBox="0 0 55 55" fill="none" xmlns="http://www.w3.org/2000/svg">
<circle cx="27.5" cy="27.5" r="27.5" fill="#EFD4CB"/>
<path d="M29.2199 37.6298C28.0399 37.6298 26.3699 36.7998 25.0499 32.8298L24.3299 30.6698L22.1699 29.9498C18.2099 28.6298 17.3799 26.9598 17.3799 25.7798C17.3799 24.6098 18.2099 22.9298 22.1699 21.5998L30.6599 18.7698C32.7799 18.0598 34.5499 18.2698 35.6399 19.3498C36.7299 20.4298 36.9399 22.2098 36.2299 24.3298L33.3999 32.8198C32.0699 36.7998 30.3999 37.6298 29.2199 37.6298ZM22.6399 23.0298C19.8599 23.9598 18.8699 25.0598 18.8699 25.7798C18.8699 26.4998 19.8599 27.5998 22.6399 28.5198L25.1599 29.3598C25.3799 29.4298 25.5599 29.6098 25.6299 29.8298L26.4699 32.3498C27.3899 35.1298 28.4999 36.1198 29.2199 36.1198C29.9399 36.1198 31.0399 35.1298 31.9699 32.3498L34.7999 23.8598C35.3099 22.3198 35.2199 21.0598 34.5699 20.4098C33.9199 19.7598 32.6599 19.6798 31.1299 20.1898L22.6399 23.0298Z" fill="#1E221B"/>
<path d="M25.1098 30.4C24.9198 30.4 24.7298 30.33 24.5798 30.18C24.2898 29.89 24.2898 29.41 24.5798 29.12L28.1598 25.53C28.4498 25.24 28.9298 25.24 29.2198 25.53C29.5098 25.82 29.5098 26.3 29.2198 26.59L25.6398 30.18C25.4998 30.33 25.2998 30.4 25.1098 30.4Z" fill="#1E221B"/>
</svg>
