<svg width="119" height="59" viewBox="0 0 119 59" fill="none" xmlns="http://www.w3.org/2000/svg">
<path d="M56.5 17V11L54.5 13" stroke="#CA4314" stroke-width="1.5" stroke-linecap="round" stroke-linejoin="round"/>
<path d="M56.5 11L58.5 13" stroke="#CA4314" stroke-width="1.5" stroke-linecap="round" stroke-linejoin="round"/>
<path d="M69.5 10V15C69.5 20 67.5 22 62.5 22H56.5C51.5 22 49.5 20 49.5 15V9C49.5 4 51.5 2 56.5 2H61.5" stroke="#CA4314" stroke-width="1.5" stroke-linecap="round" stroke-linejoin="round"/>
<path d="M69.5 10H65.5C62.5 10 61.5 9 61.5 6V2L69.5 10Z" stroke="#CA4314" stroke-width="1.5" stroke-linecap="round" stroke-linejoin="round"/>
<path d="M1.476 48.518V40.112H2.772V48.464C2.772 50.732 4.014 51.956 6.264 51.956C8.46 51.956 9.702 50.696 9.702 48.464V40.112H10.998V48.518C10.998 51.434 9.198 53.216 6.264 53.216C3.276 53.216 1.476 51.452 1.476 48.518ZM13.7765 56.798V44.288H14.8565L14.9825 46.052C15.5945 44.702 16.8185 44.054 18.2765 44.054C20.7965 44.054 22.3085 45.98 22.3085 48.608C22.3085 51.236 20.8505 53.216 18.2765 53.216C16.8005 53.216 15.6305 52.586 15.0185 51.326V56.798H13.7765ZM15.0365 48.644C15.0365 50.642 16.1525 52.1 18.0605 52.1C19.9505 52.1 21.0485 50.642 21.0485 48.644C21.0485 46.628 19.9505 45.188 18.0605 45.188C16.1525 45.188 15.0365 46.628 15.0365 48.644ZM25.5842 53H24.3422V39.878H25.5842V53ZM27.6137 48.644C27.6137 45.98 29.4857 44.054 32.0417 44.054C34.5977 44.054 36.4697 45.98 36.4697 48.644C36.4697 51.29 34.5977 53.216 32.0417 53.216C29.4857 53.216 27.6137 51.29 27.6137 48.644ZM28.8737 48.626C28.8737 50.678 30.1697 52.1 32.0417 52.1C33.8957 52.1 35.2097 50.678 35.2097 48.626C35.2097 46.61 33.8957 45.17 32.0417 45.17C30.1697 45.17 28.8737 46.61 28.8737 48.626ZM40.9582 53.216C39.1042 53.216 38.0062 52.172 38.0062 50.642C38.0062 49.04 39.2302 48.032 41.2642 47.87L44.1442 47.636V47.348C44.1442 45.638 43.1182 45.098 41.8402 45.098C40.3282 45.098 39.4282 45.782 39.4282 46.952H38.2942C38.2942 45.188 39.7342 44.054 41.8762 44.054C43.8922 44.054 45.3682 45.062 45.3682 47.366V53H44.3242L44.1622 51.47C43.6222 52.568 42.4342 53.216 40.9582 53.216ZM41.2462 52.208C43.0822 52.208 44.1442 50.93 44.1442 49.04V48.572L41.5702 48.77C39.9322 48.914 39.2662 49.634 39.2662 50.606C39.2662 51.668 40.0582 52.208 41.2462 52.208ZM51.2805 53.216C48.7425 53.216 47.2485 51.272 47.2485 48.662C47.2485 46.034 48.7425 44.054 51.3345 44.054C52.7745 44.054 53.9265 44.684 54.5385 45.944V39.878H55.7805V53H54.7005L54.5745 51.218C53.9625 52.568 52.7385 53.216 51.2805 53.216ZM51.4965 52.082C53.4045 52.082 54.5205 50.642 54.5205 48.626C54.5205 46.628 53.4045 45.17 51.4965 45.17C49.6065 45.17 48.5085 46.628 48.5085 48.626C48.5085 50.642 49.6065 52.082 51.4965 52.082ZM64.9304 40.112V53H63.6344V40.112H64.9304ZM69.036 53H67.794V44.288H68.874L69.018 45.53C69.45 44.612 70.422 44.054 71.646 44.054C73.014 44.054 74.04 44.774 74.454 45.908C74.85 44.774 75.912 44.054 77.316 44.054C79.206 44.054 80.448 45.278 80.448 47.294V53H79.242V47.546C79.242 46.052 78.414 45.17 77.082 45.17C75.624 45.17 74.76 46.268 74.76 47.618V53H73.536V47.528C73.536 46.052 72.69 45.188 71.376 45.188C69.918 45.188 69.036 46.268 69.036 47.6V53ZM85.4484 53.216C83.5944 53.216 82.4964 52.172 82.4964 50.642C82.4964 49.04 83.7204 48.032 85.7544 47.87L88.6344 47.636V47.348C88.6344 45.638 87.6084 45.098 86.3304 45.098C84.8184 45.098 83.9184 45.782 83.9184 46.952H82.7844C82.7844 45.188 84.2244 44.054 86.3664 44.054C88.3824 44.054 89.8584 45.062 89.8584 47.366V53H88.8144L88.6524 51.47C88.1124 52.568 86.9244 53.216 85.4484 53.216ZM85.7364 52.208C87.5724 52.208 88.6344 50.93 88.6344 49.04V48.572L86.0604 48.77C84.4224 48.914 83.7564 49.634 83.7564 50.606C83.7564 51.668 84.5484 52.208 85.7364 52.208ZM91.7567 48.392C91.7567 46.016 93.2867 44.054 95.8427 44.054C97.3547 44.054 98.5067 44.756 99.0647 46.034L99.1907 44.288H100.271V52.73C100.271 55.322 98.6147 57.014 96.0587 57.014C93.8267 57.014 92.2607 55.754 91.9187 53.648H93.1607C93.4307 55.052 94.5107 55.88 96.0767 55.88C97.8587 55.88 99.0467 54.674 99.0467 52.856V50.786C98.4527 52.01 97.2467 52.73 95.7527 52.73C93.2687 52.73 91.7567 50.768 91.7567 48.392ZM92.9987 48.374C92.9987 50.156 94.0967 51.614 95.9327 51.614C97.8227 51.614 98.9387 50.246 98.9387 48.374C98.9387 46.52 97.8587 45.152 95.9507 45.152C94.0787 45.152 92.9987 46.61 92.9987 48.374ZM106.516 53.216C103.96 53.216 102.25 51.38 102.25 48.644C102.25 45.926 103.942 44.054 106.426 44.054C108.784 44.054 110.386 45.728 110.386 48.194V48.806H103.456C103.546 50.93 104.662 52.154 106.534 52.154C107.956 52.154 108.874 51.542 109.198 50.39H110.386C109.918 52.226 108.568 53.216 106.516 53.216ZM106.426 45.116C104.788 45.116 103.708 46.196 103.492 47.906H109.144C109.144 46.232 108.064 45.116 106.426 45.116ZM111.634 50.552H112.822C112.822 51.56 113.578 52.19 114.802 52.19C116.152 52.19 116.944 51.614 116.944 50.678C116.944 49.958 116.584 49.544 115.558 49.292L114.064 48.914C112.552 48.536 111.814 47.744 111.814 46.556C111.814 45.026 113.092 44.054 114.964 44.054C116.8 44.054 117.988 45.062 118.042 46.682H116.836C116.8 45.674 116.098 45.08 114.928 45.08C113.704 45.08 113.02 45.602 113.02 46.538C113.02 47.204 113.488 47.672 114.442 47.906L115.936 48.284C117.448 48.662 118.132 49.364 118.132 50.624C118.132 52.19 116.8 53.216 114.82 53.216C112.858 53.216 111.634 52.172 111.634 50.552Z" fill="#CA4314"/>
</svg>
